<svg xmlns="http://www.w3.org/2000/svg" xmlns:xlink="http://www.w3.org/1999/xlink" version="1.1" width="1000" height="1000" viewBox="0 0 1000 1000" xml:space="preserve">
<desc>Created with Fabric.js 3.5.0</desc>
<defs>
</defs>
<rect x="0" y="0" width="100%" height="100%" fill="#ffffff"/>
<g transform="matrix(45.4545 0 0 45.4545 499.9997 499.9995)" id="533375">
<path style="stroke: none; stroke-width: 1; stroke-dasharray: none; stroke-linecap: butt; stroke-dashoffset: 0; stroke-linejoin: miter; stroke-miterlimit: 4; is-custom-font: none; font-file-url: none; fill: rgb(233,141,38); fill-rule: nonzero; opacity: 1;" vector-effect="non-scaling-stroke" transform=" translate(-7, -10)" d="M 7 0 C 3.13 0 0 3.13 0 7 C 0 12.25 7 20 7 20 C 7 20 14 12.25 14 7 C 14 3.13 10.87 0 7 0 Z M 7 9.5 C 6.33696 9.5 5.70107 9.23661 5.23223 8.76777 C 4.76339 8.29893 4.5 7.66304 4.5 7 C 4.5 6.33696 4.76339 5.70107 5.23223 5.23223 C 5.70107 4.76339 6.33696 4.5 7 4.5 C 7.66304 4.5 8.29893 4.76339 8.76777 5.23223 C 9.23661 5.70107 9.5 6.33696 9.5 7 C 9.5 7.66304 9.23661 8.29893 8.76777 8.76777 C 8.29893 9.23661 7.66304 9.5 7 9.5 Z" stroke-linecap="round"/>
</g>
</svg>