<svg xmlns="http://www.w3.org/2000/svg" xmlns:xlink="http://www.w3.org/1999/xlink" version="1.1" width="1000" height="1000" viewBox="0 0 1000 1000" xml:space="preserve">
<desc>Created with Fabric.js 3.5.0</desc>
<defs>
</defs>
<rect x="0" y="0" width="100%" height="100%" fill="#ffffff"/>
<g transform="matrix(50.0523 0 0 50.0523 499.9998 499.9999)" id="443616">
<path style="stroke: none; stroke-width: 1; stroke-dasharray: none; stroke-linecap: butt; stroke-dashoffset: 0; stroke-linejoin: miter; stroke-miterlimit: 4; is-custom-font: none; font-file-url: none; fill: rgb(233,141,38); fill-rule: nonzero; opacity: 1;" vector-effect="non-scaling-stroke" transform=" translate(-9.0814, -8.8933)" d="M 7.54975 10.3868 C 8.66308 11.5162 10.0102 12.3881 11.4964 12.9414 L 13.5071 11.3414 C 13.5667 11.3004 13.6374 11.2784 13.7098 11.2784 C 13.7821 11.2784 13.8528 11.3004 13.9124 11.3414 L 17.6458 13.7468 C 17.7875 13.832 17.9075 13.949 17.9962 14.0885 C 18.085 14.2281 18.14 14.3863 18.1571 14.5508 C 18.1742 14.7153 18.1528 14.8815 18.0946 15.0363 C 18.0364 15.1911 17.943 15.3303 17.8218 15.4428 L 16.0724 17.1708 C 15.8219 17.4183 15.514 17.6 15.1762 17.6995 C 14.8384 17.7991 14.4811 17.8135 14.1364 17.7414 C 10.6976 17.0312 7.52796 15.3678 4.98975 12.9414 C 2.50788 10.4909 0.790432 7.37282 0.0457524 3.96543 C -0.0278123 3.62604 -0.0124584 3.2734 0.0903263 2.94169 C 0.193111 2.60997 0.379841 2.31043 0.632419 2.0721 L 2.44575 0.322767 C 2.55797 0.207454 2.69481 0.11902 2.84604 0.0640887 C 2.99728 0.00915688 3.15898 -0.0108498 3.31904 0.00556662 C 3.4791 0.0219831 3.63337 0.0743973 3.7703 0.158885 C 3.90724 0.243372 4.02328 0.357743 4.10975 0.493434 L 6.59509 4.17877 C 6.63795 4.23664 6.66109 4.30675 6.66109 4.37877 C 6.66109 4.45079 6.63795 4.5209 6.59509 4.57877 L 4.95775 6.54677 C 5.52606 8.00327 6.41148 9.31499 7.54975 10.3868 Z" stroke-linecap="round"/>
</g>
</svg>