<svg xmlns="http://www.w3.org/2000/svg" xmlns:xlink="http://www.w3.org/1999/xlink" version="1.1" width="1000" height="1000" viewBox="0 0 1000 1000" xml:space="preserve">
<desc>Created with Fabric.js 3.5.0</desc>
<defs>
</defs>
<rect x="0" y="0" width="100%" height="100%" fill="#ffffff"/>
<g transform="matrix(44.192 0 0 44.192 500.0002 500.0002)" id="917442">
<path style="stroke: none; stroke-width: 1; stroke-dasharray: none; stroke-linecap: butt; stroke-dashoffset: 0; stroke-linejoin: miter; stroke-miterlimit: 4; is-custom-font: none; font-file-url: none; fill: rgb(233,141,38); fill-rule: nonzero; opacity: 1;" vector-effect="non-scaling-stroke" transform=" translate(-10.2857, -10.2857)" d="M 7.65402 2.76429 L 9.05223 5.14286 H 6.10714 C 5.2192 5.14286 4.5 4.42366 4.5 3.53571 C 4.5 2.64777 5.2192 1.92857 6.10714 1.92857 H 6.19554 C 6.7942 1.92857 7.35268 2.24598 7.65402 2.76429 Z M 2.57143 3.53571 C 2.57143 4.11429 2.71205 4.66071 2.95714 5.14286 H 1.28571 C 0.574554 5.14286 0 5.71741 0 6.42857 V 9 C 0 9.71116 0.574554 10.2857 1.28571 10.2857 H 19.2857 C 19.9969 10.2857 20.5714 9.71116 20.5714 9 V 6.42857 C 20.5714 5.71741 19.9969 5.14286 19.2857 5.14286 H 17.6143 C 17.8594 4.66071 18 4.11429 18 3.53571 C 18 1.58304 16.417 0 14.4643 0 H 14.3759 C 13.0942 0 11.9049 0.679018 11.254 1.78393 L 10.2857 3.43527 L 9.31741 1.78795 C 8.66652 0.679018 7.47723 0 6.19554 0 H 6.10714 C 4.15446 0 2.57143 1.58304 2.57143 3.53571 Z M 16.0714 3.53571 C 16.0714 4.42366 15.3522 5.14286 14.4643 5.14286 H 11.5192 L 12.9174 2.76429 C 13.2228 2.24598 13.7772 1.92857 14.3759 1.92857 H 14.4643 C 15.3522 1.92857 16.0714 2.64777 16.0714 3.53571 Z M 1.28571 11.5714 V 18.6429 C 1.28571 19.7076 2.14955 20.5714 3.21429 20.5714 H 9 V 11.5714 H 1.28571 Z M 11.5714 20.5714 H 17.3571 C 18.4219 20.5714 19.2857 19.7076 19.2857 18.6429 V 11.5714 H 11.5714 V 20.5714 Z" stroke-linecap="round"/>
</g>
</svg>