<svg width="24" height="24" viewBox="0 0 24 24" fill="none" xmlns="http://www.w3.org/2000/svg">
<g id="fa6-solid:gift">
<path id="Vector" d="M9.65402 4.76429L11.0522 7.14286H8.10714C7.2192 7.14286 6.5 6.42366 6.5 5.53571C6.5 4.64777 7.2192 3.92857 8.10714 3.92857H8.19554C8.7942 3.92857 9.35268 4.24598 9.65402 4.76429ZM4.57143 5.53571C4.57143 6.11429 4.71205 6.66071 4.95714 7.14286H3.28571C2.57455 7.14286 2 7.71741 2 8.42857V11C2 11.7112 2.57455 12.2857 3.28571 12.2857H21.2857C21.9969 12.2857 22.5714 11.7112 22.5714 11V8.42857C22.5714 7.71741 21.9969 7.14286 21.2857 7.14286H19.6143C19.8594 6.66071 20 6.11429 20 5.53571C20 3.58304 18.417 2 16.4643 2H16.3759C15.0942 2 13.9049 2.67902 13.254 3.78393L12.2857 5.43527L11.3174 3.78795C10.6665 2.67902 9.47723 2 8.19554 2H8.10714C6.15446 2 4.57143 3.58304 4.57143 5.53571ZM18.0714 5.53571C18.0714 6.42366 17.3522 7.14286 16.4643 7.14286H13.5192L14.9174 4.76429C15.2228 4.24598 15.7772 3.92857 16.3759 3.92857H16.4643C17.3522 3.92857 18.0714 4.64777 18.0714 5.53571ZM3.28571 13.5714V20.6429C3.28571 21.7076 4.14955 22.5714 5.21429 22.5714H11V13.5714H3.28571ZM13.5714 22.5714H19.3571C20.4219 22.5714 21.2857 21.7076 21.2857 20.6429V13.5714H13.5714V22.5714Z" fill="#5A730E"/>
</g>
</svg>
