<svg width="24" height="24" viewBox="0 0 24 24" fill="none" xmlns="http://www.w3.org/2000/svg">
<g id="phone icon">
<path id="Vector" d="M13.4502 13.3868C12.3369 14.5162 10.9898 15.3881 9.50358 15.9414L7.49291 14.3414C7.4333 14.3004 7.36263 14.2784 7.29025 14.2784C7.21787 14.2784 7.14719 14.3004 7.08758 14.3414L3.35424 16.7468C3.21251 16.832 3.09254 16.949 3.00379 17.0885C2.91504 17.2281 2.85996 17.3863 2.84289 17.5508C2.82582 17.7153 2.84723 17.8815 2.90543 18.0363C2.96363 18.1911 3.05703 18.3303 3.17825 18.4428L4.92758 20.1708C5.1781 20.4183 5.48601 20.6 5.82382 20.6995C6.16164 20.7991 6.51885 20.8135 6.86358 20.7414C10.3024 20.0312 13.472 18.3678 16.0102 15.9414C18.4921 13.4909 20.2096 10.3728 20.9542 6.96543C21.0278 6.62604 21.0125 6.2734 20.9097 5.94169C20.8069 5.60997 20.6202 5.31043 20.3676 5.0721L18.5542 3.32277C18.442 3.20745 18.3052 3.11902 18.154 3.06409C18.0027 3.00916 17.841 2.98915 17.681 3.00557C17.5209 3.02198 17.3666 3.0744 17.2297 3.15888C17.0928 3.24337 16.9767 3.35774 16.8902 3.49343L14.4049 7.17877C14.362 7.23664 14.3389 7.30675 14.3389 7.37877C14.3389 7.45079 14.362 7.5209 14.4049 7.57877L16.0422 9.54677C15.4739 11.0033 14.5885 12.315 13.4502 13.3868Z" fill="white"/>
</g>
</svg>
