<svg width="40" height="40" viewBox="0 0 40 40" fill="none" xmlns="http://www.w3.org/2000/svg">
<g opacity="0.2">
<path d="M39.8482 29.1072C39.4029 27.1443 37.8724 25.5235 35.9394 24.9593C34.426 24.5169 32.9885 24.7045 31.7858 25.3015C31.2102 25.5865 31.2646 26.4298 31.8731 26.6331L35.2264 27.7556C36.5122 28.2138 37.3841 29.5525 37.0734 31.0516C36.8572 32.0968 36.0182 32.9702 34.9816 33.2208C33.2935 33.6274 31.7686 32.5292 31.4665 30.9972L33.829 31.8191C34.5778 32.0668 35.3868 31.6616 35.6373 30.9127C35.8879 30.161 35.4813 29.3492 34.7281 29.1001L1.47188 18.2857C1.34875 18.2371 1.21559 18.2056 1.07384 18.2056C0.481082 18.2056 0 18.6866 0 19.2794C0 19.739 0.290654 20.1242 0.697283 20.2774L12.8861 24.4983V33.1549C12.8861 34.5652 13.7495 35.8739 15.1383 36.123C16.2537 36.3235 17.2603 35.8667 17.8845 35.0893L23.7764 28.3198L28.59 29.995C28.5757 30.1439 28.5471 30.2899 28.5471 30.4417C28.5471 33.6002 31.1157 36.1688 34.2728 36.1688C37.8666 36.1688 40.6973 32.8428 39.8482 29.1072ZM15.6681 33.331V33.2952L15.6953 33.2637L15.6681 33.2938L15.701 25.5091L20.8856 27.3132L15.6681 33.331Z" fill="#1A383F"/>
<path d="M38.614 11.8298H9.88793C9.12478 11.8298 8.50195 12.4541 8.50195 13.2158V13.306C8.50195 14.0692 9.12478 14.6934 9.88793 14.6934H10.2444L11.1909 19.0418C11.2982 19.5357 11.6591 19.9366 12.1387 20.0956L26.2519 24.7775C27.2785 25.1183 28.4096 24.8506 29.1756 24.0846L38.3233 14.6934H38.614C39.3771 14.6934 40 14.0692 40 13.3074V13.2158C40.0014 12.4541 39.3771 11.8298 38.614 11.8298Z" fill="#1A383F"/>
<circle cx="29.5" cy="12.5" r="6.3" fill="white" stroke="#1A383F"/>
<path d="M32.1753 10.4239C32.3408 10.2584 32.3408 9.99013 32.1753 9.82465C32.0098 9.65917 31.7415 9.65917 31.576 9.82465L29.4999 11.9008L27.4238 9.82465C27.2583 9.65917 26.99 9.65917 26.8245 9.82465C26.659 9.99013 26.659 10.2584 26.8245 10.4239L28.9007 12.5L26.8245 14.5761C26.659 14.7416 26.659 15.0099 26.8245 15.1754C26.99 15.3409 27.2583 15.3409 27.4238 15.1754L29.4999 13.0993L31.576 15.1754C31.7415 15.3409 32.0098 15.3409 32.1753 15.1754C32.3408 15.0099 32.3408 14.7416 32.1753 14.5761L30.0992 12.5L32.1753 10.4239Z" fill="#1A383F"/>
</g>
</svg>
