<svg width="24" height="24" viewBox="0 0 24 24" fill="none" xmlns="http://www.w3.org/2000/svg">
<g id="trusted 1">
<path id="Vector" fill-rule="evenodd" clip-rule="evenodd" d="M9.87574 2.22361C11.213 1.55498 12.787 1.55498 14.1243 2.22361L19.2298 4.77639C20.1615 5.24222 20.75 6.19444 20.75 7.23607V14.783C20.75 16.4208 19.9063 17.943 18.5175 18.811L13.4575 21.9735C12.5658 22.5308 11.4342 22.5308 10.5425 21.9735L5.4825 18.811C4.09369 17.943 3.25 16.4208 3.25 14.783V7.23607C3.25 6.19444 3.83851 5.24222 4.77016 4.77639L9.87574 2.22361ZM15.5303 10.5303C15.8232 10.2374 15.8232 9.76256 15.5303 9.46967C15.2374 9.17678 14.7626 9.17678 14.4697 9.46967L11 12.9393L9.53033 11.4697C9.23744 11.1768 8.76256 11.1768 8.46967 11.4697C8.17678 11.7626 8.17678 12.2374 8.46967 12.5303L10.4697 14.5303C10.6103 14.671 10.8011 14.75 11 14.75C11.1989 14.75 11.3897 14.671 11.5303 14.5303L15.5303 10.5303Z" fill="#5A730E"/>
</g>
</svg>
