<svg width="257" height="182" viewBox="0 0 257 182" fill="none" xmlns="http://www.w3.org/2000/svg">
<g clip-path="url(#clip0_1016_28)">
<path d="M256.68 78.3697V163.197C256.68 173.382 248.418 181.632 238.219 181.632H153.27C143.071 181.632 134.808 173.382 134.808 163.197V78.3697C134.808 68.1853 143.071 59.9346 153.27 59.9346H238.219C248.418 59.9346 256.68 68.1853 256.68 78.3697ZM117.462 24.1777C107.263 24.1777 99 32.4284 99 42.6129C99 52.7973 107.263 61.048 117.462 61.048C127.661 61.048 135.923 52.7973 135.923 42.6129C135.923 32.4284 127.661 24.1777 117.462 24.1777Z" fill="white"/>
<path fill-rule="evenodd" clip-rule="evenodd" d="M88.5 108C77.1748 108 68 117.162 68 128.471C68 139.78 77.1748 148.941 88.5 148.941C99.8251 148.941 109 139.78 109 128.471C109 117.162 99.8251 108 88.5 108Z" fill="white"/>
<path fill-rule="evenodd" clip-rule="evenodd" d="M188.46 0C178.814 0 171 7.80313 171 17.4351C171 27.0671 178.814 34.8702 188.46 34.8702C198.106 34.8702 205.92 27.0671 205.92 17.4351C205.92 7.80313 198.106 0 188.46 0Z" fill="white"/>
<path fill-rule="evenodd" clip-rule="evenodd" d="M14.9566 80C6.69384 80 0 86.6843 0 94.9351C0 103.186 6.69384 109.87 14.9566 109.87C23.2193 109.87 29.9131 103.186 29.9131 94.9351C29.9131 86.6843 23.2193 80 14.9566 80Z" fill="white"/>
</g>
<defs>
<clipPath id="clip0_1016_28">
<rect width="257" height="182" fill="white"/>
</clipPath>
</defs>
</svg>
