<svg width="16" height="19" viewBox="0 0 16 19" fill="none" xmlns="http://www.w3.org/2000/svg">
<path d="M15.7071 7.29289C16.0976 7.68342 16.0976 8.31658 15.7071 8.70711C15.3166 9.09763 14.6834 9.09763 14.2929 8.70711L15.7071 7.29289ZM8 1L7.29289 0.292893C7.68342 -0.0976312 8.31658 -0.0976312 8.70711 0.292893L8 1ZM1.70711 8.70711C1.31658 9.09763 0.683418 9.09763 0.292893 8.70711C-0.097631 8.31658 -0.097631 7.68342 0.292893 7.29289L1.70711 8.70711ZM9 18C9 18.5523 8.55228 19 8 19C7.44772 19 7 18.5523 7 18L9 18ZM14.2929 8.70711L7.29289 1.70711L8.70711 0.292893L15.7071 7.29289L14.2929 8.70711ZM8.70711 1.70711L1.70711 8.70711L0.292893 7.29289L7.29289 0.292893L8.70711 1.70711ZM9 1L9 18L7 18L7 1L9 1Z" fill="#1F5CA2"/>
</svg>
