<svg width="55" height="55" viewBox="0 0 55 55" fill="none" xmlns="http://www.w3.org/2000/svg">
<g clip-path="url(#clip0_23_346)">
<path d="M0 15C0 6.71573 6.71573 0 15 0H40C48.2843 0 55 6.71573 55 15V40C55 48.2843 48.2843 55 40 55H15C6.71573 55 0 48.2843 0 40V15Z" fill="#F6FAFD"/>
<path d="M15.5001 20.65H17.5001V19.35H15.5001V20.65ZM17.3501 20.5V33.5H18.6501V20.5H17.3501ZM17.5001 33.35H15.5001V34.65H17.5001V33.35ZM15.6501 33.5V20.5H14.3501V33.5H15.6501ZM15.5001 33.35C15.5829 33.35 15.6501 33.4172 15.6501 33.5H14.3501C14.3501 34.1351 14.865 34.65 15.5001 34.65V33.35ZM17.3501 33.5C17.3501 33.4172 17.4173 33.35 17.5001 33.35V34.65C18.1352 34.65 18.6501 34.1351 18.6501 33.5H17.3501ZM17.5001 20.65C17.4173 20.65 17.3501 20.5828 17.3501 20.5H18.6501C18.6501 19.8649 18.1352 19.35 17.5001 19.35V20.65ZM15.5001 19.35C14.865 19.35 14.3501 19.8649 14.3501 20.5H15.6501C15.6501 20.5828 15.5829 20.65 15.5001 20.65V19.35ZM20.5001 23.65H22.5001V22.35H20.5001V23.65ZM22.3501 23.5V33.5H23.6501V23.5H22.3501ZM22.5001 33.35H20.5001V34.65H22.5001V33.35ZM20.6501 33.5V23.5H19.3501V33.5H20.6501ZM20.5001 33.35C20.5829 33.35 20.6501 33.4172 20.6501 33.5H19.3501C19.3501 34.1351 19.865 34.65 20.5001 34.65V33.35ZM22.3501 33.5C22.3501 33.4172 22.4173 33.35 22.5001 33.35V34.65C23.1352 34.65 23.6501 34.1351 23.6501 33.5H22.3501ZM22.5001 23.65C22.4173 23.65 22.3501 23.5828 22.3501 23.5H23.6501C23.6501 22.8649 23.1352 22.35 22.5001 22.35V23.65ZM20.5001 22.35C19.865 22.35 19.3501 22.8649 19.3501 23.5H20.6501C20.6501 23.5828 20.5829 23.65 20.5001 23.65V22.35ZM25.5001 26.65H27.5001V25.35H25.5001V26.65ZM27.3501 26.5V33.5H28.6501V26.5H27.3501ZM27.5001 33.35H25.5001V34.65H27.5001V33.35ZM25.6501 33.5V26.5H24.3501V33.5H25.6501ZM25.5001 33.35C25.5829 33.35 25.6501 33.4172 25.6501 33.5H24.3501C24.3501 34.1351 24.865 34.65 25.5001 34.65V33.35ZM27.3501 33.5C27.3501 33.4172 27.4173 33.35 27.5001 33.35V34.65C28.1352 34.65 28.6501 34.1351 28.6501 33.5H27.3501ZM27.5001 26.65C27.4173 26.65 27.3501 26.5828 27.3501 26.5H28.6501C28.6501 25.8649 28.1352 25.35 27.5001 25.35V26.65ZM25.5001 25.35C24.865 25.35 24.3501 25.8649 24.3501 26.5H25.6501C25.6501 26.5828 25.5829 26.65 25.5001 26.65V25.35ZM40.3501 21.5C40.3501 24.1786 38.1787 26.35 35.5001 26.35V27.65C38.8967 27.65 41.6501 24.8966 41.6501 21.5H40.3501ZM35.5001 26.35C32.8215 26.35 30.6501 24.1786 30.6501 21.5H29.3501C29.3501 24.8966 32.1035 27.65 35.5001 27.65V26.35ZM30.6501 21.5C30.6501 18.8214 32.8215 16.65 35.5001 16.65V15.35C32.1035 15.35 29.3501 18.1034 29.3501 21.5H30.6501ZM35.5001 16.65C38.1787 16.65 40.3501 18.8214 40.3501 21.5H41.6501C41.6501 18.1034 38.8967 15.35 35.5001 15.35V16.65ZM34.8501 16V21.5H36.1501V16H34.8501ZM34.8501 21.5V27H36.1501V21.5H34.8501ZM30.0001 22.15H35.5001V20.85H30.0001V22.15Z" fill="url(#paint0_linear_23_346)"/>
<path d="M42.2159 13L42.2176 12.25H42.2159V13ZM21.0969 41.2498C20.6827 41.2498 20.3469 41.5856 20.3469 41.9998C20.3469 42.414 20.6826 42.7498 21.0969 42.7498V41.2498ZM33.9077 42.75C34.3219 42.75 34.6577 42.4142 34.6577 42C34.6577 41.5858 34.3219 41.25 33.9077 41.25V42.75ZM42.2142 13.75C42.5092 13.7507 42.7799 13.8588 42.9693 14.0329L43.9842 12.9283C43.505 12.4881 42.8682 12.2515 42.2176 12.25L42.2142 13.75ZM12.0302 14.0333C12.2206 13.8586 12.4919 13.75 12.7854 13.75V12.25C12.1324 12.25 11.4953 12.4882 11.0166 12.9276L12.0302 14.0333ZM11.75 14.6365C11.75 14.4247 11.8417 14.2059 12.0302 14.0333L11.0166 12.9276C10.5354 13.3683 10.25 13.9807 10.25 14.6365H11.75ZM12.0309 36.7743C11.8423 36.6017 11.75 36.3821 11.75 36.1702H10.25C10.25 36.8261 10.536 37.4393 11.0174 37.88L12.0309 36.7743ZM12.7853 37.0569C12.4918 37.0569 12.2213 36.949 12.0309 36.7743L11.0174 37.88C11.496 38.3192 12.1323 38.5569 12.7853 38.5569V37.0569ZM42.9699 36.7736C42.7797 36.9483 42.5086 37.0569 42.2157 37.0569V38.5569C42.869 38.5569 43.506 38.318 43.9842 37.8786L42.9699 36.7736ZM12.7854 13.75H42.2159V12.25H12.7854V13.75ZM21.0969 42.7498L24.692 42.7499V41.2499L21.0969 41.2498V42.7498ZM24.692 37.0569H12.7853V38.5569H24.692V37.0569ZM25.442 41.9999V37.8069H23.942V41.9999H25.442ZM24.692 42.7499H30.3045V41.2499H24.692V42.7499ZM30.3045 42.7499L33.9077 42.75V41.25L30.3045 41.2499V42.7499ZM42.2157 37.0569H30.3045V38.5569H42.2157V37.0569ZM30.3045 37.0569H24.692V38.5569H30.3045V37.0569ZM31.0545 41.9999V37.8069H29.5545V41.9999H31.0545ZM43.25 36.1703C43.25 36.3818 43.1584 36.6007 42.9699 36.7736L43.9842 37.8786C44.4645 37.4381 44.75 36.8259 44.75 36.1703H43.25ZM42.9693 14.0329C43.1577 14.2056 43.25 14.4251 43.25 14.6366H44.75C44.75 13.981 44.4646 13.3688 43.9842 12.9283L42.9693 14.0329ZM44.75 36.1703V14.6366H43.25V36.1703H44.75ZM11.75 36.1702V14.6365H10.25V36.1702H11.75Z" fill="url(#paint1_linear_23_346)"/>
</g>
<defs>
<linearGradient id="paint0_linear_23_346" x1="10.9643" y1="12.8834" x2="42.0799" y2="37.2179" gradientUnits="userSpaceOnUse">
<stop stop-color="#7381FD"/>
<stop offset="1" stop-color="#76C7FF"/>
</linearGradient>
<linearGradient id="paint1_linear_23_346" x1="5.97122" y1="8.35201" x2="51.5259" y2="36.8419" gradientUnits="userSpaceOnUse">
<stop stop-color="#7381FD"/>
<stop offset="1" stop-color="#76C7FF"/>
</linearGradient>
<clipPath id="clip0_23_346">
<rect width="55" height="55" fill="white"/>
</clipPath>
</defs>
</svg>
