<svg width="55" height="55" viewBox="0 0 55 55" fill="none" xmlns="http://www.w3.org/2000/svg">
<g clip-path="url(#clip0_23_194)">
<path d="M0 15C0 6.71573 6.71573 0 15 0H40C48.2843 0 55 6.71573 55 15V40C55 48.2843 48.2843 55 40 55H15C6.71573 55 0 48.2843 0 40V15Z" fill="#F6FAFD"/>
<path d="M28.3296 26.1367C28.3296 25.5844 28.7773 25.1367 29.3296 25.1367H43.3257C43.5682 25.1367 43.7765 25.3106 43.8133 25.5503C43.9378 26.3605 44 27.1393 44 27.8867C44 30.9948 43.355 33.7699 42.0651 36.2119C40.7752 38.654 38.936 40.5625 36.5475 41.9375C34.159 43.3125 31.4197 44 28.3296 44C26.1041 44 23.9849 43.5667 21.9721 42.7002C19.9592 41.8337 18.2228 40.6628 16.7628 39.1875C15.3028 37.7122 14.144 35.9577 13.2864 33.9238C12.4288 31.89 12 29.7487 12 27.5C12 25.2513 12.4288 23.11 13.2864 21.0762C14.144 19.0423 15.3028 17.2878 16.7628 15.8125C18.2228 14.3372 19.9592 13.1663 21.9721 12.2998C23.9849 11.4333 26.1041 11 28.3296 11C32.2253 11 35.6155 12.2081 38.5001 14.6242C38.9363 14.9897 38.9393 15.6492 38.5312 16.0457L35.5349 18.9575C35.146 19.3354 34.5302 19.329 34.1053 18.992C32.4981 17.7174 30.5728 17.0801 28.3296 17.0801C26.501 17.0801 24.8106 17.5456 23.2585 18.4766C21.7063 19.4076 20.4766 20.6715 19.5694 22.2686C18.6622 23.8656 18.2086 25.6094 18.2086 27.5C18.2086 29.3906 18.6622 31.1344 19.5694 32.7314C20.4766 34.3285 21.7063 35.5924 23.2585 36.5234C24.8106 37.4544 26.501 37.9199 28.3296 37.9199C29.5628 37.9199 30.6968 37.748 31.7316 37.4043C32.7663 37.0605 33.6168 36.6309 34.2831 36.1152C34.9493 35.5996 35.5305 35.0124 36.0266 34.3535C36.5227 33.6947 36.8877 33.0716 37.1216 32.4844C37.2726 32.1053 37.3925 31.7381 37.4815 31.3829C37.5563 31.0844 37.3211 30.8086 37.0134 30.8086H29.3296C28.7773 30.8086 28.3296 30.3609 28.3296 29.8086V26.1367Z" stroke="url(#paint0_linear_23_194)" stroke-width="1.5"/>
</g>
<defs>
<linearGradient id="paint0_linear_23_194" x1="8.03128" y1="6.7825" x2="53.6878" y2="31.2606" gradientUnits="userSpaceOnUse">
<stop stop-color="#7381FD"/>
<stop offset="1" stop-color="#76C7FF"/>
</linearGradient>
<clipPath id="clip0_23_194">
<rect width="55" height="55" fill="white"/>
</clipPath>
</defs>
</svg>
