<svg width="55" height="55" viewBox="0 0 55 55" fill="none" xmlns="http://www.w3.org/2000/svg">
<g clip-path="url(#clip0_23_293)">
<path d="M0 15C0 6.71573 6.71573 0 15 0H40C48.2843 0 55 6.71573 55 15V40C55 48.2843 48.2843 55 40 55H15C6.71573 55 0 48.2843 0 40V15Z" fill="#F6FAFD"/>
<path d="M35.75 20.1667C35.75 24.7854 32.0324 28.25 27.4335 28.25V29.75C32.8003 29.75 37.25 25.6732 37.25 20.1667H35.75ZM27.4335 28.25C22.8492 28.25 19.25 24.7996 19.25 20.1667H17.75C17.75 25.659 22.052 29.75 27.4335 29.75V28.25ZM19.25 20.1667C19.25 15.4972 22.8856 11.75 27.4335 11.75V10.25C22.0157 10.25 17.75 14.7109 17.75 20.1667H19.25ZM27.4335 11.75C31.9957 11.75 35.75 15.5118 35.75 20.1667H37.25C37.25 14.6963 32.837 10.25 27.4335 10.25V11.75ZM19.6015 40.2654C19.6015 41.925 18.2804 43.25 16.6757 43.25V44.75C19.1312 44.75 21.1015 42.7309 21.1015 40.2654H19.6015ZM16.6757 43.25C15.0711 43.25 13.75 41.925 13.75 40.2654H12.25C12.25 42.7309 14.2203 44.75 16.6757 44.75V43.25ZM13.75 40.2654C13.75 38.6058 15.0711 37.2809 16.6757 37.2809V35.7809C14.2203 35.7809 12.25 37.7999 12.25 40.2654H13.75ZM16.6757 37.2809C18.2804 37.2809 19.6015 38.6058 19.6015 40.2654H21.1015C21.1015 37.7999 19.1312 35.7809 16.6757 35.7809V37.2809ZM30.3592 40.2654C30.3592 41.925 29.0381 43.25 27.4335 43.25V44.75C29.8889 44.75 31.8592 42.7309 31.8592 40.2654H30.3592ZM27.4335 43.25C25.8288 43.25 24.5077 41.925 24.5077 40.2654H23.0077C23.0077 42.7309 24.978 44.75 27.4335 44.75V43.25ZM24.5077 40.2654C24.5077 38.6058 25.8288 37.2809 27.4335 37.2809V35.7809C24.978 35.7809 23.0077 37.8 23.0077 40.2654H24.5077ZM27.4335 37.2809C29.0381 37.2809 30.3592 38.6058 30.3592 40.2654H31.8592C31.8592 37.8 29.8889 35.7809 27.4335 35.7809V37.2809ZM41.25 40.2654C41.25 41.925 39.9289 43.25 38.3243 43.25V44.75C40.7797 44.75 42.75 42.7309 42.75 40.2654H41.25ZM38.3243 43.25C36.7196 43.25 35.3985 41.925 35.3985 40.2654H33.8985C33.8985 42.7309 35.8688 44.75 38.3243 44.75V43.25ZM35.3985 40.2654C35.3985 38.6058 36.7196 37.2809 38.3243 37.2809V35.7809C35.8688 35.7809 33.8985 37.7999 33.8985 40.2654H35.3985ZM38.3243 37.2809C39.9289 37.2809 41.25 38.6058 41.25 40.2654H42.75C42.75 37.7999 40.7797 35.7809 38.3243 35.7809V37.2809ZM26.6835 29V33H28.1835V29H26.6835ZM26.6835 33V36.5309H28.1835V33H26.6835ZM27.4335 33.75H37.8243V32.25H27.4335V33.75ZM37.5743 33.5V36.5309H39.0743V33.5H37.5743ZM27.4335 32.25H17.1757V33.75H27.4335V32.25ZM15.9257 33.5V36.5309H17.4257V33.5H15.9257ZM17.1757 32.25C16.4854 32.25 15.9257 32.8097 15.9257 33.5H17.4257C17.4257 33.6381 17.3138 33.75 17.1757 33.75V32.25ZM37.8243 33.75C37.6862 33.75 37.5743 33.6381 37.5743 33.5H39.0743C39.0743 32.8097 38.5146 32.25 37.8243 32.25V33.75Z" fill="url(#paint0_linear_23_293)"/>
<path d="M33.2585 17.9955L29.7917 17.4682L28.2384 14.171C28.0283 13.7145 27.3155 13.7145 27.1053 14.171L25.5521 17.4682L22.0853 17.9955C21.8451 18.0347 21.6501 18.208 21.575 18.4441C21.4999 18.6803 21.5599 18.9477 21.7326 19.121L24.2388 21.6864L23.6458 25.3065C23.6085 25.5584 23.7058 25.8101 23.9008 25.9517C24.0959 26.1012 24.3584 26.117 24.5688 25.9988L27.6757 24.2993L30.7747 26.007C30.8649 26.062 30.9698 26.0858 31.0674 26.0858C31.1949 26.0858 31.33 26.0466 31.4427 25.9599C31.6378 25.8104 31.7354 25.5584 31.6977 25.3147L31.1048 21.6946L33.6109 19.1292C33.7836 18.956 33.8436 18.6885 33.7686 18.4524C33.6935 18.2083 33.4984 18.0272 33.2585 17.9955ZM29.9792 20.9862C29.8291 21.1357 29.7615 21.356 29.7992 21.5764L30.227 24.2126L27.9683 22.9693C27.8782 22.9143 27.7733 22.8906 27.6756 22.8906C27.578 22.8906 27.4731 22.9143 27.3829 22.9693L25.1243 24.2126L25.5596 21.5764C25.5969 21.3639 25.5294 21.1436 25.3796 20.9862L23.5487 19.1131L26.0774 18.7274C26.2875 18.6958 26.4603 18.562 26.5501 18.3654L27.6756 15.9653L28.8087 18.3654C28.8989 18.562 29.0788 18.6961 29.2814 18.7274L31.8101 19.1131L29.9792 20.9862Z" fill="url(#paint1_linear_23_293)"/>
</g>
<defs>
<linearGradient id="paint0_linear_23_293" x1="8.46731" y1="5.8408" x2="53.6882" y2="27.9442" gradientUnits="userSpaceOnUse">
<stop stop-color="#7381FD"/>
<stop offset="1" stop-color="#76C7FF"/>
</linearGradient>
<linearGradient id="paint1_linear_23_293" x1="20.023" y1="12.2621" x2="37.2668" y2="21.796" gradientUnits="userSpaceOnUse">
<stop stop-color="#7381FD"/>
<stop offset="1" stop-color="#76C7FF"/>
</linearGradient>
<clipPath id="clip0_23_293">
<rect width="55" height="55" fill="white"/>
</clipPath>
</defs>
</svg>
