<svg width="55" height="55" viewBox="0 0 55 55" fill="none" xmlns="http://www.w3.org/2000/svg">
<g clip-path="url(#clip0_23_408)">
<path d="M0 15C0 6.71573 6.71573 0 15 0H40C48.2843 0 55 6.71573 55 15V40C55 48.2843 48.2843 55 40 55H15C6.71573 55 0 48.2843 0 40V15Z" fill="#F6FAFD"/>
<path d="M40.9949 40.8759C41.8547 40.863 42.6095 40.3304 42.895 39.5332C42.9803 39.2944 43 39.0427 43 38.7909V37.4774V35.0567V31.939V28.5728V25.4034V22.8376V21.3239V21.098C42.9902 20.2912 42.4946 19.5714 41.7365 19.268C41.3591 19.1164 40.9784 19.126 40.5846 19.126H39.1505H36.896H34.0376H30.8018L27.625 19.1254M27.625 19.1254L27.3756 19.126H23.9889H20.8581H18.2064H16.2242H15.1412C15.0658 19.126 14.987 19.126 14.9115 19.1293C14.0616 19.1745 13.3133 19.7457 13.0771 20.5526C13.0036 20.8168 12.9976 21.0985 13.0006 21.3754M27.625 19.1254L25.5381 16.8529C25.1872 16.45 24.8394 16.047 24.4885 15.6409C24.1051 15.1989 23.5982 15.0007 23.023 15.0007H19.5428H15.4972C15.078 15.0007 14.6621 14.9812 14.2624 15.1437C13.4955 15.4557 13.0146 16.1933 13.0113 17.0187L13.0006 21.3754M41.0014 40.8758H40.4697H38.9273H36.5907H33.6732H30.4079H26.9752H23.6081H20.52H17.9373H16.0503H15.0888C14.8295 40.8758 14.5735 40.85 14.3307 40.7596C13.5398 40.4692 13.0147 39.7397 13.0049 38.907C13.0016 38.6424 13.0049 38.3778 13.0049 38.1131V36.0411V33.1235V29.8121V26.5104V23.6703V21.7273C13.0049 21.612 13.0019 21.4941 13.0006 21.3754" stroke="url(#paint0_linear_23_408)" stroke-width="1.5"/>
<path d="M26.9992 30.4999C26.9992 31.3502 26.2932 32.0395 25.4224 32.0395C24.5516 32.0395 23.8457 31.3502 23.8457 30.4999C23.8457 29.6496 24.5516 28.9603 25.4224 28.9603C26.2932 28.9603 26.9992 29.6496 26.9992 30.4999Z" fill="url(#paint1_linear_23_408)"/>
<path d="M32.1534 26.0397C32.1534 26.89 31.4475 27.5793 30.5767 27.5793C29.7059 27.5793 29 26.89 29 26.0397C29 25.1894 29.7059 24.5001 30.5767 24.5001C31.4475 24.5001 32.1534 25.1894 32.1534 26.0397Z" fill="url(#paint2_linear_23_408)"/>
<path d="M32.1534 35C32.1534 35.8503 31.4475 36.5396 30.5767 36.5396C29.7059 36.5396 29 35.8503 29 35C29 34.1497 29.7059 33.4604 30.5767 33.4604C31.4475 33.4604 32.1534 34.1497 32.1534 35Z" fill="url(#paint3_linear_23_408)"/>
<path d="M20.0368 25.35C19.6778 25.35 19.3868 25.641 19.3868 26C19.3868 26.359 19.6778 26.65 20.0368 26.65V25.35ZM27.7836 26.65C28.1426 26.65 28.4336 26.359 28.4336 26C28.4336 25.641 28.1426 25.35 27.7836 25.35V26.65ZM33.5001 25.35C33.1411 25.35 32.8501 25.641 32.8501 26C32.8501 26.359 33.1411 26.65 33.5001 26.65V25.35ZM36.2678 26.65C36.6268 26.65 36.9178 26.359 36.9178 26C36.9178 25.641 36.6268 25.35 36.2678 25.35V26.65ZM20.0001 29.812C19.6411 29.812 19.3501 30.103 19.3501 30.462C19.3501 30.8209 19.6411 31.112 20.0001 31.112V29.812ZM22.5001 31.112C22.8591 31.112 23.1501 30.8209 23.1501 30.462C23.1501 30.103 22.8591 29.812 22.5001 29.812V31.112ZM28.5001 29.812C28.1411 29.812 27.8501 30.103 27.8501 30.462C27.8501 30.8209 28.1411 31.112 28.5001 31.112V29.812ZM36.2678 31.112C36.6268 31.112 36.9178 30.8209 36.9178 30.462C36.9178 30.103 36.6268 29.812 36.2678 29.812V31.112ZM20.0001 34.35C19.6411 34.35 19.3501 34.641 19.3501 35C19.3501 35.359 19.6411 35.65 20.0001 35.65V34.35ZM27.7103 35.65C28.0692 35.65 28.3603 35.359 28.3603 35C28.3603 34.641 28.0692 34.35 27.7103 34.35V35.65ZM33.5001 34.35C33.1411 34.35 32.8501 34.641 32.8501 35C32.8501 35.359 33.1411 35.65 33.5001 35.65V34.35ZM36.2678 35.65C36.6268 35.65 36.9178 35.359 36.9178 35C36.9178 34.641 36.6268 34.35 36.2678 34.35V35.65ZM20.0368 26.65H27.7836V25.35H20.0368V26.65ZM33.5001 26.65H36.2678V25.35H33.5001V26.65ZM20.0001 31.112H22.5001V29.812H20.0001V31.112ZM28.5001 31.112H36.2678V29.812H28.5001V31.112ZM20.0001 35.65H27.7103V34.35H20.0001V35.65ZM33.5001 35.65H36.2678V34.35H33.5001V35.65Z" fill="url(#paint4_linear_23_408)"/>
</g>
<defs>
<linearGradient id="paint0_linear_23_408" x1="9.27932" y1="11.693" x2="48.3371" y2="36.7293" gradientUnits="userSpaceOnUse">
<stop stop-color="#7381FD"/>
<stop offset="1" stop-color="#76C7FF"/>
</linearGradient>
<linearGradient id="paint1_linear_23_408" x1="23.4546" y1="28.5668" x2="27.8409" y2="31.0504" gradientUnits="userSpaceOnUse">
<stop stop-color="#7381FD"/>
<stop offset="1" stop-color="#76C7FF"/>
</linearGradient>
<linearGradient id="paint2_linear_23_408" x1="28.6089" y1="24.1066" x2="32.9951" y2="26.5901" gradientUnits="userSpaceOnUse">
<stop stop-color="#7381FD"/>
<stop offset="1" stop-color="#76C7FF"/>
</linearGradient>
<linearGradient id="paint3_linear_23_408" x1="28.6089" y1="33.0669" x2="32.9951" y2="35.5504" gradientUnits="userSpaceOnUse">
<stop stop-color="#7381FD"/>
<stop offset="1" stop-color="#76C7FF"/>
</linearGradient>
<linearGradient id="paint4_linear_23_408" x1="17.1713" y1="24.0336" x2="34.2519" y2="40.1407" gradientUnits="userSpaceOnUse">
<stop stop-color="#7381FD"/>
<stop offset="1" stop-color="#76C7FF"/>
</linearGradient>
<clipPath id="clip0_23_408">
<rect width="55" height="55" fill="white"/>
</clipPath>
</defs>
</svg>
