<svg width="55" height="55" viewBox="0 0 55 55" fill="none" xmlns="http://www.w3.org/2000/svg">
<g clip-path="url(#clip0_23_582)">
<path d="M0 15C0 6.71573 6.71573 0 15 0H40C48.2843 0 55 6.71573 55 15V40C55 48.2843 48.2843 55 40 55H15C6.71573 55 0 48.2843 0 40V15Z" fill="#F6FAFD"/>
<path d="M21.6114 32C21.4362 31.9999 21.265 31.9468 21.1194 31.8474C20.9738 31.748 20.8604 31.6069 20.7934 31.4418C20.7265 31.2766 20.709 31.095 20.7433 30.9198C20.7775 30.7445 20.862 30.5836 20.9859 30.4573C21.1098 30.331 21.2676 30.245 21.4394 30.2102C21.6112 30.1754 21.7893 30.1933 21.9511 30.2617C22.113 30.3301 22.2513 30.4459 22.3486 30.5945C22.4459 30.7431 22.4978 30.9177 22.4978 31.0964C22.4978 31.2151 22.4749 31.3327 22.4303 31.4424C22.3858 31.552 22.3205 31.6517 22.2381 31.7356C22.1558 31.8195 22.0581 31.886 21.9505 31.9314C21.843 31.9768 21.7277 32.0001 21.6114 32ZM12.9778 24.5844C12.8767 24.9242 12.4871 25.0843 12.1447 24.9919C11.8719 24.9183 11.5431 24.8674 11.1519 24.8674C9.37709 24.8674 8.41831 26.2195 8.41831 27.8491C8.41831 29.6738 9.57038 30.7974 11.1065 30.7974C11.4775 30.8019 11.8463 30.754 12.2025 30.656C12.5362 30.5641 12.9061 30.7432 12.9815 31.081C13.0361 31.3255 12.9161 31.5771 12.6793 31.6587C12.2465 31.808 11.6089 31.955 10.8524 31.955C8.5188 31.955 7 30.3424 7 27.9313C7 25.5039 8.63017 23.7281 11.1564 23.7281C11.7484 23.7281 12.2908 23.8352 12.6928 23.9734C12.942 24.0591 13.053 24.3318 12.9778 24.5844ZM16.9993 24.7851C16.1672 24.7851 15.7192 25.2735 15.7192 25.8604C15.7192 26.5133 16.1672 26.8051 17.1734 27.2125C18.4989 27.7178 19.2029 28.402 19.2029 29.5752C19.2029 30.9763 18.1315 31.9536 16.3227 31.9536C15.6575 31.9536 15.0317 31.8132 14.5296 31.5952C14.2981 31.4948 14.1997 31.2302 14.2749 30.9894C14.3806 30.6513 14.7782 30.5001 15.1092 30.6265C15.4851 30.7701 15.9249 30.8784 16.3528 30.8784C17.3596 30.8784 17.8396 30.3737 17.8396 29.7032C17.8396 29.019 17.4396 28.6586 16.4168 28.2669C15.0088 27.7446 14.3546 26.9801 14.3546 26.0354C14.3546 24.7649 15.3787 23.7223 17.0242 23.7223C17.6139 23.7223 18.1505 23.8423 18.5564 24.0198C18.7748 24.1154 18.8602 24.3671 18.7873 24.5941C18.6801 24.9279 18.2833 25.0674 17.9524 24.9514C17.647 24.8444 17.3252 24.7877 16.9993 24.7851ZM29.5187 24.5831C29.4177 24.9235 29.0275 25.084 28.6847 24.9917C28.412 24.9182 28.0834 24.8674 27.693 24.8674C25.9188 24.8674 24.9587 26.2215 24.9587 27.8477C24.9587 29.6725 26.1108 30.7961 27.6469 30.7961C28.0179 30.8006 28.3867 30.7527 28.7429 30.6546C29.0766 30.5628 29.4465 30.7419 29.5219 31.0797C29.5765 31.3242 29.4565 31.5758 29.2198 31.6574C28.7869 31.8066 28.1493 31.9536 27.3928 31.9536C25.0592 31.9536 23.5404 30.3411 23.5404 27.93C23.5404 25.5026 25.1706 23.7268 27.6968 23.7268C28.2888 23.7268 28.8313 23.8339 29.2333 23.9721C29.4825 24.0578 29.5936 24.3305 29.5187 24.5831ZM35.7036 31.7754L35.5916 30.7811H35.5436C35.1123 31.4007 34.2809 31.9563 33.1755 31.9563C31.6093 31.9563 30.8074 30.832 30.8074 29.6915C30.8074 27.7857 32.4715 26.7431 35.4592 26.7594V26.5962C35.4592 25.961 35.2831 24.7721 33.701 24.7884C33.1947 24.7884 32.6808 24.8887 32.2324 25.0739C31.9372 25.1958 31.5698 25.0729 31.4689 24.7698C31.3995 24.5612 31.4797 24.3296 31.6766 24.2318C32.2903 23.9268 33.0884 23.7308 33.9109 23.7308C36.279 23.7308 36.8551 25.376 36.8551 26.9396V29.884C36.8482 30.516 36.8856 31.1476 36.9671 31.7741L35.7036 31.7754ZM35.4956 27.7511C33.9595 27.7185 32.2187 27.9953 32.2187 29.5269C32.2187 30.4716 32.8261 30.898 33.5295 30.898C34.5535 30.898 35.2083 30.2451 35.4316 29.5785C35.4743 29.4301 35.4958 29.2762 35.4956 29.1215V27.7511ZM42.4957 25.0783C41.5049 25.0783 40.8015 25.8278 40.6095 26.903C40.5762 27.124 40.5602 27.3474 40.5615 27.5709V31.7741H39.1534V26.352C39.1534 25.4236 39.1374 24.6252 39.0894 23.892H40.3196L40.3836 25.4589H40.431C40.783 24.3999 41.647 23.7321 42.5891 23.7321C42.8111 23.7356 42.9732 23.9285 42.9732 24.1504V24.6319C42.9732 24.8816 42.7451 25.0672 42.4957 25.0783ZM45.9858 24.9803V29.2325C45.9858 30.2118 46.2578 30.7635 47.0406 30.7635C47.09 30.7635 47.1368 30.7629 47.1812 30.7618C47.5287 30.7534 47.8757 31.0019 47.8961 31.349C47.9102 31.5899 47.7619 31.8144 47.5261 31.8661C47.2463 31.9274 46.9602 31.9566 46.6732 31.953C46.0178 31.953 45.4904 31.7251 45.1544 31.3504C44.7704 30.9104 44.611 30.2098 44.611 29.2815V22.9307C44.611 22.629 44.8078 22.3625 45.0962 22.2737C45.5383 22.1377 45.9858 22.4682 45.9858 22.9307V23.8894H47.4543C47.7557 23.8894 48 24.1337 48 24.4351C48 24.7366 47.7556 24.9809 47.4541 24.9808L45.9858 24.9803Z" fill="url(#paint0_linear_23_582)"/>
</g>
<defs>
<linearGradient id="paint0_linear_23_582" x1="1.91507" y1="20.9959" x2="13.6871" y2="48.3453" gradientUnits="userSpaceOnUse">
<stop stop-color="#7381FD"/>
<stop offset="1" stop-color="#76C7FF"/>
</linearGradient>
<clipPath id="clip0_23_582">
<rect width="55" height="55" fill="white"/>
</clipPath>
</defs>
</svg>
