<svg width="55" height="55" viewBox="0 0 55 55" fill="none" xmlns="http://www.w3.org/2000/svg">
<g clip-path="url(#clip0_23_175)">
<path d="M0 15C0 6.71573 6.71573 0 15 0H40C48.2843 0 55 6.71573 55 15V40C55 48.2843 48.2843 55 40 55H15C6.71573 55 0 48.2843 0 40V15Z" fill="#F6FAFD"/>
<path d="M21.087 18.1304L10 21.087V44L21.087 41.0435M21.087 18.1304V41.0435M21.087 18.1304L22.713 18.5M21.087 41.0435L32.913 44M22.713 18.5C24.1913 21.6043 27 24.0435 27 24.0435C27 24.0435 28.7 22.4913 30.1783 20.4217M22.713 18.5C22.1957 17.4652 21.8261 16.2826 21.8261 15.1739C21.8261 12.2913 24.1174 10 27 10C29.8826 10 32.1739 12.2913 32.1739 15.1739C32.1739 17.0217 31.287 18.8696 30.1783 20.4217M32.913 21.087V44M32.913 21.087L30.1783 20.4217M32.913 21.087L44 18.1304V41.0435L32.913 44M29.2174 15.1739C29.2174 16.4304 28.2565 17.3913 27 17.3913C25.7435 17.3913 24.7826 16.4304 24.7826 15.1739C24.7826 13.9174 25.7435 12.9565 27 12.9565C28.2565 12.9565 29.2174 13.9174 29.2174 15.1739Z" stroke="url(#paint0_linear_23_175)" stroke-linejoin="round"/>
</g>
<defs>
<linearGradient id="paint0_linear_23_175" x1="5.78323" y1="5.6547" x2="53.6154" y2="32.1006" gradientUnits="userSpaceOnUse">
<stop stop-color="#7381FD"/>
<stop offset="1" stop-color="#76C7FF"/>
</linearGradient>
<clipPath id="clip0_23_175">
<rect width="55" height="55" fill="white"/>
</clipPath>
</defs>
</svg>
