<svg width="55" height="55" viewBox="0 0 55 55" fill="none" xmlns="http://www.w3.org/2000/svg">
<g clip-path="url(#clip0_23_596)">
<path d="M0 15C0 6.71573 6.71573 0 15 0H40C48.2843 0 55 6.71573 55 15V40C55 48.2843 48.2843 55 40 55H15C6.71573 55 0 48.2843 0 40V15Z" fill="#F6FAFD"/>
<path d="M40.5684 23.0387C40.278 23.3341 40.2821 23.809 40.5775 24.0994C40.8729 24.3897 41.3478 24.3857 41.6381 24.0903L40.5684 23.0387ZM43.9154 21.7736C44.2058 21.4783 44.2017 21.0034 43.9063 20.713C43.6109 20.4227 43.1361 20.4267 42.8457 20.7221L43.9154 21.7736ZM42.7264 32.2266C43.015 32.5236 43.4898 32.5304 43.7869 32.2418C44.084 31.9531 44.0908 31.4783 43.8021 31.1812L42.7264 32.2266ZM41.5374 28.8506C41.2487 28.5535 40.7739 28.5467 40.4769 28.8354C40.1798 29.124 40.173 29.5989 40.4616 29.8959L41.5374 28.8506ZM22.9103 33.8997L22.9372 33.1502C22.9282 33.1499 22.9193 33.1497 22.9103 33.1497V33.8997ZM34.1599 36.4455L34.5707 35.8179L34.5697 35.8173L34.1599 36.4455ZM25.2779 31.9319L25.4852 31.2111C25.4772 31.2089 25.4693 31.2067 25.4612 31.2047L25.2779 31.9319ZM36.0255 16.2592L36.4127 15.6169L36.4118 15.6163L36.0255 16.2592ZM45 27.2505C45.4142 27.2505 45.75 26.9148 45.75 26.5005C45.75 26.0863 45.4142 25.7505 45 25.7505V27.2505ZM41.7972 25.7505C41.383 25.7505 41.0472 26.0863 41.0472 26.5005C41.0472 26.9148 41.383 27.2505 41.7972 27.2505V25.7505ZM17.5678 32.0312C17.8565 32.3282 18.3313 32.335 18.6283 32.0463C18.9254 31.7576 18.9321 31.2828 18.6434 30.9858L17.5678 32.0312ZM13.8844 27.8745L14.4225 28.397C14.5584 28.257 14.6344 28.0696 14.6344 27.8745H13.8844ZM24.5061 22.68C24.7589 22.3519 24.6978 21.8809 24.3697 21.6281C24.0416 21.3753 23.5707 21.4364 23.3179 21.7645L24.5061 22.68ZM23.9105 22.2242L23.1605 22.2229V22.2242H23.9105ZM37.4834 30.1572C37.7526 29.8424 37.7157 29.3689 37.4009 29.0997C37.0861 28.8305 36.6127 28.8675 36.3435 29.1822L37.4834 30.1572ZM23.4301 21.4129V22.1629C23.4832 22.1629 23.5362 22.1573 23.5882 22.1461L23.4301 21.4129ZM36.9146 28.7683L36.4291 29.3399C36.6039 29.4883 36.8369 29.5487 37.0618 29.5037L36.9146 28.7683ZM18.9799 31.5083L18.442 30.9856C18.306 31.1255 18.2299 31.3131 18.2299 31.5083H18.9799ZM21.7565 30.9852C21.4677 31.2821 21.4743 31.757 21.7713 32.0457C22.0682 32.3345 22.5431 32.3278 22.8318 32.0309L21.7565 30.9852ZM22.2961 31.506L22.2971 30.756H22.2959L22.2961 31.506ZM13.8844 25.0445H14.6344V25.0433L13.8844 25.0445ZM13.8825 25.0425L14.4203 24.5197C14.2791 24.3744 14.0851 24.2925 13.8825 24.2925V25.0425ZM13.8847 28.776H14.6347C14.6347 28.5808 14.5586 28.3933 14.4226 28.2534L13.8847 28.776ZM13.8827 28.774L13.1327 28.7742C13.1328 28.9692 13.2088 29.1566 13.3448 29.2965L13.8827 28.774ZM23.4458 31.5075L23.577 30.769C23.534 30.7614 23.4905 30.7575 23.4468 30.7575L23.4458 31.5075ZM22.832 33.375C22.5433 33.078 22.0685 33.0712 21.7714 33.3599C21.4744 33.6486 21.4676 34.1234 21.7563 34.4204L22.832 33.375ZM22.2961 33.8997L22.2944 34.6497H22.2961V33.8997ZM13.883 24.1453L13.345 23.6227C13.2088 23.7629 13.1327 23.9509 13.133 24.1465L13.883 24.1453ZM13.8849 24.1433L14.4229 24.6659C14.5589 24.5259 14.6349 24.3384 14.6349 24.1433H13.8849ZM21.4196 31.5083H22.1696C22.1696 31.3131 22.0935 31.1257 21.9575 30.9857L21.4196 31.5083ZM36.9146 24.2711L37.0625 23.5358C36.8377 23.4906 36.6045 23.5507 36.4296 23.699L36.9146 24.2711ZM36.3446 23.8577C36.614 24.1723 37.0874 24.209 37.4021 23.9397C37.7168 23.6703 37.7535 23.1968 37.4841 22.8822L36.3446 23.8577ZM21.4176 38.9997L21.4181 39.7497C21.6207 39.7496 21.8147 39.6675 21.9558 39.5221L21.4176 38.9997ZM21.4196 38.9977L21.9578 39.5201C22.0936 39.3801 22.1696 39.1928 22.1696 38.9977H21.4196ZM23.912 30.6825L24.662 30.6838C24.6623 30.5128 24.6042 30.3468 24.4972 30.2134L23.912 30.6825ZM23.9105 30.6806H23.1605C23.1605 30.8511 23.2186 31.0166 23.3253 31.1497L23.9105 30.6806ZM24.1375 31.6445L24.3208 30.9173C24.3133 30.9154 24.3057 30.9136 24.2981 30.9119L24.1375 31.6445ZM36.8799 28.0103L36.7675 28.0328L37.0618 29.5037L37.1742 29.4812L36.8799 28.0103ZM38.059 26.5194C38.059 27.2718 37.5339 27.8795 36.8799 28.0103L37.1742 29.4812C38.5423 29.2074 39.559 27.9735 39.559 26.5194H38.059ZM36.8792 25.029C37.5368 25.1612 38.059 25.768 38.059 26.5194H39.559C39.559 25.0663 38.5454 23.8341 37.175 23.5584L36.8792 25.029ZM36.7667 25.0064L36.8792 25.029L37.175 23.5584L37.0625 23.5358L36.7667 25.0064ZM23.3875 32.6784C23.3875 32.9918 23.1724 33.1586 22.9372 33.1502L22.8835 34.6492C23.9504 34.6874 24.8875 33.8585 24.8875 32.6784H23.3875ZM20.9968 38.25C20.3184 38.25 19.7299 37.6753 19.7299 36.9217H18.2299C18.2299 38.46 19.4469 39.75 20.9968 39.75V38.25ZM12.75 26.4601C12.75 26.0717 13.0521 25.7925 13.377 25.7925V24.2925C12.1827 24.2925 11.25 25.2848 11.25 26.4601H12.75ZM13.377 27.1268C13.052 27.1268 12.75 26.8473 12.75 26.4601H11.25C11.25 27.6355 12.1839 28.6268 13.377 28.6268V27.1268ZM36.352 37.1553C37.1743 36.6898 37.662 35.8336 37.662 34.8864H36.162C36.162 35.3063 35.9537 35.6571 35.6131 35.8499L36.352 37.1553ZM35.1156 37.4854C35.5456 37.4854 35.9668 37.3739 36.352 37.1553L35.6131 35.8499C35.449 35.943 35.2808 35.9854 35.1156 35.9854V37.4854ZM33.7491 37.073C34.1645 37.3449 34.6376 37.4854 35.1156 37.4854V35.9854C34.9341 35.9854 34.7457 35.9326 34.5707 35.8179L33.7491 37.073ZM13.1347 29.094C13.1347 30.8183 14.5021 32.2565 16.2268 32.2565V30.7565C15.3713 30.7565 14.6347 30.0312 14.6347 29.094H13.1347ZM16.2271 20.6627C14.5023 20.6627 13.1349 22.1023 13.1349 23.8265H14.6349C14.6349 22.8885 15.3723 22.1627 16.2271 22.1627V20.6627ZM33.8662 15.594C33.3658 15.8829 32.8627 16.1819 32.3359 16.4954L33.103 17.7844C33.6307 17.4704 34.1257 17.1762 34.6162 16.8931L33.8662 15.594ZM36.4118 15.6163C35.6111 15.1352 34.672 15.1278 33.8662 15.594L34.6162 16.8931C34.9495 16.7003 35.3063 16.702 35.6392 16.902L36.4118 15.6163ZM37.6627 17.8513C37.6627 16.9218 37.2065 16.0954 36.4127 15.6169L35.6383 16.9015C35.9711 17.1021 36.1627 17.435 36.1627 17.8513H37.6627ZM37.6623 28.7663V24.2731L36.1623 24.2727V28.7663H37.6623ZM22.9103 33.1497H22.2961V34.6497H22.9103V33.1497ZM22.2951 32.256L23.4449 32.2575L23.4468 30.7575L22.2971 30.756L22.2951 32.256ZM21.4172 38.2497L20.9968 38.25V39.75L21.4181 39.7497L21.4172 38.2497ZM18.9818 32.2563H21.4176V30.7563H18.9818V32.2563ZM19.7299 36.9217V31.5083H18.2299V36.9217H19.7299ZM24.6605 30.6806V22.2242H23.1605V30.6806H24.6605ZM13.882 27.1265L13.377 27.1268V28.6268L13.883 28.6265L13.882 27.1265ZM13.1344 25.0445V27.8745H14.6344V25.0445H13.1344ZM13.377 25.7925H13.8825V24.2925H13.377V25.7925ZM37.6627 23.3679V17.8513H36.1627V23.3679H37.6627ZM37.662 34.8864L37.6617 29.6717L36.1617 29.6713L36.162 34.8864H37.662ZM16.2268 32.2565H18.1037V30.7565H16.2268V32.2565ZM13.1347 28.776V29.094H14.6347V28.776H13.1347ZM13.1349 23.8265V24.1433H14.6349V23.8265H13.1349ZM23.4301 20.6629L16.2271 20.6627V22.1627L23.4301 22.1629V20.6629ZM18.6434 30.9858L18.6415 30.9838L17.5658 32.0292L17.5678 32.0312L18.6434 30.9858ZM14.4206 28.399L14.4225 28.397L13.3463 27.3521L13.3444 27.3541L14.4206 28.399ZM23.3179 21.7645L23.3164 21.7664L24.5046 22.6819L24.5061 22.68L23.3179 21.7645ZM36.3435 29.1822L36.3418 29.1842L37.4817 30.1592L37.4834 30.1572L36.3435 29.1822ZM37.4001 28.1966L37.3978 28.1946L36.4268 29.3379L36.4291 29.3399L37.4001 28.1966ZM18.444 30.9836L18.442 30.9856L19.5177 32.031L19.5197 32.029L18.444 30.9836ZM22.8318 32.0309L22.8338 32.0289L21.7584 30.9832L21.7565 30.9852L22.8318 32.0309ZM14.4223 24.5217L14.4203 24.5197L13.3447 25.5652L13.3466 25.5672L14.4223 24.5217ZM14.4226 28.2534L14.4207 28.2514L13.3448 29.2965L13.3467 29.2986L14.4226 28.2534ZM21.7563 34.4204L21.7583 34.4224L22.8339 33.377L22.832 33.375L21.7563 34.4204ZM14.4209 24.6679L14.4229 24.6659L13.347 23.6207L13.345 23.6227L14.4209 24.6679ZM21.9575 30.9857L21.9556 30.9837L20.8797 32.0289L20.8816 32.0309L21.9575 30.9857ZM36.4296 23.699L36.4273 23.701L37.3973 24.8451L37.3996 24.8431L36.4296 23.699ZM37.4841 22.8822L37.4824 22.8802L36.3429 23.8557L36.3446 23.8577L37.4841 22.8822ZM21.9558 39.5221L21.9578 39.5201L20.8814 38.4754L20.8794 38.4774L21.9558 39.5221ZM24.4972 30.2134L24.4956 30.2114L23.3253 31.1497L23.3269 31.1517L24.4972 30.2134ZM25.0707 32.6527C27.6281 33.3881 29.9689 34.6745 32.3199 36.1546L33.1191 34.8853C30.7313 33.382 28.2479 32.0055 25.4852 31.2111L25.0707 32.6527ZM32.3199 36.1546C32.7965 36.4547 33.2724 36.7619 33.7501 37.0736L34.5697 35.8173C34.0883 35.5033 33.6051 35.1912 33.1191 34.8853L32.3199 36.1546ZM31.9695 17.1399V35.52H33.4695V17.1399H31.9695ZM13.133 24.1465L13.1344 25.0457L14.6344 25.0433L14.633 24.1441L13.133 24.1465ZM13.1325 27.8767L13.1327 28.7742L14.6327 28.7738L14.6325 27.8763L13.1325 27.8767ZM32.3359 16.4954C29.6537 18.0904 26.7252 19.8221 23.7297 20.573L24.0944 22.028C27.3408 21.2142 30.4598 19.3563 33.103 17.7844L32.3359 16.4954ZM23.7297 20.573C23.5771 20.6112 23.4245 20.6469 23.272 20.6798L23.5882 22.1461C23.7575 22.1096 23.9262 22.0701 24.0944 22.028L23.7297 20.573ZM24.6605 22.2255L24.662 21.3018L23.1621 21.2992L23.1605 22.2229L24.6605 22.2255ZM23.3147 32.2459C23.4635 32.2724 23.6123 32.3008 23.7598 32.3311L24.0612 30.8617C23.9006 30.8287 23.7388 30.7978 23.577 30.769L23.3147 32.2459ZM23.1621 30.6812L23.1605 31.5951L24.6605 31.5977L24.662 30.6838L23.1621 30.6812ZM21.4176 32.2563L22.2963 32.256L22.2959 30.756L21.4176 30.7563V32.2563ZM18.9818 30.7563L18.1037 30.7565V32.2565L18.9818 32.2563V30.7563ZM20.6696 31.5083V33.8977H22.1696V31.5083H20.6696ZM20.6696 33.8977V38.9977H22.1696V33.8977H20.6696ZM22.2978 33.1497L21.4213 33.1477L21.4179 34.6477L22.2944 34.6497L22.2978 33.1497ZM23.7598 32.3311C23.8326 32.346 23.9051 32.3614 23.977 32.3771L24.2981 30.9119C24.2195 30.8947 24.1405 30.8779 24.0612 30.8617L23.7598 32.3311ZM24.8875 32.6784V31.6445H23.3875V32.6784H24.8875ZM23.9542 32.3718L25.0946 32.6592L25.4612 31.2047L24.3208 30.9173L23.9542 32.3718ZM36.1627 23.3679L36.1623 24.2727L37.6623 24.2731L37.6627 23.3679H36.1627ZM36.1623 28.7663L36.1617 29.6713L37.6617 29.6717L37.6623 28.7663H36.1623ZM41.7972 27.2505H45V25.7505H41.7972V27.2505ZM41.6381 24.0903L43.9154 21.7736L42.8457 20.7221L40.5684 23.0387L41.6381 24.0903ZM40.4616 29.8959L42.7264 32.2266L43.8021 31.1812L41.5374 28.8506L40.4616 29.8959Z" fill="url(#paint0_linear_23_596)"/>
</g>
<defs>
<linearGradient id="paint0_linear_23_596" x1="6.97122" y1="12.1188" x2="46.4271" y2="42.8376" gradientUnits="userSpaceOnUse">
<stop stop-color="#7381FD"/>
<stop offset="1" stop-color="#76C7FF"/>
</linearGradient>
<clipPath id="clip0_23_596">
<rect width="55" height="55" fill="white"/>
</clipPath>
</defs>
</svg>
