<svg width="55" height="55" viewBox="0 0 55 55" fill="none" xmlns="http://www.w3.org/2000/svg">
<g clip-path="url(#clip0_23_491)">
<path d="M0 15C0 6.71573 6.71573 0 15 0H40C48.2843 0 55 6.71573 55 15V40C55 48.2843 48.2843 55 40 55H15C6.71573 55 0 48.2843 0 40V15Z" fill="#F6FAFD"/>
<path d="M36.1064 20.1667C36.1064 24.8006 32.2678 28.5833 27.5 28.5833V30.0833C33.0671 30.0833 37.6064 25.6579 37.6064 20.1667H36.1064ZM27.5 28.5833C22.7322 28.5833 18.8936 24.8006 18.8936 20.1667H17.3936C17.3936 25.6579 21.9329 30.0833 27.5 30.0833V28.5833ZM18.8936 20.1667C18.8936 15.5327 22.7322 11.75 27.5 11.75V10.25C21.9329 10.25 17.3936 14.6754 17.3936 20.1667H18.8936ZM27.5 11.75C32.2678 11.75 36.1064 15.5327 36.1064 20.1667H37.6064C37.6064 14.6754 33.0671 10.25 27.5 10.25V11.75ZM19.8738 40.2655C19.8738 41.8994 18.5175 43.2501 16.8119 43.2501V44.7501C19.3168 44.7501 21.3738 42.7567 21.3738 40.2655H19.8738ZM16.8119 43.2501C15.1063 43.2501 13.75 41.8994 13.75 40.2655H12.25C12.25 42.7567 14.307 44.7501 16.8119 44.7501V43.2501ZM13.75 40.2655C13.75 38.6316 15.1063 37.281 16.8119 37.281V35.781C14.307 35.781 12.25 37.7744 12.25 40.2655H13.75ZM16.8119 37.281C18.5175 37.281 19.8738 38.6316 19.8738 40.2655H21.3738C21.3738 37.7744 19.3168 35.781 16.8119 35.781V37.281ZM30.5619 40.2654C30.5619 41.8993 29.2056 43.25 27.5 43.25V44.75C30.0049 44.75 32.0619 42.7566 32.0619 40.2654H30.5619ZM27.5 43.25C25.7944 43.25 24.4381 41.8993 24.4381 40.2654H22.9381C22.9381 42.7566 24.9951 44.75 27.5 44.75V43.25ZM24.4381 40.2654C24.4381 38.6315 25.7944 37.2809 27.5 37.2809V35.7809C24.9951 35.7809 22.9381 37.7743 22.9381 40.2654H24.4381ZM27.5 37.2809C29.2056 37.2809 30.5619 38.6315 30.5619 40.2654H32.0619C32.0619 37.7743 30.0049 35.7809 27.5 35.7809V37.2809ZM41.25 40.2655C41.25 41.8994 39.8937 43.2501 38.1881 43.2501V44.7501C40.693 44.7501 42.75 42.7567 42.75 40.2655H41.25ZM38.1881 43.2501C36.4825 43.2501 35.1262 41.8994 35.1262 40.2655H33.6262C33.6262 42.7567 35.6832 44.7501 38.1881 44.7501V43.2501ZM35.1262 40.2655C35.1262 38.6316 36.4825 37.281 38.1881 37.281V35.781C35.6832 35.781 33.6262 37.7744 33.6262 40.2655H35.1262ZM38.1881 37.281C39.8937 37.281 41.25 38.6316 41.25 40.2655H42.75C42.75 37.7744 40.693 35.781 38.1881 35.781V37.281ZM26.75 29.3333V33H28.25V29.3333H26.75ZM26.75 33V36.5309H28.25V33H26.75ZM27.5 33.75L37.6881 33.7501V32.2501L27.5 32.25V33.75ZM37.4381 33.5001V36.531H38.9381V33.5001H37.4381ZM27.5 32.25L17.3119 32.2501V33.7501L27.5 33.75V32.25ZM16.0619 33.5001V36.531H17.5619V33.5001H16.0619ZM17.3119 32.2501C16.6215 32.2501 16.0619 32.8097 16.0619 33.5001H17.5619C17.5619 33.6382 17.45 33.7501 17.3119 33.7501V32.2501ZM37.6881 33.7501C37.55 33.7501 37.4381 33.6382 37.4381 33.5001H38.9381C38.9381 32.8097 38.3785 32.2501 37.6881 32.2501V33.7501Z" fill="url(#paint0_linear_23_491)"/>
<path d="M24 18.4392C24 17.0904 25.1542 16.0184 26.6064 16.0184H26.8672V14.8772C26.8672 14.566 27.1651 14.2893 27.5001 14.2893C27.8352 14.2893 28.1331 14.566 28.1331 14.8772V16.0184H29.7715C30.1066 16.0184 30.4045 16.2951 30.4045 16.6063C30.4045 16.9175 30.1066 17.1942 29.7715 17.1942H26.6064C25.8618 17.1942 25.2659 17.7476 25.2659 18.4392C25.2659 19.1308 25.8617 19.6842 26.6064 19.6842H28.3936C29.8458 19.6842 31 20.7562 31 22.1049C31 23.4537 29.8458 24.5257 28.3936 24.5257H28.3565H28.3193H28.1331V25.7014C28.1331 26.0126 27.8352 26.2893 27.5001 26.2893C27.1651 26.2893 26.8672 26.0126 26.8672 25.7014V24.5257H25.1917C24.8566 24.5257 24.5587 24.249 24.5587 23.9378C24.5587 23.6266 24.8566 23.3499 25.1917 23.3499H28.3568H28.3939H28.4311C29.1757 23.3499 29.7715 22.7965 29.7715 22.1049C29.7715 21.4133 29.1757 20.8599 28.4311 20.8599H26.6438C25.1543 20.8599 24 19.7534 24 18.4392Z" fill="url(#paint1_linear_23_491)"/>
</g>
<defs>
<linearGradient id="paint0_linear_23_491" x1="8.46731" y1="5.84079" x2="53.6883" y2="27.9441" gradientUnits="userSpaceOnUse">
<stop stop-color="#7381FD"/>
<stop offset="1" stop-color="#76C7FF"/>
</linearGradient>
<linearGradient id="paint1_linear_23_491" x1="23.1318" y1="12.7557" x2="34.7785" y2="16.5119" gradientUnits="userSpaceOnUse">
<stop stop-color="#7381FD"/>
<stop offset="1" stop-color="#76C7FF"/>
</linearGradient>
<clipPath id="clip0_23_491">
<rect width="55" height="55" fill="white"/>
</clipPath>
</defs>
</svg>
