<svg width="55" height="55" viewBox="0 0 55 55" fill="none" xmlns="http://www.w3.org/2000/svg">
<g clip-path="url(#clip0_23_191)">
<path d="M0 15C0 6.71573 6.71573 0 15 0H40C48.2843 0 55 6.71573 55 15V40C55 48.2843 48.2843 55 40 55H15C6.71573 55 0 48.2843 0 40V15Z" fill="#F6FAFD"/>
<path d="M20.2283 22.5093L20.45 21.7928L20.4487 21.7924L20.2283 22.5093ZM19 23.4125H18.25V23.4137L19 23.4125ZM31.773 22.5091L31.9944 23.2257L31.998 23.2245L31.773 22.5091ZM33 23.4125L33.75 23.4145V23.4125H33ZM33 26.5L33.75 26.5014V26.4955L33 26.5ZM26.5 44.75C26.9142 44.75 27.25 44.4142 27.25 44C27.25 43.5858 26.9142 43.25 26.5 43.25V44.75ZM21.1765 44L20.4265 44.0034C20.4283 44.4163 20.7636 44.75 21.1765 44.75V44ZM21.1438 36.8139H20.3938V36.8173L21.1438 36.8139ZM19.0181 35.1013L18.2681 35.1025C18.2685 35.3857 18.4284 35.6444 18.6815 35.7715L19.0181 35.1013ZM32.9945 25.5705L32.2444 25.5686L32.2445 25.575L32.9945 25.5705ZM32.2445 29.4986C32.2437 29.9128 32.5789 30.2492 32.9931 30.25C33.4073 30.2508 33.7437 29.9156 33.7445 29.5014L32.2445 29.4986ZM29.4424 32L29.4394 32.75H29.4424V32ZM29 32.4199L28.25 32.4167V32.4199H29ZM29 43.5801H28.25V43.5833L29 43.5801ZM29.4424 44V43.25H29.4394L29.4424 44ZM41.5612 44V44.75H41.5641L41.5612 44ZM42 43.5801L42.75 43.5833V43.5801H42ZM42 32.4199H42.75V32.4167L42 32.4199ZM41.5612 32L41.5641 31.25H41.5612V32ZM20.4487 21.7924C19.379 21.4636 18.25 22.3058 18.25 23.4125H19.75C19.75 23.3841 19.7673 23.324 19.8403 23.2701C19.9122 23.2168 19.9754 23.2162 20.008 23.2262L20.4487 21.7924ZM31.5516 21.7925C27.8612 22.9329 24.1361 22.933 20.45 21.7928L20.0067 23.2258C23.9818 24.4554 28.0158 24.4553 31.9944 23.2257L31.5516 21.7925ZM33.75 23.4125C33.75 22.8329 33.4409 22.3513 33.0466 22.0613C32.6525 21.7715 32.1006 21.6198 31.548 21.7936L31.998 23.2245C32.0208 23.2174 32.0824 23.2142 32.1579 23.2698C32.2333 23.3252 32.25 23.3858 32.25 23.4125H33.75ZM21.1765 44.75H26.5V43.25H21.1765V44.75ZM20.3938 36.8173L20.4265 44.0034L21.9264 43.9966L21.8938 36.8105L20.3938 36.8173ZM20.2327 36.5506C20.3302 36.5995 20.3938 36.7009 20.3938 36.8139H21.8938C21.8938 36.1362 21.5125 35.5148 20.9059 35.2101L20.2327 36.5506ZM18.6815 35.7715L20.2327 36.5506L20.9059 35.2101L19.3547 34.4311L18.6815 35.7715ZM18.25 23.4137L18.2681 35.1025L19.7681 35.1001L19.75 23.4114L18.25 23.4137ZM20.3938 15.8775C20.3938 18.9779 22.9051 21.5049 25.9999 21.5049V20.0049C23.7397 20.0049 21.8938 18.1556 21.8938 15.8775H20.3938ZM25.9999 10.25C22.9051 10.25 20.3938 12.7771 20.3938 15.8775H21.8938C21.8938 13.5993 23.7397 11.75 25.9999 11.75V10.25ZM31.6061 15.8775C31.6061 12.7771 29.0948 10.25 25.9999 10.25V11.75C28.2602 11.75 30.1061 13.5993 30.1061 15.8775H31.6061ZM25.9999 21.5049C29.0948 21.5049 31.6061 18.9779 31.6061 15.8775H30.1061C30.1061 18.1556 28.2602 20.0049 25.9999 20.0049V21.5049ZM33.75 26.4955L33.7444 25.5661L32.2445 25.575L32.25 26.5045L33.75 26.4955ZM33.7445 25.5725L33.75 23.4145L32.25 23.4106L32.2444 25.5686L33.7445 25.5725ZM32.25 26.4986L32.2445 29.4986L33.7445 29.5014L33.75 26.5014L32.25 26.4986ZM29.4453 31.25C28.8192 31.2476 28.2529 31.7391 28.25 32.4167L29.75 32.4231C29.7491 32.6351 29.5789 32.7505 29.4394 32.75L29.4453 31.25ZM28.25 32.4199V43.5801H29.75V32.4199H28.25ZM28.25 43.5833C28.2529 44.2609 28.8192 44.7524 29.4453 44.75L29.4394 43.25C29.5789 43.2495 29.7491 43.3649 29.75 43.5769L28.25 43.5833ZM29.4424 44.75H41.5612V43.25H29.4424V44.75ZM41.5641 44.75C42.1868 44.7476 42.7471 44.257 42.75 43.5833L41.25 43.5769C41.2509 43.3661 41.4195 43.2505 41.5583 43.25L41.5641 44.75ZM42.75 43.5801V32.4199H41.25V43.5801H42.75ZM42.75 32.4167C42.7471 31.743 42.1868 31.2524 41.5641 31.25L41.5583 32.75C41.4195 32.7495 41.2509 32.6338 41.25 32.4231L42.75 32.4167ZM33.9261 31.25H29.4424V32.75H33.9261V31.25ZM33.1761 32V37.2603H34.6761V32H33.1761ZM35.0236 35.7494L33.6484 36.7313L34.52 37.9521L35.8952 36.9702L35.0236 35.7494ZM35.1341 36.9661L36.4729 37.944L37.3576 36.7328L36.0188 35.7549L35.1341 36.9661ZM41.5612 31.25H37.0742V32.75H41.5612V31.25ZM37.0742 31.25H33.9261V32.75H37.0742V31.25ZM37.8242 37.2577V32H36.3242V37.2577H37.8242ZM35.8952 36.9702C35.6671 37.1331 35.3604 37.1314 35.1341 36.9661L36.0188 35.7549C35.7229 35.5388 35.3218 35.5365 35.0236 35.7494L35.8952 36.9702ZM36.4729 37.944C37.0345 38.3543 37.8242 37.9532 37.8242 37.2577H36.3242C36.3242 36.7258 36.9282 36.4191 37.3576 36.7328L36.4729 37.944ZM33.1761 37.2603C33.1761 37.9516 33.9574 38.3537 34.52 37.9521L33.6484 36.7313C34.0786 36.4241 34.6761 36.7317 34.6761 37.2603H33.1761Z" fill="url(#paint0_linear_23_191)"/>
</g>
<defs>
<linearGradient id="paint0_linear_23_191" x1="15.2114" y1="5.8408" x2="54.2039" y2="21.1504" gradientUnits="userSpaceOnUse">
<stop stop-color="#7381FD"/>
<stop offset="1" stop-color="#76C7FF"/>
</linearGradient>
<clipPath id="clip0_23_191">
<rect width="55" height="55" fill="white"/>
</clipPath>
</defs>
</svg>
