<svg width="55" height="55" viewBox="0 0 55 55" fill="none" xmlns="http://www.w3.org/2000/svg">
<g clip-path="url(#clip0_23_465)">
<path d="M0 15C0 6.71573 6.71573 0 15 0H40C48.2843 0 55 6.71573 55 15V40C55 48.2843 48.2843 55 40 55H15C6.71573 55 0 48.2843 0 40V15Z" fill="#F6FAFD"/>
<path d="M15.1322 33.8682H27.7724M29.1563 38.6887H26.6266H13.3351C12.0475 38.6887 11 37.6296 11 36.3278V17.363C11 16.06 12.0473 15 13.3351 15H41.6648C42.9525 15 44 16.0601 44 17.3631V36.3286C44 37.3833 42.9021 38.442 41.6648 38.6887M15.1322 20.1173H39.6303M17.1947 23.5832H37.6064" stroke="url(#paint0_linear_23_465)" stroke-width="1.5" stroke-linecap="round" stroke-linejoin="round"/>
<path d="M33.04 39.2497C33.1926 39.2125 33.307 39.2119 33.4214 39.2119C33.8791 39.2119 34.3372 39.3977 34.6805 39.7694C34.9094 39.9924 35.2142 40.1411 35.5193 40.1411C35.8245 40.1411 36.1675 39.9924 36.3582 39.7694C36.7396 39.3234 37.3884 39.1382 37.9606 39.2497C37.9987 39.2497 38.0369 39.2589 38.075 39.2681C38.1132 39.2773 38.1513 39.2866 38.1895 39.2866C38.4224 39.2866 38.8257 39.0848 38.8257 39.0848L38.9857 38.9544C39.0588 38.8304 39.2984 38.5428 39.3338 38.2827C39.4101 37.688 39.7534 37.2051 40.3256 36.9449C40.6307 36.8334 40.8592 36.5736 40.9355 36.2762C41.05 35.9788 41.0122 35.644 40.8214 35.3838C40.5163 34.8634 40.5163 34.2687 40.8214 33.7484C40.974 33.4882 41.0118 33.1537 40.9355 32.8563C40.8211 32.559 40.5926 32.2991 40.3256 32.1876C39.7915 31.9646 39.4101 31.4436 39.3338 30.8489C39.2575 30.2913 38.7998 29.8456 38.1895 29.8456C38.1132 29.8456 38.0369 29.8456 37.9606 29.8828C37.3884 29.9943 36.7778 29.8081 36.3582 29.3621C36.1484 29.1205 35.8344 29 35.5149 29C35.1954 29 34.8706 29.1205 34.6418 29.3621C34.3366 29.6966 33.8792 29.9196 33.3833 29.9196H33.3803C33.2668 29.9196 33.1534 29.9196 33.04 29.8828C33.0018 29.8828 32.9637 29.8735 32.9256 29.8642C32.8874 29.8549 32.8493 29.8456 32.8111 29.8456C32.239 29.8456 31.7431 30.2913 31.6668 30.8489C31.5905 31.4436 31.2476 31.9274 30.6754 32.1876C30.3702 32.2991 30.1407 32.559 30.0644 32.8563C29.95 33.1537 29.9884 33.4882 30.1792 33.7484C30.4843 34.2687 30.4843 34.8634 30.1792 35.3838C30.0266 35.644 29.9881 35.9789 30.0644 36.2762C30.1788 36.5736 30.4084 36.8334 30.6754 36.9449C31.2094 37.1679 31.5905 37.688 31.6668 38.2827C31.6954 38.4904 31.7771 38.6822 31.8994 38.8418C32.0033 38.8687 32.068 38.9477 32.0871 39.0304C32.2815 39.1883 32.5288 39.2866 32.8111 39.2866H32.8131C32.8888 39.2866 32.9644 39.2866 33.04 39.2497ZM33.04 39.2497L30 43.2197C30.1115 43.1787 32.1066 43.4628 32.1066 43.4628L33.2616 45L34.6708 40.1399M37.8463 39.4452L40.7384 43.2284L38.853 43.342C38.853 43.342 37.4993 44.8761 37.4693 44.994L36.2117 40.3279M38.4118 34.5706C38.4118 36.1993 37.1082 37.5197 35.5001 37.5197C33.892 37.5197 32.5883 36.1993 32.5883 34.5706C32.5883 32.9418 33.892 31.6214 35.5001 31.6214C37.1082 31.6214 38.4118 32.9418 38.4118 34.5706Z" stroke="url(#paint1_linear_23_465)" stroke-width="1.3" stroke-linecap="round" stroke-linejoin="round"/>
</g>
<defs>
<linearGradient id="paint0_linear_23_465" x1="6.90725" y1="11.9725" x2="44.9539" y2="41.2765" gradientUnits="userSpaceOnUse">
<stop stop-color="#7381FD"/>
<stop offset="1" stop-color="#76C7FF"/>
</linearGradient>
<linearGradient id="paint1_linear_23_465" x1="28.6357" y1="26.9552" x2="46.2906" y2="33.666" gradientUnits="userSpaceOnUse">
<stop stop-color="#7381FD"/>
<stop offset="1" stop-color="#76C7FF"/>
</linearGradient>
<clipPath id="clip0_23_465">
<rect width="55" height="55" fill="white"/>
</clipPath>
</defs>
</svg>
