<svg width="55" height="55" viewBox="0 0 55 55" fill="none" xmlns="http://www.w3.org/2000/svg">
<g clip-path="url(#clip0_23_246)">
<path d="M0 15C0 6.71573 6.71573 0 15 0H40C48.2843 0 55 6.71573 55 15V40C55 48.2843 48.2843 55 40 55H15C6.71573 55 0 48.2843 0 40V15Z" fill="#F6FAFD"/>
<path d="M42.2159 13L42.2176 12.25H42.2159V13ZM21.0969 41.2498C20.6827 41.2498 20.3469 41.5856 20.3469 41.9998C20.3469 42.414 20.6826 42.7498 21.0969 42.7498V41.2498ZM33.9077 42.75C34.3219 42.75 34.6577 42.4142 34.6577 42C34.6577 41.5858 34.3219 41.25 33.9077 41.25V42.75ZM33.2311 26.3226L32.4876 26.2235C32.4524 26.4877 32.5601 26.7508 32.7704 26.9145L33.2311 26.3226ZM33.2837 25.5822L34.0338 25.5892L34.0337 25.5752L33.2837 25.5822ZM33.2311 24.8418L32.7731 24.2478C32.561 24.4113 32.4522 24.6755 32.4876 24.9409L33.2311 24.8418ZM34.8586 23.5867L34.4077 22.9873L34.4006 22.9928L34.8586 23.5867ZM34.9526 23.1017L34.3053 23.4807L34.3125 23.4925L34.9526 23.1017ZM33.4115 20.4694L32.7585 20.8385L32.7643 20.8483L33.4115 20.4694ZM32.9416 20.3065L33.2184 21.0036L33.2202 21.0028L32.9416 20.3065ZM31.0209 21.0692L30.5702 21.6687C30.7791 21.8257 31.0547 21.8627 31.2976 21.7662L31.0209 21.0692ZM29.7203 20.3287L28.978 20.4356C29.0158 20.6981 29.1893 20.9211 29.4345 21.0221L29.7203 20.3287ZM29.055 18V18.75H29.0623L29.055 18ZM25.9652 18L25.958 18.75H25.9652V18ZM25.2999 20.3287L25.5839 21.0229C25.83 20.9222 26.0044 20.6988 26.0423 20.4356L25.2999 20.3287ZM23.9994 21.0692L23.7235 21.7666C23.9669 21.8628 24.2428 21.8253 24.4516 21.6675L23.9994 21.0692ZM22.0711 20.3065L21.7925 21.0028L21.7952 21.0039L22.0711 20.3065ZM21.6012 20.4694L22.2485 20.8484L22.2541 20.8385L21.6012 20.4694ZM20.0601 23.1017L20.7004 23.4925L20.7073 23.4806L20.0601 23.1017ZM20.1541 23.5867L20.6128 22.9932L20.605 22.9874L20.1541 23.5867ZM21.7779 24.8418L22.5214 24.9405C22.5566 24.6755 22.4481 24.4118 22.2365 24.2483L21.7779 24.8418ZM21.7253 25.5822L20.9753 25.5748C20.9753 25.5796 20.9753 25.5844 20.9753 25.5892L21.7253 25.5822ZM21.7779 26.3226L22.2365 26.9161C22.4482 26.7525 22.5567 26.4886 22.5213 26.2235L21.7779 26.3226ZM20.1541 27.5777L20.605 28.1771L20.6127 28.1711L20.1541 27.5777ZM20.0601 28.0627L20.7074 27.6837L20.7002 27.6719L20.0601 28.0627ZM21.6012 30.695L22.2542 30.3259L22.2485 30.3161L21.6012 30.695ZM22.0711 30.8579L21.7943 30.1608L21.7925 30.1616L22.0711 30.8579ZM23.9918 30.0952L24.4425 29.4957C24.2336 29.3387 23.958 29.3017 23.7151 29.3982L23.9918 30.0952ZM25.2924 30.8357L26.0347 30.7288C25.997 30.4663 25.8234 30.2433 25.5782 30.1423L25.2924 30.8357ZM25.9577 33.1644V32.4144H25.9504L25.9577 33.1644ZM29.04 33.1644L29.0472 32.4144H29.04V33.1644ZM29.7053 30.8357L29.4213 30.1415C29.1752 30.2422 29.0008 30.4656 28.9629 30.7288L29.7053 30.8357ZM31.0058 30.0952L31.2826 29.3982C31.039 29.3015 30.7626 29.3389 30.5536 29.4969L31.0058 30.0952ZM32.9266 30.8579L33.2052 30.1616L33.2034 30.1608L32.9266 30.8579ZM33.3965 30.695L32.7491 30.316L32.7436 30.3259L33.3965 30.695ZM34.9376 28.0627L34.2973 27.6718L34.2903 27.6838L34.9376 28.0627ZM34.8436 27.5777L34.3829 28.1696L34.3927 28.177L34.8436 27.5777ZM27.5064 28.2404V27.4904H27.5053L27.5064 28.2404ZM30.2014 25.5822H29.4514V25.5833L30.2014 25.5822ZM42.2142 13.75C42.5092 13.7507 42.7799 13.8588 42.9694 14.0329L43.9842 12.9283C43.5051 12.4881 42.8682 12.2515 42.2176 12.25L42.2142 13.75ZM12.0302 14.0333C12.2206 13.8586 12.4919 13.75 12.7854 13.75V12.25C12.1324 12.25 11.4953 12.4882 11.0166 12.9276L12.0302 14.0333ZM11.75 14.6365C11.75 14.4247 11.8417 14.2059 12.0302 14.0333L11.0166 12.9276C10.5354 13.3683 10.25 13.9807 10.25 14.6365H11.75ZM12.0309 36.7743C11.8423 36.6017 11.75 36.3821 11.75 36.1702H10.25C10.25 36.8261 10.536 37.4393 11.0174 37.88L12.0309 36.7743ZM12.7853 37.0569C12.4918 37.0569 12.2213 36.949 12.0309 36.7743L11.0174 37.88C11.496 38.3192 12.1323 38.5569 12.7853 38.5569V37.0569ZM42.9699 36.7736C42.7798 36.9483 42.5086 37.0569 42.2157 37.0569V38.5569C42.869 38.5569 43.506 38.318 43.9842 37.8786L42.9699 36.7736ZM12.7854 13.75H42.2159V12.25H12.7854V13.75ZM21.0969 42.7498L24.692 42.7499V41.2499L21.0969 41.2498V42.7498ZM24.692 37.0569H12.7853V38.5569H24.692V37.0569ZM25.442 41.9999V37.8069H23.942V41.9999H25.442ZM24.692 42.7499H30.3045V41.2499H24.692V42.7499ZM30.3045 42.7499L33.9077 42.75V41.25L30.3045 41.2499V42.7499ZM42.2157 37.0569H30.3045V38.5569H42.2157V37.0569ZM30.3045 37.0569H24.692V38.5569H30.3045V37.0569ZM31.0545 41.9999V37.8069H29.5545V41.9999H31.0545ZM43.25 36.1703C43.25 36.3818 43.1584 36.6007 42.9699 36.7736L43.9842 37.8786C44.4645 37.4381 44.75 36.8259 44.75 36.1703H43.25ZM42.9694 14.0329C43.1578 14.2056 43.25 14.4251 43.25 14.6366H44.75C44.75 13.981 44.4646 13.3688 43.9842 12.9283L42.9694 14.0329ZM44.75 36.1703V14.6366H43.25V36.1703H44.75ZM11.75 36.1702V14.6365H10.25V36.1702H11.75ZM33.9745 26.4218C34.0113 26.1457 34.0312 25.8677 34.0338 25.5892L32.5337 25.5752C32.5317 25.792 32.5163 26.0085 32.4876 26.2235L33.9745 26.4218ZM34.0337 25.5752C34.0311 25.2967 34.0113 25.0187 33.9745 24.7426L32.4876 24.9409C32.5163 25.1559 32.5317 25.3724 32.5337 25.5892L34.0337 25.5752ZM33.689 25.4357L35.3166 24.1806L34.4006 22.9928L32.7731 24.2478L33.689 25.4357ZM35.3095 24.186C35.5299 24.0202 35.683 23.7782 35.736 23.5045L34.2634 23.2192C34.2817 23.1245 34.3343 23.0425 34.4077 22.9873L35.3095 24.186ZM35.736 23.5045C35.789 23.2307 35.7375 22.948 35.5927 22.7109L34.3125 23.4925C34.2631 23.4116 34.245 23.314 34.2634 23.2192L35.736 23.5045ZM35.5998 22.7228L34.0587 20.0905L32.7643 20.8483L34.3053 23.4807L35.5998 22.7228ZM34.0644 20.1003C33.9289 19.8606 33.7108 19.6808 33.4536 19.5917L32.9622 21.0089C32.8781 20.9797 32.8047 20.9203 32.7585 20.8385L34.0644 20.1003ZM33.4536 19.5917C33.1966 19.5026 32.9157 19.5091 32.6631 19.6102L33.2202 21.0028C33.1375 21.0359 33.0461 21.038 32.9622 21.0089L33.4536 19.5917ZM32.6649 19.6094L30.7441 20.3721L31.2976 21.7662L33.2184 21.0036L32.6649 19.6094ZM31.4715 20.4697C31.0209 20.1309 30.5284 19.8506 30.0061 19.6353L29.4345 21.0221C29.8398 21.1892 30.2215 21.4065 30.5702 21.6687L31.4715 20.4697ZM30.4627 20.2218L30.1732 18.2115L28.6885 18.4249L28.978 20.4356L30.4627 20.2218ZM30.1732 18.2115C30.1341 17.9393 29.9963 17.6932 29.7885 17.5172L28.819 18.6618C28.7496 18.603 28.702 18.5192 28.6885 18.4249L30.1732 18.2115ZM29.7885 17.5172C29.5811 17.3415 29.3177 17.2474 29.0477 17.25L29.0623 18.75C28.9747 18.7508 28.8882 18.7204 28.819 18.6618L29.7885 17.5172ZM29.055 17.25H25.9652V18.75H29.055V17.25ZM25.9725 17.25C25.7025 17.2474 25.4392 17.3415 25.2317 17.5172L26.2012 18.6618C26.132 18.7204 26.0455 18.7508 25.958 18.75L25.9725 17.25ZM25.2317 17.5172C25.0239 17.6932 24.886 17.9397 24.847 18.2119L26.3317 18.4253C26.3182 18.5196 26.2707 18.603 26.2012 18.6618L25.2317 17.5172ZM24.847 18.2119L24.5576 20.2218L26.0423 20.4356L26.3317 18.4253L24.847 18.2119ZM25.016 19.6345C24.4917 19.849 23.9979 20.1301 23.5471 20.4709L24.4516 21.6675C24.7987 21.4051 25.1793 21.1884 25.5839 21.0229L25.016 19.6345ZM24.2752 20.3717L22.3469 19.6091L21.7952 21.0039L23.7235 21.7666L24.2752 20.3717ZM22.3497 19.6102C22.097 19.5091 21.8161 19.5026 21.5591 19.5917L22.0505 21.0089C21.9666 21.038 21.8752 21.0359 21.7925 21.0028L22.3497 19.6102ZM21.5591 19.5917C21.3019 19.6808 21.0838 19.8606 20.9483 20.1003L22.2541 20.8385C22.2079 20.9203 22.1346 20.9797 22.0505 21.0089L21.5591 19.5917ZM20.954 20.0905L19.4129 22.7228L20.7073 23.4806L22.2485 20.8484L20.954 20.0905ZM19.42 22.7109C19.2752 22.948 19.2237 23.2307 19.2767 23.5045L20.7493 23.2192C20.7677 23.314 20.7498 23.4116 20.7004 23.4925L19.42 22.7109ZM19.2767 23.5045C19.3297 23.7782 19.4828 24.0202 19.7032 24.186L20.605 22.9874C20.6784 23.0426 20.731 23.1245 20.7493 23.2192L19.2767 23.5045ZM19.6954 24.1801L21.3192 25.4352L22.2365 24.2483L20.6128 22.9932L19.6954 24.1801ZM21.0344 24.743C20.9978 25.0188 20.978 25.2966 20.9753 25.5748L22.4752 25.5896C22.4774 25.3725 22.4928 25.1558 22.5214 24.9405L21.0344 24.743ZM20.9753 25.5892C20.9779 25.8677 20.9977 26.1457 21.0345 26.4218L22.5213 26.2235C22.4926 26.0085 22.4773 25.792 22.4752 25.5752L20.9753 25.5892ZM21.3192 25.7292L19.6954 26.9843L20.6127 28.1711L22.2365 26.9161L21.3192 25.7292ZM19.7032 26.9784C19.4828 27.1442 19.3297 27.3862 19.2767 27.6599L20.7493 27.9452C20.731 28.0399 20.6784 28.1219 20.605 28.1771L19.7032 26.9784ZM19.2767 27.6599C19.2237 27.9336 19.2752 28.2164 19.42 28.4535L20.7002 27.6719C20.7496 27.7528 20.7677 27.8504 20.7493 27.9452L19.2767 27.6599ZM19.4129 28.4416L20.954 31.0739L22.2485 30.3161L20.7074 27.6837L19.4129 28.4416ZM20.9483 31.0641C21.0838 31.3038 21.3019 31.4836 21.5591 31.5727L22.0505 30.1555C22.1346 30.1846 22.208 30.2441 22.2542 30.3259L20.9483 31.0641ZM21.5591 31.5727C21.8161 31.6618 22.097 31.6553 22.3497 31.5542L21.7925 30.1616C21.8752 30.1285 21.9666 30.1264 22.0505 30.1555L21.5591 31.5727ZM22.3479 31.555L24.2686 30.7923L23.7151 29.3982L21.7943 30.1608L22.3479 31.555ZM23.5412 30.6947C23.9918 31.0335 24.4843 31.3138 25.0066 31.5291L25.5782 30.1423C25.1729 29.9752 24.7913 29.7579 24.4425 29.4957L23.5412 30.6947ZM24.5501 30.9426L24.8395 32.9529L26.3242 32.7395L26.0347 30.7288L24.5501 30.9426ZM24.8395 32.9529C24.8786 33.2251 25.0164 33.4712 25.2242 33.6472L26.1937 32.5026C26.2631 32.5614 26.3107 32.6452 26.3242 32.7395L24.8395 32.9529ZM25.2242 33.6472C25.4317 33.8229 25.695 33.917 25.965 33.9144L25.9504 32.4144C26.038 32.4136 26.1245 32.444 26.1937 32.5026L25.2242 33.6472ZM25.9577 33.9144H29.04V32.4144H25.9577V33.9144ZM29.0327 33.9144C29.3026 33.917 29.566 33.8229 29.7735 33.6472L28.804 32.5026C28.8732 32.444 28.9597 32.4136 29.0472 32.4144L29.0327 33.9144ZM29.7735 33.6472C29.9813 33.4712 30.1192 33.2247 30.1582 32.9525L28.6735 32.7391C28.687 32.6448 28.7345 32.5614 28.804 32.5026L29.7735 33.6472ZM30.1582 32.9525L30.4476 30.9426L28.9629 30.7288L28.6735 32.7391L30.1582 32.9525ZM29.9892 31.5299C30.5134 31.3154 31.0073 31.0343 31.4581 30.6935L30.5536 29.4969C30.2065 29.7593 29.8259 29.976 29.4213 30.1415L29.9892 31.5299ZM30.7291 30.7923L32.6498 31.555L33.2034 30.1608L31.2826 29.3982L30.7291 30.7923ZM32.648 31.5542C32.9007 31.6553 33.1815 31.6618 33.4385 31.5727L32.9472 30.1555C33.0311 30.1264 33.1225 30.1285 33.2052 30.1616L32.648 31.5542ZM33.4385 31.5727C33.6957 31.4836 33.9138 31.3038 34.0493 31.0641L32.7436 30.3259C32.7898 30.2441 32.8631 30.1846 32.9472 30.1555L33.4385 31.5727ZM34.0437 31.0739L35.5848 28.4416L34.2903 27.6838L32.7491 30.316L34.0437 31.0739ZM35.5777 28.4535C35.7224 28.2164 35.774 27.9336 35.721 27.6599L34.2483 27.9452C34.23 27.8504 34.2479 27.7527 34.2973 27.6718L35.5777 28.4535ZM35.721 27.6599C35.6679 27.3862 35.5149 27.1442 35.2945 26.9784L34.3927 28.177C34.3193 28.1218 34.2667 28.0399 34.2483 27.9452L35.721 27.6599ZM35.3043 26.9858L33.6917 25.7308L32.7704 26.9145L34.3829 28.1696L35.3043 26.9858ZM27.5053 27.4904C27.1173 27.4909 26.7387 27.378 26.4175 27.1672L25.5944 28.4212C26.1619 28.7937 26.8276 28.9913 27.5074 28.9904L27.5053 27.4904ZM26.4175 27.1672C26.0964 26.9565 25.8478 26.6579 25.7013 26.3105L24.3192 26.8935C24.5824 27.5175 25.0268 28.0487 25.5944 28.4212L26.4175 27.1672ZM25.7013 26.3105C25.5549 25.9633 25.5165 25.5818 25.5904 25.2137L24.1199 24.9181C23.9864 25.5818 24.056 26.2694 24.3192 26.8935L25.7013 26.3105ZM25.5904 25.2137C25.6645 24.8456 25.848 24.5057 26.1196 24.2378L25.0662 23.1699C24.5833 23.6463 24.2533 24.2544 24.1199 24.9181L25.5904 25.2137ZM26.1196 24.2378C26.3913 23.9698 26.739 23.786 27.1193 23.7113L26.8301 22.2394C26.1631 22.3704 25.5491 22.6937 25.0662 23.1699L26.1196 24.2378ZM27.1193 23.7113C27.4996 23.6366 27.8938 23.6747 28.2515 23.8205L28.8176 22.4314C28.1885 22.1751 27.497 22.1084 26.8301 22.2394L27.1193 23.7113ZM28.2515 23.8205C28.609 23.9662 28.9128 24.2124 29.1258 24.5261L30.3669 23.6838C29.9864 23.1231 29.4468 22.6879 28.8176 22.4314L28.2515 23.8205ZM29.1258 24.5261C29.3386 24.8397 29.4514 25.2072 29.4514 25.5822H30.9514C30.9514 24.9054 30.7475 24.2447 30.3669 23.6838L29.1258 24.5261ZM29.4514 25.5833C29.4518 25.832 29.4024 26.0786 29.3057 26.3092L30.689 26.8892C30.8628 26.4747 30.9521 26.0302 30.9514 25.5811L29.4514 25.5833ZM29.3057 26.3092C29.209 26.5397 29.0669 26.75 28.8867 26.9276L29.9401 27.9956C30.2606 27.6795 30.5153 27.3036 30.689 26.8892L29.3057 26.3092ZM28.8867 26.9276C28.7066 27.1053 28.492 27.2469 28.255 27.3437L28.8221 28.7323C29.2396 28.5618 29.6196 28.3117 29.9401 27.9956L28.8867 26.9276ZM28.255 27.3437C28.018 27.4405 27.7636 27.4904 27.5064 27.4904V28.9904C27.9576 28.9904 28.4047 28.9028 28.8221 28.7323L28.255 27.3437Z" fill="url(#paint0_linear_23_246)"/>
</g>
<defs>
<linearGradient id="paint0_linear_23_246" x1="5.97122" y1="8.35201" x2="51.5259" y2="36.8419" gradientUnits="userSpaceOnUse">
<stop stop-color="#7381FD"/>
<stop offset="1" stop-color="#76C7FF"/>
</linearGradient>
<clipPath id="clip0_23_246">
<rect width="55" height="55" fill="white"/>
</clipPath>
</defs>
</svg>
