<svg width="55" height="55" viewBox="0 0 55 55" fill="none" xmlns="http://www.w3.org/2000/svg">
<g clip-path="url(#clip0_23_495)">
<path d="M0 15C0 6.71573 6.71573 0 15 0H40C48.2843 0 55 6.71573 55 15V40C55 48.2843 48.2843 55 40 55H15C6.71573 55 0 48.2843 0 40V15Z" fill="#F6FAFD"/>
<path d="M11.9932 42.5774C12.0403 42.8828 12.2693 43.1128 12.5743 43.1612C12.8905 43.2064 13.2877 43.25 13.7721 43.25C15.1423 43.25 17.1154 42.8982 19.1989 41.4037L19.5764 41.1329L19.987 41.3503C22.3537 42.6033 24.9473 43.25 27.4867 43.25C31.5577 43.25 35.5814 41.6778 38.6356 38.6238L38.6376 38.6218C44.7862 32.5198 44.7891 22.5293 38.6356 16.3762C35.6262 13.3672 31.6978 11.75 27.4867 11.75C23.2777 11.75 19.3008 13.414 16.339 16.375C10.6011 22.1601 10.1894 31.4123 15.4117 37.6046L15.7239 37.9748L15.515 38.4117C14.9492 39.5949 13.9376 41.0671 12.377 41.8531C12.0927 42.0127 11.9506 42.3004 11.9932 42.5774ZM11.9932 42.5774L11.2522 42.6915" stroke="url(#paint0_linear_23_495)" stroke-width="1.5"/>
<path d="M26.3238 21.564C24.4339 21.564 22.9316 23.0661 22.9316 24.956C22.9316 26.7975 24.434 28.3479 26.3726 28.3479H28.6986C29.6678 28.3479 30.4432 29.1234 30.4432 30.0924C30.4432 31.0615 29.6678 31.8369 28.6986 31.8369H28.6503H28.602H24.4826C24.0465 31.8369 23.6588 32.2246 23.6588 32.6607C23.6588 33.0967 24.0465 33.4844 24.4826 33.4844H26.6632V35.1319C26.6632 35.5679 27.051 35.9557 27.487 35.9557C27.9231 35.9557 28.3108 35.568 28.3108 35.1319V33.4844H28.5532H28.6016H28.6499C30.5399 33.4844 32.0421 31.9823 32.0421 30.0924C32.0421 28.2026 30.5399 26.7005 28.6499 26.7005H26.3238C25.3547 26.7005 24.5792 25.925 24.5792 24.956C24.5792 23.9869 25.3547 23.2115 26.3238 23.2115H30.4432C30.8793 23.2115 31.267 22.8238 31.267 22.3877C31.267 21.9517 30.8793 21.564 30.4432 21.564H28.3108V19.9649C28.3108 19.5288 27.9231 19.1411 27.487 19.1411C27.051 19.1411 26.6632 19.5288 26.6632 19.9649V21.564H26.3238Z" fill="url(#paint1_linear_23_495)"/>
</g>
<defs>
<linearGradient id="paint0_linear_23_495" x1="7.28376" y1="7.72421" x2="51.9658" y2="32.8188" gradientUnits="userSpaceOnUse">
<stop stop-color="#7381FD"/>
<stop offset="1" stop-color="#76C7FF"/>
</linearGradient>
<linearGradient id="paint1_linear_23_495" x1="21.8017" y1="16.9922" x2="37.1585" y2="21.5925" gradientUnits="userSpaceOnUse">
<stop stop-color="#7381FD"/>
<stop offset="1" stop-color="#76C7FF"/>
</linearGradient>
<clipPath id="clip0_23_495">
<rect width="55" height="55" fill="white"/>
</clipPath>
</defs>
</svg>
