<svg width="55" height="55" viewBox="0 0 55 55" fill="none" xmlns="http://www.w3.org/2000/svg">
<g clip-path="url(#clip0_23_122)">
<path d="M0 15C0 6.71573 6.71573 0 15 0H40C48.2843 0 55 6.71573 55 15V40C55 48.2843 48.2843 55 40 55H15C6.71573 55 0 48.2843 0 40V15Z" fill="#F6FAFD"/>
<path d="M33.6577 42.5C34.0719 42.5 34.4077 42.1642 34.4077 41.75C34.4077 41.3358 34.072 41 33.6578 41L33.6577 42.5ZM20.8469 40.9998C20.4327 40.9998 20.0969 41.3356 20.0969 41.7498C20.0969 42.164 20.4327 42.4998 20.8469 42.4998V40.9998ZM41.9659 12.75L41.9676 12H41.9659V12.75ZM41.9642 13.5C42.2593 13.5007 42.5299 13.6088 42.7194 13.7829L43.7342 12.6783C43.2551 12.2381 42.6183 12.0015 41.9676 12L41.9642 13.5ZM11.7802 13.7833C11.9706 13.6086 12.242 13.5 12.5355 13.5V12C11.8825 12 11.2454 12.2382 10.7667 12.6776L11.7802 13.7833ZM11.5 14.3865C11.5 14.1747 11.5917 13.9559 11.7802 13.7833L10.7667 12.6776C10.2854 13.1183 10 13.7307 10 14.3865H11.5ZM11.781 36.5243C11.5924 36.3517 11.5 36.1321 11.5 35.9202H10C10 36.5761 10.2861 37.1893 10.7674 37.63L11.781 36.5243ZM12.5353 36.8069C12.2418 36.8069 11.9713 36.699 11.781 36.5243L10.7674 37.63C11.2461 38.0692 11.8823 38.3069 12.5353 38.3069V36.8069ZM42.7199 36.5236C42.5297 36.6983 42.2586 36.8069 41.9657 36.8069V38.3069C42.6191 38.3069 43.2561 38.068 43.7342 37.6286L42.7199 36.5236ZM12.5355 13.5H41.9659V12H12.5355V13.5ZM20.8469 42.4998L24.442 42.4999L24.4421 40.9999L20.8469 40.9998V42.4998ZM24.442 36.8069H12.5353V38.3069H24.442V36.8069ZM25.192 41.7499V37.5569H23.692V41.7499H25.192ZM24.442 42.4999H30.0546V40.9999H24.4421L24.442 42.4999ZM30.0546 42.4999L33.6577 42.5L33.6578 41L30.0546 40.9999V42.4999ZM41.9657 36.8069H30.0546V38.3069H41.9657V36.8069ZM30.0546 36.8069H24.442V38.3069H30.0546V36.8069ZM30.8046 41.7499V37.5569H29.3046V41.7499H30.8046ZM43 35.9203C43 36.1318 42.9084 36.3507 42.7199 36.5236L43.7342 37.6286C44.2146 37.1881 44.5 36.5759 44.5 35.9203H43ZM42.7194 13.7829C42.9079 13.9556 43 14.1751 43 14.3866H44.5C44.5 13.731 44.2146 13.1188 43.7342 12.6783L42.7194 13.7829ZM44.5 18.25V14.3866H43V18.25H44.5ZM11.5 18.25V14.3865H10V18.25H11.5ZM43.75 17.5H10.75V19H43.75V17.5ZM11.5 35.9202V31.75H10V35.9202H11.5ZM11.5 31.75V18.25H10V31.75H11.5ZM44.5 35.9203V31.75H43V35.9203H44.5ZM44.5 31.75V18.25H43V31.75H44.5ZM10.75 32.5H43.75V31H10.75V32.5Z" fill="url(#paint0_linear_23_122)"/>
<path fill-rule="evenodd" clip-rule="evenodd" d="M13.5 22C13.5 21.7239 13.7239 21.5 14 21.5H18C18.2761 21.5 18.5 21.7239 18.5 22C18.5 22.2761 18.2761 22.5 18 22.5H14C13.7239 22.5 13.5 22.2761 13.5 22Z" fill="url(#paint1_linear_23_122)"/>
<path fill-rule="evenodd" clip-rule="evenodd" d="M13.5 25C13.5 24.7239 13.7239 24.5 14 24.5H18C18.2761 24.5 18.5 24.7239 18.5 25C18.5 25.2761 18.2761 25.5 18 25.5H14C13.7239 25.5 13.5 25.2761 13.5 25Z" fill="url(#paint2_linear_23_122)"/>
<path fill-rule="evenodd" clip-rule="evenodd" d="M13.5 28C13.5 27.7239 13.7239 27.5 14 27.5H18C18.2761 27.5 18.5 27.7239 18.5 28C18.5 28.2761 18.2761 28.5 18 28.5H14C13.7239 28.5 13.5 28.2761 13.5 28Z" fill="url(#paint3_linear_23_122)"/>
<path fill-rule="evenodd" clip-rule="evenodd" d="M21.5 21C21.5 20.7239 21.7239 20.5 22 20.5H32C32.2761 20.5 32.5 20.7239 32.5 21V29C32.5 29.2761 32.2761 29.5 32 29.5H22C21.7239 29.5 21.5 29.2761 21.5 29V21ZM23.4254 21.5L27 24.3597L30.5746 21.5H23.4254ZM31.5 22.0403L27.8004 25L31.5 27.9597V22.0403ZM30.5746 28.5L27 25.6403L23.4254 28.5H30.5746ZM22.5 27.9597L26.1996 25L22.5 22.0403V27.9597Z" fill="url(#paint4_linear_23_122)"/>
<path fill-rule="evenodd" clip-rule="evenodd" d="M35.5 21C35.5 20.7239 35.7239 20.5 36 20.5H41C41.2761 20.5 41.5 20.7239 41.5 21V24C41.5 24.2761 41.2761 24.5 41 24.5H36C35.7239 24.5 35.5 24.2761 35.5 24V21ZM36.5 21.5V23.5H40.5V21.5H36.5Z" fill="url(#paint5_linear_23_122)"/>
<path fill-rule="evenodd" clip-rule="evenodd" d="M35.5 26C35.5 25.7239 35.7239 25.5 36 25.5H41C41.2761 25.5 41.5 25.7239 41.5 26V29C41.5 29.2761 41.2761 29.5 41 29.5H36C35.7239 29.5 35.5 29.2761 35.5 29V26ZM36.5 26.5V28.5H40.5V26.5H36.5Z" fill="url(#paint6_linear_23_122)"/>
</g>
<defs>
<linearGradient id="paint0_linear_23_122" x1="5.72122" y1="8.10201" x2="51.2759" y2="36.5919" gradientUnits="userSpaceOnUse">
<stop stop-color="#7381FD"/>
<stop offset="1" stop-color="#76C7FF"/>
</linearGradient>
<linearGradient id="paint1_linear_23_122" x1="12.8799" y1="21.3722" x2="13.9426" y2="24.3101" gradientUnits="userSpaceOnUse">
<stop stop-color="#7381FD"/>
<stop offset="1" stop-color="#76C7FF"/>
</linearGradient>
<linearGradient id="paint2_linear_23_122" x1="12.8799" y1="24.3722" x2="13.9426" y2="27.3101" gradientUnits="userSpaceOnUse">
<stop stop-color="#7381FD"/>
<stop offset="1" stop-color="#76C7FF"/>
</linearGradient>
<linearGradient id="paint3_linear_23_122" x1="12.8799" y1="27.3722" x2="13.9426" y2="30.3101" gradientUnits="userSpaceOnUse">
<stop stop-color="#7381FD"/>
<stop offset="1" stop-color="#76C7FF"/>
</linearGradient>
<linearGradient id="paint4_linear_23_122" x1="20.1358" y1="19.3498" x2="34.0071" y2="28.7234" gradientUnits="userSpaceOnUse">
<stop stop-color="#7381FD"/>
<stop offset="1" stop-color="#76C7FF"/>
</linearGradient>
<linearGradient id="paint5_linear_23_122" x1="34.7559" y1="19.9888" x2="41.2858" y2="25.4043" gradientUnits="userSpaceOnUse">
<stop stop-color="#7381FD"/>
<stop offset="1" stop-color="#76C7FF"/>
</linearGradient>
<linearGradient id="paint6_linear_23_122" x1="34.7559" y1="24.9888" x2="41.2858" y2="30.4043" gradientUnits="userSpaceOnUse">
<stop stop-color="#7381FD"/>
<stop offset="1" stop-color="#76C7FF"/>
</linearGradient>
<clipPath id="clip0_23_122">
<rect width="55" height="55" fill="white"/>
</clipPath>
</defs>
</svg>
