<svg width="55" height="55" viewBox="0 0 55 55" fill="none" xmlns="http://www.w3.org/2000/svg">
<g clip-path="url(#clip0_23_524)">
<path d="M0 15C0 6.71573 6.71573 0 15 0H40C48.2843 0 55 6.71573 55 15V40C55 48.2843 48.2843 55 40 55H15C6.71573 55 0 48.2843 0 40V15Z" fill="#F6FAFD"/>
<path d="M23 24.8148C23 22.925 24.5022 21.4229 26.3922 21.4229H26.7316V19.8237C26.7316 19.3877 27.1193 19 27.5554 19C27.9915 19 28.3792 19.3877 28.3792 19.8237V21.4229H30.5116C30.9477 21.4229 31.3354 21.8106 31.3354 22.2466C31.3354 22.6826 30.9476 23.0704 30.5116 23.0704H26.3922C25.4231 23.0704 24.6476 23.8458 24.6476 24.8148C24.6476 25.7839 25.423 26.5593 26.3922 26.5593H28.7183C30.6082 26.5593 32.1105 28.0615 32.1105 29.9513C32.1105 31.8412 30.6082 33.3433 28.7183 33.3433H28.6699H28.6216H28.3792V34.9908C28.3792 35.4268 27.9915 35.8145 27.5554 35.8145C27.1193 35.8145 26.7316 35.4268 26.7316 34.9908V33.3433H24.5509C24.1149 33.3433 23.7271 32.9556 23.7271 32.5196C23.7271 32.0835 24.1149 31.6958 24.5509 31.6958H28.6703H28.7187H28.767C29.7361 31.6958 30.5116 30.9204 30.5116 29.9513C30.5116 28.9822 29.7361 28.2068 28.767 28.2068H26.4409C24.5023 28.2068 23 26.6563 23 24.8148Z" fill="url(#paint0_linear_23_524)"/>
<path d="M31.5396 11.0301L28.0168 12.6143M31.5396 11.0301L28.0751 8.49158M31.5396 11.0301C22.7451 8.6989 13.6946 13.9575 11.3632 22.7524C9.03206 31.547 14.2906 40.5975 23.0842 42.9285C31.8787 45.2597 40.9306 40.0015 43.2616 31.2079" stroke="url(#paint1_linear_23_524)" stroke-width="1.5" stroke-linecap="round" stroke-linejoin="round"/>
</g>
<defs>
<linearGradient id="paint0_linear_23_524" x1="21.8701" y1="16.8511" x2="37.2268" y2="21.4515" gradientUnits="userSpaceOnUse">
<stop stop-color="#7381FD"/>
<stop offset="1" stop-color="#76C7FF"/>
</linearGradient>
<linearGradient id="paint1_linear_23_524" x1="6.78588" y1="4.0198" x2="53.9842" y2="28.222" gradientUnits="userSpaceOnUse">
<stop stop-color="#7381FD"/>
<stop offset="1" stop-color="#76C7FF"/>
</linearGradient>
<clipPath id="clip0_23_524">
<rect width="55" height="55" fill="white"/>
</clipPath>
</defs>
</svg>
