<svg width="55" height="55" viewBox="0 0 55 55" fill="none" xmlns="http://www.w3.org/2000/svg">
<g clip-path="url(#clip0_23_435)">
<path d="M0 15C0 6.71573 6.71573 0 15 0H40C48.2843 0 55 6.71573 55 15V40C55 48.2843 48.2843 55 40 55H15C6.71573 55 0 48.2843 0 40V15Z" fill="#F6FAFD"/>
<path d="M13 25.3672H12.25V25.3705L13 25.3672ZM13 25.1627L12.4371 24.6671C12.3165 24.804 12.25 24.9802 12.25 25.1627H13ZM41.9785 25.222L42.7285 25.2219C42.7284 25.0498 42.6692 24.8829 42.5608 24.7493L41.9785 25.222ZM27.5296 31.8308L27.9858 31.2355L27.528 30.8846L27.0714 31.237L27.5296 31.8308ZM38.6887 27.2615L39.069 27.9079L39.0765 27.9035L39.0839 27.899L38.6887 27.2615ZM41.9804 43.6563C41.9328 43.6563 41.8455 43.6515 41.7423 43.6149C41.6381 43.5779 41.4781 43.493 41.3639 43.3111C41.1 42.8909 41.3446 42.508 41.4789 42.3797C41.6176 42.2472 41.9715 42.0509 42.3596 42.2733C42.7229 42.4816 42.7304 42.8494 42.7304 42.9063H41.2304C41.2304 42.9842 41.2435 43.3626 41.6137 43.5747C42.0086 43.8011 42.3708 43.6021 42.515 43.4644C42.6548 43.3308 42.9022 42.94 42.6341 42.5133C42.5178 42.3281 42.3541 42.2403 42.2438 42.2012C42.1346 42.1624 42.0391 42.1563 41.9804 42.1563V43.6563ZM12.3287 42.9813C12.3287 42.9239 12.3365 42.556 12.7001 42.348C13.0875 42.1264 13.4409 42.3219 13.5797 42.4542C13.7141 42.5823 13.9598 42.9659 13.6949 43.3867C13.5805 43.5685 13.4204 43.6532 13.3164 43.6901C13.2134 43.7265 13.1262 43.7313 13.0787 43.7313V42.2313C13.0202 42.2313 12.9248 42.2375 12.8157 42.2761C12.7057 42.315 12.5419 42.4027 12.4254 42.5878C12.1564 43.0152 12.4048 43.4066 12.5447 43.5399C12.6891 43.6776 13.0506 43.8756 13.4449 43.6501C13.8154 43.4382 13.8287 43.0598 13.8287 42.9813H12.3287ZM12.25 25.3705L12.3287 42.9847L13.8287 42.978L13.75 25.3638L12.25 25.3705ZM13.75 25.3672V25.1627H12.25V25.3672H13.75ZM42.7304 42.9063L42.7285 25.2219L41.2285 25.222L41.2304 42.9063H42.7304ZM13.0807 43.7313L27.5315 43.6938L27.5276 42.1938L13.0768 42.2313L13.0807 43.7313ZM27.5315 43.6938L41.9824 43.6563L41.9785 42.1563L27.5276 42.1938L27.5315 43.6938ZM42.4367 42.311L29.4598 32.3652L28.5473 33.5557L41.5242 43.5016L42.4367 42.311ZM29.4598 32.3652L27.9858 31.2355L27.0733 32.426L28.5473 33.5557L29.4598 32.3652ZM27.0714 31.237L25.6074 32.3667L26.5237 33.5542L27.9878 32.4246L27.0714 31.237ZM25.6074 32.3667L12.6205 42.3876L13.5369 43.5751L26.5237 33.5542L25.6074 32.3667ZM26.4499 32.3164L16.9011 26.6175L16.1323 27.9056L25.6812 33.6045L26.4499 32.3164ZM16.9011 26.6175L13.3844 24.5187L12.6156 25.8067L16.1323 27.9056L16.9011 26.6175ZM17.0167 10.75H38.1887V9.25H17.0167V10.75ZM29.3839 33.6068L39.069 27.9079L38.3083 26.6151L28.6232 32.314L29.3839 33.6068ZM39.0839 27.899L42.3736 25.8594L41.5833 24.5845L38.2935 26.6241L39.0839 27.899ZM17.2667 27.2615V21.1692H15.7667V27.2615H17.2667ZM17.2667 21.1692V10.5H15.7667V21.1692H17.2667ZM13.5629 25.6584L17.0796 21.6649L15.9538 20.6736L12.4371 24.6671L13.5629 25.6584ZM37.9387 10.5V21.1692H39.4387V10.5H37.9387ZM37.9387 21.1692V27.2615H39.4387V21.1692H37.9387ZM42.5608 24.7493L39.271 20.6966L38.1064 21.6419L41.3962 25.6946L42.5608 24.7493ZM38.1887 10.75C38.0506 10.75 37.9387 10.6381 37.9387 10.5H39.4387C39.4387 9.80964 38.879 9.25 38.1887 9.25V10.75ZM17.0167 9.25C16.3263 9.25 15.7667 9.80965 15.7667 10.5H17.2667C17.2667 10.6381 17.1548 10.75 17.0167 10.75V9.25Z" fill="url(#paint0_linear_23_435)"/>
<path d="M22.8921 21.5544L23.509 21.8852L23.5101 21.8832L22.8921 21.5544ZM23.526 19.4534L24.2224 19.5248L24.2226 19.5226L23.526 19.4534ZM31.474 19.4534L30.7774 19.5225L30.7776 19.5248L31.474 19.4534ZM32.1079 21.5544L31.4898 21.8832L31.491 21.8852L32.1079 21.5544ZM26.9193 24.762C26.8287 24.3862 26.4505 24.155 26.0747 24.2457C25.6989 24.3364 25.4677 24.7145 25.5584 25.0904L26.9193 24.762ZM29.4396 25.0904C29.5303 24.7145 29.2992 24.3364 28.9233 24.2457C28.5475 24.155 28.1694 24.3862 28.0787 24.762L29.4396 25.0904ZM24.3852 17.8858C24.5718 16.0065 25.9672 14.7 27.5 14.7V13.3C25.1248 13.3 23.237 15.2812 22.9921 17.7474L24.3852 17.8858ZM23.5101 21.8832C23.8954 21.1588 24.1372 20.3551 24.2224 19.5248L22.8297 19.382C22.7625 20.037 22.5722 20.6654 22.2741 21.2257L23.5101 21.8832ZM22.7727 23.2952C22.842 23.1306 22.9541 22.92 23.1179 22.6147L21.8841 21.953C21.7323 22.2361 21.583 22.513 21.4824 22.752L22.7727 23.2952ZM22.7018 23.5834C22.6956 23.5396 22.7023 23.4623 22.7727 23.2952L21.4824 22.752C21.3812 22.9923 21.2558 23.3557 21.3155 23.7789L22.7018 23.5834ZM22.814 23.8162C22.763 23.7685 22.7166 23.6883 22.7018 23.5834L21.3155 23.7789C21.3719 24.179 21.5577 24.5578 21.8571 24.8381L22.814 23.8162ZM22.979 23.8558C22.907 23.8477 22.8649 23.8377 22.8392 23.8285C22.8275 23.8243 22.8212 23.821 22.8184 23.8194C22.8159 23.8179 22.8149 23.817 22.814 23.8162L21.8571 24.8381C22.1846 25.1448 22.5714 25.2188 22.8224 25.247L22.979 23.8558ZM23.6598 23.8737C23.3379 23.8737 23.1294 23.8727 22.979 23.8558L22.8224 25.247C23.0688 25.2747 23.3684 25.2737 23.6598 25.2737V23.8737ZM32.021 23.8558C31.8706 23.8727 31.6621 23.8737 31.3402 23.8737V25.2737C31.6316 25.2737 31.9312 25.2747 32.1776 25.247L32.021 23.8558ZM32.186 23.8162C32.1851 23.817 32.1841 23.8179 32.1816 23.8194C32.1788 23.821 32.1725 23.8243 32.1608 23.8285C32.1351 23.8377 32.093 23.8477 32.021 23.8558L32.1776 25.247C32.4286 25.2188 32.8154 25.1448 33.1429 24.8381L32.186 23.8162ZM32.2982 23.5834C32.2834 23.6883 32.237 23.7685 32.186 23.8162L33.1429 24.8381C33.4423 24.5578 33.6281 24.179 33.6845 23.7789L32.2982 23.5834ZM32.2273 23.2952C32.2977 23.4623 32.3044 23.5396 32.2982 23.5834L33.6845 23.7789C33.7442 23.3557 33.6188 22.9923 33.5176 22.752L32.2273 23.2952ZM31.8822 22.6148C32.0459 22.92 32.158 23.1306 32.2273 23.2952L33.5176 22.752C33.417 22.513 33.2678 22.2362 33.116 21.9531L31.8822 22.6148ZM30.7776 19.5248C30.8628 20.3551 31.1045 21.1588 31.4898 21.8832L32.7259 21.2257C32.4278 20.6654 32.2375 20.037 32.1703 19.382L30.7776 19.5248ZM24.2226 19.5226L24.3852 17.8858L22.9921 17.7474L22.8295 19.3842L24.2226 19.5226ZM23.1179 22.6147L23.509 21.8852L22.2752 21.2236L21.8841 21.953L23.1179 22.6147ZM31.3402 23.8737H23.6598V25.2737H31.3402V23.8737ZM31.491 21.8852L31.8822 22.6148L33.116 21.9531L32.7248 21.2236L31.491 21.8852ZM27.5 14.7C27.5007 14.7 27.5013 14.7 27.502 14.7C27.5027 14.7 27.5033 14.7 27.504 14.7C27.5046 14.7 27.5053 14.7 27.5059 14.7C27.5066 14.7 27.5073 14.7 27.5079 14.7C27.5086 14.7 27.5092 14.7 27.5099 14.7C27.5105 14.7 27.5112 14.7 27.5118 14.7C27.5125 14.7 27.5132 14.7 27.5138 14.7C27.5145 14.7 27.5151 14.7 27.5157 14.7C27.5164 14.7 27.517 14.7 27.5177 14.7C27.5183 14.7 27.519 14.7 27.5196 14.7C27.5203 14.7 27.5209 14.7 27.5216 14.7C27.5222 14.7 27.5228 14.7 27.5235 14.7C27.5241 14.7 27.5248 14.7 27.5254 14.7C27.526 14.7 27.5267 14.7 27.5273 14.7C27.528 14.7 27.5286 14.7 27.5292 14.7C27.5299 14.7 27.5305 14.7 27.5311 14.7C27.5318 14.7 27.5324 14.7 27.533 14.7C27.5337 14.7 27.5343 14.7 27.5349 14.7C27.5355 14.7 27.5362 14.7 27.5368 14.7C27.5374 14.7 27.5381 14.7 27.5387 14.7C27.5393 14.7 27.5399 14.7 27.5406 14.7C27.5412 14.7 27.5418 14.7 27.5424 14.7C27.543 14.7 27.5437 14.7 27.5443 14.7C27.5449 14.7 27.5455 14.7 27.5461 14.7C27.5468 14.7 27.5474 14.7 27.548 14.7C27.5486 14.7 27.5492 14.7 27.5498 14.7C27.5504 14.7 27.5511 14.7 27.5517 14.7C27.5523 14.7 27.5529 14.7 27.5535 14.7C27.5541 14.7 27.5547 14.7 27.5553 14.7C27.5559 14.7 27.5565 14.7 27.5572 14.7C27.5578 14.7 27.5584 14.7 27.559 14.7C27.5596 14.7 27.5602 14.7 27.5608 14.7C27.5614 14.7 27.562 14.7 27.5626 14.7C27.5632 14.7 27.5638 14.7 27.5644 14.7C27.565 14.7 27.5656 14.7 27.5662 14.7C27.5668 14.7 27.5674 14.7 27.568 14.7C27.5686 14.7 27.5692 14.7 27.5697 14.7C27.5703 14.7 27.5709 14.7 27.5715 14.7C27.5721 14.7 27.5727 14.7 27.5733 14.7C27.5739 14.7 27.5745 14.7 27.5751 14.7C27.5757 14.7 27.5762 14.7 27.5768 14.7C27.5774 14.7 27.578 14.7 27.5786 14.7C27.5792 14.7 27.5797 14.7 27.5803 14.7C27.5809 14.7 27.5815 14.7 27.5821 14.7C27.5827 14.7 27.5832 14.7 27.5838 14.7C27.5844 14.7 27.585 14.7 27.5855 14.7C27.5861 14.7 27.5867 14.7 27.5873 14.7C27.5878 14.7 27.5884 14.7 27.589 14.7C27.5896 14.7 27.5901 14.7 27.5907 14.7C27.5913 14.7 27.5918 14.7 27.5924 14.7C27.593 14.7 27.5936 14.7 27.5941 14.7C27.5947 14.7 27.5953 14.7 27.5958 14.7C27.5964 14.7 27.597 14.7 27.5975 14.7C27.5981 14.7 27.5986 14.7 27.5992 14.7C27.5998 14.7 27.6003 14.7 27.6009 14.7C27.6014 14.7 27.602 14.7 27.6026 14.7C27.6031 14.7 27.6037 14.7 27.6042 14.7C27.6048 14.7 27.6054 14.7 27.6059 14.7C27.6065 14.7 27.607 14.7 27.6076 14.7C27.6081 14.7 27.6087 14.7 27.6092 14.7C27.6098 14.7 27.6103 14.7 27.6109 14.7C27.6114 14.7 27.612 14.7 27.6125 14.7C27.6131 14.7 27.6136 14.7 27.6142 14.7C27.6147 14.7 27.6152 14.7 27.6158 14.7C27.6163 14.7 27.6169 14.7 27.6174 14.7C27.618 14.7 27.6185 14.7 27.619 14.7C27.6196 14.7 27.6201 14.7 27.6207 14.7C27.6212 14.7 27.6217 14.7 27.6223 14.7C27.6228 14.7 27.6233 14.7 27.6239 14.7C27.6244 14.7 27.625 14.7 27.6255 14.7C27.626 14.7 27.6266 14.7 27.6271 14.7C27.6276 14.7 27.6281 14.7 27.6287 14.7C27.6292 14.7 27.6297 14.7 27.6303 14.7C27.6308 14.7 27.6313 14.7 27.6318 14.7C27.6324 14.7 27.6329 14.7 27.6334 14.7C27.6339 14.7 27.6345 14.7 27.635 14.7C27.6355 14.7 27.636 14.7 27.6366 14.7C27.6371 14.7 27.6376 14.7 27.6381 14.7C27.6386 14.7 27.6392 14.7 27.6397 14.7C27.6402 14.7 27.6407 14.7 27.6412 14.7C27.6417 14.7 27.6422 14.7 27.6428 14.7C27.6433 14.7 27.6438 14.7 27.6443 14.7C27.6448 14.7 27.6453 14.7 27.6458 14.7C27.6463 14.7 27.6469 14.7 27.6474 14.7C27.6479 14.7 27.6484 14.7 27.6489 14.7C27.6494 14.7 27.6499 14.7 27.6504 14.7C27.6509 14.7 27.6514 14.7 27.6519 14.7C27.6524 14.7 27.6529 14.7 27.6534 14.7C27.6539 14.7 27.6544 14.7 27.6549 14.7C27.6554 14.7 27.6559 14.7 27.6564 14.7C27.6569 14.7 27.6574 14.7 27.6579 14.7C27.6584 14.7 27.6589 14.7 27.6594 14.7C27.6599 14.7 27.6604 14.7 27.6609 14.7C27.6614 14.7 27.6619 14.7 27.6624 14.7C27.6628 14.7 27.6633 14.7 27.6638 14.7C27.6643 14.7 27.6648 14.7 27.6653 14.7C27.6658 14.7 27.6663 14.7 27.6668 14.7C27.6672 14.7 27.6677 14.7 27.6682 14.7C27.6687 14.7 27.6692 14.7 27.6697 14.7C27.6701 14.7 27.6706 14.7 27.6711 14.7C27.6716 14.7 27.6721 14.7 27.6725 14.7C27.673 14.7 27.6735 14.7 27.674 14.7C27.6745 14.7 27.6749 14.7 27.6754 14.7C27.6759 14.7 27.6764 14.7 27.6768 14.7C27.6773 14.7 27.6778 14.7 27.6783 14.7C27.6787 14.7 27.6792 14.7 27.6797 14.7C27.6801 14.7 27.6806 14.7 27.6811 14.7C27.6816 14.7 27.682 14.7 27.6825 14.7C27.683 14.7 27.6834 14.7 27.6839 14.7C27.6844 14.7 27.6848 14.7 27.6853 14.7C27.6857 14.7 27.6862 14.7 27.6867 14.7C27.6871 14.7 27.6876 14.7 27.6881 14.7C27.6885 14.7 27.689 14.7 27.6894 14.7C27.6899 14.7 27.6904 14.7 27.6908 14.7C27.6913 14.7 27.6917 14.7 27.6922 14.7C27.6926 14.7 27.6931 14.7 27.6935 14.7C27.694 14.7 27.6945 14.7 27.6949 14.7C27.6954 14.7 27.6958 14.7 27.6963 14.7C27.6967 14.7 27.6972 14.7 27.6976 14.7C27.6981 14.7 27.6985 14.7 27.699 14.7C27.6994 14.7 27.6999 14.7 27.7003 14.7C27.7007 14.7 27.7012 14.7 27.7016 14.7C27.7021 14.7 27.7025 14.7 27.703 14.7C27.7034 14.7 27.7038 14.7 27.7043 14.7C27.7047 14.7 27.7052 14.7 27.7056 14.7C27.706 14.7 27.7065 14.7 27.7069 14.7C27.7074 14.7 27.7078 14.7 27.7082 14.7C27.7087 14.7 27.7091 14.7 27.7095 14.7C27.71 14.7 27.7104 14.7 27.7108 14.7C27.7113 14.7 27.7117 14.7 27.7121 14.7C27.7126 14.7 27.713 14.7 27.7134 14.7C27.7139 14.7 27.7143 14.7 27.7147 14.7C27.7151 14.7 27.7156 14.7 27.716 14.7C27.7164 14.7 27.7168 14.7 27.7173 14.7C27.7177 14.7 27.7181 14.7 27.7185 14.7C27.719 14.7 27.7194 14.7 27.7198 14.7C27.7202 14.7 27.7207 14.7 27.7211 14.7C27.7215 14.7 27.7219 14.7 27.7223 14.7C27.7227 14.7 27.7232 14.7 27.7236 14.7C27.724 14.7 27.7244 14.7 27.7248 14.7C27.7252 14.7 27.7257 14.7 27.7261 14.7C27.7265 14.7 27.7269 14.7 27.7273 14.7C27.7277 14.7 27.7281 14.7 27.7285 14.7C27.729 14.7 27.7294 14.7 27.7298 14.7C27.7302 14.7 27.7306 14.7 27.731 14.7C27.7314 14.7 27.7318 14.7 27.7322 14.7C27.7326 14.7 27.733 14.7 27.7334 14.7C27.7338 14.7 27.7342 14.7 27.7346 14.7C27.735 14.7 27.7354 14.7 27.7358 14.7C27.7362 14.7 27.7366 14.7 27.737 14.7C27.7374 14.7 27.7378 14.7 27.7382 14.7C27.7386 14.7 27.739 14.7 27.7394 14.7C27.7398 14.7 27.7402 14.7 27.7406 14.7C27.741 14.7 27.7414 14.7 27.7418 14.7C27.7422 14.7 27.7426 14.7 27.743 14.7C27.7434 14.7 27.7438 14.7 27.7441 14.7C27.7445 14.7 27.7449 14.7 27.7453 14.7C27.7457 14.7 27.7461 14.7 27.7465 14.7C27.7469 14.7 27.7472 14.7 27.7476 14.7C27.748 14.7 27.7484 14.7 27.7488 14.7C27.7492 14.7 27.7495 14.7 27.7499 14.7C27.7503 14.7 27.7507 14.7 27.7511 14.7C27.7515 14.7 27.7518 14.7 27.7522 14.7C27.7526 14.7 27.753 14.7 27.7533 14.7C27.7537 14.7 27.7541 14.7 27.7545 14.7C27.7549 14.7 27.7552 14.7 27.7556 14.7C27.756 14.7 27.7564 14.7 27.7567 14.7C27.7571 14.7 27.7575 14.7 27.7578 14.7C27.7582 14.7 27.7586 14.7 27.759 14.7C27.7593 14.7 27.7597 14.7 27.7601 14.7C27.7604 14.7 27.7608 14.7 27.7612 14.7C27.7615 14.7 27.7619 14.7 27.7623 14.7C27.7626 14.7 27.763 14.7 27.7634 14.7C27.7637 14.7 27.7641 14.7 27.7644 14.7C27.7648 14.7 27.7652 14.7 27.7655 14.7C27.7659 14.7 27.7662 14.7 27.7666 14.7C27.767 14.7 27.7673 14.7 27.7677 14.7C27.768 14.7 27.7684 14.7 27.7688 14.7C27.7685 14.7 27.7691 14.7 27.7688 14.7C27.7692 14.7 27.7705 14.7 27.7709 14.7C27.7706 14.7 27.7712 14.7 27.7709 14.7C27.7713 14.7 27.7726 14.7 27.773 14.7C27.7727 14.7 27.7733 14.7 27.773 14.7C27.7734 14.7 27.7747 14.7 27.7751 14.7C27.7748 14.7 27.7754 14.7 27.7751 14.7C27.7755 14.7 27.7768 14.7 27.7772 14.7C27.7768 14.7 27.7775 14.7 27.7772 14.7C27.7775 14.7 27.7789 14.7 27.7792 14.7C27.7789 14.7 27.7796 14.7 27.7792 14.7C27.7796 14.7 27.7809 14.7 27.7813 14.7C27.7816 14.7 27.7819 14.7 27.7823 14.7C27.7819 14.7 27.7826 14.7 27.7823 14.7C27.7826 14.7 27.7839 14.7 27.7843 14.7C27.7839 14.7 27.7846 14.7 27.7843 14.7C27.7846 14.7 27.7859 14.7 27.7863 14.7C27.7859 14.7 27.7866 14.7 27.7863 14.7C27.7866 14.7 27.7879 14.7 27.7883 14.7C27.788 14.7 27.7886 14.7 27.7883 14.7C27.7887 14.7 27.7899 14.7 27.7902 14.7C27.7905 14.7 27.7909 14.7 27.7912 14.7C27.7908 14.7 27.7915 14.7 27.7912 14.7C27.7915 14.7 27.7928 14.7 27.7931 14.7C27.7928 14.7 27.7934 14.7 27.7931 14.7C27.7934 14.7 27.7947 14.7 27.795 14.7C27.7947 14.7 27.7954 14.7 27.795 14.7C27.7953 14.7 27.7966 14.7 27.7969 14.7C27.7966 14.7 27.7973 14.7 27.7969 14.7C27.7972 14.7 27.7985 14.7 27.7988 14.7C27.7991 14.7 27.7994 14.7 27.7998 14.7C27.7995 14.7 27.8001 14.7 27.7998 14.7C27.8001 14.7 27.8013 14.7 27.8016 14.7C27.8013 14.7 27.8019 14.7 27.8016 14.7C27.8019 14.7 27.8031 14.7 27.8035 14.7C27.8032 14.7 27.8038 14.7 27.8035 14.7C27.8038 14.7 27.805 14.7 27.8053 14.7C27.805 14.7 27.8056 14.7 27.8053 14.7C27.8056 14.7 27.8068 14.7 27.8071 14.7C27.8068 14.7 27.8074 14.7 27.8071 14.7C27.8074 14.7 27.8086 14.7 27.8089 14.7C27.8086 14.7 27.8092 14.7 27.8089 14.7C27.8092 14.7 27.8104 14.7 27.8106 14.7C27.8103 14.7 27.8109 14.7 27.8106 14.7C27.8109 14.7 27.8121 14.7 27.8124 14.7C27.8121 14.7 27.8127 14.7 27.8124 14.7C27.8127 14.7 27.8139 14.7 27.8141 14.7C27.8138 14.7 27.8144 14.7 27.8141 14.7C27.8144 14.7 27.8156 14.7 27.8159 14.7C27.8156 14.7 27.8162 14.7 27.8159 14.7C27.8162 14.7 27.8173 14.7 27.8176 14.7C27.8173 14.7 27.8179 14.7 27.8176 14.7C27.8179 14.7 27.819 14.7 27.8193 14.7C27.819 14.7 27.8195 14.7 27.8193 14.7C27.8196 14.7 27.8207 14.7 27.8209 14.7C27.8206 14.7 27.8212 14.7 27.8209 14.7C27.8211 14.7 27.8223 14.7 27.8226 14.7C27.8223 14.7 27.8229 14.7 27.8226 14.7C27.8229 14.7 27.824 14.7 27.8242 14.7C27.8239 14.7 27.8245 14.7 27.8242 14.7C27.8244 14.7 27.8256 14.7 27.8259 14.7C27.8256 14.7 27.8261 14.7 27.8259 14.7C27.8261 14.7 27.8272 14.7 27.8275 14.7C27.8272 14.7 27.8277 14.7 27.8275 14.7C27.8277 14.7 27.8288 14.7 27.8291 14.7C27.8288 14.7 27.8293 14.7 27.8291 14.7C27.8293 14.7 27.8304 14.7 27.8306 14.7C27.8304 14.7 27.8309 14.7 27.8306 14.7C27.8309 14.7 27.8319 14.7 27.8322 14.7C27.8319 14.7 27.8325 14.7 27.8322 14.7C27.8324 14.7 27.8335 14.7 27.8337 14.7C27.8335 14.7 27.834 14.7 27.8337 14.7C27.834 14.7 27.835 14.7 27.8353 14.7C27.8351 14.7 27.8355 14.7 27.8353 14.7C27.8356 14.7 27.8365 14.7 27.8368 14.7C27.8366 14.7 27.837 14.7 27.8368 14.7C27.8371 14.7 27.838 14.7 27.8383 14.7C27.8381 14.7 27.8385 14.7 27.8383 14.7C27.8386 14.7 27.8395 14.7 27.8398 14.7C27.8396 14.7 27.84 14.7 27.8398 14.7C27.8401 14.7 27.841 14.7 27.8412 14.7C27.8409 14.7 27.8415 14.7 27.8412 14.7C27.8414 14.7 27.8425 14.7 27.8427 14.7C27.8425 14.7 27.8429 14.7 27.8427 14.7C27.843 14.7 27.8439 14.7 27.8441 14.7C27.8439 14.7 27.8444 14.7 27.8441 14.7C27.8444 14.7 27.8453 14.7 27.8456 14.7C27.8453 14.7 27.8458 14.7 27.8456 14.7C27.8458 14.7 27.8467 14.7 27.847 14.7C27.8467 14.7 27.8472 14.7 27.847 14.7C27.8472 14.7 27.8481 14.7 27.8483 14.7C27.8481 14.7 27.8486 14.7 27.8483 14.7C27.8486 14.7 27.8495 14.7 27.8497 14.7C27.8495 14.7 27.85 14.7 27.8497 14.7C27.8499 14.7 27.8509 14.7 27.8511 14.7C27.8508 14.7 27.8513 14.7 27.8511 14.7C27.8513 14.7 27.8522 14.7 27.8524 14.7C27.8522 14.7 27.8527 14.7 27.8524 14.7C27.8526 14.7 27.8535 14.7 27.8538 14.7C27.8536 14.7 27.854 14.7 27.8538 14.7C27.854 14.7 27.8549 14.7 27.8551 14.7C27.8549 14.7 27.8553 14.7 27.8551 14.7C27.8553 14.7 27.8562 14.7 27.8564 14.7C27.8562 14.7 27.8566 14.7 27.8564 14.7C27.8566 14.7 27.8574 14.7 27.8577 14.7C27.8575 14.7 27.8579 14.7 27.8577 14.7C27.8579 14.7 27.8587 14.7 27.8589 14.7C27.8587 14.7 27.8591 14.7 27.8589 14.7C27.8591 14.7 27.86 14.7 27.8602 14.7C27.86 14.7 27.8604 14.7 27.8602 14.7C27.8604 14.7 27.8612 14.7 27.8614 14.7C27.8612 14.7 27.8616 14.7 27.8614 14.7C27.8617 14.7 27.8625 14.7 27.8627 14.7C27.8625 14.7 27.8629 14.7 27.8627 14.7C27.8629 14.7 27.8637 14.7 27.8639 14.7C27.8637 14.7 27.8641 14.7 27.8639 14.7C27.8641 14.7 27.8649 14.7 27.8651 14.7C27.8649 14.7 27.8653 14.7 27.8651 14.7C27.8653 14.7 27.8661 14.7 27.8663 14.7C27.8661 14.7 27.8664 14.7 27.8663 14.7C27.8665 14.7 27.8672 14.7 27.8674 14.7C27.8672 14.7 27.8676 14.7 27.8674 14.7C27.8676 14.7 27.8684 14.7 27.8686 14.7C27.8684 14.7 27.8688 14.7 27.8686 14.7C27.8687 14.7 27.8695 14.7 27.8697 14.7C27.8695 14.7 27.8699 14.7 27.8697 14.7C27.8699 14.7 27.8707 14.7 27.8708 14.7C27.8706 14.7 27.871 14.7 27.8708 14.7C27.871 14.7 27.8718 14.7 27.872 14.7C27.8718 14.7 27.8721 14.7 27.872 14.7C27.8722 14.7 27.8729 14.7 27.8731 14.7C27.8733 14.7 27.8745 14.7 27.8747 14.7C27.8749 14.7 27.8761 14.7 27.8763 14.7C27.8765 14.7 27.8777 14.7 27.8778 14.7C27.8777 14.7 27.878 14.7 27.8778 14.7C27.878 14.7 27.8787 14.7 27.8789 14.7C27.879 14.7 27.8802 14.7 27.8804 14.7C27.8805 14.7 27.8817 14.7 27.8818 14.7C27.882 14.7 27.8831 14.7 27.8833 14.7C27.8835 14.7 27.8846 14.7 27.8847 14.7C27.8849 14.7 27.886 14.7 27.8861 14.7C27.8863 14.7 27.8873 14.7 27.8875 14.7C27.8876 14.7 27.8887 14.7 27.8888 14.7C27.8889 14.7 27.89 14.7 27.8901 14.7C27.8902 14.7 27.8912 14.7 27.8914 14.7C27.8915 14.7 27.8925 14.7 27.8926 14.7C27.8928 14.7 27.8937 14.7 27.8938 14.7C27.894 14.7 27.8949 14.7 27.895 14.7C27.8951 14.7 27.8961 14.7 27.8962 14.7C27.8964 14.7 27.8972 14.7 27.8973 14.7C27.8974 14.7 27.8983 14.7 27.8984 14.7C27.8986 14.7 27.8994 14.7 27.8995 14.7C27.8994 14.7 27.8996 14.7 27.8995 14.7C27.8997 14.7 27.9008 14.7 27.9009 14.7C27.9008 14.7 27.901 14.7 27.9009 14.7C27.901 14.7 27.9021 14.7 27.9022 14.7C27.9021 14.7 27.9023 14.7 27.9022 14.7C27.9023 14.7 27.9034 14.7 27.9035 14.7C27.9034 14.7 27.9036 14.7 27.9035 14.7C27.9036 14.7 27.9047 14.7 27.9048 14.7C27.9047 14.7 27.9049 14.7 27.9048 14.7C27.9049 14.7 27.9059 14.7 27.906 14.7C27.9059 14.7 27.9061 14.7 27.906 14.7C27.9061 14.7 27.9071 14.7 27.9071 14.7C27.907 14.7 27.9072 14.7 27.9071 14.7C27.9072 14.7 27.9082 14.7 27.9083 14.7C27.9084 14.7 27.9095 14.7 27.9096 14.7C27.9096 14.7 27.9105 14.7 27.9106 14.7C27.9107 14.7 27.9117 14.7 27.9118 14.7C27.9117 14.7 27.9119 14.7 27.9118 14.7C27.9119 14.7 27.9129 14.7 27.9129 14.7C27.9128 14.7 27.913 14.7 27.9129 14.7C27.913 14.7 27.914 14.7 27.914 14.7C27.9141 14.7 27.915 14.7 27.915 14.7C27.9149 14.7 27.9151 14.7 27.915 14.7C27.915 14.7 27.9161 14.7 27.9162 14.7C27.9161 14.7 27.9163 14.7 27.9162 14.7H27.9173C27.9174 14.7 27.9182 14.7 27.9183 14.7C27.9184 14.7 27.9193 14.7 27.9194 14.7C27.9193 14.7 27.9195 14.7 27.9194 14.7C27.9195 14.7 27.9204 14.7 27.9204 14.7C27.9204 14.7 27.9214 14.7 27.9215 14.7C27.9215 14.7 27.9224 14.7 27.9225 14.7C27.9225 14.7 27.9231 14.7 27.9231 14C27.9231 13.3 27.9231 13.3 27.9231 13.3C27.923 13.3 27.922 13.3 27.922 13.3C27.922 13.3 27.9211 13.3 27.921 13.3C27.9209 13.3 27.9199 13.3 27.9199 13.3C27.9198 13.3 27.9189 13.3 27.9188 13.3C27.9187 13.3 27.9189 13.3 27.9188 13.3H27.9177C27.9176 13.3 27.9166 13.3 27.9165 13.3C27.9164 13.3 27.9155 13.3 27.9154 13.3C27.9153 13.3 27.9155 13.3 27.9154 13.3C27.9154 13.3 27.9143 13.3 27.9142 13.3C27.9141 13.3 27.913 13.3 27.9129 13.3C27.9128 13.3 27.913 13.3 27.9129 13.3C27.9129 13.3 27.9119 13.3 27.9118 13.3C27.9117 13.3 27.9107 13.3 27.9106 13.3C27.9106 13.3 27.9097 13.3 27.9096 13.3C27.9095 13.3 27.9097 13.3 27.9096 13.3C27.9095 13.3 27.9086 13.3 27.9085 13.3C27.9084 13.3 27.9086 13.3 27.9085 13.3C27.9084 13.3 27.9075 13.3 27.9074 13.3C27.9073 13.3 27.9064 13.3 27.9063 13.3C27.9062 13.3 27.9064 13.3 27.9063 13.3C27.9062 13.3 27.9052 13.3 27.9051 13.3C27.905 13.3 27.9052 13.3 27.9051 13.3C27.905 13.3 27.904 13.3 27.9038 13.3C27.9037 13.3 27.9039 13.3 27.9038 13.3C27.9037 13.3 27.9027 13.3 27.9026 13.3C27.9025 13.3 27.9027 13.3 27.9026 13.3C27.9025 13.3 27.9013 13.3 27.9012 13.3C27.9011 13.3 27.9013 13.3 27.9012 13.3C27.9011 13.3 27.9 13.3 27.8998 13.3C27.8997 13.3 27.8999 13.3 27.8998 13.3C27.8997 13.3 27.8985 13.3 27.8984 13.3C27.8983 13.3 27.8974 13.3 27.8973 13.3C27.8971 13.3 27.8963 13.3 27.8962 13.3C27.8961 13.3 27.8952 13.3 27.895 13.3C27.8949 13.3 27.894 13.3 27.8938 13.3C27.8937 13.3 27.8928 13.3 27.8926 13.3C27.8925 13.3 27.8915 13.3 27.8914 13.3C27.8913 13.3 27.8902 13.3 27.8901 13.3C27.89 13.3 27.8889 13.3 27.8888 13.3C27.8887 13.3 27.8876 13.3 27.8875 13.3C27.8873 13.3 27.8863 13.3 27.8861 13.3C27.8859 13.3 27.8849 13.3 27.8847 13.3C27.8845 13.3 27.8835 13.3 27.8833 13.3C27.8831 13.3 27.8835 13.3 27.8833 13.3C27.8832 13.3 27.8825 13.3 27.8823 13.3C27.8821 13.3 27.881 13.3 27.8809 13.3C27.8807 13.3 27.8795 13.3 27.8794 13.3C27.8792 13.3 27.8795 13.3 27.8794 13.3C27.8792 13.3 27.8785 13.3 27.8783 13.3C27.8781 13.3 27.877 13.3 27.8768 13.3C27.8766 13.3 27.8769 13.3 27.8768 13.3C27.8766 13.3 27.8759 13.3 27.8757 13.3C27.8755 13.3 27.8743 13.3 27.8741 13.3C27.8739 13.3 27.8727 13.3 27.8725 13.3C27.8723 13.3 27.8726 13.3 27.8725 13.3C27.8723 13.3 27.8716 13.3 27.8714 13.3C27.8712 13.3 27.8716 13.3 27.8714 13.3C27.8713 13.3 27.8705 13.3 27.8703 13.3C27.8701 13.3 27.8705 13.3 27.8703 13.3C27.8701 13.3 27.8693 13.3 27.8692 13.3C27.869 13.3 27.8694 13.3 27.8692 13.3C27.869 13.3 27.8682 13.3 27.868 13.3C27.8678 13.3 27.8682 13.3 27.868 13.3C27.8678 13.3 27.867 13.3 27.8668 13.3C27.8666 13.3 27.8669 13.3 27.8668 13.3C27.8666 13.3 27.8659 13.3 27.8657 13.3C27.8655 13.3 27.8659 13.3 27.8657 13.3C27.8655 13.3 27.8647 13.3 27.8645 13.3C27.8643 13.3 27.8647 13.3 27.8645 13.3C27.8643 13.3 27.8635 13.3 27.8633 13.3C27.8631 13.3 27.8635 13.3 27.8633 13.3C27.8631 13.3 27.8623 13.3 27.862 13.3C27.8618 13.3 27.8622 13.3 27.862 13.3C27.8618 13.3 27.861 13.3 27.8608 13.3C27.8606 13.3 27.861 13.3 27.8608 13.3C27.8606 13.3 27.8598 13.3 27.8596 13.3C27.8594 13.3 27.8598 13.3 27.8596 13.3C27.8594 13.3 27.8585 13.3 27.8583 13.3C27.8581 13.3 27.8585 13.3 27.8583 13.3C27.858 13.3 27.8572 13.3 27.857 13.3C27.8568 13.3 27.8572 13.3 27.857 13.3C27.8568 13.3 27.8559 13.3 27.8557 13.3C27.8555 13.3 27.8559 13.3 27.8557 13.3C27.8555 13.3 27.8546 13.3 27.8544 13.3C27.8542 13.3 27.8546 13.3 27.8544 13.3C27.8541 13.3 27.8533 13.3 27.8531 13.3C27.8529 13.3 27.8534 13.3 27.8531 13.3C27.8529 13.3 27.852 13.3 27.8518 13.3C27.8515 13.3 27.852 13.3 27.8518 13.3C27.8516 13.3 27.8506 13.3 27.8504 13.3C27.8502 13.3 27.8507 13.3 27.8504 13.3C27.8502 13.3 27.8493 13.3 27.849 13.3C27.8488 13.3 27.8493 13.3 27.849 13.3C27.8488 13.3 27.8479 13.3 27.8477 13.3C27.8474 13.3 27.8479 13.3 27.8477 13.3C27.8474 13.3 27.8465 13.3 27.8463 13.3C27.846 13.3 27.8465 13.3 27.8463 13.3C27.846 13.3 27.8451 13.3 27.8448 13.3C27.8446 13.3 27.8451 13.3 27.8448 13.3C27.8446 13.3 27.8437 13.3 27.8434 13.3C27.8432 13.3 27.8436 13.3 27.8434 13.3C27.8432 13.3 27.8422 13.3 27.842 13.3C27.8417 13.3 27.8423 13.3 27.842 13.3C27.8418 13.3 27.8408 13.3 27.8405 13.3C27.8403 13.3 27.8407 13.3 27.8405 13.3C27.8402 13.3 27.8393 13.3 27.839 13.3C27.8388 13.3 27.8392 13.3 27.839 13.3C27.8387 13.3 27.8378 13.3 27.8375 13.3C27.8373 13.3 27.8377 13.3 27.8375 13.3C27.8372 13.3 27.8363 13.3 27.836 13.3C27.8358 13.3 27.8362 13.3 27.836 13.3C27.8357 13.3 27.8348 13.3 27.8345 13.3C27.8343 13.3 27.8348 13.3 27.8345 13.3C27.8343 13.3 27.8332 13.3 27.833 13.3C27.8327 13.3 27.8333 13.3 27.833 13.3C27.8327 13.3 27.8317 13.3 27.8314 13.3C27.8312 13.3 27.8317 13.3 27.8314 13.3C27.8312 13.3 27.8301 13.3 27.8299 13.3C27.8296 13.3 27.8301 13.3 27.8299 13.3C27.8296 13.3 27.8285 13.3 27.8283 13.3C27.828 13.3 27.8285 13.3 27.8283 13.3C27.828 13.3 27.8269 13.3 27.8267 13.3C27.8264 13.3 27.8269 13.3 27.8267 13.3C27.8264 13.3 27.8253 13.3 27.8251 13.3C27.8248 13.3 27.8254 13.3 27.8251 13.3C27.8249 13.3 27.8237 13.3 27.8234 13.3C27.8231 13.3 27.8237 13.3 27.8234 13.3C27.8231 13.3 27.822 13.3 27.8218 13.3C27.8215 13.3 27.8221 13.3 27.8218 13.3C27.8216 13.3 27.8204 13.3 27.8201 13.3C27.8198 13.3 27.8203 13.3 27.8201 13.3C27.8198 13.3 27.8187 13.3 27.8184 13.3C27.8181 13.3 27.8187 13.3 27.8184 13.3C27.8181 13.3 27.817 13.3 27.8167 13.3C27.8164 13.3 27.817 13.3 27.8167 13.3C27.8164 13.3 27.8153 13.3 27.815 13.3C27.8147 13.3 27.8153 13.3 27.815 13.3C27.8148 13.3 27.8136 13.3 27.8133 13.3C27.813 13.3 27.8136 13.3 27.8133 13.3C27.813 13.3 27.8118 13.3 27.8115 13.3C27.8112 13.3 27.8118 13.3 27.8115 13.3C27.8113 13.3 27.8101 13.3 27.8098 13.3C27.8095 13.3 27.8101 13.3 27.8098 13.3C27.8095 13.3 27.8083 13.3 27.808 13.3C27.8077 13.3 27.8083 13.3 27.808 13.3C27.8077 13.3 27.8065 13.3 27.8062 13.3C27.8059 13.3 27.8065 13.3 27.8062 13.3C27.8059 13.3 27.8047 13.3 27.8044 13.3C27.8041 13.3 27.8047 13.3 27.8044 13.3C27.804 13.3 27.8028 13.3 27.8025 13.3C27.8022 13.3 27.8028 13.3 27.8025 13.3C27.8022 13.3 27.801 13.3 27.8007 13.3C27.8004 13.3 27.801 13.3 27.8007 13.3C27.8003 13.3 27.7991 13.3 27.7988 13.3C27.7985 13.3 27.7991 13.3 27.7988 13.3C27.7985 13.3 27.7973 13.3 27.7969 13.3C27.7966 13.3 27.7972 13.3 27.7969 13.3C27.7966 13.3 27.7954 13.3 27.795 13.3C27.7947 13.3 27.7953 13.3 27.795 13.3C27.7947 13.3 27.7934 13.3 27.7931 13.3C27.7928 13.3 27.7934 13.3 27.7931 13.3C27.7927 13.3 27.7915 13.3 27.7912 13.3C27.7909 13.3 27.7905 13.3 27.7902 13.3C27.7899 13.3 27.7906 13.3 27.7902 13.3C27.7899 13.3 27.7886 13.3 27.7883 13.3C27.7879 13.3 27.7886 13.3 27.7883 13.3C27.7879 13.3 27.7866 13.3 27.7863 13.3C27.7859 13.3 27.7856 13.3 27.7853 13.3C27.7849 13.3 27.7856 13.3 27.7853 13.3C27.7849 13.3 27.7836 13.3 27.7833 13.3C27.7829 13.3 27.7836 13.3 27.7833 13.3C27.7829 13.3 27.7816 13.3 27.7813 13.3C27.7809 13.3 27.7806 13.3 27.7802 13.3C27.7799 13.3 27.7806 13.3 27.7802 13.3C27.7799 13.3 27.7785 13.3 27.7782 13.3C27.7778 13.3 27.7785 13.3 27.7782 13.3C27.7778 13.3 27.7765 13.3 27.7761 13.3C27.7758 13.3 27.7764 13.3 27.7761 13.3C27.7757 13.3 27.7744 13.3 27.774 13.3C27.7737 13.3 27.7743 13.3 27.774 13.3C27.7736 13.3 27.7723 13.3 27.7719 13.3C27.7716 13.3 27.7722 13.3 27.7719 13.3C27.7715 13.3 27.7702 13.3 27.7698 13.3C27.7695 13.3 27.7701 13.3 27.7698 13.3C27.7694 13.3 27.768 13.3 27.7677 13.3C27.7673 13.3 27.767 13.3 27.7666 13.3C27.7662 13.3 27.7659 13.3 27.7655 13.3C27.7652 13.3 27.7648 13.3 27.7644 13.3C27.7641 13.3 27.7637 13.3 27.7634 13.3C27.763 13.3 27.7626 13.3 27.7623 13.3C27.7619 13.3 27.7615 13.3 27.7612 13.3C27.7608 13.3 27.7604 13.3 27.7601 13.3C27.7597 13.3 27.7593 13.3 27.759 13.3C27.7586 13.3 27.7582 13.3 27.7578 13.3C27.7575 13.3 27.7571 13.3 27.7567 13.3C27.7564 13.3 27.756 13.3 27.7556 13.3C27.7552 13.3 27.7549 13.3 27.7545 13.3C27.7541 13.3 27.7537 13.3 27.7533 13.3C27.753 13.3 27.7526 13.3 27.7522 13.3C27.7518 13.3 27.7515 13.3 27.7511 13.3C27.7507 13.3 27.7503 13.3 27.7499 13.3C27.7495 13.3 27.7492 13.3 27.7488 13.3C27.7484 13.3 27.748 13.3 27.7476 13.3C27.7472 13.3 27.7469 13.3 27.7465 13.3C27.7461 13.3 27.7457 13.3 27.7453 13.3C27.7449 13.3 27.7445 13.3 27.7441 13.3C27.7438 13.3 27.7434 13.3 27.743 13.3C27.7426 13.3 27.7422 13.3 27.7418 13.3C27.7414 13.3 27.741 13.3 27.7406 13.3C27.7402 13.3 27.7398 13.3 27.7394 13.3C27.739 13.3 27.7386 13.3 27.7382 13.3C27.7378 13.3 27.7374 13.3 27.737 13.3C27.7366 13.3 27.7362 13.3 27.7358 13.3C27.7354 13.3 27.735 13.3 27.7346 13.3C27.7342 13.3 27.7338 13.3 27.7334 13.3C27.733 13.3 27.7326 13.3 27.7322 13.3C27.7318 13.3 27.7314 13.3 27.731 13.3C27.7306 13.3 27.7302 13.3 27.7298 13.3C27.7294 13.3 27.729 13.3 27.7285 13.3C27.7281 13.3 27.7277 13.3 27.7273 13.3C27.7269 13.3 27.7265 13.3 27.7261 13.3C27.7257 13.3 27.7252 13.3 27.7248 13.3C27.7244 13.3 27.724 13.3 27.7236 13.3C27.7232 13.3 27.7227 13.3 27.7223 13.3C27.7219 13.3 27.7215 13.3 27.7211 13.3C27.7207 13.3 27.7202 13.3 27.7198 13.3C27.7194 13.3 27.719 13.3 27.7185 13.3C27.7181 13.3 27.7177 13.3 27.7173 13.3C27.7168 13.3 27.7164 13.3 27.716 13.3C27.7156 13.3 27.7151 13.3 27.7147 13.3C27.7143 13.3 27.7139 13.3 27.7134 13.3C27.713 13.3 27.7126 13.3 27.7121 13.3C27.7117 13.3 27.7113 13.3 27.7108 13.3C27.7104 13.3 27.71 13.3 27.7095 13.3C27.7091 13.3 27.7087 13.3 27.7082 13.3C27.7078 13.3 27.7074 13.3 27.7069 13.3C27.7065 13.3 27.706 13.3 27.7056 13.3C27.7052 13.3 27.7047 13.3 27.7043 13.3C27.7038 13.3 27.7034 13.3 27.703 13.3C27.7025 13.3 27.7021 13.3 27.7016 13.3C27.7012 13.3 27.7007 13.3 27.7003 13.3C27.6999 13.3 27.6994 13.3 27.699 13.3C27.6985 13.3 27.6981 13.3 27.6976 13.3C27.6972 13.3 27.6967 13.3 27.6963 13.3C27.6958 13.3 27.6954 13.3 27.6949 13.3C27.6945 13.3 27.694 13.3 27.6935 13.3C27.6931 13.3 27.6926 13.3 27.6922 13.3C27.6917 13.3 27.6913 13.3 27.6908 13.3C27.6904 13.3 27.6899 13.3 27.6894 13.3C27.689 13.3 27.6885 13.3 27.6881 13.3C27.6876 13.3 27.6871 13.3 27.6867 13.3C27.6862 13.3 27.6857 13.3 27.6853 13.3C27.6848 13.3 27.6844 13.3 27.6839 13.3C27.6834 13.3 27.683 13.3 27.6825 13.3C27.682 13.3 27.6816 13.3 27.6811 13.3C27.6806 13.3 27.6801 13.3 27.6797 13.3C27.6792 13.3 27.6787 13.3 27.6783 13.3C27.6778 13.3 27.6773 13.3 27.6768 13.3C27.6764 13.3 27.6759 13.3 27.6754 13.3C27.6749 13.3 27.6745 13.3 27.674 13.3C27.6735 13.3 27.673 13.3 27.6725 13.3C27.6721 13.3 27.6716 13.3 27.6711 13.3C27.6706 13.3 27.6701 13.3 27.6697 13.3C27.6692 13.3 27.6687 13.3 27.6682 13.3C27.6677 13.3 27.6672 13.3 27.6668 13.3C27.6663 13.3 27.6658 13.3 27.6653 13.3C27.6648 13.3 27.6643 13.3 27.6638 13.3C27.6633 13.3 27.6628 13.3 27.6624 13.3C27.6619 13.3 27.6614 13.3 27.6609 13.3C27.6604 13.3 27.6599 13.3 27.6594 13.3C27.6589 13.3 27.6584 13.3 27.6579 13.3C27.6574 13.3 27.6569 13.3 27.6564 13.3C27.6559 13.3 27.6554 13.3 27.6549 13.3C27.6544 13.3 27.6539 13.3 27.6534 13.3C27.6529 13.3 27.6524 13.3 27.6519 13.3C27.6514 13.3 27.6509 13.3 27.6504 13.3C27.6499 13.3 27.6494 13.3 27.6489 13.3C27.6484 13.3 27.6479 13.3 27.6474 13.3C27.6469 13.3 27.6463 13.3 27.6458 13.3C27.6453 13.3 27.6448 13.3 27.6443 13.3C27.6438 13.3 27.6433 13.3 27.6428 13.3C27.6422 13.3 27.6417 13.3 27.6412 13.3C27.6407 13.3 27.6402 13.3 27.6397 13.3C27.6392 13.3 27.6386 13.3 27.6381 13.3C27.6376 13.3 27.6371 13.3 27.6366 13.3C27.636 13.3 27.6355 13.3 27.635 13.3C27.6345 13.3 27.6339 13.3 27.6334 13.3C27.6329 13.3 27.6324 13.3 27.6318 13.3C27.6313 13.3 27.6308 13.3 27.6303 13.3C27.6297 13.3 27.6292 13.3 27.6287 13.3C27.6281 13.3 27.6276 13.3 27.6271 13.3C27.6266 13.3 27.626 13.3 27.6255 13.3C27.625 13.3 27.6244 13.3 27.6239 13.3C27.6233 13.3 27.6228 13.3 27.6223 13.3C27.6217 13.3 27.6212 13.3 27.6207 13.3C27.6201 13.3 27.6196 13.3 27.619 13.3C27.6185 13.3 27.618 13.3 27.6174 13.3C27.6169 13.3 27.6163 13.3 27.6158 13.3C27.6152 13.3 27.6147 13.3 27.6142 13.3C27.6136 13.3 27.6131 13.3 27.6125 13.3C27.612 13.3 27.6114 13.3 27.6109 13.3C27.6103 13.3 27.6098 13.3 27.6092 13.3C27.6087 13.3 27.6081 13.3 27.6076 13.3C27.607 13.3 27.6065 13.3 27.6059 13.3C27.6054 13.3 27.6048 13.3 27.6042 13.3C27.6037 13.3 27.6031 13.3 27.6026 13.3C27.602 13.3 27.6014 13.3 27.6009 13.3C27.6003 13.3 27.5998 13.3 27.5992 13.3C27.5986 13.3 27.5981 13.3 27.5975 13.3C27.597 13.3 27.5964 13.3 27.5958 13.3C27.5953 13.3 27.5947 13.3 27.5941 13.3C27.5936 13.3 27.593 13.3 27.5924 13.3C27.5918 13.3 27.5913 13.3 27.5907 13.3C27.5901 13.3 27.5896 13.3 27.589 13.3C27.5884 13.3 27.5878 13.3 27.5873 13.3C27.5867 13.3 27.5861 13.3 27.5855 13.3C27.585 13.3 27.5844 13.3 27.5838 13.3C27.5832 13.3 27.5827 13.3 27.5821 13.3C27.5815 13.3 27.5809 13.3 27.5803 13.3C27.5797 13.3 27.5792 13.3 27.5786 13.3C27.578 13.3 27.5774 13.3 27.5768 13.3C27.5762 13.3 27.5757 13.3 27.5751 13.3C27.5745 13.3 27.5739 13.3 27.5733 13.3C27.5727 13.3 27.5721 13.3 27.5715 13.3C27.5709 13.3 27.5703 13.3 27.5697 13.3C27.5692 13.3 27.5686 13.3 27.568 13.3C27.5674 13.3 27.5668 13.3 27.5662 13.3C27.5656 13.3 27.565 13.3 27.5644 13.3C27.5638 13.3 27.5632 13.3 27.5626 13.3C27.562 13.3 27.5614 13.3 27.5608 13.3C27.5602 13.3 27.5596 13.3 27.559 13.3C27.5584 13.3 27.5578 13.3 27.5572 13.3C27.5565 13.3 27.5559 13.3 27.5553 13.3C27.5547 13.3 27.5541 13.3 27.5535 13.3C27.5529 13.3 27.5523 13.3 27.5517 13.3C27.5511 13.3 27.5504 13.3 27.5498 13.3C27.5492 13.3 27.5486 13.3 27.548 13.3C27.5474 13.3 27.5468 13.3 27.5461 13.3C27.5455 13.3 27.5449 13.3 27.5443 13.3C27.5437 13.3 27.543 13.3 27.5424 13.3C27.5418 13.3 27.5412 13.3 27.5406 13.3C27.5399 13.3 27.5393 13.3 27.5387 13.3C27.5381 13.3 27.5374 13.3 27.5368 13.3C27.5362 13.3 27.5355 13.3 27.5349 13.3C27.5343 13.3 27.5337 13.3 27.533 13.3C27.5324 13.3 27.5318 13.3 27.5311 13.3C27.5305 13.3 27.5299 13.3 27.5292 13.3C27.5286 13.3 27.528 13.3 27.5273 13.3C27.5267 13.3 27.526 13.3 27.5254 13.3C27.5248 13.3 27.5241 13.3 27.5235 13.3C27.5228 13.3 27.5222 13.3 27.5216 13.3C27.5209 13.3 27.5203 13.3 27.5196 13.3C27.519 13.3 27.5183 13.3 27.5177 13.3C27.517 13.3 27.5164 13.3 27.5157 13.3C27.5151 13.3 27.5145 13.3 27.5138 13.3C27.5132 13.3 27.5125 13.3 27.5118 13.3C27.5112 13.3 27.5105 13.3 27.5099 13.3C27.5092 13.3 27.5086 13.3 27.5079 13.3C27.5073 13.3 27.5066 13.3 27.5059 13.3C27.5053 13.3 27.5046 13.3 27.504 13.3C27.5033 13.3 27.5027 13.3 27.502 13.3C27.5013 13.3 27.5007 13.3 27.5 13.3V14.7ZM25.5584 25.0904C25.6652 25.5332 25.9036 25.9376 26.2508 26.2334L27.1588 25.1678C27.0503 25.0753 26.9612 24.9353 26.9193 24.762L25.5584 25.0904ZM26.2508 26.2334C26.5995 26.5305 27.0379 26.7 27.499 26.7V25.3C27.3857 25.3 27.2659 25.259 27.1588 25.1678L26.2508 26.2334ZM27.499 26.7C27.9601 26.7 28.3986 26.5305 28.7472 26.2334L27.8392 25.1678C27.7322 25.259 27.6123 25.3 27.499 25.3V26.7ZM28.7472 26.2334C29.0944 25.9376 29.3328 25.5332 29.4396 25.0904L28.0787 24.762C28.0369 24.9353 27.9477 25.0753 27.8392 25.1678L28.7472 26.2334ZM27.9225 14.7C28.5115 14.7 29.1556 15.0272 29.6913 15.6331C30.2227 16.234 30.5858 17.0444 30.6418 17.8643L32.0386 17.7688C31.9599 16.6184 31.4606 15.5205 30.7401 14.7057C30.0241 13.8959 29.0264 13.3 27.9231 13.3L27.9225 14.7ZM30.6418 17.8643C30.6739 18.3336 30.7077 18.7472 30.7335 19.0436C30.7464 19.1919 30.7573 19.3111 30.765 19.3934C30.7689 19.4346 30.7719 19.4666 30.7741 19.4884C30.7751 19.4993 30.7759 19.5077 30.7765 19.5134C30.7768 19.5163 30.777 19.5185 30.7771 19.52C30.7772 19.5208 30.7774 19.5221 30.7774 19.5225C30.7773 19.5223 30.7774 19.5227 30.7774 19.5225C30.7774 19.5225 30.7774 19.5225 31.474 19.4534C32.1705 19.3843 32.1705 19.3843 32.1705 19.3843C32.1705 19.3841 32.1703 19.3826 32.1703 19.382C32.1702 19.3808 32.1701 19.3796 32.1698 19.377C32.1693 19.3719 32.1686 19.3642 32.1676 19.3539C32.1656 19.3333 32.1627 19.3027 32.1589 19.2629C32.1515 19.1833 32.1408 19.0672 32.1282 18.9223C32.103 18.6323 32.0699 18.2275 32.0386 17.7688L30.6418 17.8643Z" fill="url(#paint1_linear_23_435)"/>
</g>
<defs>
<linearGradient id="paint0_linear_23_435" x1="8.46687" y1="4.8405" x2="53.6922" y2="26.9471" gradientUnits="userSpaceOnUse">
<stop stop-color="#7381FD"/>
<stop offset="1" stop-color="#76C7FF"/>
</linearGradient>
<linearGradient id="paint1_linear_23_435" x1="19.7622" y1="11.5874" x2="37.814" y2="20.8232" gradientUnits="userSpaceOnUse">
<stop stop-color="#7381FD"/>
<stop offset="1" stop-color="#76C7FF"/>
</linearGradient>
<clipPath id="clip0_23_435">
<rect width="55" height="55" fill="white"/>
</clipPath>
</defs>
</svg>
