<svg width="55" height="55" viewBox="0 0 55 55" fill="none" xmlns="http://www.w3.org/2000/svg">
<g clip-path="url(#clip0_23_97)">
<path d="M0 15C0 6.71573 6.71573 0 15 0H40C48.2843 0 55 6.71573 55 15V40C55 48.2843 48.2843 55 40 55H15C6.71573 55 0 48.2843 0 40V15Z" fill="#F6FAFD"/>
<path d="M37.4785 13.6735H33.4383V12.272C33.4382 12.0985 33.3693 11.9322 33.2466 11.8096C33.124 11.687 32.9577 11.618 32.7843 11.6179H30.2114C29.8679 11.119 29.4082 10.711 28.8719 10.4291C28.3357 10.1473 27.7389 10 27.1331 10C26.5273 10 25.9306 10.1473 25.3943 10.4291C24.858 10.711 24.3983 11.119 24.0548 11.6179H21.4823C21.3088 11.6179 21.1425 11.6868 21.0198 11.8095C20.8972 11.9322 20.8283 12.0985 20.8283 12.272V13.6735H16.7881C16.0489 13.6743 15.3402 13.9683 14.8175 14.491C14.2948 15.0137 14.0008 15.7224 14 16.4616V42.1938C14.0008 42.933 14.2948 43.6417 14.8175 44.1644C15.3402 44.6871 16.0489 44.9811 16.7881 44.9819H37.4785C38.2176 44.981 38.9263 44.687 39.449 44.1643C39.9717 43.6416 40.2657 42.9329 40.2666 42.1938V16.4616C40.2657 15.7224 39.9717 15.0138 39.449 14.4911C38.9263 13.9684 38.2176 13.6744 37.4785 13.6735ZM22.1364 12.926H24.4184C24.5361 12.926 24.6517 12.8943 24.7529 12.8341C24.854 12.7739 24.9371 12.6875 24.9932 12.5841C25.2013 12.198 25.5099 11.8755 25.8864 11.6507C26.2629 11.4259 26.6933 11.3072 27.1318 11.3072C27.5703 11.3072 28.0006 11.4259 28.3772 11.6507C28.7537 11.8755 29.0623 12.198 29.2703 12.5841C29.3265 12.6875 29.4095 12.7739 29.5107 12.8341C29.6119 12.8943 29.7274 12.9261 29.8452 12.926H32.1287V16.3831H22.1364V12.926ZM38.957 42.1938C38.9565 42.5861 38.8004 42.9623 38.523 43.2397C38.2455 43.5172 37.8693 43.6733 37.477 43.6738H16.7881C16.3957 43.6734 16.0195 43.5173 15.742 43.2399C15.4645 42.9624 15.3085 42.5862 15.3081 42.1938V16.4616C15.3086 16.0693 15.4647 15.6931 15.7421 15.4156C16.0196 15.1382 16.3957 14.9821 16.7881 14.9816H20.8283V17.0372C20.8282 17.1231 20.8451 17.2082 20.878 17.2875C20.9108 17.3669 20.959 17.439 21.0197 17.4998C21.0805 17.5605 21.1526 17.6087 21.232 17.6416C21.3113 17.6744 21.3964 17.6913 21.4823 17.6912H32.7843C32.9577 17.6912 33.1241 17.6223 33.2467 17.4997C33.3694 17.377 33.4383 17.2107 33.4383 17.0372V14.9816H37.4785C37.8708 14.9821 38.247 15.1382 38.5245 15.4156C38.8019 15.6931 38.958 16.0693 38.9585 16.4616L38.957 42.1938Z" fill="url(#paint0_linear_23_97)"/>
<path d="M34.9056 21.1989H26.7659C26.5924 21.1989 26.426 21.2678 26.3034 21.3904C26.1807 21.5131 26.1118 21.6794 26.1118 21.8529C26.1118 22.0264 26.1807 22.1927 26.3034 22.3154C26.426 22.438 26.5924 22.5069 26.7659 22.5069H34.9056C35.0791 22.5069 35.2454 22.438 35.3681 22.3154C35.4907 22.1927 35.5596 22.0264 35.5596 21.8529C35.5596 21.6794 35.4907 21.5131 35.3681 21.3904C35.2454 21.2678 35.0791 21.1989 34.9056 21.1989Z" fill="url(#paint1_linear_23_97)"/>
<path d="M34.9056 26.6805H26.7659C26.5924 26.6805 26.426 26.7494 26.3034 26.872C26.1807 26.9947 26.1118 27.1611 26.1118 27.3345C26.1118 27.508 26.1807 27.6744 26.3034 27.797C26.426 27.9197 26.5924 27.9886 26.7659 27.9886H34.9056C35.0791 27.9886 35.2454 27.9197 35.3681 27.797C35.4907 27.6744 35.5596 27.508 35.5596 27.3345C35.5596 27.1611 35.4907 26.9947 35.3681 26.872C35.2454 26.7494 35.0791 26.6805 34.9056 26.6805Z" fill="url(#paint2_linear_23_97)"/>
<path d="M34.9056 32.1625H26.7659C26.5924 32.1625 26.426 32.2314 26.3034 32.354C26.1807 32.4767 26.1118 32.6431 26.1118 32.8165C26.1118 32.99 26.1807 33.1563 26.3034 33.279C26.426 33.4017 26.5924 33.4706 26.7659 33.4706H34.9056C35.0791 33.4706 35.2454 33.4017 35.3681 33.279C35.4907 33.1563 35.5596 32.99 35.5596 32.8165C35.5596 32.6431 35.4907 32.4767 35.3681 32.354C35.2454 32.2314 35.0791 32.1625 34.9056 32.1625Z" fill="url(#paint3_linear_23_97)"/>
<path d="M34.9056 37.6434H26.7659C26.5924 37.6434 26.426 37.7123 26.3034 37.835C26.1807 37.9577 26.1118 38.124 26.1118 38.2975C26.1118 38.4709 26.1807 38.6373 26.3034 38.76C26.426 38.8826 26.5924 38.9515 26.7659 38.9515H34.9056C35.0791 38.9515 35.2454 38.8826 35.3681 38.76C35.4907 38.6373 35.5596 38.4709 35.5596 38.2975C35.5596 38.124 35.4907 37.9577 35.3681 37.835C35.2454 37.7123 35.0791 37.6434 34.9056 37.6434Z" fill="url(#paint4_linear_23_97)"/>
<path d="M22.3629 20.3198L20.6844 21.9987L19.8214 21.1372C19.6981 21.018 19.5329 20.9521 19.3614 20.9535C19.1899 20.955 19.0258 21.0238 18.9046 21.145C18.7833 21.2662 18.7144 21.4303 18.7129 21.6018C18.7114 21.7732 18.7773 21.9385 18.8964 22.0619L20.2198 23.3853C20.2805 23.4461 20.3526 23.4943 20.432 23.5272C20.5113 23.5601 20.5964 23.577 20.6823 23.577C20.7682 23.577 20.8533 23.5601 20.9327 23.5272C21.012 23.4943 21.0841 23.4461 21.1448 23.3853L23.2856 21.2445C23.3979 21.1201 23.4581 20.9574 23.4539 20.7899C23.4497 20.6224 23.3814 20.4629 23.263 20.3443C23.1447 20.2257 22.9853 20.157 22.8178 20.1525C22.6503 20.1479 22.4875 20.2078 22.3629 20.3198Z" fill="url(#paint5_linear_23_97)"/>
<path d="M22.3629 25.8014L20.6844 27.4799L19.8248 26.6203C19.7645 26.5578 19.6923 26.508 19.6125 26.4737C19.5327 26.4394 19.4469 26.4213 19.3601 26.4206C19.2732 26.4198 19.1871 26.4363 19.1067 26.4692C19.0263 26.5021 18.9533 26.5506 18.8919 26.612C18.8304 26.6734 18.7819 26.7464 18.749 26.8268C18.716 26.9072 18.6995 26.9933 18.7002 27.0801C18.701 27.167 18.719 27.2528 18.7532 27.3326C18.7875 27.4124 18.8373 27.4846 18.8998 27.5449L20.2232 28.8676C20.2839 28.9284 20.356 28.9766 20.4354 29.0095C20.5147 29.0424 20.5998 29.0594 20.6857 29.0594C20.7716 29.0594 20.8567 29.0424 20.936 29.0095C21.0154 28.9766 21.0875 28.9284 21.1482 28.8676L23.289 26.7276C23.4118 26.6047 23.4808 26.4382 23.4808 26.2645C23.4808 26.0908 23.4118 25.9242 23.289 25.8014C23.1662 25.6786 22.9996 25.6096 22.8259 25.6096C22.6522 25.6096 22.4857 25.6786 22.3629 25.8014Z" fill="url(#paint6_linear_23_97)"/>
<path d="M22.3629 31.2831L20.6844 32.9616L19.8248 32.102C19.7022 31.9793 19.5358 31.9104 19.3623 31.9104C19.1889 31.9104 19.0225 31.9793 18.8998 32.102C18.7772 32.2247 18.7083 32.391 18.7083 32.5645C18.7083 32.738 18.7772 32.9043 18.8998 33.027L20.2232 34.3501C20.284 34.4108 20.3561 34.4591 20.4354 34.492C20.5148 34.5249 20.5998 34.5418 20.6858 34.5418C20.7717 34.5418 20.8567 34.5249 20.9361 34.492C21.0155 34.4591 21.0876 34.4108 21.1483 34.3501L23.2891 32.21C23.3499 32.1492 23.3982 32.077 23.4312 31.9975C23.4641 31.9181 23.4811 31.8329 23.4811 31.7468C23.4812 31.6608 23.4642 31.5756 23.4314 31.4961C23.3985 31.4166 23.3502 31.3444 23.2894 31.2835C23.2286 31.2226 23.1564 31.1744 23.0769 31.1414C22.9975 31.1084 22.9123 31.0915 22.8263 31.0914C22.7402 31.0914 22.655 31.1083 22.5755 31.1412C22.496 31.1741 22.4238 31.2223 22.3629 31.2831Z" fill="url(#paint7_linear_23_97)"/>
<path d="M22.3629 36.7644L20.6844 38.4432L19.8214 37.5817C19.6981 37.4626 19.5329 37.3966 19.3614 37.3981C19.1899 37.3995 19.0258 37.4683 18.9046 37.5895C18.7833 37.7108 18.7144 37.8748 18.7129 38.0463C18.7114 38.2178 18.7773 38.383 18.8964 38.5064L20.2198 39.8298C20.3426 39.9523 20.5089 40.0211 20.6823 40.0211C20.8557 40.0211 21.0221 39.9523 21.1448 39.8298L23.2856 37.689C23.3979 37.5646 23.4581 37.4019 23.4539 37.2344C23.4497 37.0669 23.3814 36.9074 23.263 36.7888C23.1447 36.6702 22.9853 36.6015 22.8178 36.597C22.6503 36.5924 22.4875 36.6524 22.3629 36.7644Z" fill="url(#paint8_linear_23_97)"/>
</g>
<defs>
<linearGradient id="paint0_linear_23_97" x1="10.7423" y1="5.52922" x2="51.8979" y2="22.6147" gradientUnits="userSpaceOnUse">
<stop stop-color="#7381FD"/>
<stop offset="1" stop-color="#76C7FF"/>
</linearGradient>
<linearGradient id="paint1_linear_23_97" x1="24.9401" y1="21.0317" x2="25.9642" y2="25.1211" gradientUnits="userSpaceOnUse">
<stop stop-color="#7381FD"/>
<stop offset="1" stop-color="#76C7FF"/>
</linearGradient>
<linearGradient id="paint2_linear_23_97" x1="24.9401" y1="26.5133" x2="25.9642" y2="30.6028" gradientUnits="userSpaceOnUse">
<stop stop-color="#7381FD"/>
<stop offset="1" stop-color="#76C7FF"/>
</linearGradient>
<linearGradient id="paint3_linear_23_97" x1="24.9401" y1="31.9953" x2="25.9642" y2="36.0848" gradientUnits="userSpaceOnUse">
<stop stop-color="#7381FD"/>
<stop offset="1" stop-color="#76C7FF"/>
</linearGradient>
<linearGradient id="paint4_linear_23_97" x1="24.9401" y1="37.4763" x2="25.9642" y2="41.5657" gradientUnits="userSpaceOnUse">
<stop stop-color="#7381FD"/>
<stop offset="1" stop-color="#76C7FF"/>
</linearGradient>
<linearGradient id="paint5_linear_23_97" x1="18.1249" y1="19.7145" x2="23.6166" y2="23.9179" gradientUnits="userSpaceOnUse">
<stop stop-color="#7381FD"/>
<stop offset="1" stop-color="#76C7FF"/>
</linearGradient>
<linearGradient id="paint6_linear_23_97" x1="18.1073" y1="25.1687" x2="23.6405" y2="29.4082" gradientUnits="userSpaceOnUse">
<stop stop-color="#7381FD"/>
<stop offset="1" stop-color="#76C7FF"/>
</linearGradient>
<linearGradient id="paint7_linear_23_97" x1="18.1163" y1="30.6505" x2="23.6479" y2="34.8811" gradientUnits="userSpaceOnUse">
<stop stop-color="#7381FD"/>
<stop offset="1" stop-color="#76C7FF"/>
</linearGradient>
<linearGradient id="paint8_linear_23_97" x1="18.1249" y1="36.1591" x2="23.616" y2="40.3627" gradientUnits="userSpaceOnUse">
<stop stop-color="#7381FD"/>
<stop offset="1" stop-color="#76C7FF"/>
</linearGradient>
<clipPath id="clip0_23_97">
<rect width="55" height="55" fill="white"/>
</clipPath>
</defs>
</svg>
