<svg width="55" height="55" viewBox="0 0 55 55" fill="none" xmlns="http://www.w3.org/2000/svg">
<g clip-path="url(#clip0_23_180)">
<path d="M0 15C0 6.71573 6.71573 0 15 0H40C48.2843 0 55 6.71573 55 15V40C55 48.2843 48.2843 55 40 55H15C6.71573 55 0 48.2843 0 40V15Z" fill="#F6FAFD"/>
<path d="M37.6177 39.4492L38.2274 39.0125L38.2196 39.0016L38.2113 38.9909L37.6177 39.4492ZM16.6866 34.3094L16.6012 35.0546L16.6061 35.0551L16.6866 34.3094ZM29.9462 11.2958L30.6854 11.169L30.677 11.1203L30.6623 11.0731L29.9462 11.2958ZM11.5723 24.3729L11.3809 25.0981L11.3881 25.1L11.3953 25.1017L11.5723 24.3729ZM38.2113 38.9909L36.3361 36.562L35.1488 37.4786L37.024 39.9076L38.2113 38.9909ZM35.8105 35.033V29.4713H34.3105V35.033H35.8105ZM29.7159 27.3338L26.9263 30.6459L28.0736 31.6122L30.8632 28.3001L29.7159 27.3338ZM18.913 33.7954L16.7671 33.5638L16.6061 35.0551L18.7521 35.2867L18.913 33.7954ZM26.9263 30.6459C24.8973 33.055 22.1193 34.1415 18.913 33.7954L18.7521 35.2867C22.4372 35.6845 25.7119 34.4163 28.0736 31.6122L26.9263 30.6459ZM33.9015 26.4599C32.4734 25.7662 30.7368 26.1217 29.7159 27.3338L30.8632 28.3001C31.4344 27.6219 32.4255 27.4106 33.2461 27.8092L33.9015 26.4599ZM35.8105 29.4713C35.8105 28.186 35.0632 27.0242 33.9015 26.4599L33.2461 27.8092C33.9067 28.13 34.3105 28.7775 34.3105 29.4713H35.8105ZM36.3361 36.562C35.9936 36.1184 35.8105 35.5819 35.8105 35.033H34.3105C34.3105 35.9174 34.6059 36.7755 35.1488 37.4786L36.3361 36.562ZM29.207 11.4226L30.127 16.7852L31.6054 16.5315L30.6854 11.169L29.207 11.4226ZM27.0624 19.7296L25.6865 19.5069L25.4468 20.9876L26.8227 21.2103L27.0624 19.7296ZM15.2481 24.4938L11.7493 23.6441L11.3953 25.1017L14.8941 25.9515L15.2481 24.4938ZM19.2551 22.7121C18.5242 24.1321 16.862 24.8858 15.2481 24.4938L14.8941 25.9515C17.1602 26.5018 19.5312 25.4535 20.5888 23.3985L19.2551 22.7121ZM25.6865 19.5069C22.9085 19.0571 20.5233 20.2482 19.2551 22.7121L20.5888 23.3985C21.5544 21.5226 23.2981 20.6397 25.4468 20.9876L25.6865 19.5069ZM30.127 16.7852C30.419 18.4874 28.8948 20.0263 27.0624 19.7296L26.8227 21.2103C29.6056 21.6609 32.0826 19.3128 31.6054 16.5315L30.127 16.7852ZM27.5 43.25C20.6357 43.25 14.7952 38.8583 12.6386 32.7291L11.2236 33.2269C13.5849 39.9378 19.9795 44.75 27.5 44.75V43.25ZM12.6386 32.7291C12.0633 31.0939 11.75 29.3343 11.75 27.5H10.25C10.25 29.5062 10.5928 31.434 11.2236 33.2269L12.6386 32.7291ZM16.772 33.5643C15.6929 33.4406 14.5867 33.1537 13.7278 32.8783C13.3003 32.7412 12.9418 32.6094 12.6872 32.5067C12.5592 32.455 12.463 32.4129 12.4002 32.3831C12.3682 32.3678 12.3519 32.3592 12.3474 32.3567C12.3189 32.3407 12.3843 32.3721 12.4558 32.4421L11.4065 33.514C11.494 33.5997 11.5927 33.6532 11.6136 33.6649C11.6587 33.6902 11.708 33.7149 11.7566 33.738C11.8553 33.7848 11.9808 33.8391 12.1258 33.8976C12.4173 34.0153 12.8105 34.1594 13.2698 34.3067C14.1845 34.6 15.3919 34.916 16.6012 35.0546L16.772 33.5643ZM11.75 27.5C11.75 26.4552 11.8516 25.4348 12.0453 24.448L10.5734 24.1591C10.3611 25.2405 10.25 26.3576 10.25 27.5H11.75ZM12.0453 24.448C13.4662 17.2101 19.8463 11.75 27.5 11.75V10.25C19.1156 10.25 12.1297 16.2311 10.5734 24.1591L12.0453 24.448ZM11.7637 23.6478L11.5008 23.5784L11.118 25.0287L11.3809 25.0981L11.7637 23.6478ZM27.5 11.75C28.2817 11.75 29.0496 11.8069 29.7999 11.9166L30.017 10.4324C29.195 10.3122 28.3545 10.25 27.5 10.25V11.75ZM29.7999 11.9166C37.408 13.0293 43.25 19.5831 43.25 27.5H44.75C44.75 18.8277 38.3511 11.6513 30.017 10.4324L29.7999 11.9166ZM30.6623 11.0731L30.6246 10.9518L29.1923 11.3972L29.23 11.5185L30.6623 11.0731ZM43.25 27.5C43.25 32.3415 41.0664 36.6723 37.6275 39.5627L38.5927 40.7109C42.3561 37.5478 44.75 32.8031 44.75 27.5H43.25ZM37.6275 39.5627C34.8891 41.8644 31.3574 43.25 27.5 43.25V44.75C31.7234 44.75 35.5941 43.2312 38.5927 40.7109L37.6275 39.5627ZM37.0079 39.8859L37.5004 40.5735L38.7198 39.7001L38.2274 39.0125L37.0079 39.8859Z" fill="url(#paint0_linear_23_180)"/>
</g>
<defs>
<linearGradient id="paint0_linear_23_180" x1="5.97122" y1="5.8408" x2="54.5068" y2="32.6756" gradientUnits="userSpaceOnUse">
<stop stop-color="#7381FD"/>
<stop offset="1" stop-color="#76C7FF"/>
</linearGradient>
<clipPath id="clip0_23_180">
<rect width="55" height="55" fill="white"/>
</clipPath>
</defs>
</svg>
