<svg width="55" height="55" viewBox="0 0 55 55" fill="none" xmlns="http://www.w3.org/2000/svg">
<g clip-path="url(#clip0_23_536)">
<path d="M0 15C0 6.71573 6.71573 0 15 0H40C48.2843 0 55 6.71573 55 15V40C55 48.2843 48.2843 55 40 55H15C6.71573 55 0 48.2843 0 40V15Z" fill="#F6FAFD"/>
<path d="M42.2509 26.8837V15.003C42.2509 14.8358 42.184 14.6754 42.0651 14.5572C41.9461 14.439 41.7846 14.3726 41.6163 14.3726H31.4624M31.4624 14.3726V15.6334V25.6117C31.4616 25.849 31.3267 26.0659 31.1134 26.1729C31.0259 26.2199 30.9275 26.2438 30.8278 26.2421C30.6904 26.2421 30.557 26.1979 30.4471 26.116L27.6547 24.0356L24.8624 26.116C24.6692 26.259 24.4111 26.281 24.1961 26.1729C23.9828 26.0659 23.8479 25.849 23.8471 25.6117V15.6334V14.3726M31.4624 14.3726H23.8471M29.9249 40.8508H13.6932C13.5249 40.8508 13.3634 40.7844 13.2444 40.6662C13.1255 40.548 13.0586 40.3876 13.0586 40.2204V15.003C13.0586 14.6548 13.3428 14.3726 13.6932 14.3726H23.8471M33.0583 35.8073H38.4432V31.2285M38.4432 43.3726C36.4235 43.3726 34.4865 42.5755 33.0583 41.1567C31.6302 39.7379 30.8278 37.8138 30.8278 35.8073C30.8278 33.8009 31.6301 31.8767 33.0583 30.4579C34.4865 29.0392 36.4235 28.2421 38.4432 28.2421C40.463 28.2421 42.3999 29.0391 43.8281 30.4579C45.2562 31.8767 46.0586 33.8009 46.0586 35.8073C46.0586 37.8138 45.2563 39.738 43.8281 41.1567C42.3999 42.5755 40.463 43.3726 38.4432 43.3726Z" stroke="url(#paint0_linear_23_536)" stroke-width="1.5" stroke-linecap="round" stroke-linejoin="round"/>
</g>
<defs>
<linearGradient id="paint0_linear_23_536" x1="8.96585" y1="10.6663" x2="52.393" y2="37.9885" gradientUnits="userSpaceOnUse">
<stop stop-color="#7381FD"/>
<stop offset="1" stop-color="#76C7FF"/>
</linearGradient>
<clipPath id="clip0_23_536">
<rect width="55" height="55" fill="white"/>
</clipPath>
</defs>
</svg>
