<svg width="55" height="55" viewBox="0 0 55 55" fill="none" xmlns="http://www.w3.org/2000/svg">
<g clip-path="url(#clip0_23_223)">
<path d="M0 15C0 6.71573 6.71573 0 15 0H40C48.2843 0 55 6.71573 55 15V40C55 48.2843 48.2843 55 40 55H15C6.71573 55 0 48.2843 0 40V15Z" fill="#F6FAFD"/>
<path d="M33.9077 42.75C34.3219 42.75 34.6577 42.4142 34.6577 42C34.6577 41.5858 34.322 41.25 33.9078 41.25L33.9077 42.75ZM21.0969 41.2498C20.6827 41.2498 20.3469 41.5856 20.3469 41.9998C20.3469 42.414 20.6827 42.7498 21.0969 42.7498V41.2498ZM42.2159 13L42.2176 12.25H42.2159V13ZM29.1158 21.8828C29.1797 21.4735 28.8998 21.0899 28.4906 21.026C28.0813 20.9621 27.6977 21.242 27.6338 21.6512L29.1158 21.8828ZM26.3838 29.6512C26.3199 30.0605 26.5998 30.4441 27.009 30.508C27.4183 30.572 27.8019 30.292 27.8658 29.8828L26.3838 29.6512ZM32.9776 21.6611C32.6583 21.3973 32.1855 21.4423 31.9218 21.7617C31.658 22.0811 31.703 22.5538 32.0224 22.8176L32.9776 21.6611ZM36.7602 25.7582L37.2551 26.3217C37.4202 26.1767 37.5134 25.9666 37.5101 25.7468C37.5068 25.5271 37.4072 25.3199 37.2378 25.18L36.7602 25.7582ZM32.0051 28.9365C31.6938 29.2098 31.6631 29.6837 31.9365 29.9949C32.2098 30.3062 32.6837 30.3369 32.9949 30.0635L32.0051 28.9365ZM23.3988 22.8116C23.7148 22.5439 23.754 22.0706 23.4863 21.7546C23.2186 21.4385 22.7453 21.3993 22.4293 21.667L23.3988 22.8116ZM18.7602 25.7579L18.2754 25.1857C18.1102 25.3256 18.0136 25.53 18.0103 25.7465C18.007 25.9629 18.0973 26.1703 18.2582 26.3152L18.7602 25.7579ZM22.412 30.0572C22.7198 30.3345 23.194 30.3097 23.4712 30.002C23.7485 29.6942 23.7238 29.22 23.416 28.9428L22.412 30.0572ZM42.2142 13.75C42.5093 13.7507 42.7799 13.8588 42.9694 14.0329L43.9842 12.9283C43.5051 12.4881 42.8683 12.2515 42.2176 12.25L42.2142 13.75ZM12.0302 14.0333C12.2206 13.8586 12.492 13.75 12.7855 13.75V12.25C12.1325 12.25 11.4954 12.4882 11.0167 12.9276L12.0302 14.0333ZM11.75 14.6365C11.75 14.4247 11.8417 14.2059 12.0302 14.0333L11.0167 12.9276C10.5354 13.3683 10.25 13.9807 10.25 14.6365H11.75ZM12.031 36.7743C11.8424 36.6017 11.75 36.3821 11.75 36.1702H10.25C10.25 36.8261 10.5361 37.4393 11.0174 37.88L12.031 36.7743ZM12.7853 37.0569C12.4918 37.0569 12.2213 36.949 12.031 36.7743L11.0174 37.88C11.4961 38.3192 12.1323 38.5569 12.7853 38.5569V37.0569ZM42.9699 36.7736C42.7797 36.9483 42.5086 37.0569 42.2157 37.0569V38.5569C42.8691 38.5569 43.5061 38.318 43.9842 37.8786L42.9699 36.7736ZM12.7855 13.75H42.2159V12.25H12.7855V13.75ZM21.0969 42.7498L24.692 42.7499L24.6921 41.2499L21.0969 41.2498V42.7498ZM24.692 37.0569H12.7853V38.5569H24.692V37.0569ZM25.442 41.9999V37.8069H23.942V41.9999H25.442ZM24.692 42.7499H30.3046V41.2499H24.6921L24.692 42.7499ZM30.3046 42.7499L33.9077 42.75L33.9078 41.25L30.3046 41.2499V42.7499ZM42.2157 37.0569H30.3046V38.5569H42.2157V37.0569ZM30.3046 37.0569H24.692V38.5569H30.3046V37.0569ZM31.0546 41.9999V37.8069H29.5546V41.9999H31.0546ZM43.25 36.1703C43.25 36.3818 43.1584 36.6007 42.9699 36.7736L43.9842 37.8786C44.4646 37.4381 44.75 36.8259 44.75 36.1703H43.25ZM42.9694 14.0329C43.1579 14.2056 43.25 14.4251 43.25 14.6366H44.75C44.75 13.981 44.4646 13.3688 43.9842 12.9283L42.9694 14.0329ZM44.75 18.5V14.6366H43.25V18.5H44.75ZM11.75 18.5V14.6365H10.25V18.5H11.75ZM11.75 36.1702V32H10.25V36.1702H11.75ZM11.75 32V18.5H10.25V32H11.75ZM44.75 36.1703V32H43.25V36.1703H44.75ZM44.75 32V18.5H43.25V32H44.75ZM27.6338 21.6512L26.3838 29.6512L27.8658 29.8828L29.1158 21.8828L27.6338 21.6512ZM32.0224 22.8176L36.2825 26.3365L37.2378 25.18L32.9776 21.6611L32.0224 22.8176ZM36.2652 25.1947L32.0051 28.9365L32.9949 30.0635L37.2551 26.3217L36.2652 25.1947ZM22.4293 21.667L18.2754 25.1857L19.2449 26.3302L23.3988 22.8116L22.4293 21.667ZM18.2582 26.3152L22.412 30.0572L23.416 28.9428L19.2622 25.2007L18.2582 26.3152Z" fill="url(#paint0_linear_23_223)"/>
</g>
<defs>
<linearGradient id="paint0_linear_23_223" x1="5.97122" y1="8.35201" x2="51.5259" y2="36.8419" gradientUnits="userSpaceOnUse">
<stop stop-color="#7381FD"/>
<stop offset="1" stop-color="#76C7FF"/>
</linearGradient>
<clipPath id="clip0_23_223">
<rect width="55" height="55" fill="white"/>
</clipPath>
</defs>
</svg>
