<svg width="55" height="55" viewBox="0 0 55 55" fill="none" xmlns="http://www.w3.org/2000/svg">
<g clip-path="url(#clip0_23_578)">
<path d="M0 15C0 6.71573 6.71573 0 15 0H40C48.2843 0 55 6.71573 55 15V40C55 48.2843 48.2843 55 40 55H15C6.71573 55 0 48.2843 0 40V15Z" fill="#F6FAFD"/>
<path d="M43 21.098H43.7501L43.7499 21.0889L43 21.098ZM41.7365 19.268L41.4568 19.9639L41.4578 19.9644L41.7365 19.268ZM27.3756 19.126V19.876H27.3777L27.3756 19.126ZM14.9115 19.1293L14.8795 18.3799L14.8717 18.3803L14.9115 19.1293ZM13.0771 20.5526L12.3572 20.3418L12.3545 20.3516L13.0771 20.5526ZM14.3307 40.7596L14.5923 40.0567L14.5893 40.0556L14.3307 40.7596ZM25.5381 16.8529L24.9725 17.3455L24.979 17.3529L24.9857 17.3602L25.5381 16.8529ZM24.4885 15.6409L25.056 15.1505L25.055 15.1493L24.4885 15.6409ZM13.0113 17.0187L12.2613 17.0157V17.0168L13.0113 17.0187ZM29.3556 26.1158C29.4195 25.7065 29.1396 25.3229 28.7304 25.259C28.3211 25.195 27.9375 25.475 27.8736 25.8842L29.3556 26.1158ZM26.6236 33.8842C26.5597 34.2935 26.8396 34.6771 27.2488 34.741C27.6581 34.805 28.0417 34.525 28.1056 34.1158L26.6236 33.8842ZM33.2174 25.8941C32.8981 25.6303 32.4254 25.6753 32.1616 25.9947C31.8978 26.314 31.9428 26.7868 32.2622 27.0506L33.2174 25.8941ZM37 29.9912L37.4949 30.5547C37.66 30.4097 37.7532 30.1996 37.7499 29.9798C37.7466 29.7601 37.647 29.5529 37.4776 29.413L37 29.9912ZM32.2449 33.1695C31.9337 33.4428 31.903 33.9167 32.1763 34.2279C32.4497 34.5391 32.9235 34.5698 33.2347 34.2965L32.2449 33.1695ZM23.6386 27.0446C23.9547 26.7769 23.9938 26.3036 23.7261 25.9876C23.4584 25.6715 22.9851 25.6323 22.6691 25.9L23.6386 27.0446ZM19 29.9909L18.5152 29.4186C18.35 29.5586 18.2534 29.763 18.2501 29.9795C18.2468 30.1959 18.3372 30.4033 18.498 30.5482L19 29.9909ZM22.6518 34.2902C22.9596 34.5675 23.4338 34.5427 23.7111 34.235C23.9883 33.9272 23.9636 33.453 23.6558 33.1758L22.6518 34.2902ZM41.0066 41.6258L41.0095 41.6257L40.986 40.1259L40.9831 40.126L41.0066 41.6258ZM41.0095 41.6257C42.1729 41.6067 43.2081 40.8832 43.6011 39.7861L42.1889 39.2804C42.0114 39.7759 41.5398 40.1168 40.986 40.1259L41.0095 41.6257ZM43.6011 39.7861C43.7291 39.4276 43.75 39.0748 43.75 38.7909H42.25C42.25 39.0105 42.2315 39.1612 42.1889 39.2804L43.6011 39.7861ZM43.7499 21.0889C43.7364 19.9754 43.0518 18.9866 42.0152 18.5717L41.4578 19.9644C41.9375 20.1563 42.244 20.6069 42.2501 21.1072L43.7499 21.0889ZM42.0162 18.5722C41.4778 18.3557 40.9386 18.376 40.5846 18.376V19.876C41.0183 19.876 41.2405 19.877 41.4568 19.9639L42.0162 18.5722ZM15.1412 18.376C15.0688 18.376 14.9738 18.3758 14.8795 18.3799L14.9436 19.8786C15.0003 19.8762 15.0628 19.876 15.1412 19.876V18.376ZM14.8717 18.3803C13.7186 18.4416 12.687 19.2155 12.3572 20.3418L13.7968 20.7633C13.9396 20.2759 14.4046 19.9073 14.9513 19.8782L14.8717 18.3803ZM12.2549 38.1131C12.2549 38.3646 12.2516 38.6463 12.2549 38.9163L13.7548 38.8982C13.7516 38.639 13.7549 38.3909 13.7549 38.1131H12.2549ZM12.2549 38.9163C12.2685 40.0682 12.9966 41.0687 14.0721 41.4636L14.5893 40.0556C14.0829 39.8696 13.7609 39.4116 13.7548 38.8982L12.2549 38.9163ZM14.0691 41.4625C14.4288 41.5964 14.7841 41.6258 15.0888 41.6258V40.1258C14.8749 40.1258 14.7183 40.1036 14.5923 40.0567L14.0691 41.4625ZM40.9978 41.6258H41.0014V40.1258H40.9978V41.6258ZM26.1037 16.3603C25.7539 15.9588 25.4074 15.5572 25.056 15.1505L23.921 16.1312C24.2715 16.5368 24.6204 16.9411 24.9725 17.3455L26.1037 16.3603ZM25.055 15.1493C24.5108 14.5221 23.7859 14.2507 23.023 14.2507V15.7507C23.4104 15.7507 23.6994 15.8757 23.922 16.1324L25.055 15.1493ZM15.4972 14.2507C15.138 14.2507 14.547 14.2184 13.98 14.4489L14.5449 15.8385C14.7771 15.7441 15.018 15.7507 15.4972 15.7507V14.2507ZM13.98 14.4489C12.9218 14.8793 12.2658 15.897 12.2613 17.0157L13.7613 17.0216C13.7634 16.4896 14.0694 16.032 14.5449 15.8385L13.98 14.4489ZM27.623 18.3754L27.3736 18.376L27.3777 19.876L27.627 19.8754L27.623 18.3754ZM24.9857 17.3602L27.0726 19.6327L28.1774 18.6181L26.0905 16.3456L24.9857 17.3602ZM12.3545 20.3516C12.2761 20.6333 12.2561 20.9085 12.2513 21.1412L13.751 21.1722C13.7546 20.995 13.7696 20.8616 13.7996 20.7535L12.3545 20.3516ZM12.2513 21.1412C12.2496 21.2252 12.2498 21.307 12.2506 21.3836L13.7506 21.3672C13.7498 21.2983 13.7497 21.234 13.751 21.1722L12.2513 21.1412ZM12.2506 21.3836C12.2521 21.5184 12.2549 21.6157 12.2549 21.7273H13.7549C13.7549 21.6084 13.7517 21.4699 13.7506 21.3672L12.2506 21.3836ZM12.2613 17.0168L12.2511 21.1548L13.7511 21.1585L13.7613 17.0205L12.2613 17.0168ZM12.2511 21.1548L12.2506 21.3735L13.7506 21.3772L13.7511 21.1585L12.2511 21.1548ZM27.8736 25.8842L26.6236 33.8842L28.1056 34.1158L29.3556 26.1158L27.8736 25.8842ZM32.2622 27.0506L36.5224 30.5695L37.4776 29.413L33.2174 25.8941L32.2622 27.0506ZM36.5051 29.4277L32.2449 33.1695L33.2347 34.2965L37.4949 30.5547L36.5051 29.4277ZM22.6691 25.9L18.5152 29.4186L19.4847 30.5632L23.6386 27.0446L22.6691 25.9ZM18.498 30.5482L22.6518 34.2902L23.6558 33.1758L19.502 29.4337L18.498 30.5482ZM43.75 38.7909L43.7501 21.098H42.25V38.7909H43.75ZM40.5846 18.376L27.625 18.3754V19.8754L40.5846 19.876V18.376ZM27.3756 18.376H15.1412V19.876H27.3756V18.376ZM12.2549 21.7273V38.1131H13.7549V21.7273H12.2549ZM15.0888 41.6258H40.9978V40.1258H15.0888V41.6258ZM23.023 14.2507H15.4972V15.7507H23.023V14.2507Z" fill="url(#paint0_linear_23_578)"/>
</g>
<defs>
<linearGradient id="paint0_linear_23_578" x1="8.34327" y1="10.7503" x2="49.5347" y2="36.9548" gradientUnits="userSpaceOnUse">
<stop stop-color="#7381FD"/>
<stop offset="1" stop-color="#76C7FF"/>
</linearGradient>
<clipPath id="clip0_23_578">
<rect width="55" height="55" fill="white"/>
</clipPath>
</defs>
</svg>
