<svg width="55" height="55" viewBox="0 0 55 55" fill="none" xmlns="http://www.w3.org/2000/svg">
<g clip-path="url(#clip0_23_486)">
<path d="M0 15C0 6.71573 6.71573 0 15 0H40C48.2843 0 55 6.71573 55 15V40C55 48.2843 48.2843 55 40 55H15C6.71573 55 0 48.2843 0 40V15Z" fill="#F6FAFD"/>
<path d="M45.4638 33.5244C45.7534 33.8205 46.2282 33.8258 46.5244 33.5362C46.8205 33.2466 46.8258 32.7717 46.5361 32.4756L45.4638 33.5244ZM41.378 14L41.3798 13.25H41.378V14ZM22.179 40.2498C21.7648 40.2498 21.429 40.5856 21.429 40.9998C21.4289 41.414 21.7647 41.7498 22.1789 41.7498L22.179 40.2498ZM33.8251 41.75C34.2394 41.75 34.5752 41.4142 34.5752 41C34.5752 40.5858 34.2394 40.25 33.8252 40.25L33.8251 41.75ZM42.25 21C42.25 21.4142 42.5857 21.75 43 21.75C43.4142 21.75 43.75 21.4142 43.75 21H42.25ZM43.75 33.5C43.75 33.0858 43.4142 32.75 43 32.75C42.5857 32.75 42.25 33.0858 42.25 33.5H43.75ZM40.2424 30.7348C38.3136 30.7348 36.75 29.1712 36.75 27.2424H35.25C35.25 29.9997 37.4851 32.2348 40.2424 32.2348V30.7348ZM36.75 27.2424C36.75 25.3136 38.3136 23.75 40.2424 23.75V22.25C37.4851 22.25 35.25 24.4852 35.25 27.2424H36.75ZM40.2424 23.75C42.1712 23.75 43.7348 25.3136 43.7348 27.2424H45.2348C45.2348 24.4852 42.9996 22.25 40.2424 22.25V23.75ZM43.7348 27.2424C43.7348 28.1943 43.355 29.0559 42.737 29.6866L43.8084 30.7364C44.69 29.8368 45.2348 28.6025 45.2348 27.2424H43.7348ZM42.737 29.6866C42.1023 30.3343 41.2198 30.7348 40.2424 30.7348V32.2348C41.6392 32.2348 42.9031 31.6602 43.8084 30.7364L42.737 29.6866ZM42.7365 30.7359L45.4638 33.5244L46.5361 32.4756L43.8089 29.6871L42.7365 30.7359ZM41.3763 14.75C41.6231 14.7506 41.8504 14.8431 42.0103 14.9937L43.0382 13.9012C42.5904 13.4798 41.9927 13.2514 41.3798 13.25L41.3763 14.75ZM13.9891 14.9941C14.15 14.8428 14.3779 14.75 14.6231 14.75V13.25C14.0078 13.25 13.4099 13.48 12.9625 13.9005L13.9891 14.9941ZM13.75 15.5237C13.75 15.3355 13.8296 15.1437 13.9891 14.9941L12.9625 13.9005C12.5131 14.3218 12.25 14.904 12.25 15.5237H13.75ZM13.9898 36.1026C13.8303 35.9529 13.75 35.7605 13.75 35.5723H12.25C12.25 36.192 12.5138 36.7748 12.9632 37.1963L13.9898 36.1026ZM14.623 36.3461C14.3778 36.3461 14.1507 36.2538 13.9898 36.1026L12.9632 37.1963C13.4105 37.6167 14.0077 37.8461 14.623 37.8461V36.3461ZM42.0109 36.102C41.8502 36.2532 41.6225 36.3461 41.3779 36.3461V37.8461C41.9935 37.8461 42.5914 37.6154 43.0383 37.1949L42.0109 36.102ZM14.6231 14.75H41.378V13.25H14.6231V14.75ZM22.1789 41.7498L25.4472 41.7499L25.4473 40.2499L22.179 40.2498L22.1789 41.7498ZM25.4473 36.3461H14.623V37.8461H25.4473V36.3461ZM26.1973 40.9999V37.0961H24.6973V40.9999H26.1973ZM25.4472 41.7499H30.5495L30.5496 40.2499H25.4473L25.4472 41.7499ZM30.5495 41.7499L33.8251 41.75L33.8252 40.25L30.5496 40.2499L30.5495 41.7499ZM41.3779 36.3461H30.5495V37.8461H41.3779V36.3461ZM30.5495 36.3461H25.4473V37.8461H30.5495V36.3461ZM31.2995 40.9999V37.0961H29.7995V40.9999H31.2995ZM42.25 35.5724C42.25 35.7602 42.1704 35.9521 42.0109 36.102L43.0383 37.1949C43.4868 36.7737 43.75 36.1918 43.75 35.5724H42.25ZM42.0103 14.9937C42.1698 15.1434 42.25 15.3359 42.25 15.5238L43.75 15.5237C43.7499 14.9043 43.4867 14.3224 43.0382 13.9012L42.0103 14.9937ZM43.75 21V15.5237L42.25 15.5238V21H43.75ZM43.75 35.5724V33.5H42.25V35.5724H43.75ZM13.75 35.5723V15.5237H12.25V35.5723H13.75Z" fill="url(#paint0_linear_23_486)"/>
<path d="M18.5386 19.65H20.6924V18.35H18.5386V19.65ZM20.5809 19.5V32.5H21.8809V19.5H20.5809ZM20.6924 32.35H18.5386V33.65H20.6924V32.35ZM18.6501 32.5V19.5H17.3501V32.5H18.6501ZM18.5386 32.35C18.554 32.35 18.5774 32.3561 18.6001 32.3772C18.6237 32.3991 18.6501 32.4423 18.6501 32.5H17.3501C17.3501 33.1797 17.9284 33.65 18.5386 33.65V32.35ZM20.5809 32.5C20.5809 32.4423 20.6073 32.3991 20.6309 32.3772C20.6536 32.3561 20.677 32.35 20.6924 32.35V33.65C21.3026 33.65 21.8809 33.1797 21.8809 32.5H20.5809ZM20.6924 19.65C20.677 19.65 20.6536 19.6439 20.6309 19.6228C20.6073 19.6009 20.5809 19.5577 20.5809 19.5H21.8809C21.8809 18.8203 21.3026 18.35 20.6924 18.35V19.65ZM18.5386 18.35C17.9284 18.35 17.3501 18.8203 17.3501 19.5H18.6501C18.6501 19.5577 18.6237 19.6009 18.6001 19.6228C18.5774 19.6439 18.554 19.65 18.5386 19.65V18.35ZM23.9232 22.65H26.077V21.35H23.9232V22.65ZM25.9655 22.5V32.5H27.2655V22.5H25.9655ZM26.077 32.35H23.9232V33.65H26.077V32.35ZM24.0347 32.5V22.5H22.7347V32.5H24.0347ZM23.9232 32.35C23.9386 32.35 23.962 32.3561 23.9847 32.3772C24.0083 32.3991 24.0347 32.4423 24.0347 32.5H22.7347C22.7347 33.1797 23.313 33.65 23.9232 33.65V32.35ZM25.9655 32.5C25.9655 32.4423 25.9919 32.3991 26.0155 32.3772C26.0382 32.3561 26.0616 32.35 26.077 32.35V33.65C26.6872 33.65 27.2655 33.1797 27.2655 32.5H25.9655ZM26.077 22.65C26.0616 22.65 26.0382 22.6439 26.0155 22.6228C25.9919 22.6009 25.9655 22.5577 25.9655 22.5H27.2655C27.2655 21.8203 26.6872 21.35 26.077 21.35V22.65ZM23.9232 21.35C23.313 21.35 22.7347 21.8203 22.7347 22.5H24.0347C24.0347 22.5577 24.0083 22.6009 23.9847 22.6228C23.962 22.6439 23.9386 22.65 23.9232 22.65V21.35ZM29.3078 25.65H31.4616V24.35H29.3078V25.65ZM31.3501 25.5V32.5H32.6501V25.5H31.3501ZM31.4616 32.35H29.3078V33.65H31.4616V32.35ZM29.4193 32.5V25.5H28.1193V32.5H29.4193ZM29.3078 32.35C29.3232 32.35 29.3466 32.3561 29.3693 32.3772C29.3929 32.3991 29.4193 32.4423 29.4193 32.5H28.1193C28.1193 33.1797 28.6976 33.65 29.3078 33.65V32.35ZM31.3501 32.5C31.3501 32.4423 31.3765 32.3991 31.4001 32.3772C31.4228 32.3561 31.4462 32.35 31.4616 32.35V33.65C32.0718 33.65 32.6501 33.1797 32.6501 32.5H31.3501ZM31.4616 25.65C31.4462 25.65 31.4228 25.6439 31.4001 25.6228C31.3765 25.6009 31.3501 25.5577 31.3501 25.5H32.6501C32.6501 24.8203 32.0718 24.35 31.4616 24.35V25.65ZM29.3078 24.35C28.6976 24.35 28.1193 24.8203 28.1193 25.5H29.4193C29.4193 25.5577 29.3929 25.6009 29.3693 25.6228C29.3466 25.6439 29.3232 25.65 29.3078 25.65V24.35Z" fill="url(#paint1_linear_23_486)"/>
</g>
<defs>
<linearGradient id="paint0_linear_23_486" x1="7.97122" y1="9.60762" x2="51.7382" y2="38.9003" gradientUnits="userSpaceOnUse">
<stop stop-color="#7381FD"/>
<stop offset="1" stop-color="#76C7FF"/>
</linearGradient>
<linearGradient id="paint1_linear_23_486" x1="15.4526" y1="16.3946" x2="36.977" y2="28.2953" gradientUnits="userSpaceOnUse">
<stop stop-color="#7381FD"/>
<stop offset="1" stop-color="#76C7FF"/>
</linearGradient>
<clipPath id="clip0_23_486">
<rect width="55" height="55" fill="white"/>
</clipPath>
</defs>
</svg>
