<svg width="55" height="55" viewBox="0 0 55 55" fill="none" xmlns="http://www.w3.org/2000/svg">
<g clip-path="url(#clip0_23_342)">
<path d="M0 15C0 6.71573 6.71573 0 15 0H40C48.2843 0 55 6.71573 55 15V40C55 48.2843 48.2843 55 40 55H15C6.71573 55 0 48.2843 0 40V15Z" fill="#F6FAFD"/>
<path d="M40.9949 40.8759C41.8547 40.863 42.6095 40.3304 42.895 39.5332C42.9803 39.2944 43 39.0427 43 38.7909V37.4774V35.0567V31.939V28.5728V25.4034V22.8376V21.3239V21.098C42.9902 20.2912 42.4946 19.5714 41.7365 19.268C41.3591 19.1164 40.9784 19.126 40.5846 19.126H39.1505H36.896H34.0376H30.8018L27.625 19.1254M27.625 19.1254L27.3756 19.126H23.9889H20.8581H18.2064H16.2242H15.1412C15.0658 19.126 14.987 19.126 14.9115 19.1293C14.0616 19.1745 13.3133 19.7457 13.0771 20.5526C13.0036 20.8168 12.9976 21.0985 13.0006 21.3754M27.625 19.1254L25.5381 16.8529C25.1872 16.45 24.8394 16.047 24.4885 15.6409C24.1051 15.1989 23.5982 15.0007 23.023 15.0007H19.5428H15.4972C15.078 15.0007 14.6621 14.9812 14.2624 15.1437C13.4955 15.4557 13.0146 16.1933 13.0113 17.0187L13.0006 21.3754M41.0014 40.8758H40.4697H38.9273H36.5907H33.6732H30.4079H26.9752H23.6081H20.52H17.9373H16.0503H15.0888C14.8295 40.8758 14.5735 40.85 14.3307 40.7596C13.5398 40.4692 13.0147 39.7397 13.0049 38.907C13.0016 38.6424 13.0049 38.3778 13.0049 38.1131V36.0411V33.1235V29.8121V26.5104V23.6703V21.7273C13.0049 21.612 13.0019 21.4941 13.0006 21.3754" stroke="url(#paint0_linear_23_342)" stroke-width="1.5"/>
<path d="M34.5336 27.7339L30.5935 27.1625L28.8282 23.5893C28.5894 23.0946 27.7792 23.0946 27.5403 23.5893L25.775 27.1625L21.8349 27.7339C21.5618 27.7764 21.3402 27.9641 21.2549 28.22C21.1696 28.4759 21.2377 28.7658 21.434 28.9535L24.2823 31.7336L23.6085 35.6567C23.566 35.9297 23.6766 36.2024 23.8983 36.3559C24.1199 36.5179 24.4183 36.5351 24.6575 36.4069L28.1886 34.5652L31.7108 36.4159C31.8132 36.4755 31.9324 36.5012 32.0434 36.5012C32.1883 36.5012 32.3418 36.4587 32.47 36.3648C32.6916 36.2028 32.8026 35.9298 32.7598 35.6656L32.0859 31.7426L34.9342 28.9625C35.1305 28.7747 35.1987 28.4849 35.1134 28.229C35.0281 27.9645 34.8063 27.7682 34.5336 27.7339ZM30.8066 30.9748C30.636 31.1369 30.5592 31.3757 30.6021 31.6144L31.0882 34.4713L28.5211 33.1239C28.4187 33.0643 28.2995 33.0386 28.1885 33.0386C28.0775 33.0386 27.9583 33.0643 27.8558 33.1239L25.2888 34.4713L25.7835 31.6144C25.826 31.3842 25.7492 31.1454 25.579 30.9748L23.4981 28.945L26.3721 28.527C26.6109 28.4927 26.8072 28.3478 26.9093 28.1347L28.1885 25.5338L29.4763 28.1347C29.5788 28.3478 29.7833 28.4931 30.0135 28.527L32.8875 28.945L30.8066 30.9748Z" fill="url(#paint1_linear_23_342)"/>
</g>
<defs>
<linearGradient id="paint0_linear_23_342" x1="9.27932" y1="11.693" x2="48.3371" y2="36.7293" gradientUnits="userSpaceOnUse">
<stop stop-color="#7381FD"/>
<stop offset="1" stop-color="#76C7FF"/>
</linearGradient>
<linearGradient id="paint1_linear_23_342" x1="19.491" y1="21.5207" x2="38.6412" y2="32.625" gradientUnits="userSpaceOnUse">
<stop stop-color="#7381FD"/>
<stop offset="1" stop-color="#76C7FF"/>
</linearGradient>
<clipPath id="clip0_23_342">
<rect width="55" height="55" fill="white"/>
</clipPath>
</defs>
</svg>
