<svg width="55" height="55" viewBox="0 0 55 55" fill="none" xmlns="http://www.w3.org/2000/svg">
<g clip-path="url(#clip0_23_239)">
<path d="M0 15C0 6.71573 6.71573 0 15 0H40C48.2843 0 55 6.71573 55 15V40C55 48.2843 48.2843 55 40 55H15C6.71573 55 0 48.2843 0 40V15Z" fill="#F6FAFD"/>
<path d="M17.0276 30.9975L17.6871 31.3547L17.6883 31.3524L17.0276 30.9975ZM18.4683 26.2702L19.2143 26.3475L19.2145 26.3451L18.4683 26.2702ZM36.5317 26.2702L35.7855 26.345L35.7857 26.3475L36.5317 26.2702ZM37.9724 30.9975L37.3117 31.3525L37.3129 31.3547L37.9724 30.9975ZM25.3625 38.4063C25.2644 38.0039 24.8586 37.7571 24.4562 37.8552C24.0538 37.9533 23.807 38.359 23.9051 38.7615L25.3625 38.4063ZM31.0904 38.7615C31.1885 38.359 30.9417 37.9533 30.5393 37.8552C30.1369 37.7571 29.7311 38.0039 29.633 38.4063L31.0904 38.7615ZM36.976 22.5356C36.9474 22.1224 36.5893 21.8105 36.1761 21.8391C35.7628 21.8676 35.451 22.2257 35.4795 22.639L36.976 22.5356ZM30.3002 15.1084C30.6864 15.2581 31.1209 15.0664 31.2706 14.6802C31.4203 14.294 31.2286 13.8595 30.8424 13.7098L30.3002 15.1084ZM19.5841 22.6622C20.0423 18.094 23.5042 14.75 27.5 14.75V13.25C22.6138 13.25 18.6141 17.3032 18.0915 22.5124L19.5841 22.6622ZM17.6883 31.3524C18.5122 29.819 19.0313 28.1132 19.2143 26.3475L17.7223 26.1929C17.559 27.7689 17.0961 29.2854 16.3669 30.6425L17.6883 31.3524ZM15.98 34.5966C16.1561 34.1826 16.433 33.6699 16.798 32.996L15.4791 32.2815C15.127 32.9315 14.8098 33.5155 14.5996 34.0096L15.98 34.5966ZM15.7621 35.6768C15.7165 35.3567 15.8018 35.0157 15.98 34.5966L14.5996 34.0096C14.3881 34.5071 14.173 35.1576 14.2771 35.8883L15.7621 35.6768ZM16.2725 36.6861C16.0081 36.441 15.8202 36.0849 15.7621 35.6768L14.2771 35.8883C14.3808 36.6163 14.7209 37.293 15.2527 37.7861L16.2725 36.6861ZM17.1301 36.9953C16.7283 36.9505 16.4634 36.8631 16.2725 36.6861L15.2527 37.7861C15.7984 38.292 16.4557 38.4294 16.964 38.486L17.1301 36.9953ZM18.7723 37.0409C18.0591 37.0409 17.5301 37.0398 17.1301 36.9953L16.964 38.486C17.4658 38.5419 18.0915 38.5409 18.7723 38.5409V37.0409ZM37.8699 36.9953C37.4699 37.0398 36.9409 37.0409 36.2278 37.0409L36.2277 38.5409C36.9085 38.5409 37.5342 38.5419 38.036 38.486L37.8699 36.9953ZM38.7275 36.6861C38.5366 36.8631 38.2717 36.9505 37.8699 36.9953L38.036 38.486C38.5443 38.4294 39.2016 38.292 39.7473 37.7861L38.7275 36.6861ZM39.2379 35.6768C39.1798 36.0849 38.9919 36.441 38.7275 36.6861L39.7473 37.7861C40.2791 37.293 40.6192 36.6163 40.7229 35.8883L39.2379 35.6768ZM39.02 34.5966C39.1982 35.0157 39.2835 35.3567 39.2379 35.6768L40.7229 35.8883C40.827 35.1576 40.6119 34.5071 40.4004 34.0096L39.02 34.5966ZM38.2021 32.9961C38.5671 33.6698 38.844 34.1827 39.02 34.5966L40.4004 34.0096C40.1903 33.5155 39.873 32.9315 39.521 32.2817L38.2021 32.9961ZM35.7857 26.3475C35.9687 28.1132 36.4878 29.8191 37.3117 31.3525L38.6331 30.6425C37.9039 29.2854 37.441 27.7689 37.2777 26.1929L35.7857 26.3475ZM19.2145 26.3451L19.5841 22.6622L18.0915 22.5124L17.722 26.1953L19.2145 26.3451ZM16.798 32.996L17.6871 31.3547L16.3681 30.6403L15.4791 32.2815L16.798 32.996ZM36.2278 37.0409H18.7723V38.5409H36.2277L36.2278 37.0409ZM37.3129 31.3547L38.2021 32.9961L39.521 32.2817L38.6319 30.6403L37.3129 31.3547ZM27.5 14.75H28.4615V13.25H27.5V14.75ZM23.9051 38.7615C24.1096 39.6004 24.5631 40.3546 25.2092 40.8996L26.1764 39.7531C25.7868 39.4245 25.4959 38.9536 25.3625 38.4063L23.9051 38.7615ZM25.2092 40.8996C25.8567 41.4459 26.6609 41.75 27.4977 41.75V40.25C27.0292 40.25 26.5645 40.0805 26.1764 39.7531L25.2092 40.8996ZM27.4977 41.75C28.3346 41.75 29.1388 41.4459 29.7863 40.8996L28.8191 39.7531C28.431 40.0805 27.9663 40.25 27.4977 40.25V41.75ZM29.7863 40.8996C30.4324 40.3546 30.8859 39.6004 31.0904 38.7615L29.633 38.4063C29.4996 38.9536 29.2087 39.4245 28.8191 39.7531L29.7863 40.8996ZM35.4795 22.639C35.552 23.6886 35.6284 24.6141 35.6867 25.2774C35.7158 25.6091 35.7405 25.8753 35.7578 26.059C35.7665 26.1508 35.7734 26.222 35.7781 26.2704C35.7805 26.2946 35.7823 26.3131 35.7835 26.3256C35.7842 26.3318 35.7846 26.3366 35.785 26.3398C35.7851 26.3415 35.7852 26.3427 35.7853 26.3436C35.7854 26.344 35.7855 26.3448 35.7855 26.345C35.7855 26.345 35.7855 26.345 36.5317 26.2702C37.278 26.1954 37.278 26.1954 37.278 26.1954C37.278 26.1953 37.278 26.1957 37.278 26.1954C37.2779 26.1947 37.2777 26.1927 37.2776 26.1913C37.2773 26.1883 37.2768 26.1839 37.2763 26.178C37.2751 26.1661 37.2733 26.1483 37.271 26.1248C37.2665 26.0778 37.2597 26.008 37.2512 25.9177C37.2341 25.737 37.2098 25.4741 37.1809 25.1461C37.1233 24.4898 37.0477 23.5739 36.976 22.5356L35.4795 22.639ZM28.4615 14.75C29.0779 14.75 29.6961 14.8742 30.3002 15.1084L30.8424 13.7098C30.0829 13.4154 29.2813 13.25 28.4615 13.25V14.75ZM37.1587 17.7364C37.1587 19.1225 36.0215 20.2591 34.6029 20.2591V21.7591C36.8357 21.7591 38.6587 19.9651 38.6587 17.7364H37.1587ZM32.0471 17.7364C32.0471 16.3502 33.1842 15.2136 34.6029 15.2136V13.7136C32.3701 13.7136 30.5471 15.5076 30.5471 17.7364H32.0471ZM34.6029 15.2136C35.3625 15.2136 36.0424 15.5396 36.5106 16.0575L37.6233 15.0516C36.8808 14.2304 35.8015 13.7136 34.6029 13.7136V15.2136ZM36.5106 16.0575C36.9149 16.5047 37.1587 17.092 37.1587 17.7364H38.6587C38.6587 16.7043 38.2659 15.7624 37.6233 15.0516L36.5106 16.0575ZM34.6029 20.2591C33.9292 20.2591 33.3188 20.0028 32.8626 19.5839L31.8481 20.6888C32.5715 21.3531 33.5408 21.7591 34.6029 21.7591V20.2591ZM32.8626 19.5839C32.3589 19.1214 32.0471 18.4647 32.0471 17.7364H30.5471C30.5471 18.9045 31.05 19.9559 31.8481 20.6888L32.8626 19.5839Z" fill="url(#paint0_linear_23_239)"/>
</g>
<defs>
<linearGradient id="paint0_linear_23_239" x1="10.9634" y1="9.60762" x2="49.465" y2="29.4009" gradientUnits="userSpaceOnUse">
<stop stop-color="#7381FD"/>
<stop offset="1" stop-color="#76C7FF"/>
</linearGradient>
<clipPath id="clip0_23_239">
<rect width="55" height="55" fill="white"/>
</clipPath>
</defs>
</svg>
