<svg width="55" height="55" viewBox="0 0 55 55" fill="none" xmlns="http://www.w3.org/2000/svg">
<g clip-path="url(#clip0_23_314)">
<path d="M0 15C0 6.71573 6.71573 0 15 0H40C48.2843 0 55 6.71573 55 15V40C55 48.2843 48.2843 55 40 55H15C6.71573 55 0 48.2843 0 40V15Z" fill="#F6FAFD"/>
<path d="M21 39H34" stroke="url(#paint0_linear_23_314)" stroke-width="1.5" stroke-linecap="round" stroke-linejoin="round"/>
<path d="M21 36H34" stroke="url(#paint1_linear_23_314)" stroke-width="1.5" stroke-linecap="round" stroke-linejoin="round"/>
<path d="M30.6122 21.2186C30.733 20.8805 30.5568 20.5086 30.2187 20.3879C29.8806 20.2671 29.5087 20.4433 29.388 20.7814L30.6122 21.2186ZM25.4994 24.5839C25.2696 24.3081 24.8598 24.2708 24.584 24.5007C24.3082 24.7305 24.2709 25.1403 24.5008 25.4161L25.4994 24.5839ZM29.388 20.7814L27.0058 27.4516L28.23 27.8888L30.6122 21.2186L29.388 20.7814ZM27.7752 27.3148L25.4994 24.5839L24.5008 25.4161L26.7766 28.1471L27.7752 27.3148ZM27.0058 27.4516C27.1229 27.1236 27.5523 27.0473 27.7752 27.3148L26.7766 28.1471C27.1977 28.6525 28.0087 28.5084 28.23 27.8888L27.0058 27.4516Z" fill="url(#paint2_linear_23_314)"/>
<path d="M27.5 32C31.6421 32 35 28.6421 35 24.5C35 20.3579 31.6421 17 27.5 17C23.3579 17 20 20.3579 20 24.5C20 28.6421 23.3579 32 27.5 32Z" stroke="url(#paint3_linear_23_314)" stroke-width="1.5"/>
<path d="M38.4768 11.4992C38.1425 11.1802 37.6887 11.0011 37.2159 11L17.7854 11.0001C17.3122 11.0001 16.8583 11.1799 16.5237 11.4988C16.1888 11.8173 16 12.2493 16 12.6999V42.3002C16 42.7508 16.1889 43.183 16.5238 43.5015C16.8584 43.8204 17.312 44.0001 17.7853 44.0001H26.192H31.8045H37.2157C37.6888 44.0001 38.1426 43.8198 38.4768 43.5009C38.8112 43.1824 39 42.7505 39 42.3002V12.6999C39 12.2496 38.8112 11.8177 38.4768 11.4992Z" stroke="url(#paint4_linear_23_314)" stroke-width="1.5" stroke-linejoin="round"/>
</g>
<defs>
<linearGradient id="paint0_linear_23_314" x1="19.3877" y1="38.8722" x2="19.8412" y2="42.1314" gradientUnits="userSpaceOnUse">
<stop stop-color="#7381FD"/>
<stop offset="1" stop-color="#76C7FF"/>
</linearGradient>
<linearGradient id="paint1_linear_23_314" x1="19.3877" y1="35.8722" x2="19.8412" y2="39.1314" gradientUnits="userSpaceOnUse">
<stop stop-color="#7381FD"/>
<stop offset="1" stop-color="#76C7FF"/>
</linearGradient>
<linearGradient id="paint2_linear_23_314" x1="23.5687" y1="19.3142" x2="33.3365" y2="23.513" gradientUnits="userSpaceOnUse">
<stop stop-color="#7381FD"/>
<stop offset="1" stop-color="#76C7FF"/>
</linearGradient>
<linearGradient id="paint3_linear_23_314" x1="18.1397" y1="15.083" x2="39.2421" y2="26.7503" gradientUnits="userSpaceOnUse">
<stop stop-color="#7381FD"/>
<stop offset="1" stop-color="#76C7FF"/>
</linearGradient>
<linearGradient id="paint4_linear_23_314" x1="13.1475" y1="6.78249" x2="49.9333" y2="20.9577" gradientUnits="userSpaceOnUse">
<stop stop-color="#7381FD"/>
<stop offset="1" stop-color="#76C7FF"/>
</linearGradient>
<clipPath id="clip0_23_314">
<rect width="55" height="55" fill="white"/>
</clipPath>
</defs>
</svg>
