<svg width="55" height="55" viewBox="0 0 55 55" fill="none" xmlns="http://www.w3.org/2000/svg">
<g clip-path="url(#clip0_23_153)">
<path d="M0 15C0 6.71573 6.71573 0 15 0H40C48.2843 0 55 6.71573 55 15V40C55 48.2843 48.2843 55 40 55H15C6.71573 55 0 48.2843 0 40V15Z" fill="#F6FAFD"/>
<path d="M18.3696 33.6957V20.4565C18.3696 20.1826 18.5522 20 18.8261 20H36.1739C36.4478 20 36.6304 20.1826 36.6304 20.4565V33.6957M18.3696 33.6957H17.4565C17.1826 33.6957 17 33.8783 17 34.1522V35.0652C17 35.3391 17.1826 35.5217 17.4565 35.5217H37.5435C37.8174 35.5217 38 35.3391 38 35.0652V34.1522C38 33.8783 37.8174 33.6957 37.5435 33.6957H36.6304M18.3696 33.6957H25.9478C26.0848 33.6957 26.1761 33.7413 26.2674 33.8326L26.45 34.0152C26.5413 34.1065 26.6326 34.1522 26.7696 34.1522H28.2304C28.3674 34.1522 28.4587 34.1065 28.55 34.0152L28.7326 33.8326C28.8239 33.7413 28.9152 33.6957 29.0522 33.6957H36.6304M25.6739 25.9348H24.3957C24.1217 25.9348 23.8935 26.2087 23.9391 26.4826L24.6696 30.1348C24.7152 30.363 24.8978 30.5 25.1261 30.5H29.8739C30.1022 30.5 30.2848 30.363 30.3304 30.1348L31.0609 26.4826C31.1065 26.2087 30.9239 25.9348 30.6043 25.9348H29.3261M25.6739 25.9348H29.3261M25.6739 25.9348L26.45 23.9261C26.5413 23.7435 26.6783 23.6522 26.8609 23.6522H28.0478C28.2304 23.6522 28.413 23.7435 28.4587 23.9261L29.3261 25.9348" stroke="url(#paint0_linear_23_153)" stroke-linejoin="round"/>
<circle cx="27" cy="45" r="2" stroke="url(#paint1_linear_23_153)" stroke-linecap="round" stroke-linejoin="round"/>
<circle cx="27" cy="10" r="2" stroke="url(#paint2_linear_23_153)" stroke-linecap="round" stroke-linejoin="round"/>
<circle cx="18.2501" cy="42.6555" r="2" transform="rotate(30 18.2501 42.6555)" stroke="url(#paint3_linear_23_153)" stroke-linecap="round" stroke-linejoin="round"/>
<circle cx="35.7501" cy="12.3445" r="2" transform="rotate(30 35.7501 12.3445)" stroke="url(#paint4_linear_23_153)" stroke-linecap="round" stroke-linejoin="round"/>
<circle cx="11.8446" cy="36.2501" r="2" transform="rotate(60 11.8446 36.2501)" stroke="url(#paint5_linear_23_153)" stroke-linecap="round" stroke-linejoin="round"/>
<circle cx="42.1554" cy="18.7501" r="2" transform="rotate(60 42.1554 18.7501)" stroke="url(#paint6_linear_23_153)" stroke-linecap="round" stroke-linejoin="round"/>
<circle cx="9.5" cy="27.5001" r="2" transform="rotate(90 9.5 27.5001)" stroke="url(#paint7_linear_23_153)" stroke-linecap="round" stroke-linejoin="round"/>
<circle cx="44.5" cy="27.5001" r="2" transform="rotate(90 44.5 27.5001)" stroke="url(#paint8_linear_23_153)" stroke-linecap="round" stroke-linejoin="round"/>
<circle cx="11.8446" cy="18.75" r="2" transform="rotate(120 11.8446 18.75)" stroke="url(#paint9_linear_23_153)" stroke-linecap="round" stroke-linejoin="round"/>
<circle cx="42.1554" cy="36.25" r="2" transform="rotate(120 42.1554 36.25)" stroke="url(#paint10_linear_23_153)" stroke-linecap="round" stroke-linejoin="round"/>
<circle cx="18.2499" cy="12.3447" r="2" transform="rotate(150 18.2499 12.3447)" stroke="url(#paint11_linear_23_153)" stroke-linecap="round" stroke-linejoin="round"/>
<circle cx="35.7499" cy="42.6556" r="2" transform="rotate(150 35.7499 42.6556)" stroke="url(#paint12_linear_23_153)" stroke-linecap="round" stroke-linejoin="round"/>
</g>
<defs>
<linearGradient id="paint0_linear_23_153" x1="14.3955" y1="18.0163" x2="39.1299" y2="36.5183" gradientUnits="userSpaceOnUse">
<stop stop-color="#7381FD"/>
<stop offset="1" stop-color="#76C7FF"/>
</linearGradient>
<linearGradient id="paint1_linear_23_153" x1="24.5039" y1="42.4888" x2="30.1312" y2="45.6001" gradientUnits="userSpaceOnUse">
<stop stop-color="#7381FD"/>
<stop offset="1" stop-color="#76C7FF"/>
</linearGradient>
<linearGradient id="paint2_linear_23_153" x1="24.5039" y1="7.48879" x2="30.1312" y2="10.6001" gradientUnits="userSpaceOnUse">
<stop stop-color="#7381FD"/>
<stop offset="1" stop-color="#76C7FF"/>
</linearGradient>
<linearGradient id="paint3_linear_23_153" x1="15.754" y1="40.1442" x2="21.3813" y2="43.2555" gradientUnits="userSpaceOnUse">
<stop stop-color="#7381FD"/>
<stop offset="1" stop-color="#76C7FF"/>
</linearGradient>
<linearGradient id="paint4_linear_23_153" x1="33.254" y1="9.83333" x2="38.8813" y2="12.9446" gradientUnits="userSpaceOnUse">
<stop stop-color="#7381FD"/>
<stop offset="1" stop-color="#76C7FF"/>
</linearGradient>
<linearGradient id="paint5_linear_23_153" x1="9.34852" y1="33.7388" x2="14.9758" y2="36.8501" gradientUnits="userSpaceOnUse">
<stop stop-color="#7381FD"/>
<stop offset="1" stop-color="#76C7FF"/>
</linearGradient>
<linearGradient id="paint6_linear_23_153" x1="39.6593" y1="16.2388" x2="45.2866" y2="19.3501" gradientUnits="userSpaceOnUse">
<stop stop-color="#7381FD"/>
<stop offset="1" stop-color="#76C7FF"/>
</linearGradient>
<linearGradient id="paint7_linear_23_153" x1="7.00391" y1="24.9889" x2="12.6312" y2="28.1002" gradientUnits="userSpaceOnUse">
<stop stop-color="#7381FD"/>
<stop offset="1" stop-color="#76C7FF"/>
</linearGradient>
<linearGradient id="paint8_linear_23_153" x1="42.0039" y1="24.9889" x2="47.6312" y2="28.1002" gradientUnits="userSpaceOnUse">
<stop stop-color="#7381FD"/>
<stop offset="1" stop-color="#76C7FF"/>
</linearGradient>
<linearGradient id="paint9_linear_23_153" x1="9.34852" y1="16.2388" x2="14.9758" y2="19.3501" gradientUnits="userSpaceOnUse">
<stop stop-color="#7381FD"/>
<stop offset="1" stop-color="#76C7FF"/>
</linearGradient>
<linearGradient id="paint10_linear_23_153" x1="39.6593" y1="33.7388" x2="45.2866" y2="36.8501" gradientUnits="userSpaceOnUse">
<stop stop-color="#7381FD"/>
<stop offset="1" stop-color="#76C7FF"/>
</linearGradient>
<linearGradient id="paint11_linear_23_153" x1="15.7538" y1="9.83346" x2="21.3811" y2="12.9447" gradientUnits="userSpaceOnUse">
<stop stop-color="#7381FD"/>
<stop offset="1" stop-color="#76C7FF"/>
</linearGradient>
<linearGradient id="paint12_linear_23_153" x1="33.2538" y1="40.1444" x2="38.8811" y2="43.2557" gradientUnits="userSpaceOnUse">
<stop stop-color="#7381FD"/>
<stop offset="1" stop-color="#76C7FF"/>
</linearGradient>
<clipPath id="clip0_23_153">
<rect width="55" height="55" fill="white"/>
</clipPath>
</defs>
</svg>
