<svg width="55" height="55" viewBox="0 0 55 55" fill="none" xmlns="http://www.w3.org/2000/svg">
<g clip-path="url(#clip0_23_149)">
<path d="M0 15C0 6.71573 6.71573 0 15 0H40C48.2843 0 55 6.71573 55 15V40C55 48.2843 48.2843 55 40 55H15C6.71573 55 0 48.2843 0 40V15Z" fill="#F6FAFD"/>
<path d="M26.7391 28.413C26.7391 27.5761 26.0543 26.8913 25.2174 26.8913M25.2174 26.8913C24.3804 26.8913 23.6957 27.5761 23.6957 28.413C23.6957 29.25 24.3804 29.9348 25.2174 29.9348C26.0543 29.9348 26.7391 30.6196 26.7391 31.4565C26.7391 32.2935 26.0543 32.9783 25.2174 32.9783M25.2174 26.8913V25.3696M25.2174 32.9783C24.3804 32.9783 23.6957 32.2935 23.6957 31.4565M25.2174 32.9783V34.5M12.2826 21.5652H10V38.3043H40.4348V36.7826M12.2826 21.5652H40.4348V36.7826M12.2826 21.5652V19.2826H14.5652M40.4348 36.7826H42.7174V34.5M14.5652 19.2826H42.7174V34.5M14.5652 19.2826V17H45V34.5H42.7174M16.087 29.9348C16.087 30.7717 15.4022 31.4565 14.5652 31.4565C13.7283 31.4565 13.0435 30.7717 13.0435 29.9348C13.0435 29.0978 13.7283 28.413 14.5652 28.413C15.4022 28.413 16.087 29.0978 16.087 29.9348ZM37.3913 29.9348C37.3913 30.7717 36.7065 31.4565 35.8696 31.4565C35.0326 31.4565 34.3478 30.7717 34.3478 29.9348C34.3478 29.0978 35.0326 28.413 35.8696 28.413C36.7065 28.413 37.3913 29.0978 37.3913 29.9348ZM30.5435 29.9348C30.5435 32.9022 28.1848 36.0217 25.2174 36.0217C22.25 36.0217 19.8913 32.9022 19.8913 29.9348C19.8913 26.9674 22.25 23.8478 25.2174 23.8478C28.1848 23.8478 30.5435 26.9674 30.5435 29.9348Z" stroke="url(#paint0_linear_23_149)" stroke-linejoin="round"/>
</g>
<defs>
<linearGradient id="paint0_linear_23_149" x1="5.65921" y1="14.2772" x2="40.8862" y2="46.2745" gradientUnits="userSpaceOnUse">
<stop stop-color="#7381FD"/>
<stop offset="1" stop-color="#76C7FF"/>
</linearGradient>
<clipPath id="clip0_23_149">
<rect width="55" height="55" fill="white"/>
</clipPath>
</defs>
</svg>
