<svg width="55" height="55" viewBox="0 0 55 55" fill="none" xmlns="http://www.w3.org/2000/svg">
<g clip-path="url(#clip0_23_566)">
<path d="M0 15C0 6.71573 6.71573 0 15 0H40C48.2843 0 55 6.71573 55 15V40C55 48.2843 48.2843 55 40 55H15C6.71573 55 0 48.2843 0 40V15Z" fill="#F6FAFD"/>
<path d="M44 25.8091H44.75V25.8079L44 25.8091ZM44 34.5467H43.25V34.5503L44 34.5467ZM43.432 36.4602L42.8068 36.0459C42.7897 36.0718 42.7741 36.0987 42.7603 36.1265L43.432 36.4602ZM36.0187 42.9361L36.4228 43.5679L36.4247 43.5666L36.0187 42.9361ZM35.82 43L35.8072 43.75H35.82V43ZM35.5899 42.9104L35.0911 43.4704L35.094 43.473L35.5899 42.9104ZM35.4886 42.4912L36.1907 42.7553L36.1952 42.7428L35.4886 42.4912ZM23.8252 34.551H23.0752L23.0753 34.5522L23.8252 34.551ZM19.5097 32.1138L18.8032 32.3654C18.8053 32.3713 18.8075 32.3771 18.8097 32.3829L19.5097 32.1138ZM19.1799 32.6317V33.3817L19.1908 33.3816L19.1799 32.6317ZM18.9995 32.5796L18.581 33.202C18.59 33.208 18.5991 33.2139 18.6084 33.2195L18.9995 32.5796ZM11.5809 26.1138L12.2526 25.7802C12.2388 25.7524 12.2232 25.7254 12.2061 25.6995L11.5809 26.1138ZM11 24.1784L11.75 24.182V24.1784H11ZM11 15.4346L10.25 15.4335V15.4346H11ZM14.3235 12V11.25H14.3223L14.3235 12ZM27.8509 12L27.8521 11.25H27.8509V12ZM31.1744 15.4348H31.9244V15.4336L31.1744 15.4348ZM40.44 22.3737L40.4417 21.6237H40.44V22.3737ZM17.6832 22.984C17.2692 22.9718 16.9236 23.2975 16.9113 23.7115C16.8991 24.1255 17.2247 24.4711 17.6388 24.4834L17.6832 22.984ZM19.6631 20.104C19.5241 19.7138 19.0951 19.5102 18.7049 19.6493C18.3147 19.7883 18.1111 20.2174 18.2502 20.6075L19.6631 20.104ZM21.4398 22.2951L21.962 22.8335C21.9791 22.8169 21.9953 22.7996 22.0108 22.7815L21.4398 22.2951ZM17.6468 17.5946C17.2326 17.5946 16.8968 17.9304 16.8968 18.3446C16.8968 18.7589 17.2326 19.0946 17.6468 19.0946V17.5946ZM21.8598 16C21.8598 15.5858 21.524 15.25 21.1098 15.25C20.6956 15.25 20.3598 15.5858 20.3598 16H21.8598ZM34.2746 25.7676L34.9739 25.4965C34.969 25.4837 34.9637 25.471 34.958 25.4585L34.2746 25.7676ZM36.9359 34.7073C37.0856 35.0935 37.5201 35.2852 37.9063 35.1355C38.2925 34.9858 38.4842 34.5513 38.3345 34.1651L36.9359 34.7073ZM29.5701 34.1658C29.4206 34.5521 29.6125 34.9864 29.9988 35.1359C30.3851 35.2854 30.8195 35.0935 30.969 34.7072L29.5701 34.1658ZM33.6105 25.8041L32.9215 25.5079C32.9179 25.5163 32.9144 25.5248 32.9111 25.5334L33.6105 25.8041ZM24.5621 23.6532L24.0872 23.0727C24.0205 23.1273 23.9636 23.193 23.9192 23.267L24.5621 23.6532ZM24.5635 23.6521L25.0383 24.2326C25.0814 24.1973 25.1204 24.1574 25.1547 24.1135L24.5635 23.6521ZM21.2197 23.4738L21.6319 22.8473C21.5113 22.7679 21.3705 22.7251 21.2262 22.7238L21.2197 23.4738ZM21.2155 23.4738L20.7451 24.0579C20.8766 24.1638 21.0401 24.2223 21.209 24.2237L21.2155 23.4738ZM23.8216 26.8196L23.8086 26.0697C23.3982 26.0768 23.0697 26.4126 23.0716 26.8231L23.8216 26.8196ZM31.2003 22.3696C31.2003 21.9554 30.8645 21.6196 30.4503 21.6196C30.0361 21.6196 29.7003 21.9554 29.7003 22.3696H31.2003ZM21.2048 22.5178L21.7376 21.99C21.4705 21.7204 21.0441 21.6927 20.7445 21.9256L21.2048 22.5178ZM20.3598 17.5919C20.3598 18.0061 20.6956 18.3419 21.1098 18.3419C21.524 18.3419 21.8598 18.0061 21.8598 17.5919H20.3598ZM21.8598 17.6047C21.8598 17.1905 21.524 16.8547 21.1098 16.8547C20.6956 16.8547 20.3598 17.1905 20.3598 17.6047H21.8598ZM25.4987 19.099C25.9129 19.0997 26.2493 18.7645 26.25 18.3503C26.2507 17.936 25.9155 17.5997 25.5013 17.599L25.4987 19.099ZM44.75 25.8079C44.7483 24.7069 44.3245 23.6464 43.5639 22.8603L42.4858 23.9033C42.9715 24.4052 43.2488 25.0906 43.25 25.8102L44.75 25.8079ZM44.0571 36.8746C44.5136 36.186 44.7539 35.3726 44.75 34.5431L43.25 34.5503C43.2526 35.0863 43.097 35.6081 42.8068 36.0459L44.0571 36.8746ZM42.2766 39.0767C43.0472 38.3321 43.7393 37.5273 44.1036 36.794L42.7603 36.1265C42.5124 36.6255 41.9705 37.2866 41.2343 37.9979L42.2766 39.0767ZM39.7312 41.2352C40.5913 40.5752 41.4987 39.8283 42.2766 39.0767L41.2343 37.9979C40.5126 38.6953 39.6538 39.4039 38.8181 40.0451L39.7312 41.2352ZM36.4247 43.5666C36.5931 43.4583 38.0905 42.4941 39.7312 41.2352L38.8181 40.0451C37.2264 41.2665 35.7694 42.2045 35.6127 42.3055L36.4247 43.5666ZM35.82 43.75C36.0664 43.75 36.2819 43.658 36.4228 43.5679L35.6146 42.3042C35.6395 42.2883 35.6623 42.2778 35.6853 42.2701C35.7061 42.2632 35.7522 42.25 35.82 42.25V43.75ZM35.094 43.473C35.2903 43.646 35.5425 43.7455 35.8072 43.75L35.8327 42.2501C35.9283 42.2517 36.0177 42.2877 36.0858 42.3477L35.094 43.473ZM34.7866 42.2272C34.6238 42.66 34.7392 43.157 35.0911 43.4704L36.0888 42.3503C36.2082 42.4567 36.2424 42.6179 36.1907 42.7553L34.7866 42.2272ZM35.8752 38.0889C35.6283 39.5016 35.2617 40.8928 34.7821 42.2396L36.1952 42.7428C36.7032 41.3163 37.0914 39.8432 37.3528 38.3472L35.8752 38.0889ZM35.916 37.8559L35.8752 38.0889L37.3528 38.3472L37.3936 38.1141L35.916 37.8559ZM24.2619 37.498C25.0236 38.284 26.0613 38.7302 27.1486 38.7302V37.2302C26.4749 37.2302 25.8236 36.9541 25.3391 36.4542L24.2619 37.498ZM23.0753 34.5522C23.077 35.6531 23.5011 36.7129 24.2619 37.498L25.3391 36.4542C24.8538 35.9533 24.5764 35.269 24.5752 34.5499L23.0753 34.5522ZM19.1244 27.7149L19.0836 27.4819L17.606 27.7401L17.6468 27.9732L19.1244 27.7149ZM20.2163 31.8622C19.7367 30.5154 19.3713 29.1277 19.1244 27.7149L17.6468 27.9732C17.9082 29.4691 18.2951 30.9387 18.8032 32.3654L20.2163 31.8622ZM19.9063 33.1041C20.2723 32.7813 20.3731 32.2696 20.2098 31.8447L18.8097 32.3829C18.7609 32.256 18.7836 32.0941 18.9142 31.979L19.9063 33.1041ZM19.1908 33.3816C19.4581 33.3777 19.7106 33.277 19.9063 33.1041L18.9142 31.979C18.9811 31.9198 19.0702 31.8832 19.1689 31.8817L19.1908 33.3816ZM18.6084 33.2195C18.7718 33.3194 18.9681 33.3817 19.1799 33.3817V31.8817C19.2642 31.8817 19.3362 31.9064 19.3906 31.9396L18.6084 33.2195ZM18.4262 33.0981C18.4385 33.1063 18.4758 33.1313 18.5129 33.1562C18.5308 33.1682 18.5479 33.1797 18.5604 33.1881C18.5667 33.1923 18.5718 33.1958 18.5754 33.1982C18.5772 33.1994 18.5786 33.2004 18.5795 33.201C18.58 33.2013 18.5808 33.2018 18.581 33.202C18.5809 33.202 18.5811 33.2021 18.581 33.202C18.581 33.202 18.581 33.202 18.9995 32.5796C19.418 31.9572 19.418 31.9572 19.418 31.9572C19.418 31.9571 19.4181 31.9573 19.418 31.9572C19.4177 31.957 19.417 31.9566 19.4165 31.9562C19.4156 31.9556 19.4142 31.9546 19.4123 31.9534C19.4087 31.951 19.4035 31.9475 19.3972 31.9432C19.3845 31.9347 19.3673 31.9231 19.3491 31.9109C19.314 31.8873 19.2717 31.859 19.2545 31.8476L18.4262 33.0981ZM18.2945 33.0108C18.3428 33.0429 18.3883 33.073 18.4262 33.0981L19.2545 31.8476C19.2164 31.8224 19.1718 31.7928 19.1244 31.7613L18.2945 33.0108ZM17.5604 32.5161C17.8651 32.7246 18.1171 32.893 18.2945 33.0108L19.1244 31.7613C18.9506 31.6459 18.7048 31.4817 18.4077 31.2783L17.5604 32.5161ZM15.2689 30.8607C16.1302 31.5205 16.9514 32.0992 17.5604 32.5161L18.4077 31.2783C17.8128 30.871 17.0146 30.3085 16.1811 29.6699L15.2689 30.8607ZM12.7237 28.7063C13.5016 29.4566 14.4089 30.2019 15.2689 30.8607L16.1811 29.6699C15.3452 29.0296 14.4866 28.3226 13.7651 27.6266L12.7237 28.7063ZM10.9092 26.4474C11.2743 27.1825 11.9553 27.9651 12.7237 28.7063L13.7651 27.6266C13.0269 26.9146 12.4995 26.2773 12.2526 25.7802L10.9092 26.4474ZM10.25 24.1747C10.246 25.0088 10.5019 25.8433 10.9558 26.5282L12.2061 25.6995C11.9133 25.2577 11.7475 24.7132 11.75 24.182L10.25 24.1747ZM11.4362 12.486C10.6756 13.2721 10.2518 14.3325 10.25 15.4335L11.75 15.4358C11.7512 14.7162 12.0285 14.0309 12.5141 13.529L11.4362 12.486ZM14.3223 11.25C13.2347 11.2519 12.1973 11.6994 11.4362 12.486L12.5141 13.529C12.9986 13.0282 13.6503 12.7511 14.3248 12.75L14.3223 11.25ZM27.8509 11.25H14.3235V12.75H27.8509V11.25ZM30.7383 12.486C29.9771 11.6993 28.9397 11.2518 27.8521 11.25L27.8496 12.75C28.5241 12.7511 29.1758 13.0283 29.6603 13.529L30.7383 12.486ZM31.9244 15.4336C31.9227 14.3326 31.4989 13.2721 30.7383 12.486L29.6603 13.529C30.1459 14.031 30.4233 14.7163 30.4244 15.436L31.9244 15.4336ZM40.678 21.6243L40.4417 21.6237L40.4383 23.1237L40.6746 23.1243L40.678 21.6243ZM43.5639 22.8603C42.8026 22.0735 41.7657 21.626 40.678 21.6243L40.6746 23.1243C41.3491 23.1254 42.0012 23.4025 42.4858 23.9033L43.5639 22.8603ZM23.2935 24.4483C23.1505 24.8735 23.0755 25.3217 23.0755 25.7741H24.5755C24.5755 25.4871 24.6231 25.2003 24.7152 24.9265L23.2935 24.4483ZM23.3744 24.2079L23.2935 24.4483L24.7152 24.9265L24.7961 24.6861L23.3744 24.2079ZM23.7703 25.1669L24.0156 25.1887L24.148 23.6945L23.9027 23.6728L23.7703 25.1669ZM20.9083 24.1668C21.7688 24.7329 22.7506 25.0766 23.7703 25.1669L23.9027 23.6728C23.1326 23.6046 22.3881 23.3448 21.7328 22.9137L20.9083 24.1668ZM20.8074 24.1004L20.9083 24.1668L21.7328 22.9137L21.6319 22.8473L20.8074 24.1004ZM20.031 22.4421C19.3029 22.8225 18.4961 23.0082 17.6832 22.984L17.6388 24.4834C18.7101 24.5152 19.7712 24.2702 20.7256 23.7716L20.031 22.4421ZM20.2624 22.3212L20.031 22.4421L20.7256 23.7716L20.957 23.6507L20.2624 22.3212ZM19.8823 23.298L20.0623 23.491L21.1593 22.468L20.9793 22.275L19.8823 23.298ZM18.2502 20.6075C18.6074 21.6097 19.1627 22.5263 19.8823 23.298L20.9793 22.275C20.4012 21.655 19.9525 20.9157 19.6631 20.104L18.2502 20.6075ZM22.19 18.5137C22.1157 19.7323 21.6463 20.8961 20.8689 21.8088L22.0108 22.7815C23.0008 21.6191 23.5933 20.1452 23.6873 18.605L22.19 18.5137ZM22.2029 18.3033L22.19 18.5137L23.6873 18.605L23.7001 18.3946L22.2029 18.3033ZM27.1489 21.6237C25.9075 21.6237 24.7413 22.2052 23.9722 23.1906L25.1547 24.1135C25.6468 23.483 26.3812 23.1237 27.1489 23.1237V21.6237ZM34.958 25.4585C34.9389 25.4164 34.8428 25.2 34.6341 25.0401L33.7216 26.2306C33.6861 26.2034 33.6615 26.1777 33.6464 26.1603C33.6309 26.1425 33.6204 26.1276 33.6141 26.1179C33.6022 26.0999 33.5955 26.0859 33.5913 26.0767L34.958 25.4585ZM33.9273 24.8288C33.7571 24.8364 33.6367 24.8814 33.591 24.8968L34.0712 26.3179C34.0876 26.3123 34.0909 26.3112 34.0944 26.3101C34.0959 26.3096 34.0889 26.3119 34.0775 26.3148C34.0649 26.3179 34.0499 26.3211 34.0333 26.3235C34.017 26.3258 34.0037 26.3268 33.9944 26.3273L33.9273 24.8288ZM34.6341 25.0401C34.5245 24.9561 34.3968 24.8902 34.2481 24.8552C34.1129 24.8233 33.9946 24.8257 33.9273 24.8288L33.9944 26.3273C34.0146 26.3264 33.9701 26.3308 33.9041 26.3152C33.8246 26.2965 33.7617 26.2613 33.7216 26.2306L34.6341 25.0401ZM44.75 34.5467V25.8091H43.25V34.5467H44.75ZM27.1486 38.7302H36.6509V37.2302H27.1486V38.7302ZM23.0752 27.6103V34.551H24.5752V27.6103H23.0752ZM18.3487 28.3562H23.8213V26.8562H18.3487V28.3562ZM10.25 15.4346V24.1784H11.75V15.4346H10.25ZM31.9244 22.3697V15.4348H30.4244V22.3697H31.9244ZM40.44 21.6237H31.1783V23.1237H40.44V21.6237ZM23.0755 25.7741V26.8155H24.5755V25.7741H23.0755ZM20.9176 21.7568L20.688 21.9795L21.7324 23.0562L21.962 22.8335L20.9176 21.7568ZM30.4463 21.6237H27.1489V23.1237H30.4463V21.6237ZM33.2159 25.0958C33.0828 25.208 33.0064 25.3429 32.9835 25.3835C32.9655 25.4153 32.9514 25.4435 32.9416 25.4639C32.9366 25.4744 32.9324 25.4835 32.929 25.4908C32.9274 25.4945 32.9259 25.4978 32.9246 25.5007C32.924 25.5021 32.9234 25.5034 32.9229 25.5046C32.9226 25.5052 32.9224 25.5058 32.9221 25.5064C32.922 25.5066 32.9222 25.5061 32.9221 25.5064C32.922 25.5065 32.9216 25.5077 32.9215 25.5079C32.9215 25.508 32.9215 25.5079 33.6105 25.8041C34.2996 26.1002 34.2995 26.1003 34.2995 26.1004C34.2995 26.1003 34.2995 26.1005 34.2995 26.1004C34.2994 26.1007 34.2991 26.1014 34.299 26.1016C34.2988 26.1021 34.2986 26.1025 34.2984 26.103C34.298 26.1038 34.2977 26.1046 34.2974 26.1053C34.2967 26.1068 34.2962 26.108 34.2957 26.1091C34.2948 26.1111 34.2941 26.1125 34.2936 26.1136C34.2929 26.115 34.2919 26.1171 34.29 26.1204C34.2887 26.1227 34.2828 26.1331 34.2716 26.1486C34.2629 26.1605 34.234 26.1995 34.1823 26.243L33.2159 25.0958ZM33.591 24.8968C33.5763 24.9018 33.5874 24.8979 33.5583 24.9075C33.5411 24.9132 33.5097 24.9238 33.4735 24.9388C33.3886 24.9741 33.3018 25.0235 33.2159 25.0958L34.1823 26.243C34.1643 26.2581 34.1421 26.2745 34.116 26.2901C34.0899 26.3058 34.0664 26.3168 34.0489 26.3241C34.0336 26.3304 34.0236 26.3335 34.0294 26.3316C34.0326 26.3306 34.0352 26.3297 34.0434 26.3271C34.0504 26.3248 34.0602 26.3216 34.0712 26.3179L33.591 24.8968ZM24.7961 24.6861C24.942 24.2523 24.6635 23.7402 24.148 23.6945L24.0156 25.1887C23.5053 25.1435 23.2301 24.6367 23.3744 24.2079L24.7961 24.6861ZM25.037 24.2337L25.0383 24.2326L24.0886 23.0715L24.0872 23.0727L25.037 24.2337ZM20.957 23.6507C21.4083 23.4149 21.4914 22.8241 21.1593 22.468L20.0623 23.491C19.7338 23.1388 19.8159 22.5545 20.2624 22.3212L20.957 23.6507ZM21.2262 22.7238H21.222L21.209 24.2237L21.2132 24.2238L21.2262 22.7238ZM19.0836 27.4819C19.1583 27.909 18.8414 28.3562 18.3487 28.3562V26.8562C17.8512 26.8562 17.5305 27.308 17.606 27.7401L19.0836 27.4819ZM23.8346 27.5695C24.2685 27.562 24.5755 27.2039 24.5755 26.8155H23.0755C23.0755 26.4316 23.3791 26.0772 23.8086 26.0697L23.8346 27.5695ZM30.4463 23.1237C30.8857 23.1237 31.2003 22.7628 31.2003 22.3696H29.7003C29.7003 21.981 30.0114 21.6237 30.4463 21.6237V23.1237ZM37.3936 38.1141C37.4691 37.6821 37.1486 37.2302 36.6509 37.2302V38.7302C36.1581 38.7302 35.8413 38.2829 35.916 37.8559L37.3936 38.1141ZM20.6719 23.0456C20.9625 23.3389 21.4354 23.3443 21.7324 23.0562L20.688 21.9795C20.9819 21.6944 21.4501 21.6997 21.7376 21.99L20.6719 23.0456ZM30.4244 22.3697C30.4244 22.7626 30.7388 23.1237 31.1783 23.1237V21.6237C31.6135 21.6237 31.9244 21.9812 31.9244 22.3697H30.4244ZM24.5752 27.6103C24.5752 27.2171 24.2606 26.8562 23.8213 26.8562V28.3562C23.3863 28.3562 23.0752 27.9989 23.0752 27.6103H24.5752ZM23.7001 18.3946C23.725 17.9865 23.4072 17.5946 22.9475 17.5946V19.0946C22.4924 19.0946 22.1783 18.7068 22.2029 18.3033L23.7001 18.3946ZM32.9111 25.5334L30.6563 31.3591L32.0552 31.9006L34.31 26.0748L32.9111 25.5334ZM30.6563 31.3591L29.5701 34.1658L30.969 34.7072L32.0552 31.9006L30.6563 31.3591ZM38.3345 34.1651L37.2466 31.3588L35.848 31.9009L36.9359 34.7073L38.3345 34.1651ZM37.2466 31.3588L34.9739 25.4965L33.5754 26.0387L35.848 31.9009L37.2466 31.3588ZM31.3558 32.3798H36.5473V30.8798H31.3558V32.3798ZM31.1702 21.6197L30.4422 21.6237L30.4505 23.1237L31.1785 23.1196L31.1702 21.6197ZM23.0716 26.8231L23.0753 27.6137L24.5752 27.6068L24.5716 26.8161L23.0716 26.8231ZM20.3598 16V17.5919H21.8598V16H20.3598ZM21.6859 22.8896L21.0801 22.4018L20.1393 23.5701L20.7451 24.0579L21.6859 22.8896ZM20.7445 21.9256L20.1505 22.3873L21.071 23.5716L21.665 23.11L20.7445 21.9256ZM17.6468 19.0946H21.1098V17.5946H17.6468V19.0946ZM21.1098 19.0946H22.9475V17.5946H21.1098V19.0946ZM20.3598 17.6047V18.3446H21.8598V17.6047H20.3598ZM23.9192 23.267L23.4423 24.0608L24.7281 24.8332L25.205 24.0394L23.9192 23.267ZM25.5013 17.599L22.9488 17.5946L22.9463 19.0946L25.4987 19.099L25.5013 17.599Z" fill="url(#paint0_linear_23_566)"/>
</g>
<defs>
<linearGradient id="paint0_linear_23_566" x1="5.97121" y1="7.09641" x2="53.1068" y2="34.761" gradientUnits="userSpaceOnUse">
<stop stop-color="#7381FD"/>
<stop offset="1" stop-color="#76C7FF"/>
</linearGradient>
<clipPath id="clip0_23_566">
<rect width="55" height="55" fill="white"/>
</clipPath>
</defs>
</svg>
