<svg width="55" height="55" viewBox="0 0 55 55" fill="none" xmlns="http://www.w3.org/2000/svg">
<g clip-path="url(#clip0_23_472)">
<path d="M0 15C0 6.71573 6.71573 0 15 0H40C48.2843 0 55 6.71573 55 15V40C55 48.2843 48.2843 55 40 55H15C6.71573 55 0 48.2843 0 40V15Z" fill="#F6FAFD"/>
<path d="M13 25.3672H12.25V25.3705L13 25.3672ZM13 25.1627L12.4371 24.6671C12.3165 24.804 12.25 24.9802 12.25 25.1627H13ZM41.9785 25.222L42.7285 25.2219C42.7284 25.0498 42.6692 24.8829 42.5608 24.7493L41.9785 25.222ZM27.5296 31.8308L27.9858 31.2355L27.528 30.8846L27.0714 31.237L27.5296 31.8308ZM38.6887 27.2615L39.069 27.9079L39.0765 27.9035L39.0839 27.899L38.6887 27.2615ZM41.9804 43.6563C41.9328 43.6563 41.8455 43.6515 41.7423 43.6149C41.6381 43.5779 41.4781 43.493 41.3639 43.3112C41.1 42.891 41.3446 42.508 41.4789 42.3797C41.6176 42.2472 41.9715 42.0509 42.3596 42.2733C42.7229 42.4816 42.7304 42.8494 42.7304 42.9063H41.2304C41.2304 42.9842 41.2435 43.3626 41.6137 43.5747C42.0086 43.8011 42.3708 43.6021 42.515 43.4644C42.6548 43.3308 42.9022 42.94 42.6341 42.5133C42.5178 42.3281 42.3541 42.2403 42.2438 42.2012C42.1346 42.1624 42.0391 42.1563 41.9804 42.1563V43.6563ZM12.3287 42.9813C12.3287 42.9239 12.3365 42.556 12.7001 42.348C13.0875 42.1264 13.4409 42.3219 13.5797 42.4543C13.7141 42.5823 13.9598 42.9659 13.6949 43.3867C13.5805 43.5686 13.4204 43.6532 13.3164 43.6901C13.2134 43.7265 13.1262 43.7313 13.0787 43.7313V42.2313C13.0202 42.2313 12.9248 42.2375 12.8157 42.2761C12.7057 42.315 12.5419 42.4027 12.4254 42.5878C12.1564 43.0152 12.4048 43.4066 12.5447 43.5399C12.6891 43.6776 13.0506 43.8756 13.4449 43.6501C13.8154 43.4382 13.8287 43.0598 13.8287 42.9813H12.3287ZM12.25 25.3705L12.3287 42.9847L13.8287 42.978L13.75 25.3638L12.25 25.3705ZM13.75 25.3672V25.1627H12.25V25.3672H13.75ZM42.7304 42.9063L42.7285 25.2219L41.2285 25.222L41.2304 42.9063H42.7304ZM13.0807 43.7313L27.5315 43.6938L27.5276 42.1938L13.0768 42.2313L13.0807 43.7313ZM27.5315 43.6938L41.9824 43.6563L41.9785 42.1563L27.5276 42.1938L27.5315 43.6938ZM42.4367 42.311L29.4598 32.3652L28.5473 33.5557L41.5242 43.5016L42.4367 42.311ZM29.4598 32.3652L27.9858 31.2355L27.0733 32.426L28.5473 33.5557L29.4598 32.3652ZM27.0714 31.237L25.6074 32.3667L26.5237 33.5542L27.9878 32.4246L27.0714 31.237ZM25.6074 32.3667L12.6205 42.3876L13.5369 43.5751L26.5237 33.5542L25.6074 32.3667ZM26.4499 32.3164L16.9011 26.6175L16.1323 27.9056L25.6812 33.6045L26.4499 32.3164ZM16.9011 26.6175L13.3844 24.5187L12.6156 25.8067L16.1323 27.9056L16.9011 26.6175ZM17.0167 10.75H38.1887V9.25H17.0167V10.75ZM29.3839 33.6068L39.069 27.9079L38.3083 26.6151L28.6232 32.314L29.3839 33.6068ZM39.0839 27.899L42.3736 25.8594L41.5833 24.5845L38.2935 26.6241L39.0839 27.899ZM17.2667 27.2615V21.1692H15.7667V27.2615H17.2667ZM17.2667 21.1692V10.5H15.7667V21.1692H17.2667ZM13.5629 25.6584L17.0796 21.6649L15.9538 20.6736L12.4371 24.6671L13.5629 25.6584ZM37.9387 10.5V21.1692H39.4387V10.5H37.9387ZM37.9387 21.1692V27.2615H39.4387V21.1692H37.9387ZM42.5608 24.7493L39.271 20.6966L38.1064 21.6419L41.3962 25.6946L42.5608 24.7493ZM38.1887 10.75C38.0506 10.75 37.9387 10.6381 37.9387 10.5H39.4387C39.4387 9.80964 38.879 9.25 38.1887 9.25V10.75ZM17.0167 9.25C16.3263 9.25 15.7667 9.80965 15.7667 10.5H17.2667C17.2667 10.6381 17.1548 10.75 17.0167 10.75V9.25Z" fill="url(#paint0_linear_23_472)"/>
<path d="M31.7177 15.4504C31.6286 15.7981 31.8382 16.1523 32.1859 16.2415C32.5336 16.3307 32.8878 16.1211 32.977 15.7733L31.7177 15.4504ZM33.3915 14.1571C33.4807 13.8094 33.2711 13.4552 32.9233 13.366C32.5756 13.2768 32.2214 13.4864 32.1322 13.8342L33.3915 14.1571ZM35.1824 19.3009C35.5275 19.3996 35.8873 19.1999 35.9861 18.8547C36.0848 18.5096 35.885 18.1497 35.5399 18.051L35.1824 19.3009ZM33.9529 17.5971C33.6078 17.4984 33.2479 17.6981 33.1492 18.0433C33.0505 18.3884 33.2502 18.7482 33.5954 18.847L33.9529 17.5971ZM28.0951 23.2894L27.9361 22.6592C27.929 22.6609 27.922 22.6628 27.9151 22.6648L28.0951 23.2894ZM35.1338 16.4763C35.4437 16.295 35.548 15.8969 35.3668 15.587C35.1855 15.2771 34.7874 15.1729 34.4775 15.3541L35.1338 16.4763ZM33.0687 16.1781C32.7588 16.3593 32.6545 16.7574 32.8358 17.0673C33.017 17.3772 33.4151 17.4815 33.725 17.3002L33.0687 16.1781ZM24.6541 25.5713C24.9993 25.6699 25.3591 25.4701 25.4578 25.125C25.5565 24.7798 25.3567 24.42 25.0115 24.3213L24.6541 25.5713ZM25.6774 19.4076C25.7245 19.0517 25.4741 18.725 25.1182 18.678C24.7623 18.6309 24.4357 18.8813 24.3886 19.2372L25.6774 19.4076ZM25.0328 19.3236L24.4676 19.6445L24.4681 19.6455L25.0328 19.3236ZM33.279 19.408C33.3442 19.0549 33.1109 18.7159 32.7579 18.6507C32.4049 18.5854 32.0659 18.8187 32.0006 19.1717L33.279 19.408ZM32.2946 19.528C32.6477 19.5927 32.9864 19.3589 33.0512 19.0058C33.1159 18.6528 32.8822 18.314 32.5291 18.2493L32.2946 19.528ZM25.6947 24.4174L25.3835 23.8468C25.3739 23.852 25.3645 23.8574 25.3553 23.8631L25.6947 24.4174ZM26.8521 27.591C27.0377 27.8983 27.4373 27.9969 27.7446 27.8113C28.0518 27.6257 28.1505 27.2262 27.9649 26.9189L26.8521 27.591ZM26.0447 23.7102C25.9573 24.0583 26.1686 24.4115 26.5168 24.4989C26.8649 24.5864 27.2181 24.375 27.3055 24.0269L26.0447 23.7102ZM21.3375 23.1573L21.9022 22.8355L21.9017 22.8346L21.3375 23.1573ZM21.5147 22.532C21.1695 22.4333 20.8098 22.6332 20.7112 22.9784C20.6125 23.3236 20.8124 23.6833 21.1576 23.7819L21.5147 22.532ZM26.1116 24.7185C26.4567 24.8173 26.8166 24.6177 26.9154 24.2725C27.0142 23.9274 26.8145 23.5676 26.4694 23.4687L26.1116 24.7185ZM31.8845 17.1057C32.0045 16.7673 31.8274 16.3958 31.4891 16.2758C31.1507 16.1559 30.7792 16.3329 30.6592 16.6713L31.8845 17.1057ZM30.8258 17.1002C31.1641 17.2204 31.5357 17.0436 31.6559 16.7053C31.776 16.367 31.5992 15.9954 31.2609 15.8752L30.8258 17.1002ZM27.5206 23.455L27.3406 22.8304C27.3341 22.8323 27.3275 22.8343 27.3211 22.8364L27.5206 23.455ZM34.5241 22.8954C34.8156 22.3946 34.8117 21.7894 34.5262 21.2885L33.3968 21.9322C33.4579 22.0394 33.4537 22.15 33.4006 22.2413L34.5241 22.8954ZM33.9682 23.456C34.1986 23.3212 34.3879 23.1299 34.5241 22.8954L33.4006 22.2413C33.3742 22.2868 33.3433 22.3155 33.3119 22.3338L33.9682 23.456ZM33.1098 23.6608C33.4146 23.6778 33.7116 23.6061 33.9682 23.456L33.3119 22.3338C33.2783 22.3534 33.2353 22.3658 33.1824 22.3628L33.1098 23.6608ZM21.7994 25.2802C22.3054 26.1681 23.4363 26.5149 24.334 25.9898L23.6777 24.8677C23.4405 25.0064 23.0975 24.9324 22.9288 24.6365L21.7994 25.2802ZM21.1193 20.3783C20.2269 20.9003 19.9608 22.054 20.4643 22.9374L21.5937 22.2937C21.4224 21.993 21.5333 21.6422 21.7755 21.5005L21.1193 20.3783ZM27.4966 13.6836C27.3488 13.9425 27.2024 14.2064 27.0503 14.4812L28.1876 15.111C28.3401 14.8354 28.4825 14.5787 28.6255 14.3283L27.4966 13.6836ZM28.8618 12.904C28.2858 12.8943 27.7798 13.1867 27.4966 13.6836L28.6255 14.3283C28.6764 14.239 28.7436 14.2021 28.8389 14.2038L28.8618 12.904ZM30.2085 13.7119C29.9283 13.2203 29.4327 12.9144 28.8618 12.904L28.8389 14.2038C28.9357 14.2056 29.0181 14.2486 29.079 14.3556L30.2085 13.7119ZM32.975 18.5665L31.8361 16.5681L30.7065 17.2116L31.8456 19.2102L32.975 18.5665ZM27.0029 24.4286L27.5083 24.1339L26.8534 23.0109L26.348 23.3056L27.0029 24.4286ZM26.0059 24.9881L26.6003 24.6639L25.9779 23.5226L25.3835 23.8468L26.0059 24.9881ZM27.7408 22.7623L25.5976 19.0018L24.4681 19.6455L26.6113 23.406L27.7408 22.7623ZM20.7728 23.4792L21.4898 24.7373L22.6193 24.0936L21.9022 22.8355L20.7728 23.4792ZM31.6068 16.1654L30.2085 13.7119L29.079 14.3556L30.4774 16.8091L31.6068 16.1654ZM34.5262 21.2885L33.2043 18.9693L32.0747 19.6127L33.3968 21.9322L34.5262 21.2885ZM24.334 25.9898L25.1596 25.507L24.5033 24.3848L23.6777 24.8677L24.334 25.9898ZM21.7191 25.1394L21.7994 25.2802L22.9288 24.6365L22.8486 24.4957L21.7191 25.1394ZM20.4643 22.9374L20.5442 23.0776L21.6737 22.4339L21.5937 22.2937L20.4643 22.9374ZM24.2868 18.5258L21.1193 20.3783L21.7755 21.5005L24.9431 19.648L24.2868 18.5258ZM25.0115 24.3213L25.0101 24.3209L24.6528 25.5709L24.6541 25.5713L25.0115 24.3213ZM24.3886 19.2372L24.3884 19.2384L25.6772 19.4088L25.6774 19.4076L24.3886 19.2372ZM32.0006 19.1717L32.0004 19.1731L33.2788 19.4093L33.279 19.408L32.0006 19.1717ZM32.5291 18.2493L32.5275 18.249L32.2931 19.5277L32.2946 19.528L32.5291 18.2493ZM25.1383 24.7535L26.8521 27.591L27.9649 26.9189L26.251 24.0814L25.1383 24.7535ZM27.3055 24.0269L27.3059 24.0255L26.0451 23.7088L26.0447 23.7102L27.3055 24.0269ZM21.5161 22.5323L21.5147 22.532L21.1576 23.7819L21.159 23.7823L21.5161 22.5323ZM26.4694 23.4687L26.468 23.4684L26.1102 24.7181L26.1116 24.7185L26.4694 23.4687ZM30.6592 16.6713L30.6587 16.6727L31.884 17.1071L31.8845 17.1057L30.6592 16.6713ZM31.2609 15.8752L31.2597 15.8748L30.8245 17.0998L30.8258 17.1002L31.2609 15.8752ZM28.2541 23.9197C29.5274 23.5984 30.8521 23.5671 32.2533 23.6203L32.3026 22.3212C30.8631 22.2666 29.3908 22.2921 27.9361 22.6592L28.2541 23.9197ZM32.2533 23.6203C32.537 23.6311 32.8225 23.6452 33.1109 23.6609L33.1824 22.3628C32.8903 22.3469 32.596 22.3324 32.3026 22.3212L32.2533 23.6203ZM27.0542 15.1179L31.7132 23.2926L32.8427 22.6489L28.1836 14.4742L27.0542 15.1179ZM20.5451 23.0812L20.7733 23.4801L21.9017 22.8346L21.6735 22.4357L20.5451 23.0812ZM21.4903 24.7401L21.7171 25.1379L22.8464 24.4939L22.6195 24.096L21.4903 24.7401ZM27.0503 14.4812C26.2708 15.8878 25.4393 17.3754 24.3445 18.4481L25.2543 19.3767C26.5086 18.1477 27.4273 16.483 28.1876 15.111L27.0503 14.4812ZM24.3445 18.4481C24.2893 18.5022 24.2336 18.555 24.1773 18.6066L25.056 19.5647C25.1232 19.5031 25.1892 19.4404 25.2543 19.3767L24.3445 18.4481ZM25.5981 19.0027L25.3646 18.5915L24.2341 19.2333L24.4676 19.6445L25.5981 19.0027ZM27.4066 24.1818C27.4763 24.1562 27.5465 24.1314 27.6164 24.1078L27.2006 22.8761C27.1196 22.9035 27.0386 22.932 26.9582 22.9616L27.4066 24.1818ZM26.6126 23.4066L26.8432 23.8129L27.9738 23.1711L27.7432 22.7648L26.6126 23.4066ZM26.6175 24.6542L27.0038 24.4281L26.348 23.3056L25.9608 23.5323L26.6175 24.6542ZM25.3553 23.8631L24.4921 24.3915L25.1709 25.5003L26.0341 24.9718L25.3553 23.8631ZM27.6164 24.1078C27.6511 24.0961 27.6857 24.0847 27.7201 24.0736L27.3211 22.8364C27.2809 22.8493 27.2408 22.8626 27.2006 22.8761L27.6164 24.1078ZM27.7006 24.0796L28.2751 23.914L27.9151 22.6648L27.3406 22.8304L27.7006 24.0796ZM30.4774 16.8091L30.7065 17.2116L31.8361 16.5681L31.6068 16.1654L30.4774 16.8091ZM31.8456 19.2102L32.0747 19.6127L33.2043 18.9693L32.975 18.5665L31.8456 19.2102ZM33.725 17.3002L35.1338 16.4763L34.4775 15.3541L33.0687 16.1781L33.725 17.3002ZM32.977 15.7733L33.3915 14.1571L32.1322 13.8342L31.7177 15.4504L32.977 15.7733ZM33.5954 18.847L35.1824 19.3009L35.5399 18.051L33.9529 17.5971L33.5954 18.847ZM20.5442 23.0776C20.4616 22.9327 20.4381 22.7614 20.4785 22.5996L21.7397 22.9146C21.7804 22.7518 21.7567 22.5797 21.6737 22.4339L20.5442 23.0776ZM20.4785 22.5996C20.4378 22.7627 20.4616 22.9352 20.5451 23.0812L21.6735 22.4357C21.7565 22.5808 21.7803 22.7524 21.7397 22.9146L20.4785 22.5996ZM26.6113 23.406C26.685 23.5352 26.8007 23.6354 26.9391 23.6898L27.4148 22.48C27.5525 22.5341 27.6675 22.6337 27.7408 22.7623L26.6113 23.406ZM22.4617 24.1918C22.6245 24.2384 22.7625 24.3468 22.8464 24.4939L21.7171 25.1379C21.8015 25.2858 21.9403 25.3948 22.104 25.4416L22.4617 24.1918ZM27.5083 24.1339C27.4759 24.1528 27.4419 24.1688 27.4066 24.1818L26.9582 22.9616C26.9219 22.9749 26.8868 22.9915 26.8534 23.0109L27.5083 24.1339ZM24.9431 19.648C24.9835 19.6244 25.0214 19.5965 25.056 19.5647L24.1773 18.6066C24.2109 18.5759 24.2476 18.5488 24.2868 18.5258L24.9431 19.648ZM21.4898 24.7373C21.4072 24.5923 21.3837 24.4211 21.4241 24.2592L22.6853 24.5742C22.726 24.4115 22.7023 24.2393 22.6193 24.0936L21.4898 24.7373ZM26.9391 23.6898C26.8011 23.6355 26.6858 23.5356 26.6126 23.4066L27.7432 22.7648C27.6695 22.6351 27.5536 22.5346 27.4148 22.48L26.9391 23.6898ZM22.8486 24.4957C22.7642 24.3477 22.6254 24.2386 22.4617 24.1918L22.104 25.4416C21.9411 25.395 21.803 25.2865 21.7191 25.1394L22.8486 24.4957ZM21.4241 24.2592C21.3834 24.422 21.4071 24.5943 21.4903 24.7401L22.6195 24.096C22.7022 24.241 22.7258 24.4123 22.6853 24.5742L21.4241 24.2592Z" fill="url(#paint1_linear_23_472)"/>
</g>
<defs>
<linearGradient id="paint0_linear_23_472" x1="8.46687" y1="4.8405" x2="53.6922" y2="26.9471" gradientUnits="userSpaceOnUse">
<stop stop-color="#7381FD"/>
<stop offset="1" stop-color="#76C7FF"/>
</linearGradient>
<linearGradient id="paint1_linear_23_472" x1="18.2524" y1="10.9864" x2="39.9252" y2="23.6065" gradientUnits="userSpaceOnUse">
<stop stop-color="#7381FD"/>
<stop offset="1" stop-color="#76C7FF"/>
</linearGradient>
<clipPath id="clip0_23_472">
<rect width="55" height="55" fill="white"/>
</clipPath>
</defs>
</svg>
