<svg width="55" height="55" viewBox="0 0 55 55" fill="none" xmlns="http://www.w3.org/2000/svg">
<g clip-path="url(#clip0_23_210)">
<path d="M0 15C0 6.71573 6.71573 0 15 0H40C48.2843 0 55 6.71573 55 15V40C55 48.2843 48.2843 55 40 55H15C6.71573 55 0 48.2843 0 40V15Z" fill="#F6FAFD"/>
<path d="M11.9932 42.5774C12.0403 42.8828 12.2693 43.1128 12.5743 43.1612C12.8905 43.2064 13.2877 43.25 13.7721 43.25C15.1423 43.25 17.1154 42.8982 19.1989 41.4037L19.5764 41.1329L19.987 41.3503C22.3537 42.6033 24.9473 43.25 27.4867 43.25C31.5577 43.25 35.5814 41.6778 38.6356 38.6238L38.6376 38.6218C44.7862 32.5198 44.7891 22.5293 38.6356 16.3762C35.6262 13.3672 31.6978 11.75 27.4867 11.75C23.2777 11.75 19.3008 13.414 16.339 16.375C10.6011 22.1601 10.1894 31.4123 15.4117 37.6046L15.7239 37.9748L15.515 38.4117C14.9492 39.5949 13.9376 41.0671 12.377 41.8531C12.0927 42.0127 11.9506 42.3004 11.9932 42.5774ZM11.9932 42.5774L11.2522 42.6915" stroke="url(#paint0_linear_23_210)" stroke-width="1.5"/>
<path d="M20.8267 27.1132L20.0785 27.0615L20.0774 27.0773L20.077 27.0931L20.8267 27.1132ZM33.3369 34.4971L33.9049 34.0074L33.9032 34.0054L33.3369 34.4971ZM36.25 27.9752C36.25 28.3894 36.5858 28.7252 37 28.7252C37.4142 28.7252 37.75 28.3894 37.75 27.9752H36.25ZM27.0245 17.25C26.6103 17.25 26.2745 17.5858 26.2745 18C26.2745 18.4142 26.6103 18.75 27.0245 18.75V17.25ZM33.3999 27.9749C33.3999 28.3891 33.7356 28.7249 34.1499 28.7249C34.5641 28.7249 34.8999 28.3891 34.8999 27.9749H33.3999ZM27.0245 20.0998C26.6103 20.0998 26.2745 20.4356 26.2745 20.8498C26.2745 21.264 26.6103 21.5998 27.0245 21.5998V20.0998ZM30.5497 27.9751C30.5497 28.3893 30.8855 28.7251 31.2997 28.7251C31.7139 28.7251 32.0497 28.3893 32.0497 27.9751H30.5497ZM27.0245 22.9501C26.6103 22.9501 26.2745 23.2858 26.2745 23.7001C26.2745 24.1143 26.6103 24.4501 27.0245 24.4501V22.9501ZM32.5077 35.2407C31.5818 37.0675 29.6757 37.2867 29.0717 37.2462L28.9714 38.7429C29.8471 38.8016 32.5248 38.5248 33.8457 35.9188L32.5077 35.2407ZM29.0717 37.2462C29.0001 37.2414 28.1938 37.2337 26.8617 36.6591C25.5201 36.0803 23.6172 34.9132 21.4065 32.5458L20.3102 33.5696C22.6493 36.0744 24.7194 37.3685 26.2676 38.0364C27.0406 38.3699 27.6788 38.5452 28.149 38.638C28.3841 38.6843 28.5759 38.7099 28.7202 38.7243C28.7924 38.7316 28.8518 38.7359 28.8975 38.7388C28.9202 38.7402 28.9391 38.7412 28.9531 38.7419C28.9709 38.7428 28.972 38.7429 28.9714 38.7429L29.0717 37.2462ZM21.4065 32.5458C17.9159 28.8081 17.7419 25.053 17.7503 24.4305L16.2504 24.4104C16.2386 25.2885 16.4776 29.4657 20.3102 33.5696L21.4065 32.5458ZM17.7503 24.4305C17.7537 24.1682 17.8171 23.6689 18.1511 23.1129C18.4809 22.5639 19.1028 21.9122 20.2986 21.3758L19.6847 20.0072C18.2367 20.6567 17.3678 21.5041 16.8653 22.3404C16.3671 23.1697 16.2566 23.942 16.2504 24.4104L17.7503 24.4305ZM20.2986 21.3758C20.3138 21.369 20.3566 21.3537 20.4261 21.3401C20.4925 21.3271 20.5647 21.3193 20.6308 21.3177C20.7006 21.316 20.741 21.3219 20.7511 21.3241C20.7554 21.325 20.7376 21.3218 20.7062 21.3071C20.6771 21.2935 20.6088 21.2572 20.5399 21.1794L21.6632 20.1852C21.4645 19.9607 21.2025 19.8872 21.07 19.8584C20.9091 19.8233 20.7428 19.8146 20.595 19.8181C20.31 19.8249 19.9652 19.8814 19.6847 20.0072L20.2986 21.3758ZM20.5399 21.1794C20.5184 21.1553 20.5038 21.1353 20.498 21.1273C20.4907 21.1174 20.4854 21.1095 20.4825 21.1053C20.4795 21.1007 20.4772 21.0972 20.4761 21.0954C20.4748 21.0934 20.4741 21.0922 20.4739 21.0919C20.4736 21.0914 20.474 21.0919 20.4761 21.0954C20.478 21.0987 20.481 21.1039 20.4843 21.1098C20.4985 21.1345 20.5198 21.1725 20.5482 21.2243C20.6047 21.327 20.6832 21.472 20.7769 21.6469C20.9642 21.996 21.2087 22.4569 21.4531 22.92C21.6974 23.3831 21.9411 23.8472 22.1264 24.2025C22.2191 24.3803 22.2968 24.53 22.3526 24.6384C22.4216 24.7728 22.4328 24.7979 22.4224 24.7724L23.8121 24.2079C23.7897 24.1526 23.7309 24.0389 23.6866 23.9526C23.6289 23.8404 23.5496 23.6877 23.4564 23.5088C23.2697 23.1509 23.0249 22.6846 22.7797 22.22C22.5346 21.7555 22.2884 21.2913 22.0989 20.938C22.0043 20.7617 21.9229 20.611 21.8625 20.5012C21.8325 20.4467 21.806 20.3992 21.785 20.3626C21.7747 20.3447 21.7633 20.3252 21.7522 20.3072C21.7468 20.2984 21.7389 20.2856 21.7295 20.2715C21.7258 20.2661 21.7006 20.2274 21.6632 20.1852L20.5399 21.1794ZM22.4224 24.7724C22.4285 24.7873 22.4302 24.7956 22.4303 24.796C22.4303 24.7961 22.4295 24.7913 22.4301 24.7828L23.9265 24.8862C23.9432 24.645 23.8972 24.4165 23.8121 24.2079L22.4224 24.7724ZM22.4301 24.7828C22.4336 24.7321 22.4452 24.6973 22.4515 24.6815C22.4577 24.666 22.4604 24.6645 22.4519 24.6772C22.4329 24.7054 22.386 24.7631 22.2902 24.8497L23.2964 25.9621C23.4464 25.8264 23.5865 25.6776 23.6959 25.5153C23.8029 25.3564 23.9088 25.1426 23.9265 24.8862L22.4301 24.7828ZM22.2902 24.8497C22.0761 25.0435 21.8454 25.2193 21.5979 25.3765L22.4023 26.6426C22.7212 26.44 23.0191 26.213 23.2964 25.9621L22.2902 24.8497ZM21.5979 25.3765C21.2875 25.5739 20.9961 25.7871 20.7245 26.0164L21.6919 27.1627C21.9097 26.9788 22.1462 26.8054 22.4023 26.6426L21.5979 25.3765ZM20.7245 26.0164C20.5758 26.1418 20.4347 26.2806 20.3232 26.4338C20.216 26.5809 20.0969 26.7951 20.0785 27.0615L21.5749 27.1649C21.5704 27.2296 21.5543 27.2752 21.5446 27.2976C21.5351 27.3197 21.5289 27.3262 21.5357 27.3168C21.5422 27.3079 21.5569 27.2896 21.5837 27.2621C21.6103 27.2348 21.6458 27.2017 21.6919 27.1627L20.7245 26.0164ZM20.077 27.0931C20.0592 27.7524 20.4277 29.2868 22.7094 31.5503L23.7658 30.4854C21.638 28.3747 21.5742 27.2164 21.5764 27.1334L20.077 27.0931ZM22.7094 31.5503C23.8292 32.6612 24.6744 33.3898 25.2619 33.8516C25.8261 34.295 26.1892 34.5216 26.3361 34.5864L26.9422 33.2143C26.9829 33.2323 26.7475 33.1114 26.1888 32.6722C25.6534 32.2514 24.8512 31.5623 23.7658 30.4854L22.7094 31.5503ZM26.3361 34.5864C26.4814 34.6507 26.661 34.7128 26.8561 34.7259L26.9564 33.2293C26.9718 33.2303 26.9826 33.232 26.9882 33.2331C26.9939 33.2342 26.9957 33.2348 26.9933 33.2341C26.991 33.2334 26.9855 33.2317 26.9766 33.2285C26.9678 33.2252 26.9564 33.2206 26.9422 33.2143L26.3361 34.5864ZM26.8561 34.7259C27.1178 34.7434 27.3439 34.6592 27.506 34.5748C27.6739 34.4873 27.8323 34.3688 27.9787 34.2406L26.991 33.1117C26.9455 33.1516 26.9073 33.1818 26.876 33.2042C26.8445 33.2268 26.8237 33.2389 26.8132 33.2444C26.8022 33.2501 26.8082 33.2456 26.8295 33.2399C26.8513 33.234 26.8956 33.2252 26.9564 33.2293L26.8561 34.7259ZM27.9787 34.2406C28.1406 34.0988 28.4507 33.7539 28.6959 33.4847C28.8309 33.3365 28.9612 33.1941 29.0728 33.0764C29.1285 33.0177 29.1766 32.9682 29.2162 32.9292C29.2358 32.9098 29.2519 32.8944 29.2646 32.8827C29.2708 32.877 29.2757 32.8726 29.2794 32.8694C29.2831 32.8661 29.2848 32.8648 29.2846 32.8649L28.3364 31.7026C28.1528 31.8525 27.8318 32.2058 27.587 32.4746C27.2939 32.7963 27.0699 33.0426 26.991 33.1117L27.9787 34.2406ZM29.2846 32.8649C29.3847 32.7833 29.4495 32.7449 29.4819 32.7295C29.4968 32.7224 29.4964 32.7242 29.4823 32.7276C29.4678 32.7311 29.4345 32.7372 29.387 32.734L29.4874 31.2374C29.0169 31.2058 28.6086 31.4806 28.3364 31.7026L29.2846 32.8649ZM29.387 32.734C29.3816 32.7337 29.3794 32.7328 29.3816 32.7335C29.3841 32.7342 29.3928 32.7373 29.408 32.7458L30.1423 31.4378C29.9459 31.3276 29.726 31.2534 29.4874 31.2374L29.387 32.734ZM29.408 32.7458C29.403 32.7429 29.5961 32.8694 29.9545 33.1082C30.2877 33.3303 30.7226 33.6216 31.156 33.9133C31.5897 34.2051 32.0208 34.4965 32.3468 34.719C32.5102 34.8305 32.6453 34.9235 32.7406 34.9902C32.7887 35.0238 32.8236 35.0486 32.846 35.0649C32.8576 35.0734 32.8617 35.0766 32.861 35.076C32.8609 35.076 32.8546 35.0722 32.846 35.0649C32.8416 35.0612 32.834 35.0535 32.8238 35.044C32.8159 35.0366 32.795 35.017 32.7707 34.9889L33.9032 34.0054C33.8614 33.9572 33.8209 33.9237 33.8166 33.9201C33.8028 33.9084 33.7903 33.8985 33.782 33.892C33.7647 33.8786 33.7462 33.8649 33.7296 33.8528C33.6954 33.8279 33.651 33.7964 33.6003 33.761C33.4979 33.6894 33.3573 33.5926 33.1926 33.4802C32.8625 33.2549 32.4282 32.9613 31.9934 32.6688C31.5584 32.3761 31.1217 32.0836 30.7864 31.8601C30.4762 31.6533 30.2038 31.4723 30.1423 31.4378L29.408 32.7458ZM32.7689 34.9869C32.7116 34.9204 32.6843 34.8567 32.6718 34.818C32.6596 34.78 32.658 34.7557 32.6578 34.7529C32.6576 34.7508 32.6586 34.7804 32.6454 34.8465C32.6191 34.9784 32.5611 35.1353 32.5077 35.2407L33.8457 35.9188C33.9531 35.7069 34.0602 35.4212 34.1163 35.1404C34.1443 35.0002 34.1659 34.8309 34.1547 34.6569C34.1444 34.4957 34.1 34.2336 33.9049 34.0074L32.7689 34.9869ZM37.75 27.9752C37.75 22.0609 32.9392 17.25 27.0245 17.25V18.75C32.1108 18.75 36.25 22.8893 36.25 27.9752H37.75ZM34.8999 27.9749C34.8999 23.6319 31.3676 20.0998 27.0245 20.0998V21.5998C30.5392 21.5998 33.3999 24.4604 33.3999 27.9749H34.8999ZM32.0497 27.9751C32.0497 25.2037 29.796 22.9501 27.0245 22.9501V24.4501C28.9676 24.4501 30.5497 26.0322 30.5497 27.9751H32.0497Z" fill="url(#paint1_linear_23_210)"/>
</g>
<defs>
<linearGradient id="paint0_linear_23_210" x1="7.28376" y1="7.72421" x2="51.9658" y2="32.8188" gradientUnits="userSpaceOnUse">
<stop stop-color="#7381FD"/>
<stop offset="1" stop-color="#76C7FF"/>
</linearGradient>
<linearGradient id="paint1_linear_23_210" x1="13.5835" y1="14.5023" x2="43.8301" y2="31.2256" gradientUnits="userSpaceOnUse">
<stop stop-color="#7381FD"/>
<stop offset="1" stop-color="#76C7FF"/>
</linearGradient>
<clipPath id="clip0_23_210">
<rect width="55" height="55" fill="white"/>
</clipPath>
</defs>
</svg>
