<svg width="55" height="55" viewBox="0 0 55 55" fill="none" xmlns="http://www.w3.org/2000/svg">
<g clip-path="url(#clip0_23_422)">
<path d="M0 15C0 6.71573 6.71573 0 15 0H40C48.2843 0 55 6.71573 55 15V40C55 48.2843 48.2843 55 40 55H15C6.71573 55 0 48.2843 0 40V15Z" fill="#F6FAFD"/>
<path d="M42.1923 27.0753V15.0643C42.1923 14.8953 42.1254 14.7332 42.0065 14.6137C41.8875 14.4942 41.726 14.427 41.5577 14.427H31.4038M31.4038 14.427V15.7017V25.7893C31.403 26.0292 31.2681 26.2486 31.0548 26.3567C30.9673 26.4042 30.869 26.4284 30.7692 26.4267C30.6318 26.4267 30.4984 26.382 30.3885 26.2992L27.5962 24.196L24.8038 26.2992C24.6106 26.4438 24.3525 26.466 24.1375 26.3567C23.9242 26.2486 23.7893 26.0292 23.7885 25.7893V15.7017V14.427M31.4038 14.427H23.7885M29.8663 41.1955H13.6346C13.4663 41.1955 13.3048 41.1284 13.1859 41.0089C13.0669 40.8894 13 40.7272 13 40.5582V15.0643C13 14.7124 13.2842 14.427 13.6346 14.427H23.7885M44.2247 36.5852C44.2574 36.3397 44.275 36.0924 44.2773 35.8448C44.275 35.5971 44.2574 35.3499 44.2247 35.1043L45.8523 33.8493C45.9258 33.794 45.976 33.7139 45.9933 33.6245C46.0107 33.535 45.9939 33.4424 45.9463 33.3643L44.4051 30.732C44.3605 30.653 44.2881 30.5929 44.2015 30.5629C44.115 30.5329 44.0203 30.5351 43.9353 30.5691L42.0145 31.3318C41.6148 31.0313 41.1778 30.7825 40.714 30.5913L40.4245 28.581C40.4118 28.492 40.3666 28.4107 40.2974 28.3521C40.2283 28.2935 40.1398 28.2617 40.0486 28.2626H36.9589C36.8677 28.2617 36.7792 28.2935 36.7101 28.3521C36.6409 28.4107 36.5958 28.492 36.583 28.581L36.2936 30.5913C35.8292 30.7813 35.3919 31.0302 34.993 31.3318L33.0647 30.5691C32.9797 30.5351 32.885 30.5329 32.7985 30.5629C32.7119 30.5929 32.6395 30.653 32.5949 30.732L31.0537 33.3643C31.0061 33.4424 30.9893 33.535 31.0067 33.6245C31.024 33.7139 31.0742 33.794 31.1477 33.8493L32.7715 35.1043C32.7389 35.3499 32.7213 35.5972 32.7189 35.8448C32.7212 36.0924 32.7388 36.3397 32.7715 36.5852L31.1477 37.8403C31.0742 37.8956 31.024 37.9756 31.0067 38.0651C30.9893 38.1546 31.0061 38.2472 31.0537 38.3253L32.5949 40.9576C32.6395 41.0365 32.7119 41.0967 32.7985 41.1267C32.885 41.1567 32.9797 41.1545 33.0647 41.1205L34.9855 40.3578C35.3852 40.6583 35.8222 40.9071 36.286 41.0983L36.5755 43.1086C36.5882 43.1975 36.6334 43.2789 36.7026 43.3375C36.7717 43.3961 36.8601 43.4279 36.9514 43.427H40.0336C40.1248 43.4279 40.2132 43.3961 40.2824 43.3375C40.3516 43.2789 40.3967 43.1975 40.4095 43.1086L40.6989 41.0983C41.1633 40.9083 41.6005 40.6594 41.9995 40.3578L43.9202 41.1205C44.0052 41.1545 44.0999 41.1567 44.1865 41.1267C44.273 41.0967 44.3455 41.0365 44.3901 40.9576L45.9312 38.3253C45.9789 38.2472 45.9956 38.1546 45.9783 38.0651C45.961 37.9756 45.9107 37.8956 45.8372 37.8403L44.2247 36.5852ZM38.5 38.503C37.9661 38.5037 37.4439 38.3485 36.9996 38.0568C36.5553 37.7652 36.2088 37.3503 36.0039 36.8646C35.7991 36.3789 35.7451 35.8444 35.8488 35.3285C35.9525 34.8126 36.2093 34.3386 36.5865 33.9665C36.9638 33.5943 37.4447 33.3408 37.9683 33.2379C38.492 33.1351 39.0348 33.1875 39.5282 33.3886C40.0215 33.5897 40.4433 33.9304 40.74 34.3676C41.0367 34.8048 41.1951 35.3189 41.1951 35.8448C41.1956 36.1937 41.1262 36.5393 40.991 36.8618C40.8558 37.1842 40.6574 37.4773 40.407 37.7242C40.1567 37.9711 39.8595 38.1669 39.5322 38.3006C39.205 38.4342 38.8542 38.503 38.5 38.503Z" stroke="url(#paint0_linear_23_422)" stroke-width="1.5" stroke-linecap="round" stroke-linejoin="round"/>
</g>
<defs>
<linearGradient id="paint0_linear_23_422" x1="8.90725" y1="10.7207" x2="52.3344" y2="38.0429" gradientUnits="userSpaceOnUse">
<stop stop-color="#7381FD"/>
<stop offset="1" stop-color="#76C7FF"/>
</linearGradient>
<clipPath id="clip0_23_422">
<rect width="55" height="55" fill="white"/>
</clipPath>
</defs>
</svg>
