<svg width="55" height="55" viewBox="0 0 55 55" fill="none" xmlns="http://www.w3.org/2000/svg">
<g clip-path="url(#clip0_23_278)">
<path d="M0 15C0 6.71573 6.71573 0 15 0H40C48.2843 0 55 6.71573 55 15V40C55 48.2843 48.2843 55 40 55H15C6.71573 55 0 48.2843 0 40V15Z" fill="#F6FAFD"/>
<path d="M34.9108 26.1493H21.5157V27.4493H34.9108V26.1493ZM21.1657 25.7993V23.7627H19.8657V25.7993H21.1657ZM21.5157 23.4127H34.9108V22.1127H21.5157V23.4127ZM35.2608 23.7627V25.7993H36.5608V23.7627H35.2608ZM34.9108 23.4127C35.1041 23.4127 35.2608 23.5694 35.2608 23.7627H36.5608C36.5608 22.8514 35.822 22.1127 34.9108 22.1127V23.4127ZM21.1657 23.7627C21.1657 23.5694 21.3224 23.4127 21.5157 23.4127V22.1127C20.6045 22.1127 19.8657 22.8514 19.8657 23.7627H21.1657ZM21.5157 26.1493C21.3224 26.1493 21.1657 25.9926 21.1657 25.7993H19.8657C19.8657 26.7106 20.6045 27.4493 21.5157 27.4493V26.1493ZM34.9108 27.4493C35.822 27.4493 36.5608 26.7106 36.5608 25.7993H35.2608C35.2608 25.9926 35.1041 26.1493 34.9108 26.1493V27.4493Z" fill="url(#paint0_linear_23_278)"/>
<path d="M23.4784 32.1913H21.6017V33.4913H23.4784V32.1913ZM21.7517 32.3413V30.5127H20.4517V32.3413H21.7517ZM21.6017 30.6627H23.4784V29.3627H21.6017V30.6627ZM23.3284 30.5127V32.3413H24.6284V30.5127H23.3284ZM23.4784 30.6627C23.3955 30.6627 23.3284 30.5955 23.3284 30.5127H24.6284C24.6284 29.8776 24.1135 29.3627 23.4784 29.3627V30.6627ZM21.7517 30.5127C21.7517 30.5955 21.6845 30.6627 21.6017 30.6627V29.3627C20.9665 29.3627 20.4517 29.8776 20.4517 30.5127H21.7517ZM21.6017 32.1913C21.6845 32.1913 21.7517 32.2584 21.7517 32.3413H20.4517C20.4517 32.9764 20.9665 33.4913 21.6017 33.4913V32.1913ZM23.4784 33.4913C24.1135 33.4913 24.6284 32.9764 24.6284 32.3413H23.3284C23.3284 32.2584 23.3955 32.1913 23.4784 32.1913V33.4913Z" fill="url(#paint1_linear_23_278)"/>
<path d="M23.4784 37.8485H21.6017V39.1485H23.4784V37.8485ZM21.7517 37.9985V36.1699H20.4517V37.9985H21.7517ZM21.6017 36.3199H23.4784V35.0199H21.6017V36.3199ZM23.3284 36.1699V37.9985H24.6284V36.1699H23.3284ZM23.4784 36.3199C23.3955 36.3199 23.3284 36.2528 23.3284 36.1699H24.6284C24.6284 35.5348 24.1135 35.0199 23.4784 35.0199V36.3199ZM21.7517 36.1699C21.7517 36.2528 21.6845 36.3199 21.6017 36.3199V35.0199C20.9665 35.0199 20.4517 35.5348 20.4517 36.1699H21.7517ZM21.6017 37.8485C21.6845 37.8485 21.7517 37.9157 21.7517 37.9985H20.4517C20.4517 38.6336 20.9665 39.1485 21.6017 39.1485V37.8485ZM23.4784 39.1485C24.1135 39.1485 24.6284 38.6336 24.6284 37.9985H23.3284C23.3284 37.9157 23.3955 37.8485 23.4784 37.8485V39.1485Z" fill="url(#paint2_linear_23_278)"/>
<path d="M29.2323 32.1913H27.3556V33.4913H29.2323V32.1913ZM27.5056 32.3413V30.5127H26.2056V32.3413H27.5056ZM27.3556 30.6627H29.2323V29.3627H27.3556V30.6627ZM29.0823 30.5127V32.3413H30.3823V30.5127H29.0823ZM29.2323 30.6627C29.1494 30.6627 29.0823 30.5955 29.0823 30.5127H30.3823C30.3823 29.8776 29.8674 29.3627 29.2323 29.3627V30.6627ZM27.5056 30.5127C27.5056 30.5955 27.4384 30.6627 27.3556 30.6627V29.3627C26.7204 29.3627 26.2056 29.8776 26.2056 30.5127H27.5056ZM27.3556 32.1913C27.4384 32.1913 27.5056 32.2584 27.5056 32.3413H26.2056C26.2056 32.9764 26.7204 33.4913 27.3556 33.4913V32.1913ZM29.2323 33.4913C29.8674 33.4913 30.3823 32.9764 30.3823 32.3413H29.0823C29.0823 32.2584 29.1494 32.1913 29.2323 32.1913V33.4913Z" fill="url(#paint3_linear_23_278)"/>
<path d="M29.2323 37.8485H27.3556V39.1485H29.2323V37.8485ZM27.5056 37.9985V36.1699H26.2056V37.9985H27.5056ZM27.3556 36.3199H29.2323V35.0199H27.3556V36.3199ZM29.0823 36.1699V37.9985H30.3823V36.1699H29.0823ZM29.2323 36.3199C29.1494 36.3199 29.0823 36.2528 29.0823 36.1699H30.3823C30.3823 35.5348 29.8674 35.0199 29.2323 35.0199V36.3199ZM27.5056 36.1699C27.5056 36.2528 27.4384 36.3199 27.3556 36.3199V35.0199C26.7204 35.0199 26.2056 35.5348 26.2056 36.1699H27.5056ZM27.3556 37.8485C27.4384 37.8485 27.5056 37.9157 27.5056 37.9985H26.2056C26.2056 38.6336 26.7204 39.1485 27.3556 39.1485V37.8485ZM29.2323 39.1485C29.8674 39.1485 30.3823 38.6336 30.3823 37.9985H29.0823C29.0823 37.9157 29.1494 37.8485 29.2323 37.8485V39.1485Z" fill="url(#paint4_linear_23_278)"/>
<path d="M34.9862 32.1913H33.1095V33.4913H34.9862V32.1913ZM33.2595 32.3413V30.5127H31.9595V32.3413H33.2595ZM33.1095 30.6627H34.9862V29.3627H33.1095V30.6627ZM34.8362 30.5127V32.3413H36.1362V30.5127H34.8362ZM34.9862 30.6627C34.9034 30.6627 34.8362 30.5955 34.8362 30.5127H36.1362C36.1362 29.8776 35.6213 29.3627 34.9862 29.3627V30.6627ZM33.2595 30.5127C33.2595 30.5955 33.1923 30.6627 33.1095 30.6627V29.3627C32.4743 29.3627 31.9595 29.8776 31.9595 30.5127H33.2595ZM33.1095 32.1913C33.1923 32.1913 33.2595 32.2584 33.2595 32.3413H31.9595C31.9595 32.9764 32.4743 33.4913 33.1095 33.4913V32.1913ZM34.9862 33.4913C35.6213 33.4913 36.1362 32.9764 36.1362 32.3413H34.8362C34.8362 32.2584 34.9034 32.1913 34.9862 32.1913V33.4913Z" fill="url(#paint5_linear_23_278)"/>
<path d="M34.9862 37.8485H33.1095V39.1485H34.9862V37.8485ZM33.2595 37.9985V36.1699H31.9595V37.9985H33.2595ZM33.1095 36.3199H34.9862V35.0199H33.1095V36.3199ZM34.8362 36.1699V37.9985H36.1362V36.1699H34.8362ZM34.9862 36.3199C34.9034 36.3199 34.8362 36.2528 34.8362 36.1699H36.1362C36.1362 35.5348 35.6213 35.0199 34.9862 35.0199V36.3199ZM33.2595 36.1699C33.2595 36.2528 33.1923 36.3199 33.1095 36.3199V35.0199C32.4743 35.0199 31.9595 35.5348 31.9595 36.1699H33.2595ZM33.1095 37.8485C33.1923 37.8485 33.2595 37.9157 33.2595 37.9985H31.9595C31.9595 38.6336 32.4743 39.1485 33.1095 39.1485V37.8485ZM34.9862 39.1485C35.6213 39.1485 36.1362 38.6336 36.1362 37.9985H34.8362C34.8362 37.9157 34.9034 37.8485 34.9862 37.8485V39.1485Z" fill="url(#paint6_linear_23_278)"/>
<path d="M17 15.2871H16.25V16.0371H17V15.2871ZM17.928 11.9193L17.4054 11.3813L17.4002 11.3864L17.928 11.9193ZM23.329 13.689L24.079 13.6837L24.0786 13.6318L24.0711 13.5804L23.329 13.689ZM23.3404 15.2874H24.0904V15.282L23.3404 15.2874ZM31.5405 11.7506C32.0416 11.7506 32.4335 12.1502 32.4335 12.6218H33.9335C33.9335 11.3011 32.8493 10.2506 31.5406 10.2506L31.5405 11.7506ZM19.112 20.8128C19.112 20.7088 19.2016 20.6096 19.3245 20.6096V19.1096C18.387 19.1096 17.612 19.8667 17.612 20.8128H19.112ZM37.0375 20.6096C37.1604 20.6096 37.25 20.7088 37.25 20.8128H38.75C38.75 19.8667 37.975 19.1096 37.0375 19.1096V20.6096ZM37.25 20.8128V43.0466H38.75V20.8128H37.25ZM37.25 43.0466C37.25 43.1506 37.1604 43.2497 37.0375 43.2497V44.7497C37.9751 44.7497 38.75 43.9927 38.75 43.0466H37.25ZM37.0375 43.2497L19.3299 43.25V44.75L37.0375 44.7497V43.2497ZM19.3299 43.25C19.2071 43.25 19.1174 43.1508 19.1174 43.0468H17.6174C17.6174 43.993 18.3924 44.75 19.3299 44.75V43.25ZM17.75 15.2871V14.1455H16.25V15.2871H17.75ZM17.75 14.1455C17.75 13.5056 17.9991 12.9044 18.4557 12.4522L17.4002 11.3864C16.6579 12.1215 16.25 13.107 16.25 14.1455H17.75ZM22.579 13.6944L22.5904 15.2927L24.0904 15.282L24.079 13.6837L22.579 13.6944ZM23.3404 14.5374L17 14.5371V16.0371L23.3403 16.0374L23.3404 14.5374ZM19.1174 43.0468L19.112 20.8128H17.612L17.6174 43.0468H19.1174ZM22.6486 11.75L31.5405 11.7506L31.5406 10.2506L22.6487 10.25L22.6486 11.75ZM33.1835 20.6096H37.0375V19.1096H33.1835V20.6096ZM20.1876 11.7503C21.3947 11.7503 22.4169 12.6361 22.5869 13.7976L24.0711 13.5804C23.7916 11.6709 22.1277 10.2503 20.1876 10.2503V11.7503ZM18.4506 12.4573C18.9223 11.999 19.5361 11.7503 20.1876 11.7503V10.2503C19.1444 10.2503 18.156 10.6522 17.4054 11.3813L18.4506 12.4573ZM22.6487 10.25L20.1876 10.2503V11.7503L22.6486 11.75L22.6487 10.25ZM19.3245 20.6096H23.3404V19.1096H19.3245V20.6096ZM22.5904 15.2874V19.8596H24.0904V15.2874H22.5904ZM23.3404 20.6096H33.1835V19.1096H23.3404V20.6096ZM33.9335 19.8596V12.6218H32.4335V19.8596H33.9335Z" fill="url(#paint7_linear_23_278)"/>
<path d="M25.8944 16.163C25.5354 16.163 25.2444 16.454 25.2444 16.813C25.2444 17.172 25.5354 17.463 25.8944 17.463V16.163ZM30.689 17.463C31.048 17.463 31.339 17.172 31.339 16.813C31.339 16.454 31.048 16.163 30.689 16.163V17.463ZM25.8944 17.463H30.689V16.163H25.8944V17.463Z" fill="url(#paint8_linear_23_278)"/>
<path d="M25.8944 13.3344C25.5354 13.3344 25.2444 13.6254 25.2444 13.9844C25.2444 14.3434 25.5354 14.6344 25.8944 14.6344V13.3344ZM30.689 14.6344C31.048 14.6344 31.339 14.3434 31.339 13.9844C31.339 13.6254 31.048 13.3344 30.689 13.3344V14.6344ZM25.8944 14.6344H30.689V13.3344H25.8944V14.6344Z" fill="url(#paint9_linear_23_278)"/>
</g>
<defs>
<linearGradient id="paint0_linear_23_278" x1="17.7952" y1="21.4307" x2="25.4777" y2="34.7189" gradientUnits="userSpaceOnUse">
<stop stop-color="#7381FD"/>
<stop offset="1" stop-color="#76C7FF"/>
</linearGradient>
<linearGradient id="paint1_linear_23_278" x1="19.9337" y1="28.8351" x2="25.7775" y2="32.1037" gradientUnits="userSpaceOnUse">
<stop stop-color="#7381FD"/>
<stop offset="1" stop-color="#76C7FF"/>
</linearGradient>
<linearGradient id="paint2_linear_23_278" x1="19.9337" y1="34.4923" x2="25.7775" y2="37.7609" gradientUnits="userSpaceOnUse">
<stop stop-color="#7381FD"/>
<stop offset="1" stop-color="#76C7FF"/>
</linearGradient>
<linearGradient id="paint3_linear_23_278" x1="25.6876" y1="28.8351" x2="31.5314" y2="32.1037" gradientUnits="userSpaceOnUse">
<stop stop-color="#7381FD"/>
<stop offset="1" stop-color="#76C7FF"/>
</linearGradient>
<linearGradient id="paint4_linear_23_278" x1="25.6876" y1="34.4923" x2="31.5314" y2="37.7609" gradientUnits="userSpaceOnUse">
<stop stop-color="#7381FD"/>
<stop offset="1" stop-color="#76C7FF"/>
</linearGradient>
<linearGradient id="paint5_linear_23_278" x1="31.4415" y1="28.8351" x2="37.2853" y2="32.1037" gradientUnits="userSpaceOnUse">
<stop stop-color="#7381FD"/>
<stop offset="1" stop-color="#76C7FF"/>
</linearGradient>
<linearGradient id="paint6_linear_23_278" x1="31.4415" y1="34.4923" x2="37.2853" y2="37.7609" gradientUnits="userSpaceOnUse">
<stop stop-color="#7381FD"/>
<stop offset="1" stop-color="#76C7FF"/>
</linearGradient>
<linearGradient id="paint7_linear_23_278" x1="13.4595" y1="5.8408" x2="50.0339" y2="19.0288" gradientUnits="userSpaceOnUse">
<stop stop-color="#7381FD"/>
<stop offset="1" stop-color="#76C7FF"/>
</linearGradient>
<linearGradient id="paint8_linear_23_278" x1="24.4885" y1="15.9969" x2="25.9389" y2="19.7563" gradientUnits="userSpaceOnUse">
<stop stop-color="#7381FD"/>
<stop offset="1" stop-color="#76C7FF"/>
</linearGradient>
<linearGradient id="paint9_linear_23_278" x1="24.4885" y1="13.1683" x2="25.9389" y2="16.9277" gradientUnits="userSpaceOnUse">
<stop stop-color="#7381FD"/>
<stop offset="1" stop-color="#76C7FF"/>
</linearGradient>
<clipPath id="clip0_23_278">
<rect width="55" height="55" fill="white"/>
</clipPath>
</defs>
</svg>
