<svg width="55" height="55" viewBox="0 0 55 55" fill="none" xmlns="http://www.w3.org/2000/svg">
<g clip-path="url(#clip0_23_415)">
<path d="M0 15C0 6.71573 6.71573 0 15 0H40C48.2843 0 55 6.71573 55 15V40C55 48.2843 48.2843 55 40 55H15C6.71573 55 0 48.2843 0 40V15Z" fill="#F6FAFD"/>
<path d="M20.146 40.1789C20.146 41.8521 18.7375 43.25 16.948 43.25V44.75C19.5194 44.75 21.646 42.7264 21.646 40.1789H20.146ZM16.948 43.25C15.1585 43.25 13.75 41.8521 13.75 40.1789H12.25C12.25 42.7264 14.3767 44.75 16.948 44.75V43.25ZM13.75 40.1789C13.75 38.5057 15.1585 37.1078 16.948 37.1078V35.6078C14.3767 35.6078 12.25 37.6314 12.25 40.1789H13.75ZM16.948 37.1078C18.7375 37.1078 20.146 38.5057 20.146 40.1789H21.646C21.646 37.6314 19.5194 35.6078 16.948 35.6078V37.1078ZM30.6262 40.1789C30.6262 41.8521 29.2177 43.25 27.4282 43.25V44.75C29.9996 44.75 32.1262 42.7264 32.1262 40.1789H30.6262ZM27.4282 43.25C25.6387 43.25 24.2302 41.8521 24.2302 40.1789H22.7302C22.7302 42.7264 24.8569 44.75 27.4282 44.75V43.25ZM24.2302 40.1789C24.2302 38.5057 25.6387 37.1078 27.4282 37.1078V35.6078C24.8569 35.6078 22.7302 37.6314 22.7302 40.1789H24.2302ZM27.4282 37.1078C29.2177 37.1078 30.6262 38.5057 30.6262 40.1789H32.1262C32.1262 37.6314 29.9996 35.6078 27.4282 35.6078V37.1078ZM41.25 40.1789C41.25 41.8521 39.8415 43.25 38.052 43.25V44.75C40.6233 44.75 42.75 42.7264 42.75 40.1789H41.25ZM38.052 43.25C36.2625 43.25 34.854 41.8521 34.854 40.1789H33.354C33.354 42.7264 35.4806 44.75 38.052 44.75V43.25ZM34.854 40.1789C34.854 38.5057 36.2625 37.1078 38.052 37.1078V35.6078C35.4806 35.6078 33.354 37.6314 33.354 40.1789H34.854ZM38.052 37.1078C39.8415 37.1078 41.25 38.5057 41.25 40.1789H42.75C42.75 37.6314 40.6233 35.6078 38.052 35.6078V37.1078ZM26.6782 28.9934V32.6756H28.1782V28.9934H26.6782ZM26.6782 32.6756V36.3578H28.1782V32.6756H26.6782ZM27.4282 33.4256H37.552V31.9256H27.4282V33.4256ZM37.302 33.1756V36.3578H38.802V33.1756H37.302ZM27.4282 31.9256H17.448V33.4256H27.4282V31.9256ZM16.198 33.1756V36.3578H17.698V33.1756H16.198ZM27.4273 11.7499C30.316 11.7499 32.5189 12.1072 33.9769 12.5403C34.7099 12.758 35.2289 12.9873 35.5474 13.1829C35.7083 13.2817 35.7912 13.3557 35.8251 13.3936C35.8695 13.4434 35.7843 13.3755 35.7843 13.2037H37.2843C37.2843 12.8449 37.0986 12.5679 36.9442 12.3949C36.7792 12.21 36.565 12.0476 36.3325 11.9047C35.8641 11.617 35.2112 11.3421 34.404 11.1024C32.7816 10.6205 30.431 10.2499 27.4273 10.2499V11.7499ZM35.7843 13.2037C35.7843 13.032 35.8694 12.9641 35.825 13.0138C35.7912 13.0517 35.7082 13.1258 35.5474 13.2246C35.229 13.4202 34.71 13.6494 33.977 13.8671C32.519 14.3001 30.3161 14.6574 27.4273 14.6574V16.1574C30.4311 16.1574 32.7817 15.7869 34.4041 15.3051C35.2112 15.0653 35.8641 14.7904 36.3325 14.5027C36.5651 14.3598 36.7793 14.1974 36.9443 14.0125C37.0987 13.8394 37.2843 13.5624 37.2843 13.2037H35.7843ZM27.4273 14.6574C24.5384 14.6574 22.3353 14.3001 20.8772 13.867C20.1442 13.6493 19.6251 13.4201 19.3066 13.2244C19.1457 13.1256 19.0627 13.0516 19.0289 13.0137C18.9845 12.9639 19.0697 13.0318 19.0697 13.2037H17.5697C17.5697 13.5625 17.7554 13.8395 17.9098 14.0125C18.0748 14.1974 18.289 14.3598 18.5216 14.5026C18.99 14.7903 19.6429 15.0652 20.4502 15.305C22.0727 15.7868 24.4234 16.1574 27.4273 16.1574V14.6574ZM19.0697 13.2037C19.0697 13.3755 18.9845 13.4434 19.0289 13.3936C19.0627 13.3557 19.1457 13.2817 19.3066 13.1829C19.6251 12.9873 20.1441 12.758 20.8772 12.5403C22.3353 12.1072 24.5383 11.7499 27.4273 11.7499V10.2499C24.4233 10.2499 22.0726 10.6205 20.4501 11.1024C19.6429 11.3421 18.99 11.617 18.5215 11.9047C18.289 12.0476 18.0748 12.21 17.9098 12.3948C17.7554 12.5678 17.5697 12.8448 17.5697 13.2037H19.0697ZM35.7843 19.9968C35.7843 19.8248 35.8695 19.7569 35.8251 19.8067C35.7913 19.8446 35.7083 19.9186 35.5474 20.0174C35.2289 20.213 34.7099 20.4423 33.9768 20.66C32.5188 21.093 30.3159 21.4503 27.4273 21.4503V22.9503C30.4309 22.9503 32.7815 22.5797 34.4039 22.0979C35.2111 21.8582 35.864 21.5833 36.3324 21.2956C36.5649 21.1528 36.7791 20.9904 36.9441 20.8056C37.0985 20.6326 37.2843 20.3556 37.2843 19.9968H35.7843ZM27.4273 21.4503C24.5385 21.4503 22.3355 21.0929 20.8773 20.6599C20.1442 20.4422 19.6251 20.2129 19.3066 20.0173C19.1456 19.9185 19.0626 19.8444 19.0288 19.8065C18.9843 19.7567 19.0697 19.8247 19.0697 19.9968H17.5697C17.5697 20.3557 17.7555 20.6327 17.9099 20.8056C18.0749 20.9904 18.2891 21.1527 18.5217 21.2955C18.9901 21.5832 19.643 21.8581 20.4503 22.0978C22.0728 22.5797 24.4235 22.9503 27.4273 22.9503V21.4503ZM27.4282 28.2434C24.5395 28.2434 22.3362 27.886 20.8778 27.453C20.1446 27.2352 19.6253 27.0059 19.3067 26.8103C19.1457 26.7114 19.0627 26.6374 19.0288 26.5995C18.9843 26.5496 19.0697 26.6176 19.0697 26.7896H17.5697C17.5697 27.1486 17.7555 27.4256 17.91 27.5985C18.075 27.7834 18.2892 27.9457 18.5218 28.0886C18.9903 28.3762 19.6434 28.6511 20.4508 28.8909C22.0735 29.3728 24.4245 29.7434 27.4282 29.7434V28.2434ZM35.79 26.8828L35.7907 26.8879L37.2778 26.6914L37.2771 26.6862L35.79 26.8828ZM35.7843 26.7897C35.7843 26.6178 35.8694 26.5499 35.8251 26.5997C35.7913 26.6376 35.7083 26.7116 35.5475 26.8104C35.2291 27.006 34.7103 27.2353 33.9774 27.453C32.5197 27.886 30.3171 28.2434 27.4282 28.2434V29.7434C30.4321 29.7434 32.7825 29.3728 34.4046 28.8909C35.2117 28.6511 35.8644 28.3762 36.3327 28.0885C36.5652 27.9456 36.7793 27.7832 36.9443 27.5983C37.0986 27.4254 37.2843 27.1484 37.2843 26.7897H35.7843ZM35.7843 13.2037V19.9968H37.2843V13.2037H35.7843ZM17.5697 13.2037V19.9968H19.0697V13.2037H17.5697ZM17.5697 19.9968V26.7896H19.0697V19.9968H17.5697ZM35.7843 19.9968V26.7897H37.2843V19.9968H35.7843ZM17.448 31.9256C16.7577 31.9256 16.198 32.4852 16.198 33.1756H17.698C17.698 33.3137 17.5861 33.4256 17.448 33.4256V31.9256ZM37.552 33.4256C37.4139 33.4256 37.302 33.3137 37.302 33.1756H38.802C38.802 32.4852 38.2423 31.9256 37.552 31.9256V33.4256Z" fill="url(#paint0_linear_23_415)"/>
</g>
<defs>
<linearGradient id="paint0_linear_23_415" x1="8.46731" y1="5.84068" x2="53.6883" y2="27.944" gradientUnits="userSpaceOnUse">
<stop stop-color="#7381FD"/>
<stop offset="1" stop-color="#76C7FF"/>
</linearGradient>
<clipPath id="clip0_23_415">
<rect width="55" height="55" fill="white"/>
</clipPath>
</defs>
</svg>
