<svg width="55" height="55" viewBox="0 0 55 55" fill="none" xmlns="http://www.w3.org/2000/svg">
<g clip-path="url(#clip0_23_539)">
<path d="M0 15C0 6.71573 6.71573 0 15 0H40C48.2843 0 55 6.71573 55 15V40C55 48.2843 48.2843 55 40 55H15C6.71573 55 0 48.2843 0 40V15Z" fill="#F6FAFD"/>
<path d="M37.4999 17.7803H17.6548V19.0803H37.4999V17.7803ZM17.7048 17.8303V14.0885H16.4048V17.8303H17.7048ZM17.6548 14.1385H37.4999V12.8385H17.6548V14.1385ZM37.4499 14.0885V17.8303H38.7499V14.0885H37.4499ZM37.4999 14.1385C37.4723 14.1385 37.4499 14.1161 37.4499 14.0885H38.7499C38.7499 13.3982 38.1902 12.8385 37.4999 12.8385V14.1385ZM17.7048 14.0885C17.7048 14.1161 17.6824 14.1385 17.6548 14.1385V12.8385C16.9644 12.8385 16.4048 13.3982 16.4048 14.0885H17.7048ZM17.6548 17.7803C17.6824 17.7803 17.7048 17.8027 17.7048 17.8303H16.4048C16.4048 18.5207 16.9644 19.0803 17.6548 19.0803V17.7803ZM37.4999 19.0803C38.1902 19.0803 38.7499 18.5207 38.7499 17.8303H37.4499C37.4499 17.8027 37.4723 17.7803 37.4999 17.7803V19.0803Z" fill="url(#paint0_linear_23_539)"/>
<path d="M21.6748 26.85H19.2237V28.15H21.6748V26.85ZM19.5737 27.2V24.8H18.2737V27.2H19.5737ZM19.2237 25.15H21.6748V23.85H19.2237V25.15ZM21.3248 24.8V27.2H22.6248V24.8H21.3248ZM21.6748 25.15C21.4815 25.15 21.3248 24.9933 21.3248 24.8H22.6248C22.6248 24.2753 22.1995 23.85 21.6748 23.85V25.15ZM19.5737 24.8C19.5737 24.9933 19.417 25.15 19.2237 25.15V23.85C18.6991 23.85 18.2737 24.2753 18.2737 24.8H19.5737ZM19.2237 26.85C19.417 26.85 19.5737 27.0067 19.5737 27.2H18.2737C18.2737 27.7247 18.6991 28.15 19.2237 28.15V26.85ZM21.6748 28.15C22.1995 28.15 22.6248 27.7247 22.6248 27.2H21.3248C21.3248 27.0067 21.4815 26.85 21.6748 26.85V28.15Z" fill="url(#paint1_linear_23_539)"/>
<path d="M21.6748 32.9345H19.2237V34.2345H21.6748V32.9345ZM19.5737 33.2845V30.8845H18.2737V33.2845H19.5737ZM19.2237 31.2345H21.6748V29.9345H19.2237V31.2345ZM21.3248 30.8845V33.2845H22.6248V30.8845H21.3248ZM21.6748 31.2345C21.4815 31.2345 21.3248 31.0778 21.3248 30.8845H22.6248C22.6248 30.3598 22.1995 29.9345 21.6748 29.9345V31.2345ZM19.5737 30.8845C19.5737 31.0778 19.417 31.2345 19.2237 31.2345V29.9345C18.6991 29.9345 18.2737 30.3598 18.2737 30.8845H19.5737ZM19.2237 32.9345C19.417 32.9345 19.5737 33.0912 19.5737 33.2845H18.2737C18.2737 33.8091 18.6991 34.2345 19.2237 34.2345V32.9345ZM21.6748 34.2345C22.1995 34.2345 22.6248 33.8091 22.6248 33.2845H21.3248C21.3248 33.0912 21.4815 32.9345 21.6748 32.9345V34.2345Z" fill="url(#paint2_linear_23_539)"/>
<path d="M28.7277 26.85H26.2767V28.15H28.7277V26.85ZM26.6267 27.2V24.8H25.3267V27.2H26.6267ZM26.2767 25.15H28.7277V23.85H26.2767V25.15ZM28.3777 24.8V27.2H29.6777V24.8H28.3777ZM28.7277 25.15C28.5344 25.15 28.3777 24.9933 28.3777 24.8H29.6777C29.6777 24.2753 29.2524 23.85 28.7277 23.85V25.15ZM26.6267 24.8C26.6267 24.9933 26.47 25.15 26.2767 25.15V23.85C25.752 23.85 25.3267 24.2753 25.3267 24.8H26.6267ZM26.2767 26.85C26.47 26.85 26.6267 27.0067 26.6267 27.2H25.3267C25.3267 27.7247 25.752 28.15 26.2767 28.15V26.85ZM28.7277 28.15C29.2524 28.15 29.6777 27.7247 29.6777 27.2H28.3777C28.3777 27.0067 28.5344 26.85 28.7277 26.85V28.15Z" fill="url(#paint3_linear_23_539)"/>
<path d="M28.7277 32.9345H26.2767V34.2345H28.7277V32.9345ZM26.6267 33.2845V30.8845H25.3267V33.2845H26.6267ZM26.2767 31.2345H28.7277V29.9345H26.2767V31.2345ZM28.3777 30.8845V33.2845H29.6777V30.8845H28.3777ZM28.7277 31.2345C28.5344 31.2345 28.3777 31.0778 28.3777 30.8845H29.6777C29.6777 30.3598 29.2524 29.9345 28.7277 29.9345V31.2345ZM26.6267 30.8845C26.6267 31.0778 26.47 31.2345 26.2767 31.2345V29.9345C25.752 29.9345 25.3267 30.3598 25.3267 30.8845H26.6267ZM26.2767 32.9345C26.47 32.9345 26.6267 33.0912 26.6267 33.2845H25.3267C25.3267 33.8091 25.752 34.2345 26.2767 34.2345V32.9345ZM28.7277 34.2345C29.2524 34.2345 29.6777 33.8091 29.6777 33.2845H28.3777C28.3777 33.0912 28.5344 32.9345 28.7277 32.9345V34.2345Z" fill="url(#paint4_linear_23_539)"/>
<path d="M35.7783 26.85H33.3272V28.15H35.7783V26.85ZM33.6772 27.2V24.8H32.3772V27.2H33.6772ZM33.3272 25.15H35.7783V23.85H33.3272V25.15ZM35.4283 24.8V27.2H36.7283V24.8H35.4283ZM35.7783 25.15C35.585 25.15 35.4283 24.9933 35.4283 24.8H36.7283C36.7283 24.2753 36.303 23.85 35.7783 23.85V25.15ZM33.6772 24.8C33.6772 24.9933 33.5205 25.15 33.3272 25.15V23.85C32.8026 23.85 32.3772 24.2753 32.3772 24.8H33.6772ZM33.3272 26.85C33.5205 26.85 33.6772 27.0067 33.6772 27.2H32.3772C32.3772 27.7247 32.8026 28.15 33.3272 28.15V26.85ZM35.7783 28.15C36.303 28.15 36.7283 27.7247 36.7283 27.2H35.4283C35.4283 27.0067 35.585 26.85 35.7783 26.85V28.15Z" fill="url(#paint5_linear_23_539)"/>
<path d="M35.7783 32.9345H33.3272V34.2345H35.7783V32.9345ZM33.6772 33.2845V30.8845H32.3772V33.2845H33.6772ZM33.3272 31.2345H35.7783V29.9345H33.3272V31.2345ZM35.4283 30.8845V33.2845H36.7283V30.8845H35.4283ZM35.7783 31.2345C35.585 31.2345 35.4283 31.0778 35.4283 30.8845H36.7283C36.7283 30.3598 36.303 29.9345 35.7783 29.9345V31.2345ZM33.6772 30.8845C33.6772 31.0778 33.5205 31.2345 33.3272 31.2345V29.9345C32.8026 29.9345 32.3772 30.3598 32.3772 30.8845H33.6772ZM33.3272 32.9345C33.5205 32.9345 33.6772 33.0912 33.6772 33.2845H32.3772C32.3772 33.8091 32.8026 34.2345 33.3272 34.2345V32.9345ZM35.7783 34.2345C36.303 34.2345 36.7283 33.8091 36.7283 33.2845H35.4283C35.4283 33.0912 35.585 32.9345 35.7783 32.9345V34.2345Z" fill="url(#paint6_linear_23_539)"/>
<path d="M21.6748 39.0185H19.2237V40.3185H21.6748V39.0185ZM19.5737 39.3685V36.9685H18.2737V39.3685H19.5737ZM19.2237 37.3185H21.6748V36.0185H19.2237V37.3185ZM21.3248 36.9685V39.3685H22.6248V36.9685H21.3248ZM21.6748 37.3185C21.4815 37.3185 21.3248 37.1618 21.3248 36.9685H22.6248C22.6248 36.4438 22.1995 36.0185 21.6748 36.0185V37.3185ZM19.5737 36.9685C19.5737 37.1618 19.417 37.3185 19.2237 37.3185V36.0185C18.6991 36.0185 18.2737 36.4438 18.2737 36.9685H19.5737ZM19.2237 39.0185C19.417 39.0185 19.5737 39.1752 19.5737 39.3685H18.2737C18.2737 39.8931 18.6991 40.3185 19.2237 40.3185V39.0185ZM21.6748 40.3185C22.1995 40.3185 22.6248 39.8931 22.6248 39.3685H21.3248C21.3248 39.1752 21.4815 39.0185 21.6748 39.0185V40.3185Z" fill="url(#paint7_linear_23_539)"/>
<path d="M28.7277 39.0185H26.2767V40.3185H28.7277V39.0185ZM26.6267 39.3685V36.9685H25.3267V39.3685H26.6267ZM26.2767 37.3185H28.7277V36.0185H26.2767V37.3185ZM28.3777 36.9685V39.3685H29.6777V36.9685H28.3777ZM28.7277 37.3185C28.5344 37.3185 28.3777 37.1618 28.3777 36.9685H29.6777C29.6777 36.4438 29.2524 36.0185 28.7277 36.0185V37.3185ZM26.6267 36.9685C26.6267 37.1618 26.47 37.3185 26.2767 37.3185V36.0185C25.752 36.0185 25.3267 36.4438 25.3267 36.9685H26.6267ZM26.2767 39.0185C26.47 39.0185 26.6267 39.1752 26.6267 39.3685H25.3267C25.3267 39.8931 25.752 40.3185 26.2767 40.3185V39.0185ZM28.7277 40.3185C29.2524 40.3185 29.6777 39.8931 29.6777 39.3685H28.3777C28.3777 39.1752 28.5344 39.0185 28.7277 39.0185V40.3185Z" fill="url(#paint8_linear_23_539)"/>
<path d="M35.7783 39.0185H33.3272V40.3185H35.7783V39.0185ZM33.6772 39.3685V36.9685H32.3772V39.3685H33.6772ZM33.3272 37.3185H35.7783V36.0185H33.3272V37.3185ZM35.4283 36.9685V39.3685H36.7283V36.9685H35.4283ZM35.7783 37.3185C35.585 37.3185 35.4283 37.1618 35.4283 36.9685H36.7283C36.7283 36.4438 36.303 36.0185 35.7783 36.0185V37.3185ZM33.6772 36.9685C33.6772 37.1618 33.5205 37.3185 33.3272 37.3185V36.0185C32.8026 36.0185 32.3772 36.4438 32.3772 36.9685H33.6772ZM33.3272 39.0185C33.5205 39.0185 33.6772 39.1752 33.6772 39.3685H32.3772C32.3772 39.8931 32.8026 40.3185 33.3272 40.3185V39.0185ZM35.7783 40.3185C36.303 40.3185 36.7283 39.8931 36.7283 39.3685H35.4283C35.4283 39.1752 35.585 39.0185 35.7783 39.0185V40.3185Z" fill="url(#paint9_linear_23_539)"/>
<path d="M14.8281 12.303C14.8281 12.0063 15.0764 11.75 15.3938 11.75V10.25C14.2617 10.25 13.3281 11.1642 13.3281 12.303H14.8281ZM39.6076 11.75C39.9251 11.75 40.1733 12.0063 40.1733 12.303L41.6733 12.3032C41.6733 11.1644 40.7397 10.25 39.6076 10.25V11.75ZM40.1733 42.6966C40.1733 42.9934 39.9251 43.2496 39.6076 43.2496V44.7496C40.7397 44.7496 41.6733 43.8355 41.6733 42.6966H40.1733ZM39.6076 43.2496L15.4013 43.25V44.75L39.6076 44.7496V43.2496ZM15.4013 43.25C15.0838 43.25 14.8356 42.9937 14.8356 42.697H13.3356C13.3356 43.8358 14.2692 44.75 15.4013 44.75V43.25ZM34.3392 11.75H39.6076V10.25H34.3392V11.75ZM15.3938 11.75H20.8836V10.25H15.3938V11.75ZM20.8836 11.75H34.3392V10.25H20.8836V11.75ZM14.8356 42.697L14.8281 21.2744L13.3281 21.2747L13.3356 42.697H14.8356ZM14.8281 21.2744V12.303H13.3281V21.2747L14.8281 21.2744ZM40.1733 12.303L40.1713 21.2745L41.6713 21.2748L41.6733 12.3032L40.1733 12.303ZM40.1713 21.2745L40.1733 42.6966H41.6733L41.6713 21.2748L40.1713 21.2745ZM14.0781 22.0247H40.9213V20.5247H14.0781V22.0247Z" fill="url(#paint10_linear_23_539)"/>
</g>
<defs>
<linearGradient id="paint0_linear_23_539" x1="13.6335" y1="12.0408" x2="21.9801" y2="28.5611" gradientUnits="userSpaceOnUse">
<stop stop-color="#7381FD"/>
<stop offset="1" stop-color="#76C7FF"/>
</linearGradient>
<linearGradient id="paint1_linear_23_539" x1="17.734" y1="23.3004" x2="23.8212" y2="26.706" gradientUnits="userSpaceOnUse">
<stop stop-color="#7381FD"/>
<stop offset="1" stop-color="#76C7FF"/>
</linearGradient>
<linearGradient id="paint2_linear_23_539" x1="17.734" y1="29.385" x2="23.8212" y2="32.7905" gradientUnits="userSpaceOnUse">
<stop stop-color="#7381FD"/>
<stop offset="1" stop-color="#76C7FF"/>
</linearGradient>
<linearGradient id="paint3_linear_23_539" x1="24.787" y1="23.3004" x2="30.8741" y2="26.7058" gradientUnits="userSpaceOnUse">
<stop stop-color="#7381FD"/>
<stop offset="1" stop-color="#76C7FF"/>
</linearGradient>
<linearGradient id="paint4_linear_23_539" x1="24.787" y1="29.385" x2="30.8741" y2="32.7904" gradientUnits="userSpaceOnUse">
<stop stop-color="#7381FD"/>
<stop offset="1" stop-color="#76C7FF"/>
</linearGradient>
<linearGradient id="paint5_linear_23_539" x1="31.8376" y1="23.3004" x2="37.9247" y2="26.706" gradientUnits="userSpaceOnUse">
<stop stop-color="#7381FD"/>
<stop offset="1" stop-color="#76C7FF"/>
</linearGradient>
<linearGradient id="paint6_linear_23_539" x1="31.8376" y1="29.385" x2="37.9247" y2="32.7905" gradientUnits="userSpaceOnUse">
<stop stop-color="#7381FD"/>
<stop offset="1" stop-color="#76C7FF"/>
</linearGradient>
<linearGradient id="paint7_linear_23_539" x1="17.734" y1="35.4689" x2="23.8212" y2="38.8745" gradientUnits="userSpaceOnUse">
<stop stop-color="#7381FD"/>
<stop offset="1" stop-color="#76C7FF"/>
</linearGradient>
<linearGradient id="paint8_linear_23_539" x1="24.787" y1="35.4689" x2="30.8741" y2="38.8744" gradientUnits="userSpaceOnUse">
<stop stop-color="#7381FD"/>
<stop offset="1" stop-color="#76C7FF"/>
</linearGradient>
<linearGradient id="paint9_linear_23_539" x1="31.8376" y1="35.4689" x2="37.9247" y2="38.8745" gradientUnits="userSpaceOnUse">
<stop stop-color="#7381FD"/>
<stop offset="1" stop-color="#76C7FF"/>
</linearGradient>
<linearGradient id="paint10_linear_23_539" x1="9.81268" y1="5.8408" x2="52.9733" y2="25.4467" gradientUnits="userSpaceOnUse">
<stop stop-color="#7381FD"/>
<stop offset="1" stop-color="#76C7FF"/>
</linearGradient>
<clipPath id="clip0_23_539">
<rect width="55" height="55" fill="white"/>
</clipPath>
</defs>
</svg>
