<svg width="55" height="55" viewBox="0 0 55 55" fill="none" xmlns="http://www.w3.org/2000/svg">
<g clip-path="url(#clip0_23_457)">
<path d="M0 15C0 6.71573 6.71573 0 15 0H40C48.2843 0 55 6.71573 55 15V40C55 48.2843 48.2843 55 40 55H15C6.71573 55 0 48.2843 0 40V15Z" fill="#F6FAFD"/>
<path d="M16.5 17.6362H26.4067M16.5 20.2271H23.493M30 17.6362L34.662 20.3181M30 17.6362H39.324M30 17.6362V23.0908M34.662 20.3181L39.324 23.0908M34.662 20.3181L39.324 17.6362M34.662 20.3181L30 23.0908M39.324 17.6362V23.0908M30 23.0908H39.324M16.5 23.0908H26.4067" stroke="url(#paint0_linear_23_457)" stroke-width="1.3" stroke-linecap="round" stroke-linejoin="round"/>
<path d="M33.8252 41.75C34.2394 41.75 34.5752 41.4142 34.5752 41C34.5752 40.5858 34.2394 40.25 33.8252 40.25V41.75ZM22.179 40.2498C21.7648 40.2498 21.429 40.5856 21.429 40.9998C21.429 41.414 21.7648 41.7498 22.179 41.7498V40.2498ZM41.3781 14L41.3798 13.25H41.3781V14ZM42.25 19.1207C42.25 19.5349 42.5857 19.8707 43 19.8707C43.4142 19.8707 43.75 19.5349 43.75 19.1207H42.25ZM43.75 31.6897C43.75 31.2754 43.4142 30.9397 43 30.9397C42.5858 30.9397 42.25 31.2754 42.25 31.6897H43.75ZM41.3763 14.75C41.6231 14.7506 41.8504 14.8431 42.0104 14.9937L43.0383 13.9012C42.5904 13.4798 41.9927 13.2514 41.3798 13.25L41.3763 14.75ZM13.9892 14.9941C14.1501 14.8428 14.378 14.75 14.6232 14.75V13.25C14.0079 13.25 13.4099 13.48 12.9625 13.9005L13.9892 14.9941ZM13.75 15.5237C13.75 15.3355 13.8296 15.1437 13.9892 14.9941L12.9625 13.9005C12.5132 14.3218 12.25 14.904 12.25 15.5237H13.75ZM13.9899 36.1026C13.8303 35.9529 13.75 35.7605 13.75 35.5723H12.25C12.25 36.192 12.5138 36.7748 12.9632 37.1963L13.9899 36.1026ZM14.623 36.3461C14.3779 36.3461 14.1507 36.2538 13.9899 36.1026L12.9632 37.1963C13.4106 37.6167 14.0077 37.8461 14.623 37.8461V36.3461ZM42.0109 36.102C41.8501 36.2532 41.6225 36.3461 41.3779 36.3461V37.8461C41.9935 37.8461 42.5914 37.6154 43.0383 37.1949L42.0109 36.102ZM14.6232 14.75H41.3781V13.25H14.6232V14.75ZM22.179 41.7498L25.4473 41.7499V40.2499L22.179 40.2498V41.7498ZM25.4473 36.3461H14.623V37.8461H25.4473V36.3461ZM26.1973 40.9999V37.0961H24.6973V40.9999H26.1973ZM25.4473 41.7499H30.5496V40.2499H25.4473V41.7499ZM30.5496 41.7499L33.8252 41.75V40.25L30.5496 40.2499V41.7499ZM41.3779 36.3461H30.5496V37.8461H41.3779V36.3461ZM30.5496 36.3461H25.4473V37.8461H30.5496V36.3461ZM31.2996 40.9999V37.0961H29.7996V40.9999H31.2996ZM42.25 35.5724C42.25 35.7602 42.1704 35.9521 42.0109 36.102L43.0383 37.1949C43.4868 36.7737 43.75 36.1918 43.75 35.5724H42.25ZM42.0104 14.9937C42.1699 15.1434 42.25 15.3359 42.25 15.5238L43.75 15.5237C43.75 14.9043 43.4869 14.3224 43.0383 13.9012L42.0104 14.9937ZM43.75 19.1207V15.5237L42.25 15.5238V19.1207H43.75ZM13.75 19.1207V15.5237H12.25V19.1207H13.75ZM13.75 35.5723V31.6897H12.25V35.5723H13.75ZM13.75 31.6897V19.1207H12.25V31.6897H13.75ZM43.75 35.5724V31.6897H42.25V35.5724H43.75Z" fill="url(#paint1_linear_23_457)"/>
<path d="M45.08 20.9297L38.53 28.8796C38.4884 28.9298 38.4555 28.9862 38.4338 29.0441L37.3889 31.6727C37.3438 31.7925 37.3507 31.908 37.4074 31.983C37.4641 32.058 37.5637 32.0836 37.675 32.0514C37.7123 32.0409 37.7498 32.024 37.7863 32.0013L40.1639 30.4755C40.2165 30.4432 40.2652 30.4002 40.3067 30.3499L46.857 22.4003M45.08 20.9297L46.857 22.4003M45.08 20.9297L46.5332 19.1658C46.6933 18.9714 46.9803 18.944 47.1742 19.1045L48.2491 19.9943C48.4429 20.1547 48.4703 20.4423 48.3102 20.6366L46.857 22.4003" stroke="url(#paint2_linear_23_457)" stroke-width="1.5"/>
</g>
<defs>
<linearGradient id="paint0_linear_23_457" x1="13.6693" y1="16.9391" x2="20.2693" y2="32.2082" gradientUnits="userSpaceOnUse">
<stop stop-color="#7381FD"/>
<stop offset="1" stop-color="#76C7FF"/>
</linearGradient>
<linearGradient id="paint1_linear_23_457" x1="8.34329" y1="9.60762" x2="50.4726" y2="35.3523" gradientUnits="userSpaceOnUse">
<stop stop-color="#7381FD"/>
<stop offset="1" stop-color="#76C7FF"/>
</linearGradient>
<linearGradient id="paint2_linear_23_457" x1="35.9883" y1="17.3302" x2="52.6487" y2="25.1245" gradientUnits="userSpaceOnUse">
<stop stop-color="#7381FD"/>
<stop offset="1" stop-color="#76C7FF"/>
</linearGradient>
<clipPath id="clip0_23_457">
<rect width="55" height="55" fill="white"/>
</clipPath>
</defs>
</svg>
