<svg width="55" height="55" viewBox="0 0 55 55" fill="none" xmlns="http://www.w3.org/2000/svg">
<g clip-path="url(#clip0_23_599)">
<path d="M0 15C0 6.71573 6.71573 0 15 0H40C48.2843 0 55 6.71573 55 15V40C55 48.2843 48.2843 55 40 55H15C6.71573 55 0 48.2843 0 40V15Z" fill="#F6FAFD"/>
<path d="M34.5439 28.3744L33.9507 28.8333C33.9548 28.8386 33.9589 28.8437 33.9631 28.8489L34.5439 28.3744ZM35.2543 31.3167L35.9801 31.5058C35.9834 31.493 35.9864 31.4801 35.9891 31.4671L35.2543 31.3167ZM33.2926 38.8456L32.5668 38.6565C32.5644 38.6658 32.5622 38.6752 32.5601 38.6846L33.2926 38.8456ZM22.8994 41.5399L23.1392 40.8292C23.1182 40.8222 23.097 40.816 23.0755 40.8108L22.8994 41.5399ZM22.6225 20.0917L23.2991 20.4153L23.301 20.4113L22.6225 20.0917ZM26.1161 19.5602L26.6916 19.0793C26.6845 19.0707 26.6771 19.0623 26.6696 19.0541L26.1161 19.5602ZM26.6403 21.2199L25.8953 21.1331L25.8942 21.1441L26.6403 21.2199ZM26.0492 27.0456L25.3031 26.9699C25.2818 27.1794 25.3496 27.3881 25.4898 27.5452L26.0492 27.0456ZM26.051 27.0476L25.4916 27.5472C25.6339 27.7065 25.8374 27.7976 26.051 27.7976V27.0476ZM17.9174 40.3389L17.4502 39.7522C17.2715 39.8945 17.1674 40.1105 17.1674 40.3389H17.9174ZM18.3457 29.0319V29.7819C18.4879 29.7819 18.6271 29.7415 18.7471 29.6655L18.3457 29.0319ZM18.3474 29.0309L18.7488 29.6644C18.8678 29.589 18.9632 29.4816 19.024 29.3545L18.3474 29.0309ZM35.137 27.9154C34.3622 26.914 33.1534 26.2976 31.8853 26.2976V27.7976C32.6714 27.7976 33.4488 28.1847 33.9507 28.8333L35.137 27.9154ZM35.9891 31.4671C36.2457 30.2133 35.9458 28.9049 35.1247 27.8998L33.9631 28.8489C34.4891 29.4927 34.6889 30.3389 34.5196 31.1664L35.9891 31.4671ZM29.8502 42.359C31.8718 42.359 33.595 40.9632 34.0251 39.0067L32.5601 38.6846C32.2809 39.9547 31.166 40.859 29.8502 40.859V42.359ZM23.563 42.359H29.8502V40.859H23.563V42.359ZM22.6596 42.2505C23 42.3654 23.3695 42.359 23.563 42.359V40.859C23.3144 40.859 23.2038 40.851 23.1392 40.8292L22.6596 42.2505ZM17.2758 42.6893C18.0505 42.6893 18.6674 42.0538 18.6674 41.2907H17.1674C17.1674 41.2629 17.1792 41.2379 17.1957 41.2213C17.2122 41.2046 17.2407 41.1893 17.2758 41.1893V42.6893ZM12.25 41.2907C12.25 42.0538 12.867 42.6893 13.6416 42.6893V41.1893C13.6767 41.1893 13.7052 41.2046 13.7217 41.2213C13.7382 41.2379 13.75 41.2629 13.75 41.2907H12.25ZM12.25 29.6805V41.2907H13.75V29.6805H12.25ZM13.6416 28.2819C12.8669 28.2819 12.25 28.9175 12.25 29.6805H13.75C13.75 29.7083 13.7382 29.7333 13.7217 29.7499C13.7052 29.7667 13.6767 29.7819 13.6416 29.7819V28.2819ZM24.5446 18.1045C23.444 18.1045 22.4141 18.7742 21.944 19.7721L23.301 20.4113C23.5301 19.9249 24.0402 19.6045 24.5446 19.6045V18.1045ZM26.6696 19.0541C26.1113 18.4433 25.3537 18.1045 24.5446 18.1045V19.6045C24.9213 19.6045 25.2807 19.7579 25.5625 20.0662L26.6696 19.0541ZM27.3853 21.3066C27.4815 20.4804 27.1927 19.679 26.6916 19.0793L25.5405 20.0411C25.811 20.3648 25.9382 20.7647 25.8953 21.1331L27.3853 21.3066ZM26.7954 27.1213L27.3865 21.2956L25.8942 21.1441L25.3031 26.9699L26.7954 27.1213ZM31.8853 26.2976H26.051V27.7976H31.8853V26.2976ZM34.0184 39.0347L35.9801 31.5058L34.5286 31.1276L32.5668 38.6565L34.0184 39.0347ZM17.7435 41.0662L22.7233 42.2689L23.0755 40.8108L18.0957 39.6081L17.7435 41.0662ZM18.6674 41.2907V40.3389H17.1674V41.2907H18.6674ZM21.9459 19.7681L17.6708 28.7073L19.024 29.3545L23.2991 20.4153L21.9459 19.7681ZM25.4898 27.5452L25.4916 27.5472L26.6104 26.5481L26.6086 26.546L25.4898 27.5452ZM17.4524 39.7504L17.4502 39.7522L18.3846 40.9256L18.3868 40.9239L17.4524 39.7504ZM18.7471 29.6655L18.7488 29.6644L17.9459 28.3974L17.9443 28.3984L18.7471 29.6655ZM13.6416 42.6893H16.6322V41.1893H13.6416V42.6893ZM16.6322 42.6893H17.2758V41.1893H16.6322V42.6893ZM16.634 28.2819H13.6416V29.7819H16.634V28.2819ZM18.3457 28.2819H17.9196V29.7819H18.3457V28.2819ZM17.9196 28.2819H16.634V29.7819H17.9196V28.2819ZM18.6696 40.3371V29.0319H17.1696V40.3371H18.6696Z" fill="url(#paint0_linear_23_599)"/>
<path d="M43.3368 14.7594L39.0943 14.1571L37.1935 10.3911C36.9363 9.86964 36.064 9.86964 35.8068 10.3911L33.906 14.1571L29.6634 14.7594C29.3694 14.8042 29.1308 15.002 29.0389 15.2718C28.947 15.5415 29.0204 15.847 29.2318 16.0449L32.2987 18.9751L31.5731 23.1099C31.5274 23.3977 31.6465 23.6851 31.8852 23.8469C32.1239 24.0176 32.4452 24.0357 32.7027 23.9007L36.5048 21.9595L40.2973 23.9101C40.4076 23.9729 40.536 24 40.6555 24C40.8116 24 40.9768 23.9552 41.1148 23.8563C41.3535 23.6855 41.473 23.3977 41.4269 23.1193L40.7013 18.9845L43.7682 16.0543C43.9795 15.8564 44.053 15.5509 43.9611 15.2812C43.8692 15.0025 43.6304 14.7955 43.3368 14.7594ZM39.3237 18.1753C39.14 18.3461 39.0574 18.5978 39.1035 18.8494L39.627 21.8606L36.8629 20.4404C36.7526 20.3776 36.6242 20.3505 36.5047 20.3505C36.3852 20.3505 36.2568 20.3776 36.1465 20.4404L33.3824 21.8606L33.9151 18.8494C33.9608 18.6068 33.8782 18.3551 33.6949 18.1753L31.4543 16.0358L34.5489 15.5953C34.806 15.5592 35.0174 15.4065 35.1273 15.1819L36.5047 12.4405L37.8914 15.1819C38.0017 15.4065 38.2219 15.5596 38.4698 15.5953L41.5643 16.0358L39.3237 18.1753Z" fill="url(#paint1_linear_23_599)"/>
</g>
<defs>
<linearGradient id="paint0_linear_23_599" x1="9.29475" y1="14.9625" x2="43.2995" y2="33.1848" gradientUnits="userSpaceOnUse">
<stop stop-color="#7381FD"/>
<stop offset="1" stop-color="#76C7FF"/>
</linearGradient>
<linearGradient id="paint1_linear_23_599" x1="27.1397" y1="8.21076" x2="47.5356" y2="20.293" gradientUnits="userSpaceOnUse">
<stop stop-color="#7381FD"/>
<stop offset="1" stop-color="#76C7FF"/>
</linearGradient>
<clipPath id="clip0_23_599">
<rect width="55" height="55" fill="white"/>
</clipPath>
</defs>
</svg>
