<svg width="55" height="55" viewBox="0 0 55 55" fill="none" xmlns="http://www.w3.org/2000/svg">
<g clip-path="url(#clip0_23_207)">
<path d="M0 15C0 6.71573 6.71573 0 15 0H40C48.2843 0 55 6.71573 55 15V40C55 48.2843 48.2843 55 40 55H15C6.71573 55 0 48.2843 0 40V15Z" fill="#F6FAFD"/>
<path d="M18.6102 11L18.607 11.75H18.6102V11ZM17.9677 11.6663L17.2177 11.6634V11.6663H17.9677ZM17.9677 28.7068H17.2177V28.7097L17.9677 28.7068ZM18.6102 29.3731V28.6231H18.607L18.6102 29.3731ZM36.2108 29.3731V30.1231H36.214L36.2108 29.3731ZM36.8482 28.7068L37.5982 28.7097V28.7068H36.8482ZM36.8482 11.6663H37.5982V11.6634L36.8482 11.6663ZM36.2108 11L36.214 10.25H36.2108V11ZM19.648 40.2573C19.648 41.9185 18.3194 43.25 16.699 43.25V44.75C19.1644 44.75 21.148 42.7302 21.148 40.2573H19.648ZM16.699 43.25C15.0786 43.25 13.75 41.9185 13.75 40.2573H12.25C12.25 42.7302 14.2336 44.75 16.699 44.75V43.25ZM13.75 40.2573C13.75 38.5962 15.0786 37.2647 16.699 37.2647V35.7647C14.2336 35.7647 12.25 37.7844 12.25 40.2573H13.75ZM16.699 37.2647C18.3194 37.2647 19.648 38.5962 19.648 40.2573H21.148C21.148 37.7844 19.1644 35.7647 16.699 35.7647V37.2647ZM30.46 40.2573C30.46 41.9185 29.1315 43.25 27.5111 43.25V44.75C29.9764 44.75 31.96 42.7302 31.96 40.2573H30.46ZM27.5111 43.25C25.8906 43.25 24.5621 41.9185 24.5621 40.2573H23.0621C23.0621 42.7302 25.0457 44.75 27.5111 44.75V43.25ZM24.5621 40.2573C24.5621 38.5962 25.8906 37.2647 27.5111 37.2647V35.7647C25.0457 35.7647 23.0621 37.7844 23.0621 40.2573H24.5621ZM27.5111 37.2647C29.1315 37.2647 30.46 38.5962 30.46 40.2573H31.96C31.96 37.7844 29.9764 35.7647 27.5111 35.7647V37.2647ZM41.25 40.2573C41.25 41.9185 39.9214 43.25 38.301 43.25V44.75C40.7664 44.75 42.75 42.7303 42.75 40.2573H41.25ZM38.301 43.25C36.6806 43.25 35.352 41.9185 35.352 40.2573H33.852C33.852 42.7303 35.8356 44.75 38.301 44.75V43.25ZM35.352 40.2573C35.352 38.5962 36.6806 37.2647 38.301 37.2647V35.7647C35.8356 35.7647 33.852 37.7844 33.852 40.2573H35.352ZM38.301 37.2647C39.9214 37.2647 41.25 38.5962 41.25 40.2573H42.75C42.75 37.7844 40.7664 35.7647 38.301 35.7647V37.2647ZM26.7611 29.3731V32.9081H28.2611V29.3731H26.7611ZM26.7611 32.9081V36.5147H28.2611V32.9081H26.7611ZM27.5111 33.6581H37.801V32.1581H27.5111V33.6581ZM37.551 33.4081V36.5147H39.051V33.4081H37.551ZM27.5111 32.1581H17.199V33.6581H27.5111V32.1581ZM15.949 33.4081V36.5147H17.449V33.4081H15.949ZM18.6133 10.25C17.8145 10.2466 17.2206 10.9115 17.2177 11.6634L18.7177 11.6692C18.7177 11.6807 18.7126 11.6984 18.6969 11.7146C18.6806 11.7315 18.6485 11.7502 18.607 11.75L18.6133 10.25ZM17.2177 11.6663V28.7068H18.7177V11.6663H17.2177ZM17.2177 28.7097C17.2206 29.4616 17.8145 30.1265 18.6133 30.1231L18.607 28.6231C18.6485 28.6229 18.6806 28.6416 18.6969 28.6585C18.7126 28.6748 18.7177 28.6924 18.7177 28.7039L17.2177 28.7097ZM18.6102 30.1231H36.2108V28.6231H18.6102V30.1231ZM36.214 30.1231C37.0079 30.1197 37.5952 29.4575 37.5982 28.7097L36.0982 28.7039C36.0982 28.6925 36.1032 28.6749 36.1187 28.6588C36.1348 28.642 36.1665 28.6233 36.2077 28.6231L36.214 30.1231ZM37.5982 28.7068V11.6663H36.0982V28.7068H37.5982ZM37.5982 11.6634C37.5952 10.9156 37.0079 10.2534 36.214 10.25L36.2077 11.75C36.1665 11.7498 36.1348 11.7311 36.1187 11.7144C36.1032 11.6982 36.0982 11.6807 36.0982 11.6692L37.5982 11.6634ZM25.1221 10.25H18.6102V11.75H25.1221V10.25ZM24.3721 11V16.8167H25.8721V11H24.3721ZM26.9174 14.6498L24.8057 16.297L25.7283 17.4798L27.84 15.8326L26.9174 14.6498ZM27.0216 15.828L29.0807 17.4714L30.0164 16.299L27.9573 14.6556L27.0216 15.828ZM36.2108 10.25H29.6943V11.75H36.2108V10.25ZM29.6943 10.25H25.1221V11.75H29.6943V10.25ZM30.4443 16.814V11H28.9443V16.814H30.4443ZM27.84 15.8326C27.599 16.0205 27.2604 16.0186 27.0216 15.828L27.9573 14.6556C27.6537 14.4133 27.2237 14.4109 26.9174 14.6498L27.84 15.8326ZM29.0807 17.4714C29.6407 17.9182 30.4443 17.5058 30.4443 16.814H28.9443C28.9443 16.2739 29.5743 15.9463 30.0164 16.299L29.0807 17.4714ZM24.3721 16.8167C24.3721 17.5043 25.167 17.9176 25.7283 17.4798L24.8057 16.297C25.2488 15.9514 25.8721 16.2797 25.8721 16.8167H24.3721ZM17.199 32.1581C16.5086 32.1581 15.949 32.7177 15.949 33.4081H17.449C17.449 33.5461 17.3371 33.6581 17.199 33.6581V32.1581ZM37.801 33.6581C37.6629 33.6581 37.551 33.5462 37.551 33.4081H39.051C39.051 32.7177 38.4914 32.1581 37.801 32.1581V33.6581Z" fill="url(#paint0_linear_23_207)"/>
</g>
<defs>
<linearGradient id="paint0_linear_23_207" x1="8.46731" y1="5.8408" x2="53.6882" y2="27.9441" gradientUnits="userSpaceOnUse">
<stop stop-color="#7381FD"/>
<stop offset="1" stop-color="#76C7FF"/>
</linearGradient>
<clipPath id="clip0_23_207">
<rect width="55" height="55" fill="white"/>
</clipPath>
</defs>
</svg>
