<svg width="55" height="55" viewBox="0 0 55 55" fill="none" xmlns="http://www.w3.org/2000/svg">
<g clip-path="url(#clip0_23_585)">
<path d="M0 15C0 6.71573 6.71573 0 15 0H40C48.2843 0 55 6.71573 55 15V40C55 48.2843 48.2843 55 40 55H15C6.71573 55 0 48.2843 0 40V15Z" fill="#F6FAFD"/>
<path d="M19.0001 23.8657L18.3501 23.8622V23.8657H19.0001ZM19.0001 26.068H18.3501V26.0699L19.0001 26.068ZM20.5692 27.6316L20.5673 28.2816H20.5692V27.6316ZM26.4835 36.9992H25.8335C25.8335 37.1721 25.9024 37.3379 26.0249 37.4598L26.4835 36.9992ZM28.4467 36.9992L28.9055 37.4597C29.0279 37.3377 29.0967 37.172 29.0967 36.9992H28.4467ZM20.9525 20.4154L21.6025 20.424V20.4154H20.9525ZM20.9525 23.2952H21.6025C21.6025 23.2891 21.6025 23.2829 21.6023 23.2768L20.9525 23.2952ZM35.1571 23.1559V22.5059C34.9853 22.5059 34.8204 22.574 34.6986 22.6952L35.1571 23.1559ZM35.1564 22.3243H34.5064C34.5064 22.4971 34.5752 22.6628 34.6977 22.7848L35.1564 22.3243ZM21.2202 22.7029C20.8933 22.5543 20.508 22.6989 20.3595 23.0257C20.211 23.3525 20.3555 23.7379 20.6824 23.8864L21.2202 22.7029ZM27.9872 36.5395C27.7329 36.7929 27.7321 37.2045 27.9855 37.4588C28.2388 37.7131 28.6504 37.7138 28.9047 37.4605L27.9872 36.5395ZM26.0257 37.4606C26.2801 37.7139 26.6916 37.713 26.9449 37.4586C27.1982 37.2042 27.1973 36.7927 26.9429 36.5394L26.0257 37.4606ZM27.4585 27.6316H28.1085C28.1085 27.2726 27.8175 26.9816 27.4585 26.9816V27.6316ZM34.5319 28L34.5337 28.65H34.5374L34.5319 28ZM34.7816 28.114L35.2985 27.7199C35.2878 27.7059 35.2765 27.6922 35.2647 27.6791L34.7816 28.114ZM35.5605 29.1356L35.0436 29.5297C35.0539 29.5432 35.0648 29.5564 35.0762 29.5691L35.5605 29.1356ZM33.4397 29.1356L33.9242 29.5688C33.9297 29.5627 33.9351 29.5565 33.9403 29.5502L33.4397 29.1356ZM34.2858 28.1141L33.8026 27.6793C33.7967 27.6859 33.7909 27.6926 33.7852 27.6995L34.2858 28.1141ZM19.6501 23.8692C19.6511 23.6746 19.7149 23.485 19.8324 23.3283L18.7923 22.5484C18.508 22.9275 18.3527 23.3879 18.3501 23.8622L19.6501 23.8692ZM19.6501 26.068V23.8657H18.3501V26.068H19.6501ZM19.9198 26.7121C19.7475 26.5402 19.6508 26.308 19.6501 26.0661L18.3501 26.0699C18.3518 26.6567 18.5864 27.2182 19.0018 27.6325L19.9198 26.7121ZM20.571 26.9816C20.3264 26.9809 20.0927 26.8841 19.9198 26.7121L19.0018 27.6325C19.4173 28.0461 19.9802 28.2799 20.5673 28.2816L20.571 26.9816ZM27.1335 29.7473C27.1335 29.8792 27.0268 29.9819 26.9005 29.9819V28.6819C26.3139 28.6819 25.8335 29.1562 25.8335 29.7473H27.1335ZM27.1335 36.9992V29.7473H25.8335V36.9992H27.1335ZM27.7967 29.77V36.9992H29.0967V29.77H27.7967ZM27.8659 29.9366C27.8218 29.8926 27.7967 29.8324 27.7967 29.77H29.0967C29.0967 29.4865 28.984 29.2155 28.7835 29.0157L27.8659 29.9366ZM28.0165 29.9819C27.9464 29.9819 27.9049 29.9625 27.8955 29.9579C27.8837 29.9521 27.8755 29.9462 27.8659 29.9366L28.7835 29.0157C28.6307 28.8635 28.3559 28.6819 28.0165 28.6819V29.9819ZM21.5334 25.0796C21.5777 25.1237 21.6025 25.1837 21.6025 25.2462H20.3025C20.3025 25.5291 20.4151 25.8006 20.6158 26.0005L21.5334 25.0796ZM21.3695 25.0119C21.4312 25.0119 21.49 25.0363 21.5334 25.0796L20.6158 26.0005C20.8156 26.1996 21.0867 26.3119 21.3695 26.3119V25.0119ZM34.7394 25.0119H21.3695V26.3119H34.7394V25.0119ZM34.5756 25.0796C34.6189 25.0364 34.6777 25.0119 34.7394 25.0119V26.3119C35.0223 26.3119 35.2933 26.1996 35.4931 26.0005L34.5756 25.0796ZM34.5064 25.2462C34.5064 25.1838 34.5312 25.1238 34.5756 25.0796L35.4931 26.0005C35.6938 25.8006 35.8064 25.5291 35.8064 25.2462H34.5064ZM35.3501 22.7405C35.3501 22.6083 35.4571 22.5059 35.5828 22.5059V23.8059C36.1695 23.8059 36.6501 23.3318 36.6501 22.7405H35.3501ZM35.5828 22.9751C35.4571 22.9751 35.3501 22.8727 35.3501 22.7405H36.6501C36.6501 22.1492 36.1695 21.6751 35.5828 21.6751V22.9751ZM34.5755 20.582C34.5313 20.5379 34.5064 20.4779 34.5064 20.4154H35.8064C35.8064 20.1325 35.6938 19.8611 35.4931 19.6612L34.5755 20.582ZM34.7394 20.65C34.6789 20.65 34.6198 20.6261 34.5755 20.582L35.4931 19.6612C35.2925 19.4614 35.0212 19.35 34.7394 19.35V20.65ZM21.3695 20.65H34.7394V19.35H21.3695V20.65ZM21.6025 20.4154C21.6025 20.5471 21.4958 20.65 21.3695 20.65V19.35C20.7823 19.35 20.3025 19.8246 20.3025 20.4154H21.6025ZM19.8324 23.3283C19.9481 23.174 20.0414 23.1282 20.1637 23.0984C20.3551 23.0519 20.5476 23.0564 20.9729 23.026L20.8802 21.7293C20.5933 21.7498 20.189 21.7544 19.8564 21.8353C19.4548 21.933 19.0971 22.142 18.7923 22.5484L19.8324 23.3283ZM21.6025 25.2462V23.2952H20.3025V25.2462H21.6025ZM34.5064 23.1561V25.2462H35.8064V23.1567L34.5064 23.1561ZM35.5828 22.5059H35.1571V23.8059H35.5828V22.5059ZM35.1571 22.9751H35.5828V21.6751H35.1571V22.9751ZM34.5064 20.4154V22.3243H35.8064V20.4154H34.5064ZM21.5765 22.3863L21.6025 20.424L20.3026 20.4068L20.2766 22.3691L21.5765 22.3863ZM20.6824 23.8864L20.6836 23.887L21.2214 22.7034L21.2202 22.7029L20.6824 23.8864ZM35.6158 21.8645L35.6151 21.8637L34.6977 22.7848L34.6984 22.7856L35.6158 21.8645ZM28.9047 37.4605L28.9055 37.4597L27.9872 36.5395L28.9047 37.4605ZM26.0249 37.4598L26.0257 37.4606L26.9429 36.5394L26.9422 36.5386L26.0249 37.4598ZM35.6149 23.6174L35.6157 23.6166L34.6986 22.6952L34.6978 22.696L35.6149 23.6174ZM34.5064 22.3243V23.1561L35.8064 23.1567L35.8071 22.3257L34.5064 22.3243ZM20.2768 22.3961L20.3028 23.3136L21.6023 23.2768L21.5763 22.3593L20.2768 22.3961ZM28.0165 28.6819H27.4585V29.9819H28.0165V28.6819ZM27.4585 28.6819H26.9005V29.9819H27.4585V28.6819ZM28.1085 29.3319V27.6316H26.8085V29.3319H28.1085ZM27.4585 26.9816H20.5692V28.2816H27.4585V26.9816ZM35.2647 27.6791C35.0825 27.4767 34.8186 27.3476 34.5264 27.35L34.5374 28.65C34.432 28.6509 34.348 28.6038 34.2986 28.5489L35.2647 27.6791ZM36.6501 30.3222C36.6501 29.7267 36.4393 29.1428 36.0448 28.7021L35.0762 29.5691C35.2447 29.7574 35.3501 30.0273 35.3501 30.3222H36.6501ZM36.0453 31.9423C36.4397 31.5013 36.6501 30.9175 36.6501 30.3222H35.3501C35.3501 30.6173 35.2449 30.8872 35.0762 31.0758L36.0453 31.9423ZM34.4997 32.65C35.0949 32.6504 35.6491 32.3854 36.0453 31.9423L35.0762 31.0758C34.9098 31.2619 34.7007 31.3501 34.5006 31.35L34.4997 32.65ZM32.9547 31.9421C33.3509 32.3851 33.9044 32.6504 34.4997 32.65L34.5006 31.35C34.3003 31.3501 34.0904 31.2619 33.924 31.0758L32.9547 31.9421ZM32.3501 30.3222C32.3501 30.9177 32.5609 31.5013 32.9547 31.9421L33.924 31.0758C33.7553 30.887 33.6501 30.617 33.6501 30.3222H32.3501ZM32.9552 28.7023C32.5613 29.1428 32.3501 29.7264 32.3501 30.3222H33.6501C33.6501 30.0276 33.7556 29.7575 33.9242 29.5688L32.9552 28.7023ZM33.7852 27.6995L32.9391 28.7209L33.9403 29.5502L34.7864 28.5288L33.7852 27.6995ZM34.53 27.35C34.2415 27.3508 33.9821 27.4799 33.8026 27.6793L34.769 28.5489C34.7205 28.6028 34.6382 28.6497 34.5337 28.65L34.53 27.35ZM36.0774 28.7415L35.2985 27.7199L34.2647 28.5081L35.0436 29.5297L36.0774 28.7415Z" fill="url(#paint0_linear_23_585)"/>
<path d="M33.9077 42.75C34.3219 42.75 34.6577 42.4142 34.6577 42C34.6577 41.5858 34.322 41.25 33.9078 41.25L33.9077 42.75ZM21.0969 41.2498C20.6827 41.2498 20.3469 41.5856 20.3469 41.9998C20.3469 42.414 20.6827 42.7498 21.0969 42.7498V41.2498ZM42.2159 13L42.2176 12.25H42.2159V13ZM42.2142 13.75C42.5093 13.7507 42.7799 13.8588 42.9694 14.0329L43.9842 12.9283C43.5051 12.4881 42.8683 12.2515 42.2176 12.25L42.2142 13.75ZM12.0302 14.0333C12.2206 13.8586 12.492 13.75 12.7855 13.75V12.25C12.1325 12.25 11.4954 12.4882 11.0167 12.9276L12.0302 14.0333ZM11.75 14.6365C11.75 14.4247 11.8417 14.2059 12.0302 14.0333L11.0167 12.9276C10.5354 13.3683 10.25 13.9807 10.25 14.6365H11.75ZM12.031 36.7743C11.8424 36.6017 11.75 36.3821 11.75 36.1702H10.25C10.25 36.8261 10.5361 37.4393 11.0174 37.88L12.031 36.7743ZM12.7853 37.0569C12.4918 37.0569 12.2213 36.949 12.031 36.7743L11.0174 37.88C11.4961 38.3192 12.1323 38.5569 12.7853 38.5569V37.0569ZM42.9699 36.7736C42.7797 36.9483 42.5086 37.0569 42.2157 37.0569V38.5569C42.8691 38.5569 43.5061 38.318 43.9842 37.8786L42.9699 36.7736ZM12.7855 13.75H42.2159V12.25H12.7855V13.75ZM21.0969 42.7498L24.692 42.7499L24.6921 41.2499L21.0969 41.2498V42.7498ZM24.692 37.0569H12.7853V38.5569H24.692V37.0569ZM25.442 41.9999V37.8069H23.942V41.9999H25.442ZM24.692 42.7499H30.3046V41.2499H24.6921L24.692 42.7499ZM30.3046 42.7499L33.9077 42.75L33.9078 41.25L30.3046 41.2499V42.7499ZM42.2157 37.0569H30.3046V38.5569H42.2157V37.0569ZM30.3046 37.0569H24.692V38.5569H30.3046V37.0569ZM31.0546 41.9999V37.8069H29.5546V41.9999H31.0546ZM43.25 36.1703C43.25 36.3818 43.1584 36.6007 42.9699 36.7736L43.9842 37.8786C44.4646 37.4381 44.75 36.8259 44.75 36.1703H43.25ZM42.9694 14.0329C43.1579 14.2056 43.25 14.4251 43.25 14.6366H44.75C44.75 13.981 44.4646 13.3688 43.9842 12.9283L42.9694 14.0329ZM44.75 18.5V14.6366H43.25V18.5H44.75ZM11.75 18.5V14.6365H10.25V18.5H11.75ZM11.75 36.1702V32H10.25V36.1702H11.75ZM11.75 32V18.5H10.25V32H11.75ZM44.75 36.1703V32H43.25V36.1703H44.75ZM44.75 32V18.5H43.25V32H44.75Z" fill="url(#paint1_linear_23_585)"/>
</g>
<defs>
<linearGradient id="paint0_linear_23_585" x1="16.0805" y1="17.0112" x2="41.8254" y2="31.2453" gradientUnits="userSpaceOnUse">
<stop stop-color="#7381FD"/>
<stop offset="1" stop-color="#76C7FF"/>
</linearGradient>
<linearGradient id="paint1_linear_23_585" x1="5.97122" y1="8.35201" x2="51.5259" y2="36.8419" gradientUnits="userSpaceOnUse">
<stop stop-color="#7381FD"/>
<stop offset="1" stop-color="#76C7FF"/>
</linearGradient>
<clipPath id="clip0_23_585">
<rect width="55" height="55" fill="white"/>
</clipPath>
</defs>
</svg>
