<svg width="55" height="55" viewBox="0 0 55 55" fill="none" xmlns="http://www.w3.org/2000/svg">
<g clip-path="url(#clip0_23_393)">
<path d="M0 15C0 6.71573 6.71573 0 15 0H40C48.2843 0 55 6.71573 55 15V40C55 48.2843 48.2843 55 40 55H15C6.71573 55 0 48.2843 0 40V15Z" fill="#F6FAFD"/>
<path d="M41.25 26.7576C41.25 27.1718 41.5858 27.5076 42 27.5076C42.4142 27.5076 42.75 27.1718 42.75 26.7576H41.25ZM29.3913 41.75C29.8055 41.75 30.1413 41.4142 30.1413 41C30.1413 40.5858 29.8055 40.25 29.3913 40.25V41.75ZM23.7174 25.4606H22.9674V25.4632L23.7174 25.4606ZM24.7261 25.9749L25.1797 26.5721L25.1817 26.5706L24.7261 25.9749ZM27.5 23.8535L27.9556 23.2577C27.6867 23.052 27.3133 23.052 27.0444 23.2577L27.5 23.8535ZM30.6522 26.1035L30.6652 25.3535H30.6522V26.1035ZM30.9359 26.0329L30.5927 25.366C30.5864 25.3692 30.5801 25.3726 30.5739 25.376L30.9359 26.0329ZM31.2826 25.4606L32.0326 25.4632V25.4606H31.2826ZM39.1803 32.0281L38.963 32.746L38.9693 32.7478L39.1803 32.0281ZM35.1 37.7996L34.4647 37.401C34.4487 37.4265 34.4342 37.453 34.4214 37.4802L35.1 37.7996ZM35.4288 38.6149L35.298 39.3534C35.3412 39.361 35.385 39.3649 35.4288 39.3649V38.6149ZM41.4579 38.6149V39.3649C41.5017 39.3649 41.5455 39.361 41.5887 39.3534L41.4579 38.6149ZM41.7868 37.7996L42.4654 37.4803C42.4529 37.4536 42.4388 37.4277 42.4232 37.4027L41.7868 37.7996ZM40.0512 38.7604C40.0512 38.3462 39.7154 38.0104 39.3012 38.0104C38.8869 38.0104 38.5512 38.3462 38.5512 38.7604H40.0512ZM38.2705 38.7604C38.2705 38.3462 37.9347 38.0104 37.5205 38.0104C37.1063 38.0104 36.7705 38.3462 36.7705 38.7604H38.2705ZM42.75 26.7576V14.6429H41.25V26.7576H42.75ZM42.75 14.6429C42.75 14.2782 42.6081 13.9255 42.3508 13.6631L41.2799 14.7134C41.259 14.6921 41.25 14.6665 41.25 14.6429H42.75ZM42.3508 13.6631C42.0931 13.4003 41.7403 13.25 41.3696 13.25V14.75C41.3331 14.75 41.3012 14.7352 41.2799 14.7134L42.3508 13.6631ZM13.6304 13.25C12.8543 13.25 12.25 13.8875 12.25 14.6429H13.75C13.75 14.6882 13.7102 14.75 13.6304 14.75V13.25ZM12.25 14.6429V40.3571H13.75V14.6429H12.25ZM12.25 40.3571C12.25 40.7218 12.3919 41.0745 12.6492 41.3369L13.7201 40.2866C13.741 40.3079 13.75 40.3335 13.75 40.3571H12.25ZM12.6492 41.3369C12.9069 41.5997 13.2597 41.75 13.6304 41.75V40.25C13.6669 40.25 13.6988 40.2649 13.7201 40.2866L12.6492 41.3369ZM13.6304 41.75H29.3913V40.25H13.6304V41.75ZM22.9674 25.4632C22.9692 25.9794 23.255 26.46 23.721 26.6997L24.408 25.3663C24.4501 25.3879 24.4673 25.4256 24.4674 25.458L22.9674 25.4632ZM23.721 26.6997C24.1922 26.9428 24.7581 26.8924 25.1797 26.5721L24.2725 25.3776C24.3102 25.349 24.364 25.3436 24.408 25.3663L23.721 26.6997ZM25.1817 26.5706L27.9556 24.4492L27.0444 23.2577L24.2705 25.3791L25.1817 26.5706ZM27.0444 24.4492L29.8183 26.5706L30.7295 25.3791L27.9556 23.2577L27.0444 24.4492ZM29.8183 26.5706C30.0573 26.7534 30.3497 26.8535 30.6522 26.8535V25.3535C30.6816 25.3535 30.7089 25.3634 30.7295 25.3791L29.8183 26.5706ZM30.6391 26.8533C30.8702 26.8574 31.097 26.8004 31.2979 26.6897L30.5739 25.376C30.6008 25.3612 30.6323 25.3529 30.6652 25.3535L30.6391 26.8533ZM31.279 26.6997C31.745 26.46 32.0308 25.9794 32.0326 25.4632L30.5326 25.458C30.5327 25.4256 30.5506 25.3876 30.5927 25.366L31.279 26.6997ZM23.7174 13.25H13.6304V14.75H23.7174V13.25ZM41.3696 13.25H31.2826V14.75H41.3696V13.25ZM31.2826 13.25H23.7174V14.75H31.2826V13.25ZM22.9674 14V25.4606H24.4674V14H22.9674ZM32.0326 25.4606V14H30.5326V25.4606H32.0326ZM41.8912 35.1338C41.8912 33.1045 40.8165 31.7261 39.3912 31.3084L38.9693 32.7478C39.6633 32.9512 40.3912 33.6691 40.3912 35.1338H41.8912ZM39.1803 32.0281C39.3975 31.3102 39.3975 31.3102 39.3974 31.3102C39.3973 31.3101 39.3975 31.3103 39.3974 31.3102C39.3971 31.3102 39.3963 31.3099 39.396 31.3098C39.3954 31.3096 39.3947 31.3094 39.3939 31.3092C39.3923 31.3087 39.3902 31.3081 39.3878 31.3073C39.3829 31.3059 39.3763 31.304 39.3684 31.3017C39.3524 31.2971 39.3304 31.2909 39.3035 31.2837C39.25 31.2693 39.1754 31.2504 39.0888 31.2314C38.9277 31.1962 38.6775 31.1501 38.4348 31.1516L38.4443 32.6516C38.5178 32.6511 38.638 32.6683 38.7682 32.6968C38.8272 32.7097 38.8785 32.7227 38.9145 32.7324C38.9323 32.7372 38.946 32.741 38.9545 32.7435C38.9587 32.7447 38.9615 32.7455 38.963 32.746C38.9637 32.7462 38.9642 32.7463 38.9642 32.7463C38.9641 32.7463 38.9644 32.7463 38.9642 32.7463C38.9642 32.7463 38.9637 32.7462 38.963 32.746C38.9629 32.746 38.963 32.7459 39.1803 32.0281ZM38.4348 31.1516C38.1985 31.1531 37.9566 31.1986 37.7995 31.2334C37.7155 31.2521 37.6432 31.2706 37.5914 31.2847C37.5654 31.2917 37.5441 31.2977 37.5286 31.3022C37.5209 31.3044 37.5146 31.3063 37.5098 31.3077C37.5074 31.3084 37.5054 31.309 37.5038 31.3095C37.503 31.3097 37.5023 31.3099 37.5017 31.3101C37.5014 31.3102 37.502 31.31 37.5017 31.3101C37.5016 31.3101 37.5004 31.3105 37.5003 31.3106C37.5002 31.3107 37.5003 31.3106 37.7186 32.0281C37.9369 32.7456 37.9369 32.7456 37.9368 32.7456C37.9381 32.7452 37.9409 32.7444 37.945 32.7433C37.9531 32.7409 37.9662 32.7372 37.9834 32.7325C38.018 32.7232 38.0676 32.7105 38.1247 32.6978C38.2502 32.6699 38.3688 32.6521 38.4443 32.6516L38.4348 31.1516ZM37.5003 31.3106C36.0874 31.7419 35.0076 33.0983 35.0076 35.1338H36.5076C36.5076 33.6755 37.2304 32.9613 37.9368 32.7456L37.5003 31.3106ZM35.7576 35.1338C35.0076 35.1338 35.0076 35.1339 35.0076 35.1338C35.0076 35.1353 35.0076 35.138 35.0075 35.1423C35.0074 35.151 35.0072 35.1652 35.0066 35.1846C35.0056 35.2233 35.0033 35.2823 34.9988 35.3572C34.9896 35.5076 34.9711 35.7193 34.9341 35.9598C34.8575 36.4587 34.7127 37.0057 34.4647 37.401L35.7353 38.1982C36.1449 37.5453 36.3289 36.7594 36.4167 36.1875C36.462 35.8926 36.4846 35.6343 36.496 35.4487C36.5017 35.3556 36.5046 35.28 36.5061 35.2262C36.5068 35.1993 36.5072 35.1778 36.5074 35.1622C36.5075 35.1544 36.5076 35.1481 36.5076 35.1434C36.5076 35.141 36.5076 35.139 36.5076 35.1374C36.5076 35.1366 36.5076 35.1359 36.5076 35.1353C36.5076 35.135 36.5076 35.1356 36.5076 35.1353C36.5076 35.1352 36.5076 35.1338 36.5076 35.1338C36.5076 35.1336 36.5076 35.1338 35.7576 35.1338ZM35.1 37.7996C34.4214 37.4802 34.4215 37.4799 34.4214 37.4802C34.4214 37.4803 34.4209 37.4812 34.4208 37.4813C34.4207 37.4817 34.4205 37.4821 34.4203 37.4826C34.4199 37.4834 34.4195 37.4843 34.419 37.4852C34.4182 37.4871 34.4172 37.4892 34.4162 37.4914C34.4142 37.4959 34.4118 37.5012 34.4092 37.5072C34.4039 37.5192 34.3975 37.5343 34.3904 37.5521C34.3764 37.5874 34.3589 37.6349 34.3415 37.6916C34.3088 37.7988 34.2677 37.968 34.2677 38.1635C34.2677 38.3596 34.3099 38.6358 34.5008 38.8895C34.7007 39.155 34.9904 39.2989 35.298 39.3534L35.5597 37.8764C35.5385 37.8726 35.6225 37.8855 35.6991 37.9872C35.7668 38.077 35.7677 38.1568 35.7677 38.1635C35.7677 38.1698 35.7678 38.157 35.7762 38.1296C35.7794 38.119 35.7824 38.111 35.7838 38.1076C35.7844 38.106 35.7846 38.1059 35.7838 38.1076C35.7834 38.1085 35.7827 38.1099 35.7819 38.1118C35.7815 38.1127 35.781 38.1138 35.7804 38.115C35.7802 38.1156 35.7799 38.1162 35.7796 38.1169C35.7794 38.1172 35.7792 38.1176 35.7791 38.1179C35.779 38.1181 35.7792 38.1179 35.7791 38.1179C35.779 38.1182 35.7786 38.119 35.1 37.7996ZM41.5887 39.3534C41.8963 39.2989 42.186 39.155 42.3859 38.8895C42.5769 38.6359 42.619 38.3596 42.619 38.1636C42.619 37.9681 42.5779 37.799 42.5452 37.6917C42.5279 37.635 42.5104 37.5875 42.4963 37.5522C42.4893 37.5344 42.4829 37.5193 42.4776 37.5073C42.475 37.5013 42.4726 37.496 42.4706 37.4915C42.4696 37.4893 42.4686 37.4872 42.4678 37.4853C42.4673 37.4844 42.4669 37.4835 42.4665 37.4827C42.4663 37.4823 42.4661 37.4818 42.466 37.4815C42.4659 37.4813 42.466 37.4816 42.466 37.4815C42.4659 37.4812 42.4654 37.4803 41.7868 37.7996C41.1081 38.1189 41.108 38.1186 41.1079 38.1183C41.1078 38.1183 41.108 38.1185 41.1079 38.1183C41.1078 38.118 41.1073 38.1171 41.1072 38.1168C41.1068 38.1161 41.1065 38.1155 41.1063 38.1149C41.1057 38.1137 41.1052 38.1126 41.1048 38.1117C41.104 38.1098 41.1034 38.1085 41.103 38.1076C41.1022 38.1059 41.1024 38.1061 41.103 38.1076C41.1044 38.111 41.1073 38.1189 41.1105 38.1295C41.1189 38.1569 41.119 38.1698 41.119 38.1635C41.119 38.1568 41.12 38.0771 41.1876 37.9872C41.2642 37.8855 41.3483 37.8726 41.3271 37.8764L41.5887 39.3534ZM42.4232 37.4027C42.1816 37.0153 42.0391 36.4696 41.9636 35.9671C41.9273 35.7253 41.9091 35.512 41.9 35.3601C41.8955 35.2845 41.8933 35.2249 41.8922 35.1856C41.8917 35.166 41.8915 35.1515 41.8913 35.1427C41.8913 35.1383 41.8912 35.1353 41.8912 35.1338C41.8912 35.1339 41.8912 35.1338 41.1412 35.1338C40.3912 35.1338 40.3912 35.1337 40.3912 35.1338C40.3912 35.1337 40.3912 35.1339 40.3912 35.1338C40.3912 35.134 40.3912 35.135 40.3912 35.1353C40.3912 35.1359 40.3913 35.1366 40.3913 35.1374C40.3913 35.1389 40.3913 35.1409 40.3913 35.1433C40.3913 35.148 40.3914 35.1543 40.3915 35.1621C40.3917 35.1777 40.3921 35.1992 40.3928 35.2262C40.3942 35.2801 40.3971 35.3561 40.4027 35.4495C40.4138 35.6357 40.4359 35.8947 40.4803 36.19C40.5661 36.7615 40.7464 37.5487 41.1504 38.1965L42.4232 37.4027ZM35.4288 39.3649H41.4579V37.8649H35.4288V39.3649ZM38.5512 38.7604C38.5512 38.8329 38.5242 38.8861 38.491 38.9206C38.4549 38.9581 38.423 38.9632 38.4141 38.9632V40.4632C39.3185 40.4632 40.0512 39.6911 40.0512 38.7604H38.5512ZM38.4141 38.9632C38.4042 38.9632 38.3695 38.9572 38.3313 38.9179C38.2964 38.882 38.2705 38.8293 38.2705 38.7604H36.7705C36.7705 39.6983 37.5168 40.4632 38.4141 40.4632V38.9632ZM38.4435 42.6226C36.6211 42.6226 34.8743 41.9034 33.5872 40.6247L32.53 41.6889C34.0992 43.2478 36.2265 44.1226 38.4435 44.1226V42.6226ZM33.5872 40.6247C32.3003 39.3462 31.5781 37.6133 31.5781 35.8074H30.0781C30.0781 38.0144 30.9607 40.1298 32.53 41.6889L33.5872 40.6247ZM31.5781 35.8074C31.5781 34.0015 32.3002 32.2686 33.5872 30.9901L32.5301 29.9259C30.9606 31.4849 30.0781 33.6005 30.0781 35.8074H31.5781ZM33.5872 30.9901C34.8744 29.7114 36.6211 28.9922 38.4435 28.9922V27.4922C36.2264 27.4922 34.0993 28.3671 32.5301 29.9259L33.5872 30.9901ZM38.4435 28.9922C40.2659 28.9922 42.0127 29.7114 43.2998 30.9901L44.357 29.9259C42.7878 28.367 40.6606 27.4922 38.4435 27.4922V28.9922ZM43.2998 30.9901C44.5868 32.2686 45.3089 34.0015 45.3089 35.8074H46.8089C46.8089 33.6004 45.9263 31.485 44.357 29.9259L43.2998 30.9901ZM45.3089 35.8074C45.3089 37.6133 44.5868 39.3463 43.2998 40.6247L44.3569 41.6889C45.9264 40.1299 46.8089 38.0144 46.8089 35.8074H45.3089ZM43.2998 40.6247C42.0126 41.9034 40.2659 42.6226 38.4435 42.6226V44.1226C40.6606 44.1226 42.7877 43.2477 44.3569 41.6889L43.2998 40.6247Z" fill="url(#paint0_linear_23_393)"/>
</g>
<defs>
<linearGradient id="paint0_linear_23_393" x1="7.96391" y1="9.30439" x2="53.8629" y2="37.7116" gradientUnits="userSpaceOnUse">
<stop stop-color="#7381FD"/>
<stop offset="1" stop-color="#76C7FF"/>
</linearGradient>
<clipPath id="clip0_23_393">
<rect width="55" height="55" fill="white"/>
</clipPath>
</defs>
</svg>
