<svg width="55" height="55" viewBox="0 0 55 55" fill="none" xmlns="http://www.w3.org/2000/svg">
<g clip-path="url(#clip0_23_364)">
<path d="M0 15C0 6.71573 6.71573 0 15 0H40C48.2843 0 55 6.71573 55 15V40C55 48.2843 48.2843 55 40 55H15C6.71573 55 0 48.2843 0 40V15Z" fill="#F6FAFD"/>
<path d="M20.3184 27.1667V21.7245C20.3184 21.3244 20.6427 21 21.0429 21C21.443 21 21.7673 21.3244 21.7673 21.7245V24.7913C22.4809 23.9114 23.4608 23.6562 24.4278 23.6562C26.046 23.6562 27.8452 24.7883 27.8452 27.2342C27.8452 27.527 27.825 27.8063 27.7714 28.0736C28.0609 26.8769 29.3101 26.4369 31.2714 26.3874C31.888 26.3634 32.5944 26.3634 33.156 26.3634V26.1967C33.156 25.0886 32.4844 24.6366 31.309 24.6366C30.7645 24.6366 30.3128 24.7832 30.0327 25.0492C29.7486 25.3191 29.4352 25.6517 29.0433 25.6517C28.5872 25.6517 28.2143 25.239 28.4407 24.8431C28.985 23.8912 30.2818 23.6216 31.4364 23.6216C32.7232 23.6216 33.8479 23.9595 34.3559 24.9009C34.1133 24.4169 34.4652 23.8468 35.0067 23.8468H35.0548C35.346 23.8468 35.6115 24.0138 35.7376 24.2763L38.0151 29.0165L40.316 24.2249C40.4278 23.992 40.6633 23.8438 40.9217 23.8438C41.419 23.8438 41.744 24.3654 41.5249 24.8118L37.7042 32.5955C37.5826 32.8431 37.3308 33 37.055 33C36.516 33 36.1664 32.4314 36.4098 31.9504L37.1727 30.4429L34.3574 24.9535C34.5137 25.2733 34.5991 25.6517 34.5991 26.1201V29.2057C34.5991 29.3795 34.6012 29.5524 34.606 29.7227C34.6173 30.1212 34.3044 30.464 33.9057 30.464C33.561 30.464 33.2682 30.2053 33.2535 29.861C33.2484 29.7423 33.2458 29.6234 33.2457 29.5045C32.5176 30.4249 31.6492 30.7102 30.442 30.7102C28.6529 30.7102 27.6961 29.7312 27.6961 28.5841C27.6961 28.3964 27.7149 28.2297 27.741 28.0766C27.3777 29.6396 26.0981 30.6892 24.3974 30.6892C23.345 30.6892 22.3506 30.2958 21.7384 29.5255C21.7384 29.6109 21.7369 29.6974 21.734 29.7844C21.7219 30.1586 21.4049 30.4429 21.0305 30.4429C20.6136 30.4429 20.2831 30.0932 20.2974 29.6766C20.3066 29.4049 20.3126 29.1328 20.3126 28.8859V27.5691H14.4764C14.5546 28.9414 15.465 29.7477 16.7156 29.7477C17.3753 29.7477 17.9787 29.5305 18.3432 29.0794C18.5553 28.8169 18.8387 28.5841 19.1763 28.5841C19.6622 28.5841 20.0379 29.0402 19.7727 29.4473C19.1507 30.4019 17.8713 30.7447 16.7374 30.7447C14.1478 30.7718 13 29.2838 13 27.2898C13 25.0931 14.1855 23.6441 16.7663 23.6441C18.8058 23.6441 20.3054 24.7523 20.3184 27.1607V27.1667ZM31.3582 27.3964C30.0338 27.4369 29.2174 27.6862 29.2174 28.5871C29.2174 29.1712 29.6531 29.8018 30.7952 29.8018C32.3179 29.8018 33.1328 28.9399 33.1328 27.5285V27.3649C32.5886 27.3649 31.9372 27.3739 31.3394 27.3949H31.3553L31.3582 27.3964ZM24.0355 29.7447C25.3773 29.7447 26.3022 28.7357 26.3022 27.2132C26.3022 25.6907 25.3729 24.6817 24.0152 24.6817C22.672 24.6817 21.7311 25.6907 21.7311 27.2132C21.7311 28.7357 22.6561 29.7447 23.9964 29.7447H24.0355ZM18.7797 26.5946C18.7262 25.1847 17.7462 24.6562 16.6954 24.6562C15.5548 24.6562 14.6487 25.2492 14.501 26.5946H18.7797Z" fill="url(#paint0_linear_23_364)"/>
<path d="M31.4089 10.2801L27.7437 11.9179M31.4089 10.2801L27.8178 7.63477M31.4089 10.2801C22.2795 7.8379 12.8594 13.2804 10.4085 22.4125C7.95764 31.5441 13.3913 40.9592 22.5197 43.4012C31.649 45.8434 41.0706 40.4012 43.5211 31.2706" stroke="url(#paint1_linear_23_364)" stroke-width="1.5" stroke-linecap="round" stroke-linejoin="round"/>
</g>
<defs>
<linearGradient id="paint0_linear_23_364" x1="9.45364" y1="19.4664" x2="28.6532" y2="44.7611" gradientUnits="userSpaceOnUse">
<stop stop-color="#7381FD"/>
<stop offset="1" stop-color="#76C7FF"/>
</linearGradient>
<linearGradient id="paint1_linear_23_364" x1="5.64065" y1="2.98908" x2="54.6641" y2="28.1179" gradientUnits="userSpaceOnUse">
<stop stop-color="#7381FD"/>
<stop offset="1" stop-color="#76C7FF"/>
</linearGradient>
<clipPath id="clip0_23_364">
<rect width="55" height="55" fill="white"/>
</clipPath>
</defs>
</svg>
