<svg width="55" height="55" viewBox="0 0 55 55" fill="none" xmlns="http://www.w3.org/2000/svg">
<g clip-path="url(#clip0_23_311)">
<path d="M0 15C0 6.71573 6.71573 0 15 0H40C48.2843 0 55 6.71573 55 15V40C55 48.2843 48.2843 55 40 55H15C6.71573 55 0 48.2843 0 40V15Z" fill="#F6FAFD"/>
<path d="M43.9183 20.6117L44.561 20.2251L44.5589 20.2217L43.9183 20.6117ZM13.114 24.6343H12.364V24.6377L13.114 24.6343ZM11 20.9059L10.3559 20.5216C10.2866 20.6378 10.25 20.7706 10.25 20.9059H11ZM35.5025 23.3737L34.7745 23.5541C34.7982 23.6497 34.8405 23.7397 34.899 23.8189L35.5025 23.3737ZM27.4223 13.4702L26.6723 13.4668V13.4702H27.4223ZM27.3418 23.3726L27.946 23.8168C28.0065 23.7346 28.0495 23.6409 28.0725 23.5415L27.3418 23.3726ZM27.6627 23.3761L27.0434 23.7992C27.0482 23.8061 27.0531 23.8131 27.0581 23.8199L27.6627 23.3761ZM35.1803 23.3805L35.7838 23.8258C35.7891 23.8185 35.7943 23.8112 35.7994 23.8037L35.1803 23.3805ZM22.3999 32.6773L21.7973 32.2308L21.796 32.2326L22.3999 32.6773ZM22.3276 33.0494L21.5998 33.2305L21.6019 33.239L21.6042 33.2474L22.3276 33.0494ZM23.6983 38.0561L24.4258 37.8737L24.4238 37.8659L24.4217 37.8581L23.6983 38.0561ZM31.3016 38.0561L30.5782 37.8581L30.5761 37.8659L30.5741 37.8737L31.3016 38.0561ZM32.6723 33.0494L33.3956 33.2474L33.3978 33.2395L33.3998 33.2315L32.6723 33.0494ZM29.5988 28.4405C29.4296 28.0624 28.986 27.8931 28.6079 28.0624C28.2298 28.2316 28.0605 28.6752 28.2297 29.0533L29.5988 28.4405ZM26.7711 29.0515C26.9393 28.673 26.7688 28.2298 26.3903 28.0615C26.0118 27.8933 25.5685 28.0638 25.4003 28.4424L26.7711 29.0515ZM44.75 20.9059C44.75 20.6623 44.682 20.4263 44.561 20.2251L43.2756 20.9984C43.2589 20.9705 43.25 20.94 43.25 20.9059H44.75ZM41.8816 42.6577C41.8344 42.6577 41.7477 42.653 41.6451 42.6169C41.5418 42.5805 41.3814 42.4965 41.2663 42.3147C40.9985 41.8917 41.2477 41.5061 41.3821 41.3788C41.5215 41.2467 41.8731 41.0541 42.2584 41.2732C42.6228 41.4804 42.6316 41.8484 42.6316 41.9077H41.1316C41.1316 41.9877 41.1458 42.3661 41.517 42.5772C41.9092 42.8002 42.2689 42.6049 42.4139 42.4676C42.5536 42.3352 42.8056 41.9419 42.5337 41.5123C42.4166 41.3273 42.2524 41.2404 42.1431 41.202C42.0346 41.1638 41.9397 41.1577 41.8816 41.1577V42.6577ZM13.194 42.7316L41.8835 42.6577L41.8797 41.1577L13.1902 41.2316L13.194 42.7316ZM12.4421 41.9816C12.4421 41.9218 12.4512 41.5537 12.8158 41.3468C13.2005 41.1284 13.5515 41.3202 13.6911 41.4523C13.8254 41.5793 14.0758 41.9654 13.807 42.3892C13.6917 42.5709 13.5312 42.6547 13.4282 42.6909C13.3257 42.7269 13.2392 42.7316 13.1921 42.7316V41.2316C13.1341 41.2316 13.0394 41.2376 12.931 41.2757C12.822 41.314 12.6577 41.4007 12.5404 41.5857C12.2674 42.0159 12.5206 42.4098 12.6603 42.542C12.8054 42.6792 13.1646 42.8736 13.5561 42.6513C13.9276 42.4405 13.9421 42.0622 13.9421 41.9816H12.4421ZM43.1957 20.8124L43.2774 21.1066L44.7226 20.7051L44.6409 20.411L43.1957 20.8124ZM36.168 23.0327C36.168 23.0327 36.168 23.0317 36.168 23.0316C36.168 23.0316 36.168 23.0307 36.168 23.0306C36.168 23.0305 36.168 23.0295 36.168 23.0295C36.168 23.0295 35.418 23.0295 34.668 23.0295V23.0305C34.668 23.0305 34.668 23.0315 34.668 23.0316V23.0327C35.418 23.0327 36.168 23.0327 36.168 23.0327H34.668C34.668 23.0327 35.418 23.0327 36.168 23.0327C36.168 23.0327 36.168 23.0317 36.168 23.0316C36.168 23.0316 36.168 23.0307 36.168 23.0306C36.168 23.0305 36.168 23.0295 36.168 23.0295C35.418 23.0295 34.668 23.0295 34.668 23.0295V23.0305C34.668 23.0305 34.668 23.0315 34.668 23.0316V23.0327H36.168ZM36.2305 23.1933L36.146 22.8523L34.69 23.2131L34.7745 23.5541L36.2305 23.1933ZM39.2629 24.4839C37.9428 24.4839 36.792 23.8582 36.106 22.9284L34.899 23.8189C35.8662 25.1299 37.464 25.9839 39.2629 25.9839V24.4839ZM26.6723 13.4702V23.0242H28.1723V13.4702H26.6723ZM26.6744 12.9966L26.6723 13.4668L28.1723 13.4736L28.1744 13.0034L26.6744 12.9966ZM23.5809 24.4834C22.2911 24.4834 20.9987 23.7119 20.2915 22.7466L19.0814 23.6331C20.0273 24.9241 21.7433 25.9834 23.5809 25.9834V24.4834ZM26.7375 22.9283C26.0519 23.8609 24.9014 24.4834 23.5809 24.4834V25.9834C25.3778 25.9834 26.9773 25.1345 27.946 23.8168L26.7375 22.9283ZM26.6916 22.8553L26.611 23.2036L28.0725 23.5415L28.153 23.1932L26.6916 22.8553ZM28.1723 23.0242C28.1723 23.0241 28.1723 23.0243 28.1723 23.0242C28.1723 23.0241 28.1723 23.0233 28.1723 23.0232C28.1723 23.0231 28.1723 23.0222 28.1723 23.0221C28.1723 23.022 28.1723 23.0212 28.1723 23.0211C28.1723 23.021 28.1723 23.0201 28.1723 23.02C28.1723 23.0199 28.1723 23.0201 28.1723 23.02C28.1723 23.0199 28.1723 23.0191 28.1723 23.019C28.1723 23.0189 28.1723 23.0191 28.1723 23.019C28.1723 23.019 28.1723 23.018 28.1723 23.0179C28.1723 23.0178 28.1723 23.0169 28.1723 23.0169V23.0158C28.1723 23.0158 28.1723 23.0149 28.1723 23.0148C28.1723 23.0148 28.1723 23.0138 28.1723 23.0137C28.1723 23.0137 27.4223 23.0133 26.6723 23.0133C26.6723 23.0133 26.6723 23.0143 26.6723 23.0144C26.6723 23.0144 26.6723 23.0154 26.6723 23.0155C26.6723 23.0156 26.6723 23.0165 26.6723 23.0165C26.6723 23.0166 26.6723 23.0176 26.6723 23.0176V23.0186C26.6723 23.0187 26.6723 23.0197 26.6723 23.0197C26.6723 23.0198 26.6723 23.0207 26.6723 23.0207C26.6723 23.0207 26.6723 23.0217 26.6723 23.0218C26.6723 23.0218 26.6723 23.0227 26.6723 23.0228C26.6723 23.0228 26.6723 23.0241 26.6723 23.0242C26.6723 23.0243 26.6723 23.0253 26.6723 23.0253C26.6723 23.0253 27.4223 23.0262 28.1723 23.0262V23.0242H26.6723C26.6723 23.0243 26.6723 23.0253 26.6723 23.0253C27.4223 23.0253 28.1723 23.0262 28.1723 23.0262V23.0242C28.1723 23.0241 28.1723 23.0233 28.1723 23.0232C28.1723 23.0231 28.1723 23.0222 28.1723 23.0221C28.1723 23.022 28.1723 23.0212 28.1723 23.0211C28.1723 23.021 28.1723 23.0201 28.1723 23.02C28.1723 23.0199 28.1723 23.0191 28.1723 23.019C28.1723 23.019 28.1723 23.018 28.1723 23.0179C28.1723 23.0178 28.1723 23.0169 28.1723 23.0169V23.0158C28.1723 23.0158 28.1723 23.0149 28.1723 23.0148C28.1723 23.0148 28.1723 23.0138 28.1723 23.0137C27.4223 23.0137 26.6723 23.0133 26.6723 23.0133C26.6723 23.0133 26.6723 23.0143 26.6723 23.0144C26.6723 23.0144 26.6723 23.0154 26.6723 23.0155C26.6723 23.0156 26.6723 23.0165 26.6723 23.0165C26.6723 23.0166 26.6723 23.0176 26.6723 23.0176V23.0186C26.6723 23.0185 26.6723 23.0187 26.6723 23.0186C26.6723 23.0187 26.6723 23.0197 26.6723 23.0197C26.6723 23.0196 26.6723 23.0198 26.6723 23.0197C26.6723 23.0198 26.6723 23.0207 26.6723 23.0207C26.6723 23.0207 26.6723 23.0217 26.6723 23.0218C26.6723 23.0217 26.6723 23.0219 26.6723 23.0218C26.6723 23.0218 26.6723 23.0227 26.6723 23.0228C26.6723 23.0227 26.6723 23.0229 26.6723 23.0228C26.6723 23.0228 26.6723 23.0241 26.6723 23.0242C26.6723 23.0241 26.6723 23.0243 26.6723 23.0242H28.1723ZM28.2819 22.953L28.0416 22.6011L26.803 23.4473L27.0434 23.7992L28.2819 22.953ZM31.4237 24.4872C30.1032 24.4872 28.9492 23.8612 28.2673 22.9322L27.0581 23.8199C28.0231 25.1345 29.6266 25.9872 31.4237 25.9872V24.4872ZM34.5768 22.9351C33.891 23.8645 32.7439 24.4872 31.4237 24.4872V25.9872C33.2217 25.9872 34.8161 25.1372 35.7838 23.8258L34.5768 22.9351ZM34.7989 22.6095L34.5611 22.9572L35.7994 23.8037L36.0372 23.456L34.7989 22.6095ZM19.0845 22.7425C18.3506 23.7301 17.2366 24.4438 16.0995 24.4438V25.9438C17.8521 25.9438 19.3678 24.8761 20.2884 23.6372L19.0845 22.7425ZM12.364 24.6377L12.4421 41.985L13.9421 41.9783L13.864 24.631L12.364 24.6377ZM38.6493 13.3991L43.2777 21.0017L44.5589 20.2217L39.9305 12.6191L38.6493 13.3991ZM32.8863 13.7543H39.2811V12.2543H32.8863V13.7543ZM36.1452 22.8491L33.6135 12.8207L32.1591 13.1879L34.6908 23.2163L36.1452 22.8491ZM22.2623 13.75H27.4244L27.425 12.25H22.2623V13.75ZM20.4136 23.3737L22.9895 13.1838L21.5352 12.8162L18.9593 23.006L20.4136 23.3737ZM27.4244 13.75L32.8863 13.7543V12.2543L27.425 12.25L27.4244 13.75ZM28.1723 23.0242L28.1744 13.0002L26.6744 12.9998L26.6723 23.0242H28.1723ZM11.6441 21.2901L16.3551 13.3925L15.0668 12.6241L10.3559 20.5216L11.6441 21.2901ZM15.7202 13.7534L22.2623 13.75V12.25L15.7194 12.2534L15.7202 13.7534ZM39.9305 12.6191C39.7859 12.3814 39.5332 12.2543 39.2811 12.2543V13.7543C39.0363 13.7543 38.7903 13.6308 38.6493 13.3991L39.9305 12.6191ZM16.3551 13.3925C16.2148 13.6276 15.967 13.7533 15.7202 13.7534L15.7194 12.2534C15.4653 12.2536 15.2107 12.383 15.0668 12.6241L16.3551 13.3925ZM16.0995 24.4438C15.1193 24.4438 14.2288 24.2788 13.5325 23.8106L12.6955 25.0554C13.7455 25.7614 14.982 25.9438 16.0995 25.9438V24.4438ZM13.5325 23.8106C12.4374 23.0743 11.75 21.9875 11.75 20.9059H10.25C10.25 22.6268 11.3174 24.1288 12.6955 25.0554L13.5325 23.8106ZM13.864 24.6343V24.433H12.364V24.6343H13.864ZM43.25 20.9059C43.25 22.0963 42.5631 23.1883 41.4858 23.8531L42.2734 25.1296C43.7185 24.238 44.75 22.6991 44.75 20.9059H43.25ZM41.4858 23.8531C40.8405 24.2512 40.0706 24.4839 39.2629 24.4839V25.9839C40.3581 25.9839 41.3994 25.6689 42.2734 25.1296L41.4858 23.8531ZM33.2034 32.2319C32.9895 31.9425 32.6486 31.7599 32.2743 31.7599V33.2599C32.1551 33.2599 32.0551 33.2019 31.9968 33.1231L33.2034 32.2319ZM22.7256 31.7599C22.3507 31.7599 22.0109 31.9425 21.7973 32.2308L23.0025 33.1238C22.9449 33.2015 22.8453 33.2599 22.7256 33.2599V31.7599ZM21.796 32.2326C21.5833 32.5214 21.5148 32.8888 21.5998 33.2305L23.0554 32.8683C23.0762 32.9518 23.0608 33.0446 23.0038 33.122L21.796 32.2326ZM21.6042 33.2474L22.9749 38.2541L24.4217 37.8581L23.051 32.8514L21.6042 33.2474ZM22.9708 38.2385C23.0964 38.7395 23.5431 39.1276 24.096 39.1276V37.6276C24.275 37.6276 24.395 37.751 24.4258 37.8737L22.9708 38.2385ZM24.096 39.1276H30.9038V37.6276H24.096V39.1276ZM30.9038 39.1276C31.4572 39.1276 31.9035 38.7393 32.0291 38.2385L30.5741 37.8737C30.6048 37.7512 30.7249 37.6276 30.9038 37.6276V39.1276ZM32.025 38.2541L33.3956 33.2474L31.9489 32.8514L30.5782 37.8581L32.025 38.2541ZM33.3998 33.2315C33.4855 32.889 33.4167 32.5209 33.2034 32.2319L31.9968 33.1231C31.9396 33.0455 31.9236 32.9516 31.9447 32.8673L33.3998 33.2315ZM31.2831 32.2035L29.5988 28.4405L28.2297 29.0533L29.914 32.8163L31.2831 32.2035ZM25.0989 32.8145L26.7711 29.0515L25.4003 28.4424L23.7281 32.2054L25.0989 32.8145ZM42.6316 41.9077L42.6296 24.4912L41.1296 24.4914L41.1316 41.9077H42.6316ZM32.2743 31.7599H30.5986L30.5985 33.2599H32.2743V31.7599ZM30.5986 31.7599H24.4135V33.2599H30.5985L30.5986 31.7599ZM24.4135 31.7599H22.7256V33.2599H24.4135V31.7599Z" fill="url(#paint0_linear_23_311)"/>
</g>
<defs>
<linearGradient id="paint0_linear_23_311" x1="5.97122" y1="8.35172" x2="51.5278" y2="36.8407" gradientUnits="userSpaceOnUse">
<stop stop-color="#7381FD"/>
<stop offset="1" stop-color="#76C7FF"/>
</linearGradient>
<clipPath id="clip0_23_311">
<rect width="55" height="55" fill="white"/>
</clipPath>
</defs>
</svg>
