<svg width="55" height="55" viewBox="0 0 55 55" fill="none" xmlns="http://www.w3.org/2000/svg">
<g clip-path="url(#clip0_23_132)">
<path d="M0 15C0 6.71573 6.71573 0 15 0H40C48.2843 0 55 6.71573 55 15V40C55 48.2843 48.2843 55 40 55H15C6.71573 55 0 48.2843 0 40V15Z" fill="#F6FAFD"/>
<path d="M34.3132 30.6164C34.3132 30.3402 34.0894 30.1164 33.8132 30.1164C33.5371 30.1164 33.3132 30.3402 33.3132 30.6164H34.3132ZM33.3132 39.7007C33.3132 39.9769 33.5371 40.2007 33.8132 40.2007C34.0894 40.2007 34.3132 39.9769 34.3132 39.7007H33.3132ZM17.9155 35.4156C17.6394 35.4156 17.4155 35.6394 17.4155 35.9156C17.4155 36.1917 17.6394 36.4156 17.9155 36.4156V35.4156ZM28.514 36.4156C28.7901 36.4156 29.014 36.1917 29.014 35.9156C29.014 35.6394 28.7901 35.4156 28.514 35.4156V36.4156ZM17.9155 30.8734C17.6394 30.8734 17.4155 31.0972 17.4155 31.3734C17.4155 31.6495 17.6394 31.8734 17.9155 31.8734V30.8734ZM28.514 31.8734C28.7901 31.8734 29.014 31.6495 29.014 31.3734C29.014 31.0972 28.7901 30.8734 28.514 30.8734V31.8734ZM17.9155 24.8171C17.6394 24.8171 17.4155 25.041 17.4155 25.3171C17.4155 25.5933 17.6394 25.8171 17.9155 25.8171V24.8171ZM36.0843 25.8171C36.3605 25.8171 36.5843 25.5933 36.5843 25.3171C36.5843 25.041 36.3605 24.8171 36.0843 24.8171V25.8171ZM17.9155 20.2749C17.6394 20.2749 17.4155 20.4988 17.4155 20.7749C17.4155 21.0511 17.6394 21.2749 17.9155 21.2749V20.2749ZM36.0843 21.2749C36.3605 21.2749 36.5843 21.0511 36.5843 20.7749C36.5843 20.4988 36.3605 20.2749 36.0843 20.2749V21.2749ZM17.9155 15.7327C17.6394 15.7327 17.4155 15.9566 17.4155 16.2327C17.4155 16.5089 17.6394 16.7327 17.9155 16.7327V15.7327ZM36.0843 16.7327C36.3605 16.7327 36.5843 16.5089 36.5843 16.2327C36.5843 15.9566 36.3605 15.7327 36.0843 15.7327V16.7327ZM16.4015 10.1765H16.9015C16.9015 9.90031 16.6776 9.67645 16.4015 9.67645V10.1765ZM16.4015 45V45.5C16.6776 45.5 16.9015 45.2761 16.9015 45H16.4015ZM19.4296 45H18.9296C18.9296 45.2761 19.1535 45.5 19.4296 45.5V45ZM22.4577 45V45.5C22.7339 45.5 22.9577 45.2761 22.9577 45H22.4577ZM25.4859 45H24.9859C24.9859 45.2761 25.2097 45.5 25.4859 45.5V45ZM28.514 45V45.5C28.7901 45.5 29.014 45.2761 29.014 45H28.514ZM31.5421 45H31.0421C31.0421 45.2761 31.266 45.5 31.5421 45.5V45ZM34.5703 45V45.5C34.8464 45.5 35.0703 45.2761 35.0703 45H34.5703ZM37.5984 45H37.0984C37.0984 45.2761 37.3223 45.5 37.5984 45.5V45ZM37.5984 10.1765V9.67645C37.3223 9.67645 37.0984 9.90031 37.0984 10.1765H37.5984ZM34.5703 10.1765H35.0703C35.0703 9.90031 34.8464 9.67645 34.5703 9.67645V10.1765ZM31.5421 10.1765V9.67645C31.266 9.67645 31.0421 9.90031 31.0421 10.1765H31.5421ZM28.514 10.1765H29.014C29.014 9.90031 28.7901 9.67645 28.514 9.67645V10.1765ZM25.4859 10.1765V9.67645C25.2097 9.67645 24.9859 9.90031 24.9859 10.1765H25.4859ZM22.4577 10.1765H22.9577C22.9577 9.90031 22.7339 9.67645 22.4577 9.67645V10.1765ZM19.4296 10.1765V9.67645C19.1535 9.67645 18.9296 9.90031 18.9296 10.1765H19.4296ZM35.8273 33.6445C35.8273 32.5356 34.9221 31.6304 33.8132 31.6304V32.6304C34.3698 32.6304 34.8273 33.0879 34.8273 33.6445H35.8273ZM33.8132 31.6304C32.7044 31.6304 31.7992 32.5356 31.7992 33.6445H32.7992C32.7992 33.0879 33.2566 32.6304 33.8132 32.6304V31.6304ZM31.7992 33.6445C31.7992 34.7534 32.7044 35.6585 33.8132 35.6585V34.6585C33.2566 34.6585 32.7992 34.2011 32.7992 33.6445H31.7992ZM33.8132 35.6585C34.3698 35.6585 34.8273 36.116 34.8273 36.6726H35.8273C35.8273 35.5637 34.9221 34.6585 33.8132 34.6585V35.6585ZM34.8273 36.6726C34.8273 37.2292 34.3698 37.6867 33.8132 37.6867V38.6867C34.9221 38.6867 35.8273 37.7815 35.8273 36.6726H34.8273ZM34.3132 32.1304V30.6164H33.3132V32.1304H34.3132ZM33.8132 37.6867C33.2566 37.6867 32.7992 37.2292 32.7992 36.6726H31.7992C31.7992 37.7815 32.7044 38.6867 33.8132 38.6867V37.6867ZM33.3132 38.1867V39.7007H34.3132V38.1867H33.3132ZM17.9155 36.4156H28.514V35.4156H17.9155V36.4156ZM17.9155 31.8734H28.514V30.8734H17.9155V31.8734ZM17.9155 25.8171H36.0843V24.8171H17.9155V25.8171ZM17.9155 21.2749H36.0843V20.2749H17.9155V21.2749ZM17.9155 16.7327H36.0843V15.7327H17.9155V16.7327ZM16.4015 9.67645H15.6444V10.6765H16.4015V9.67645ZM15.6444 9.67645C14.5356 9.67645 13.6304 10.5816 13.6304 11.6905H14.6304C14.6304 11.1339 15.0878 10.6765 15.6444 10.6765V9.67645ZM13.6304 11.6905V43.4859H14.6304V11.6905H13.6304ZM13.6304 43.4859C13.6304 44.5948 14.5356 45.5 15.6444 45.5V44.5C15.0878 44.5 14.6304 44.0425 14.6304 43.4859H13.6304ZM15.6444 45.5H16.4015V44.5H15.6444V45.5ZM16.9015 45C16.9015 44.4434 17.3589 43.9859 17.9155 43.9859V42.9859C16.8067 42.9859 15.9015 43.8911 15.9015 45H16.9015ZM17.9155 43.9859C18.4721 43.9859 18.9296 44.4434 18.9296 45H19.9296C19.9296 43.8911 19.0244 42.9859 17.9155 42.9859V43.9859ZM19.4296 45.5H22.4577V44.5H19.4296V45.5ZM22.9577 45C22.9577 44.4434 23.4152 43.9859 23.9718 43.9859V42.9859C22.8629 42.9859 21.9577 43.8911 21.9577 45H22.9577ZM23.9718 43.9859C24.5284 43.9859 24.9859 44.4434 24.9859 45H25.9859C25.9859 43.8911 25.0807 42.9859 23.9718 42.9859V43.9859ZM25.4859 45.5H28.514V44.5H25.4859V45.5ZM29.014 45C29.014 44.4434 29.4715 43.9859 30.0281 43.9859V42.9859C28.9192 42.9859 28.014 43.8911 28.014 45H29.014ZM30.0281 43.9859C30.5847 43.9859 31.0421 44.4434 31.0421 45H32.0421C32.0421 43.8911 31.1369 42.9859 30.0281 42.9859V43.9859ZM31.5421 45.5H34.5703V44.5H31.5421V45.5ZM35.0703 45C35.0703 44.4434 35.5277 43.9859 36.0843 43.9859V42.9859C34.9755 42.9859 34.0703 43.8911 34.0703 45H35.0703ZM36.0843 43.9859C36.6409 43.9859 37.0984 44.4434 37.0984 45H38.0984C38.0984 43.8911 37.1932 42.9859 36.0843 42.9859V43.9859ZM37.5984 45.5H38.3554V44.5H37.5984V45.5ZM38.3554 45.5C39.4643 45.5 40.3695 44.5948 40.3695 43.4859H39.3695C39.3695 44.0425 38.912 44.5 38.3554 44.5V45.5ZM40.3695 43.4859V11.6905H39.3695V43.4859H40.3695ZM40.3695 11.6905C40.3695 10.5816 39.4643 9.67645 38.3554 9.67645V10.6765C38.912 10.6765 39.3695 11.1339 39.3695 11.6905H40.3695ZM38.3554 9.67645H37.5984V10.6765H38.3554V9.67645ZM37.0984 10.1765C37.0984 10.733 36.6409 11.1905 36.0843 11.1905V12.1905C37.1932 12.1905 38.0984 11.2853 38.0984 10.1765H37.0984ZM36.0843 11.1905C35.5277 11.1905 35.0703 10.733 35.0703 10.1765H34.0703C34.0703 11.2853 34.9755 12.1905 36.0843 12.1905V11.1905ZM34.5703 9.67645H31.5421V10.6765H34.5703V9.67645ZM31.0421 10.1765C31.0421 10.733 30.5847 11.1905 30.0281 11.1905V12.1905C31.1369 12.1905 32.0421 11.2853 32.0421 10.1765H31.0421ZM30.0281 11.1905C29.4715 11.1905 29.014 10.733 29.014 10.1765H28.014C28.014 11.2853 28.9192 12.1905 30.0281 12.1905V11.1905ZM28.514 9.67645H25.4859V10.6765H28.514V9.67645ZM24.9859 10.1765C24.9859 10.733 24.5284 11.1905 23.9718 11.1905V12.1905C25.0807 12.1905 25.9859 11.2853 25.9859 10.1765H24.9859ZM23.9718 11.1905C23.4152 11.1905 22.9577 10.733 22.9577 10.1765H21.9577C21.9577 11.2853 22.8629 12.1905 23.9718 12.1905V11.1905ZM22.4577 9.67645H19.4296V10.6765H22.4577V9.67645ZM18.9296 10.1765C18.9296 10.733 18.4721 11.1905 17.9155 11.1905V12.1905C19.0244 12.1905 19.9296 11.2853 19.9296 10.1765H18.9296ZM17.9155 11.1905C17.3589 11.1905 16.9015 10.733 16.9015 10.1765H15.9015C15.9015 11.2853 16.8067 12.1905 17.9155 12.1905V11.1905Z" fill="url(#paint0_linear_23_132)"/>
</g>
<defs>
<linearGradient id="paint0_linear_23_132" x1="10.9381" y1="5.7259" x2="51.4519" y2="22.2821" gradientUnits="userSpaceOnUse">
<stop stop-color="#7381FD"/>
<stop offset="1" stop-color="#76C7FF"/>
</linearGradient>
<clipPath id="clip0_23_132">
<rect width="55" height="55" fill="white"/>
</clipPath>
</defs>
</svg>
