<svg width="55" height="55" viewBox="0 0 55 55" fill="none" xmlns="http://www.w3.org/2000/svg">
<g clip-path="url(#clip0_23_506)">
<path d="M0 15C0 6.71573 6.71573 0 15 0H40C48.2843 0 55 6.71573 55 15V40C55 48.2843 48.2843 55 40 55H15C6.71573 55 0 48.2843 0 40V15Z" fill="#F6FAFD"/>
<path d="M33.1853 25.2026L32.655 24.6723L32.6528 24.6744L33.1853 25.2026ZM43.8027 35.7974L43.2744 35.265L43.2724 35.267L43.8027 35.7974ZM38 15.8925V16.6425C38.4142 16.6425 38.75 16.3067 38.75 15.8925H38ZM24.9748 12.75C24.5606 12.75 24.2248 13.0858 24.2248 13.5C24.2248 13.9142 24.5606 14.25 24.9748 14.25V12.75ZM30.0252 14.25C30.4395 14.25 30.7752 13.9142 30.7752 13.5C30.7752 13.0858 30.4395 12.75 30.0252 12.75V14.25ZM37.25 20.5C37.25 20.9142 37.5858 21.25 38 21.25C38.4142 21.25 38.75 20.9142 38.75 20.5H37.25ZM38.7499 39.9999C38.7498 39.5857 38.414 39.25 37.9998 39.25C37.5856 39.25 37.2498 39.5859 37.2499 40.0001L38.7499 39.9999ZM33.3182 34.8294C31.0826 32.1785 31.2565 28.2119 33.7177 25.7308L32.6528 24.6744C29.6514 27.7 29.4287 32.5441 32.1714 35.7963L33.3182 34.8294ZM33.7156 25.733C34.9858 24.4628 36.6899 23.75 38.494 23.75V22.25C36.289 22.25 34.2043 23.1231 32.655 24.6723L33.7156 25.733ZM38.494 23.75C40.2997 23.75 41.9813 24.442 43.2724 25.733L44.333 24.6723C42.7605 23.1 40.6974 22.25 38.494 22.25V23.75ZM43.2724 25.733C45.9103 28.3707 45.9074 32.652 43.2744 35.265L44.331 36.3297C47.5574 33.1278 47.5545 27.8936 44.333 24.6723L43.2724 25.733ZM43.2724 35.267C41.9629 36.5765 40.2388 37.25 38.494 37.25V38.75C40.6261 38.75 42.7348 37.9258 44.333 36.3277L43.2724 35.267ZM38.494 37.25C37.4085 37.25 36.2951 36.9733 35.2765 36.434L34.5746 37.7597C35.8027 38.4099 37.1563 38.75 38.494 38.75V37.25ZM35.2765 36.434C34.6948 36.1261 33.7497 35.3413 33.3182 34.8294L32.1714 35.7963C32.7134 36.4394 33.8055 37.3525 34.5746 37.7597L35.2765 36.434ZM36.3384 11.75C36.8998 11.75 37.25 12.1475 37.25 12.5529H38.75C38.75 11.2249 37.6308 10.25 36.3384 10.25V11.75ZM18.6617 11.75H36.3384V10.25H18.6617V11.75ZM17.7503 12.5529C17.7503 12.1476 18.1003 11.75 18.6617 11.75V10.25C17.3685 10.25 16.2503 11.2258 16.2503 12.5529H17.7503ZM18.6616 43.25C18.1002 43.25 17.75 42.8525 17.75 42.4471H16.25C16.25 43.7751 17.3693 44.75 18.6616 44.75V43.25ZM36.3383 43.25H18.6616V44.75H36.3383V43.25ZM37.2498 42.447C37.2498 42.8522 36.8998 43.25 36.3383 43.25V44.75C37.6313 44.75 38.7498 43.7744 38.7498 42.4471L37.2498 42.447ZM18.6617 10.25C17.3578 10.25 16.2503 11.2151 16.2503 12.5529H17.7503C17.7503 12.1372 18.0893 11.75 18.6617 11.75V10.25ZM38.75 12.5529C38.75 11.215 37.6423 10.25 36.3384 10.25V11.75C36.9109 11.75 37.25 12.1373 37.25 12.5529H38.75ZM36.3383 44.75C37.6421 44.75 38.7498 43.785 38.7498 42.4471L37.2498 42.447C37.2498 42.8626 36.9108 43.25 36.3383 43.25V44.75ZM16.25 42.4471C16.25 43.785 17.3577 44.75 18.6616 44.75V43.25C18.0891 43.25 17.75 42.8627 17.75 42.4471H16.25ZM16.2503 12.5529L16.25 42.4471H17.75L17.7503 12.5529H16.2503ZM30.0252 12.75H24.9748V14.25H30.0252V12.75ZM38 15.1425H17.0003V16.6425H38V15.1425ZM37.25 12.5529V15.8925H38.75V12.5529H37.25ZM17.7503 15.8925V12.5529H16.2503V15.8925H17.7503ZM17.7502 40.6697L17.7503 15.8925H16.2503L16.2502 40.6697H17.7502ZM37.9999 39.9197H17.0002V41.4197H37.9999V39.9197ZM17.75 42.4471L17.7502 40.6697H16.2502L16.25 42.4471H17.75ZM37.2499 40.6696L37.2498 42.447L38.7498 42.4471L38.7499 40.6697L37.2499 40.6696ZM38.75 20.5V12.5529H37.25V20.5H38.75ZM37.2499 40.0001V40.6696L38.7499 40.6697V39.9999L37.2499 40.0001Z" fill="url(#paint0_linear_23_506)"/>
<path d="M38.442 35C38.2794 34.9976 38.1239 34.9284 38.0081 34.8067C37.8922 34.685 37.825 34.5203 37.8204 34.347V33.7508H36.9768C36.8142 33.7484 36.6587 33.6791 36.5429 33.5575C36.427 33.4358 36.3598 33.2711 36.3552 33.0978C36.3597 32.9236 36.4266 32.7579 36.5422 32.6346C36.6579 32.5114 36.8134 32.4401 36.9768 32.4353H38.9837C39.0636 32.4353 39.1533 32.4324 39.2338 32.4038C39.3143 32.3752 39.3884 32.3293 39.4517 32.269C39.5149 32.2087 39.5658 32.1353 39.6014 32.0532C39.637 31.9711 39.6565 31.8822 39.6586 31.7918C39.6574 31.706 39.6404 31.6214 39.6086 31.5426C39.5767 31.4639 39.5306 31.3926 39.4729 31.3328C39.4151 31.2731 39.3469 31.226 39.2721 31.1943C39.1974 31.1627 39.1174 31.147 39.037 31.1483H37.9003C37.4049 31.1559 36.9268 30.954 36.5707 30.5869C36.2145 30.2198 36.0094 29.7172 36 29.1893C35.9989 28.9337 36.0451 28.6804 36.136 28.4439C36.227 28.2075 36.3609 27.9925 36.5301 27.8113C36.6992 27.6302 36.9003 27.4864 37.1217 27.3883C37.2735 27.3211 37.5852 27.2397 37.8204 27.2397V26.6625C37.8204 26.4868 37.8859 26.3183 38.0025 26.194C38.1191 26.0698 38.2772 26 38.442 26C38.6069 26 38.765 26.0698 38.8816 26.194C38.9981 26.3183 39.0636 26.4868 39.0636 26.6625V27.2397H39.8806C40.0432 27.2421 40.1987 27.3114 40.3145 27.4331C40.4304 27.5548 40.4976 27.7195 40.5022 27.8927C40.4976 28.066 40.4304 28.2307 40.3145 28.3524C40.1987 28.4741 40.0432 28.5434 39.8806 28.5457H37.8737C37.776 28.5457 37.7004 28.5431 37.6176 28.5706C37.5349 28.5981 37.4585 28.644 37.3937 28.7053C37.3288 28.7666 37.2769 28.8418 37.2413 28.9261C37.2057 29.0103 37.1874 29.1016 37.1874 29.194C37.1874 29.2864 37.2057 29.3777 37.2413 29.4619C37.2769 29.5462 37.3288 29.6214 37.3937 29.6827C37.4585 29.744 37.5349 29.7899 37.6176 29.8174C37.7004 29.8449 37.776 29.8423 37.8737 29.8423H39.0103C39.2721 29.8423 39.514 29.8532 39.7526 29.9395C39.9911 30.0258 40.2105 30.1634 40.397 30.3438C40.5836 30.5242 40.7334 30.7436 40.8371 30.9883C40.9408 31.2329 40.9961 31.4977 40.9998 31.7661C41.0035 32.0346 40.9553 32.301 40.8583 32.5487C40.7614 32.7965 40.6176 33.0204 40.4361 33.2065C40.2545 33.3926 40.039 33.537 39.8029 33.6306C39.5668 33.7242 39.4237 33.7508 39.0636 33.7508V34.347C39.0591 34.5203 38.9918 34.685 38.876 34.8067C38.7601 34.9284 38.6047 34.9976 38.442 35Z" fill="url(#paint1_linear_23_506)"/>
</g>
<defs>
<linearGradient id="paint0_linear_23_506" x1="12.4673" y1="5.8408" x2="57.6882" y2="27.9441" gradientUnits="userSpaceOnUse">
<stop stop-color="#7381FD"/>
<stop offset="1" stop-color="#76C7FF"/>
</linearGradient>
<linearGradient id="paint1_linear_23_506" x1="35.3799" y1="24.8498" x2="43.7725" y2="27.4277" gradientUnits="userSpaceOnUse">
<stop stop-color="#7381FD"/>
<stop offset="1" stop-color="#76C7FF"/>
</linearGradient>
<clipPath id="clip0_23_506">
<rect width="55" height="55" fill="white"/>
</clipPath>
</defs>
</svg>
