<svg width="55" height="55" viewBox="0 0 55 55" fill="none" xmlns="http://www.w3.org/2000/svg">
<g clip-path="url(#clip0_23_264)">
<path d="M0 15C0 6.71573 6.71573 0 15 0H40C48.2843 0 55 6.71573 55 15V40C55 48.2843 48.2843 55 40 55H15C6.71573 55 0 48.2843 0 40V15Z" fill="#F6FAFD"/>
<path d="M23.0187 25.8716L23.2376 25.1542L23.2365 25.1539L23.0187 25.8716ZM22.0312 26.588H21.2812L21.2813 26.5891L22.0312 26.588ZM32.2994 25.8714L32.5182 26.5888L32.5216 26.5877L32.2994 25.8714ZM33.2858 26.588L34.0358 26.5891V26.588H33.2858ZM23.807 44L23.0571 44.0058C23.0602 44.4177 23.3951 44.75 23.807 44.75V44ZM23.7547 37.2172H23.0047V37.223L23.7547 37.2172ZM22.0458 35.8589L21.2958 35.86C21.2962 36.1447 21.4578 36.4045 21.7128 36.5309L22.0458 35.8589ZM31.5623 44V44.75C31.9764 44.75 32.3122 44.4142 32.3122 44H31.5623ZM33.2712 35.8589L33.6042 36.5309C33.8592 36.4045 34.0207 36.1447 34.0212 35.86L33.2712 35.8589ZM23.2365 25.1539C22.2957 24.8686 21.2812 25.5933 21.2812 26.588H22.7812C22.7812 26.5959 22.7802 26.6031 22.7787 26.6086C22.7773 26.614 22.7757 26.6167 22.7755 26.6171C22.7753 26.6174 22.7763 26.6157 22.779 26.6127C22.7817 26.6097 22.7855 26.6061 22.7903 26.6025C22.7952 26.599 22.8002 26.5962 22.8046 26.5942C22.8091 26.5923 22.8121 26.5914 22.8135 26.5912C22.8148 26.5909 22.814 26.5912 22.8114 26.5911C22.8086 26.591 22.805 26.5905 22.8011 26.5893L23.2365 25.1539ZM32.0807 25.154C29.1407 26.0504 26.1742 26.0504 23.2376 25.1542L22.7999 26.5889C26.022 27.5723 29.2931 27.5721 32.5182 26.5888L32.0807 25.154ZM34.0358 26.588C34.0358 26.0667 33.7543 25.6409 33.4064 25.3885C33.0585 25.136 32.5696 25.0022 32.077 25.1551L32.5216 26.5877C32.5153 26.5896 32.5097 26.5904 32.5056 26.5906C32.5017 26.5908 32.5003 26.5903 32.5013 26.5905C32.5025 26.5908 32.5055 26.5916 32.5103 26.5937C32.515 26.5958 32.5204 26.5988 32.5256 26.6025C32.5308 26.6063 32.5349 26.6102 32.5379 26.6135C32.5408 26.6168 32.5419 26.6187 32.5417 26.6184C32.5415 26.6181 32.5401 26.6152 32.5386 26.6096C32.537 26.6038 32.5358 26.5963 32.5358 26.588H34.0358ZM23.0047 37.223L23.0571 44.0058L24.557 43.9942L24.5047 37.2114L23.0047 37.223ZM22.9599 37.1488C22.9899 37.1636 23.0047 37.1913 23.0047 37.2172H24.5047C24.5047 36.6159 24.1618 36.0703 23.6258 35.8047L22.9599 37.1488ZM21.7128 36.5309L22.9599 37.1488L23.6258 35.8047L22.3788 35.1868L21.7128 36.5309ZM21.2813 26.5891L21.2958 35.86L22.7958 35.8577L22.7812 26.5868L21.2813 26.5891ZM23.0047 19.9135C23.0047 22.4671 25.0982 24.532 27.6584 24.532V23.032C25.9137 23.032 24.5047 21.6258 24.5047 19.9135H23.0047ZM27.6584 15.2949C25.0982 15.2949 23.0047 17.3598 23.0047 19.9135H24.5047C24.5047 18.2011 25.9137 16.7949 27.6584 16.7949V15.2949ZM32.3122 19.9135C32.3122 17.3598 30.2187 15.2949 27.6584 15.2949V16.7949C29.4031 16.7949 30.8123 18.2011 30.8123 19.9135H32.3122ZM27.6584 24.532C30.2187 24.532 32.3122 22.4671 32.3122 19.9135H30.8123C30.8123 21.6258 29.4031 23.032 27.6584 23.032V24.532ZM30.8125 37.2172L30.8123 44H32.3122L32.3125 37.2172H30.8125ZM31.6912 35.8047C31.1551 36.0703 30.8125 36.6159 30.8125 37.2172H32.3125C32.3125 37.1913 32.3273 37.1636 32.3572 37.1488L31.6912 35.8047ZM32.9383 35.1868L31.6912 35.8047L32.3572 37.1488L33.6042 36.5309L32.9383 35.1868ZM34.0212 35.86L34.0358 26.5891L32.5358 26.5868L32.5212 35.8577L34.0212 35.86ZM31.5623 43.25H23.807V44.75H31.5623V43.25Z" fill="url(#paint0_linear_23_264)"/>
<path d="M12.9874 20.844L13.2064 20.1267L13.2051 20.1263L12.9874 20.844ZM12 21.5604H11.25V21.5616L12 21.5604ZM13.8465 39.9385L13.0966 39.9504C13.1031 40.3599 13.4369 40.6885 13.8465 40.6885V39.9385ZM13.7234 32.1897H12.9733L12.9734 32.2016L13.7234 32.1897ZM12.0145 30.8313L11.2645 30.8325C11.265 31.1171 11.4265 31.377 11.6815 31.5034L12.0145 30.8313ZM20.8031 40.6885C21.2173 40.6885 21.5531 40.3527 21.5531 39.9385C21.5531 39.5243 21.2173 39.1885 20.8031 39.1885V40.6885ZM42.0136 20.8439L42.2324 21.5613L42.2359 21.5602L42.0136 20.8439ZM43 21.5604L43.75 21.5616V21.5604H43ZM34.5496 39.1885C34.1354 39.1885 33.7996 39.5243 33.7996 39.9385C33.7996 40.3527 34.1354 40.6885 34.5496 40.6885V39.1885ZM41.3472 39.9385V40.6885C41.5486 40.6885 41.7415 40.6075 41.8826 40.4637C42.0236 40.32 42.1009 40.1255 42.0971 39.9242L41.3472 39.9385ZM41.2766 32.1897L42.0266 32.1926V32.1897H41.2766ZM42.9855 30.8313L43.3185 31.5034C43.5735 31.377 43.735 31.1171 43.7355 30.8325L42.9855 30.8313ZM34.3488 20.485C33.9433 20.4006 33.5461 20.661 33.4618 21.0666C33.3775 21.4721 33.6378 21.8692 34.0434 21.9536L34.3488 20.485ZM20.9557 21.9536C21.3612 21.8693 21.6217 21.4722 21.5374 21.0667C21.4531 20.6611 21.056 20.4007 20.6505 20.485L20.9557 21.9536ZM41.2635 35.5428L40.5135 35.5399C40.5135 35.5456 40.5135 35.5514 40.5136 35.5571L41.2635 35.5428ZM13.2051 20.1263C12.2644 19.841 11.25 20.5658 11.25 21.5604H12.75C12.75 21.5684 12.7489 21.5755 12.7474 21.5811C12.746 21.5864 12.7445 21.5892 12.7443 21.5896C12.7441 21.5899 12.745 21.5882 12.7477 21.5852C12.7504 21.5821 12.7543 21.5785 12.7591 21.575C12.7639 21.5715 12.7688 21.5687 12.7733 21.5667C12.7777 21.5647 12.7809 21.5639 12.7823 21.5636C12.7836 21.5634 12.7828 21.5637 12.7801 21.5636C12.7773 21.5635 12.7736 21.5629 12.7698 21.5618L13.2051 20.1263ZM12.9734 32.2016L13.0966 39.9504L14.5964 39.9266L14.4733 32.1777L12.9734 32.2016ZM12.9286 32.1212C12.9586 32.1361 12.9733 32.1638 12.9733 32.1897H14.4734C14.4734 31.5884 14.1306 31.0428 13.5945 30.7772L12.9286 32.1212ZM11.6815 31.5034L12.9286 32.1212L13.5945 30.7772L12.3475 30.1593L11.6815 31.5034ZM11.25 21.5616L11.2645 30.8325L12.7645 30.8302L12.75 21.5593L11.25 21.5616ZM12.9734 14.8685C12.9734 17.4222 15.0669 19.4871 17.6272 19.4871V17.9871C15.8825 17.9871 14.4734 16.5809 14.4734 14.8685H12.9734ZM17.6272 10.25C15.0669 10.25 12.9734 12.3149 12.9734 14.8685H14.4734C14.4734 13.1562 15.8825 11.75 17.6272 11.75V10.25ZM22.281 14.8685C22.281 12.3149 20.1874 10.25 17.6272 10.25V11.75C19.3718 11.75 20.781 13.1562 20.781 14.8685H22.281ZM17.6272 19.4871C20.1874 19.4871 22.281 17.4222 22.281 14.8685H20.781C20.781 16.5809 19.3718 17.9871 17.6272 17.9871V19.4871ZM20.8031 39.1885H13.8465V40.6885H20.8031V39.1885ZM43.75 21.5604C43.75 21.0392 43.4686 20.6133 43.1207 20.3609C42.7728 20.1085 42.2839 19.9747 41.7913 20.1276L42.2359 21.5602C42.2296 21.5621 42.224 21.5629 42.2199 21.5631C42.216 21.5632 42.2145 21.5628 42.2155 21.563C42.2167 21.5632 42.2198 21.564 42.2246 21.5661C42.2293 21.5682 42.2346 21.5712 42.2398 21.575C42.245 21.5788 42.2492 21.5827 42.2522 21.586C42.2551 21.5893 42.2562 21.5911 42.256 21.5909C42.2558 21.5906 42.2543 21.5877 42.2528 21.5821C42.2512 21.5763 42.25 21.5688 42.25 21.5604H43.75ZM32.6927 14.8685C32.6927 17.4222 34.7863 19.4871 37.3466 19.4871V17.9871C35.6019 17.9871 34.1927 16.5809 34.1927 14.8685H32.6927ZM37.3466 10.25C34.7863 10.25 32.6927 12.3149 32.6927 14.8685H34.1927C34.1927 13.1562 35.6019 11.75 37.3466 11.75V10.25ZM42.0004 14.8685C42.0004 12.3149 39.9068 10.25 37.3466 10.25V11.75C39.0912 11.75 40.5004 13.1562 40.5004 14.8685H42.0004ZM37.3466 19.4871C39.9068 19.4871 42.0004 17.4222 42.0004 14.8685H40.5004C40.5004 16.5809 39.0912 17.9871 37.3466 17.9871V19.4871ZM41.4055 30.7772C40.8694 31.0428 40.5266 31.5884 40.5266 32.1897H42.0266C42.0266 32.1638 42.0414 32.1361 42.0714 32.1212L41.4055 30.7772ZM42.6525 30.1593L41.4055 30.7772L42.0714 32.1212L43.3185 31.5034L42.6525 30.1593ZM43.7355 30.8325L43.75 21.5616L42.25 21.5593L42.2355 30.8301L43.7355 30.8325ZM41.3472 39.1885H34.5496V40.6885H41.3472V39.1885ZM41.7949 20.1265C39.3177 20.8818 36.8245 20.9999 34.3488 20.485L34.0434 21.9536C36.7706 22.5207 39.5192 22.3886 42.2324 21.5613L41.7949 20.1265ZM20.6505 20.485C18.173 20.9998 15.6805 20.8818 13.2064 20.1267L12.7685 21.5614C15.4791 22.3886 18.2271 22.5206 20.9557 21.9536L20.6505 20.485ZM40.5267 32.1867L40.5135 35.5399L42.0135 35.5457L42.0266 32.1926L40.5267 32.1867ZM40.5136 35.5571L40.5974 39.9528L42.0971 39.9242L42.0134 35.5285L40.5136 35.5571Z" fill="url(#paint1_linear_23_264)"/>
</g>
<defs>
<linearGradient id="paint0_linear_23_264" x1="19.6994" y1="11.5305" x2="41.8578" y2="16.8354" gradientUnits="userSpaceOnUse">
<stop stop-color="#7381FD"/>
<stop offset="1" stop-color="#76C7FF"/>
</linearGradient>
<linearGradient id="paint1_linear_23_264" x1="7.21926" y1="6.35987" x2="51.4897" y2="32.4942" gradientUnits="userSpaceOnUse">
<stop stop-color="#7381FD"/>
<stop offset="1" stop-color="#76C7FF"/>
</linearGradient>
<clipPath id="clip0_23_264">
<rect width="55" height="55" fill="white"/>
</clipPath>
</defs>
</svg>
