<svg width="55" height="55" viewBox="0 0 55 55" fill="none" xmlns="http://www.w3.org/2000/svg">
<g clip-path="url(#clip0_23_269)">
<path d="M0 15C0 6.71573 6.71573 0 15 0H40C48.2843 0 55 6.71573 55 15V40C55 48.2843 48.2843 55 40 55H15C6.71573 55 0 48.2843 0 40V15Z" fill="#F6FAFD"/>
<path d="M27.3541 11.0131C27.3823 11.0076 27.4109 11.0034 27.4397 11.0007L27.4415 11.0009C27.4683 10.9995 27.4954 10.9995 27.5223 11.0009H27.5338C27.559 11.0017 27.5844 11.004 27.6095 11.007H27.6211C27.7875 11.0291 27.9437 11.0992 28.0691 11.2086L28.1129 11.2438C28.1722 11.2855 29.6723 12.335 31.9926 13.4733C34.357 14.6335 37.4316 15.7691 40.1528 15.7691C40.6189 15.7672 40.998 16.135 41 16.5906V27.5803C41 33.6115 37.6427 37.7622 34.3543 40.324C31.0655 42.8859 27.7644 43.9582 27.7644 43.9582C27.5927 44.0138 27.4073 44.0138 27.2356 43.9582C27.2356 43.9582 23.9342 42.8859 20.6457 40.324C17.3571 37.7627 14 33.6119 14 27.5803V16.5906C14.0026 16.1372 14.3786 15.7707 14.8421 15.7699C17.5628 15.7699 20.6408 14.6343 23.0052 13.4745C25.3097 12.3439 26.8241 11.2832 26.9041 11.2271C26.9086 11.2227 26.9128 11.2185 26.9174 11.2144C27.0397 11.1073 27.1914 11.0371 27.3541 11.0131Z" stroke="url(#paint0_linear_23_269)" stroke-width="1.5"/>
<path d="M30.6122 24.2185C30.733 23.8804 30.5568 23.5085 30.2187 23.3877C29.8806 23.267 29.5087 23.4432 29.388 23.7813L30.6122 24.2185ZM25.4994 27.5838C25.2696 27.308 24.8598 27.2707 24.584 27.5005C24.3082 27.7304 24.2709 28.1402 24.5008 28.416L25.4994 27.5838ZM29.388 23.7813L27.0058 30.4514L28.23 30.8887L30.6122 24.2185L29.388 23.7813ZM27.7752 30.3147L25.4994 27.5838L24.5008 28.416L26.7766 31.147L27.7752 30.3147ZM27.0058 30.4514C27.1229 30.1234 27.5523 30.0471 27.7752 30.3147L26.7766 31.147C27.1977 31.6524 28.0087 31.5083 28.23 30.8887L27.0058 30.4514Z" fill="url(#paint1_linear_23_269)"/>
<path d="M27.5 34.9999C31.6421 34.9999 35 31.642 35 27.4999C35 23.3578 31.6421 19.9999 27.5 19.9999C23.3579 19.9999 20 23.3578 20 27.4999C20 31.642 23.3579 34.9999 27.5 34.9999Z" stroke="url(#paint2_linear_23_269)" stroke-width="1.5"/>
</g>
<defs>
<linearGradient id="paint0_linear_23_269" x1="10.6514" y1="6.78235" x2="51.8222" y2="25.4065" gradientUnits="userSpaceOnUse">
<stop stop-color="#7381FD"/>
<stop offset="1" stop-color="#76C7FF"/>
</linearGradient>
<linearGradient id="paint1_linear_23_269" x1="23.5687" y1="22.314" x2="33.3365" y2="26.5128" gradientUnits="userSpaceOnUse">
<stop stop-color="#7381FD"/>
<stop offset="1" stop-color="#76C7FF"/>
</linearGradient>
<linearGradient id="paint2_linear_23_269" x1="18.1397" y1="18.0829" x2="39.2421" y2="29.7502" gradientUnits="userSpaceOnUse">
<stop stop-color="#7381FD"/>
<stop offset="1" stop-color="#76C7FF"/>
</linearGradient>
<clipPath id="clip0_23_269">
<rect width="55" height="55" fill="white"/>
</clipPath>
</defs>
</svg>
