<svg width="55" height="55" viewBox="0 0 55 55" fill="none" xmlns="http://www.w3.org/2000/svg">
<g clip-path="url(#clip0_23_569)">
<path d="M0 15C0 6.71573 6.71573 0 15 0H40C48.2843 0 55 6.71573 55 15V40C55 48.2843 48.2843 55 40 55H15C6.71573 55 0 48.2843 0 40V15Z" fill="#F6FAFD"/>
<path d="M27.5 39L26.8589 39.3892C26.9949 39.6132 27.238 39.75 27.5 39.75C27.762 39.75 28.0051 39.6132 28.1411 39.3892L27.5 39ZM21.0709 35.7466C21.4833 35.7075 21.7858 35.3414 21.7466 34.9291C21.7075 34.5167 21.3415 34.2142 20.9291 34.2534L21.0709 35.7466ZM34.0719 34.2535C33.6596 34.2138 33.2931 34.5158 33.2535 34.9281C33.2138 35.3404 33.5158 35.7069 33.9281 35.7465L34.0719 34.2535ZM18.25 19.5C18.25 21.0227 18.8271 23.0397 19.6275 25.1348C20.4374 27.255 21.5128 29.5465 22.5812 31.6519C23.6507 33.7595 24.7194 35.6925 25.5202 37.0979C25.9208 37.8009 26.2548 38.3726 26.489 38.7691C26.6061 38.9673 26.6982 39.1218 26.7612 39.227C26.7927 39.2796 26.817 39.3198 26.8334 39.3471C26.8417 39.3607 26.8479 39.3711 26.8522 39.3782C26.8543 39.3817 26.856 39.3844 26.8571 39.3862C26.8577 39.3872 26.8586 39.3887 26.8589 39.3892C26.8589 39.389 26.859 39.3894 26.8589 39.3892C26.859 39.3893 26.8589 39.3892 27.5 39C28.1411 38.6108 28.1411 38.6108 28.1411 38.6107C28.141 38.6106 28.1412 38.6109 28.1411 38.6107C28.1409 38.6104 28.1403 38.6094 28.1398 38.6087C28.1389 38.6071 28.1374 38.6047 28.1355 38.6015C28.1316 38.595 28.1256 38.5853 28.1178 38.5722C28.1021 38.5462 28.0786 38.5072 28.0479 38.4559C27.9864 38.3533 27.8959 38.2016 27.7806 38.0063C27.5498 37.6157 27.2198 37.0507 26.8235 36.3552C26.0306 34.9638 24.9743 33.053 23.9188 30.9731C22.8622 28.891 21.8126 26.6513 21.0287 24.5995C20.2354 22.5228 19.75 20.7273 19.75 19.5H18.25ZM27.5 10.25C22.3991 10.25 18.25 14.3991 18.25 19.5H19.75C19.75 15.2276 23.2276 11.75 27.5 11.75V10.25ZM36.75 19.5C36.75 14.3991 32.6009 10.25 27.5 10.25V11.75C31.7724 11.75 35.25 15.2276 35.25 19.5H36.75ZM27.5 39C28.1411 39.3892 28.141 39.3893 28.1411 39.3892C28.141 39.3894 28.1411 39.389 28.1411 39.3892C28.1414 39.3887 28.1423 39.3872 28.1429 39.3862C28.144 39.3844 28.1457 39.3817 28.1478 39.3782C28.1521 39.3711 28.1583 39.3607 28.1666 39.3471C28.183 39.3198 28.2073 39.2796 28.2388 39.227C28.3018 39.1218 28.3939 38.9673 28.511 38.7691C28.7452 38.3726 29.0792 37.8009 29.4798 37.0979C30.2806 35.6925 31.3493 33.7595 32.4188 31.6519C33.4872 29.5465 34.5626 27.255 35.3725 25.1348C36.1729 23.0397 36.75 21.0227 36.75 19.5H35.25C35.25 20.7273 34.7646 22.5228 33.9713 24.5995C33.1874 26.6513 32.1378 28.891 31.0812 30.9731C30.0257 33.053 28.9694 34.9638 28.1765 36.3552C27.7802 37.0507 27.4502 37.6157 27.2194 38.0063C27.1041 38.2016 27.0136 38.3533 26.9521 38.4559C26.9214 38.5072 26.8979 38.5462 26.8822 38.5722C26.8744 38.5853 26.8684 38.595 26.8645 38.6015C26.8626 38.6047 26.8611 38.6071 26.8602 38.6087C26.8597 38.6094 26.8594 38.61 26.8592 38.6103C26.8591 38.6105 26.8593 38.6102 26.8592 38.6103C26.8592 38.6104 26.8589 38.6108 27.5 39ZM27.5001 42.25C26.7153 42.25 22.8841 42.2208 19.2624 41.6976C17.444 41.4349 15.7338 41.055 14.4969 40.5192C13.1919 39.9539 12.75 39.3715 12.75 38.8668H11.25C11.25 40.3707 12.5473 41.3093 13.9007 41.8956C15.3223 42.5114 17.1896 42.9137 19.0479 43.1822C22.7797 43.7213 26.6985 43.75 27.5001 43.75V42.25ZM12.75 38.8668C12.75 38.5248 12.9011 38.1945 13.2869 37.8523C13.6865 37.4978 14.2997 37.1695 15.1074 36.8803C16.7189 36.303 18.8938 35.9534 21.0709 35.7466L20.9291 34.2534C18.7181 34.4633 16.393 34.8264 14.6016 35.4681C13.7077 35.7883 12.8937 36.196 12.2915 36.7302C11.6753 37.2768 11.25 37.9881 11.25 38.8668H12.75ZM33.9281 35.7465C37.8497 36.1241 39.9724 36.7441 41.0959 37.3703C41.6463 37.6771 41.9232 37.967 42.0667 38.1984C42.206 38.4232 42.25 38.6417 42.25 38.8668H43.75C43.75 38.4209 43.656 37.9155 43.3416 37.4082C43.0314 36.9077 42.5388 36.4572 41.8262 36.0601C40.4238 35.2784 38.0465 34.6361 34.0719 34.2535L33.9281 35.7465ZM42.25 38.8668C42.25 39.3715 41.8081 39.9539 40.503 40.5192C39.2661 41.055 37.5559 41.4349 35.7374 41.6976C32.1157 42.2208 28.2845 42.25 27.5001 42.25V43.75C28.3013 43.75 32.2201 43.7213 35.9519 43.1822C37.8102 42.9137 39.6776 42.5114 41.0992 41.8956C42.4527 41.3093 43.75 40.3707 43.75 38.8668H42.25ZM31.25 19.5C31.25 21.5711 29.5711 23.25 27.5 23.25V24.75C30.3995 24.75 32.75 22.3995 32.75 19.5H31.25ZM27.5 23.25C25.4289 23.25 23.75 21.5711 23.75 19.5H22.25C22.25 22.3995 24.6005 24.75 27.5 24.75V23.25ZM23.75 19.5C23.75 17.4289 25.4289 15.75 27.5 15.75V14.25C24.6005 14.25 22.25 16.6005 22.25 19.5H23.75ZM27.5 15.75C29.5711 15.75 31.25 17.4289 31.25 19.5H32.75C32.75 16.6005 30.3995 14.25 27.5 14.25V15.75Z" fill="url(#paint0_linear_23_569)"/>
</g>
<defs>
<linearGradient id="paint0_linear_23_569" x1="7.21926" y1="5.9686" x2="53.5795" y2="30.8355" gradientUnits="userSpaceOnUse">
<stop stop-color="#7381FD"/>
<stop offset="1" stop-color="#76C7FF"/>
</linearGradient>
<clipPath id="clip0_23_569">
<rect width="55" height="55" fill="white"/>
</clipPath>
</defs>
</svg>
