<svg width="55" height="55" viewBox="0 0 55 55" fill="none" xmlns="http://www.w3.org/2000/svg">
<g clip-path="url(#clip0_23_386)">
<path d="M0 15C0 6.71573 6.71573 0 15 0H40C48.2843 0 55 6.71573 55 15V40C55 48.2843 48.2843 55 40 55H15C6.71573 55 0 48.2843 0 40V15Z" fill="#F6FAFD"/>
<path d="M38.4768 11.4992C38.1425 11.1802 37.6887 11.0011 37.2159 11L17.7854 11.0001C17.3122 11.0001 16.8583 11.1799 16.5237 11.4988C16.1888 11.8173 16 12.2493 16 12.6999V42.3002C16 42.7508 16.1889 43.183 16.5238 43.5015C16.8584 43.8204 17.312 44.0001 17.7853 44.0001H26.192H31.8045H37.2157C37.6888 44.0001 38.1426 43.8198 38.4768 43.5009C38.8112 43.1824 39 42.7505 39 42.3002V12.6999C39 12.2496 38.8112 11.8177 38.4768 11.4992Z" stroke="url(#paint0_linear_23_386)" stroke-width="1.5" stroke-linejoin="round"/>
<path d="M21 38H34" stroke="url(#paint1_linear_23_386)" stroke-width="1.5" stroke-linecap="round" stroke-linejoin="round"/>
<path d="M21 35H34" stroke="url(#paint2_linear_23_386)" stroke-width="1.5" stroke-linecap="round" stroke-linejoin="round"/>
<path d="M35 23.5C35 27.6421 31.6421 31 27.5 31C25.5309 31 23.7391 30.2412 22.4009 29C20.9242 27.6303 20 25.6731 20 23.5C20 19.3579 23.3579 16 27.5 16C29.7212 16 31.717 16.9656 33.0903 18.5C34.2779 19.8269 35 21.5791 35 23.5Z" stroke="url(#paint3_linear_23_386)" stroke-width="1.5"/>
<path d="M27.442 28C27.2794 27.9976 27.1239 27.9284 27.0081 27.8067C26.8922 27.685 26.825 27.5203 26.8204 27.347V26.7508H25.9768C25.8142 26.7484 25.6587 26.6791 25.5429 26.5575C25.427 26.4358 25.3598 26.2711 25.3552 26.0978C25.3597 25.9236 25.4266 25.7579 25.5422 25.6346C25.6579 25.5114 25.8134 25.4401 25.9768 25.4353H27.9837C28.0636 25.4353 28.1533 25.4324 28.2338 25.4038C28.3143 25.3752 28.3884 25.3293 28.4517 25.269C28.5149 25.2087 28.5658 25.1353 28.6014 25.0532C28.637 24.9711 28.6565 24.8822 28.6586 24.7918C28.6574 24.706 28.6404 24.6214 28.6086 24.5426C28.5767 24.4639 28.5306 24.3926 28.4729 24.3328C28.4151 24.2731 28.3469 24.226 28.2721 24.1943C28.1974 24.1627 28.1174 24.147 28.037 24.1483H26.9003C26.4049 24.1559 25.9268 23.954 25.5707 23.5869C25.2145 23.2198 25.0094 22.7172 25 22.1893C24.9989 21.9337 25.0451 21.6804 25.136 21.4439C25.227 21.2075 25.3609 20.9925 25.5301 20.8113C25.6992 20.6302 25.9003 20.4864 26.1217 20.3883C26.2735 20.3211 26.5852 20.2397 26.8204 20.2397V19.6625C26.8204 19.4868 26.8859 19.3183 27.0025 19.194C27.1191 19.0698 27.2772 19 27.442 19C27.6069 19 27.765 19.0698 27.8816 19.194C27.9981 19.3183 28.0636 19.4868 28.0636 19.6625V20.2397H28.8806C29.0432 20.2421 29.1987 20.3114 29.3145 20.4331C29.4304 20.5548 29.4976 20.7195 29.5022 20.8927C29.4976 21.066 29.4304 21.2307 29.3145 21.3524C29.1987 21.4741 29.0432 21.5434 28.8806 21.5457H26.8737C26.776 21.5457 26.7004 21.5431 26.6176 21.5706C26.5349 21.5981 26.4585 21.644 26.3937 21.7053C26.3288 21.7666 26.2769 21.8418 26.2413 21.9261C26.2057 22.0103 26.1874 22.1016 26.1874 22.194C26.1874 22.2864 26.2057 22.3777 26.2413 22.4619C26.2769 22.5462 26.3288 22.6214 26.3937 22.6827C26.4585 22.744 26.5349 22.7899 26.6176 22.8174C26.7004 22.8449 26.776 22.8423 26.8737 22.8423H28.0103C28.2721 22.8423 28.514 22.8532 28.7526 22.9395C28.9911 23.0258 29.2105 23.1634 29.397 23.3438C29.5836 23.5242 29.7334 23.7436 29.8371 23.9883C29.9408 24.2329 29.9961 24.4977 29.9998 24.7661C30.0035 25.0346 29.9553 25.301 29.8583 25.5487C29.7614 25.7965 29.6176 26.0204 29.4361 26.2065C29.2545 26.3926 29.039 26.537 28.8029 26.6306C28.5668 26.7242 28.4237 26.7508 28.0636 26.7508V27.347C28.0591 27.5203 27.9918 27.685 27.876 27.8067C27.7601 27.9284 27.6047 27.9976 27.442 28Z" fill="url(#paint4_linear_23_386)"/>
</g>
<defs>
<linearGradient id="paint0_linear_23_386" x1="13.1475" y1="6.78249" x2="49.9333" y2="20.9577" gradientUnits="userSpaceOnUse">
<stop stop-color="#7381FD"/>
<stop offset="1" stop-color="#76C7FF"/>
</linearGradient>
<linearGradient id="paint1_linear_23_386" x1="19.3877" y1="37.8722" x2="19.8412" y2="41.1314" gradientUnits="userSpaceOnUse">
<stop stop-color="#7381FD"/>
<stop offset="1" stop-color="#76C7FF"/>
</linearGradient>
<linearGradient id="paint2_linear_23_386" x1="19.3877" y1="34.8722" x2="19.8412" y2="38.1314" gradientUnits="userSpaceOnUse">
<stop stop-color="#7381FD"/>
<stop offset="1" stop-color="#76C7FF"/>
</linearGradient>
<linearGradient id="paint3_linear_23_386" x1="18.1397" y1="14.083" x2="39.2421" y2="25.7503" gradientUnits="userSpaceOnUse">
<stop stop-color="#7381FD"/>
<stop offset="1" stop-color="#76C7FF"/>
</linearGradient>
<linearGradient id="paint4_linear_23_386" x1="24.3799" y1="17.8498" x2="32.7725" y2="20.4277" gradientUnits="userSpaceOnUse">
<stop stop-color="#7381FD"/>
<stop offset="1" stop-color="#76C7FF"/>
</linearGradient>
<clipPath id="clip0_23_386">
<rect width="55" height="55" fill="white"/>
</clipPath>
</defs>
</svg>
