<svg width="55" height="55" viewBox="0 0 55 55" fill="none" xmlns="http://www.w3.org/2000/svg">
<g clip-path="url(#clip0_23_558)">
<path d="M0 15C0 6.71573 6.71573 0 15 0H40C48.2843 0 55 6.71573 55 15V40C55 48.2843 48.2843 55 40 55H15C6.71573 55 0 48.2843 0 40V15Z" fill="#F6FAFD"/>
<path d="M40.9949 40.8759C41.8547 40.863 42.6095 40.3304 42.895 39.5332C42.9803 39.2944 43 39.0427 43 38.7909V37.4774V35.0567V31.939V28.5728V25.4034V22.8376V21.3239V21.098C42.9902 20.2912 42.4946 19.5714 41.7365 19.268C41.3591 19.1164 40.9784 19.126 40.5846 19.126H39.1505H36.896H34.0376H30.8018L27.625 19.1254M27.625 19.1254L27.3756 19.126H23.9889H20.8581H18.2064H16.2242H15.1412C15.0658 19.126 14.987 19.126 14.9115 19.1293C14.0616 19.1745 13.3133 19.7457 13.0771 20.5526C13.0036 20.8168 12.9976 21.0985 13.0006 21.3754M27.625 19.1254L25.5381 16.8529C25.1872 16.45 24.8394 16.047 24.4885 15.6409C24.1051 15.1989 23.5982 15.0007 23.023 15.0007H19.5428H15.4972C15.078 15.0007 14.6621 14.9812 14.2624 15.1437C13.4955 15.4557 13.0146 16.1933 13.0113 17.0187L13.0006 21.3754M41.0014 40.8758H40.4697H38.9273H36.5907H33.6732H30.4079H26.9752H23.6081H20.52H17.9373H16.0503H15.0888C14.8295 40.8758 14.5735 40.85 14.3307 40.7596C13.5398 40.4692 13.0147 39.7397 13.0049 38.907C13.0016 38.6424 13.0049 38.3778 13.0049 38.1131V36.0411V33.1235V29.8121V26.5104V23.6703V21.7273C13.0049 21.612 13.0019 21.4941 13.0006 21.3754" stroke="url(#paint0_linear_23_558)" stroke-width="1.5"/>
<path fill-rule="evenodd" clip-rule="evenodd" d="M36.0673 27.3654H34.7019V33.5096H36.0673V34.875H31.9711V33.5096H33.3365V27.3654H31.9711V26H36.0673V27.3654ZM25.8269 26.6827C25.8269 26.3057 26.1326 26 26.5096 26H28.5577C29.5332 26 30.4348 26.5206 30.9227 27.3654C31.4103 28.2102 31.4103 29.2513 30.9227 30.0961C30.4347 30.941 29.5332 31.4615 28.5577 31.4615H27.1923V34.875H25.8269V26.6827ZM19 28.7308C19 27.7552 19.5206 26.8536 20.3654 26.3658C21.2102 25.8781 22.2513 25.8781 23.0961 26.3658C23.941 26.8537 24.4615 27.7553 24.4615 28.7308V34.875H23.0961V32.8269H20.3654V34.875H19V28.7308ZM29.923 28.7308C29.923 28.3687 29.7792 28.0212 29.5232 27.7652C29.2672 27.5092 28.9197 27.3654 28.5576 27.3654H27.1923V30.0961H28.5576C28.9197 30.0961 29.2672 29.9523 29.5232 29.6963C29.7792 29.4403 29.923 29.0928 29.923 28.7308ZM22.4134 27.5483C22.8359 27.7921 23.0961 28.2428 23.0961 28.7308V31.4615H20.3654V28.7308C20.3654 28.2428 20.6257 27.7921 21.0481 27.5483C21.4705 27.3044 21.991 27.3044 22.4134 27.5483Z" fill="url(#paint1_linear_23_558)"/>
</g>
<defs>
<linearGradient id="paint0_linear_23_558" x1="9.27932" y1="11.693" x2="48.3371" y2="36.7293" gradientUnits="userSpaceOnUse">
<stop stop-color="#7381FD"/>
<stop offset="1" stop-color="#76C7FF"/>
</linearGradient>
<linearGradient id="paint1_linear_23_558" x1="16.8833" y1="24.8657" x2="31.5984" y2="40.5116" gradientUnits="userSpaceOnUse">
<stop stop-color="#7381FD"/>
<stop offset="1" stop-color="#76C7FF"/>
</linearGradient>
<clipPath id="clip0_23_558">
<rect width="55" height="55" fill="white"/>
</clipPath>
</defs>
</svg>
