<svg width="55" height="55" viewBox="0 0 55 55" fill="none" xmlns="http://www.w3.org/2000/svg">
<g clip-path="url(#clip0_23_361)">
<path d="M0 15C0 6.71573 6.71573 0 15 0H40C48.2843 0 55 6.71573 55 15V40C55 48.2843 48.2843 55 40 55H15C6.71573 55 0 48.2843 0 40V15Z" fill="#F6FAFD"/>
<path d="M12 24.4951L11.25 24.4934V24.4951H12ZM35.4329 27.1469L35.9485 27.6917C35.9746 27.6669 35.9989 27.6404 36.0212 27.6122L35.4329 27.1469ZM28.2115 33.9814L27.6959 33.4367C27.6699 33.4614 27.6456 33.4879 27.6234 33.516L28.2115 33.9814ZM35.4696 26.8335L34.7888 27.1484L34.7893 27.1494L35.4696 26.8335ZM20.5072 26.8341L19.8264 26.5193C19.8204 26.5324 19.8147 26.5458 19.8093 26.5592L20.5072 26.8341ZM20.5437 27.147L19.9539 27.6102C19.9766 27.6392 20.0015 27.6664 20.0282 27.6917L20.5437 27.147ZM27.7651 33.9814L28.354 33.517C28.3316 33.4885 28.307 33.4617 28.2807 33.4367L27.7651 33.9814ZM24.7426 14.0863L25.2799 14.6095L25.2808 14.6086L24.7426 14.0863ZM31.3235 26.6648L31.0106 27.3464C31.1087 27.3915 31.2154 27.4148 31.3235 27.4148V26.6648ZM24.6545 26.6653V27.4153C24.7627 27.4153 24.8697 27.3919 24.968 27.3466L24.6545 26.6653ZM31.3197 14.2952L32.0698 14.2953L32.0696 14.2841L31.3197 14.2952ZM31.3196 14.2861L32.0696 14.275L32.0692 14.2638L31.3196 14.2861ZM20.8804 23.4393C21.2946 23.4393 21.6304 23.1035 21.6304 22.6893C21.6304 22.2751 21.2946 21.9393 20.8804 21.9393V23.4393ZM35.2098 21.9393C34.7955 21.9393 34.4597 22.2751 34.4597 22.6893C34.4597 23.1035 34.7955 23.4393 35.2097 23.4393L35.2098 21.9393ZM12.75 24.4967C12.7507 24.1915 12.8604 23.9134 13.0339 23.7206L11.919 22.7172C11.4835 23.201 11.2514 23.8415 11.25 24.4934L12.75 24.4967ZM13.0344 38.969C12.8602 38.7752 12.75 38.4965 12.75 38.1928H11.25C11.25 38.847 11.4837 39.4877 11.9183 39.9712L13.0344 38.969ZM13.6225 39.2499C13.42 39.2499 13.2061 39.1605 13.0344 38.969L11.9183 39.9712C12.3546 40.4576 12.9648 40.7499 13.6225 40.7499V39.2499ZM42.9422 38.9684C42.7704 39.16 42.5558 39.25 42.3533 39.25V40.75C43.011 40.75 43.622 40.4571 44.0583 39.9706L42.9422 38.9684ZM43.2259 38.1931C43.2259 38.4967 43.1164 38.7747 42.9422 38.9684L44.0583 39.9706C44.4928 39.4872 44.7259 38.8473 44.7259 38.1931H43.2259ZM42.9415 23.7202C43.1157 23.9138 43.2259 24.1922 43.2259 24.4954H44.7259C44.7259 23.8408 44.4915 23.2002 44.0569 22.7173L42.9415 23.7202ZM12.75 38.1928V24.4951H11.25V38.1928H12.75ZM43.2259 35.7958V38.1931H44.7259V35.7958H43.2259ZM43.2259 24.4954V33.3331H44.7259V24.4954H43.2259ZM43.2259 33.3331V35.7958H44.7259V33.3331H43.2259ZM42.3533 23.4394C42.5554 23.4394 42.7695 23.5287 42.9415 23.7202L44.0569 22.7173C43.6208 22.2318 43.0108 21.9394 42.3534 21.9394L42.3533 23.4394ZM13.0339 23.7206C13.2058 23.5293 13.4204 23.4393 13.6226 23.4393V21.9393C12.9653 21.9393 12.3551 22.2317 11.919 22.7172L13.0339 23.7206ZM42.3533 39.25L13.6225 39.2499V40.7499L42.3533 40.75V39.25ZM34.9174 26.6022L27.6959 33.4367L28.727 34.5262L35.9485 27.6917L34.9174 26.6022ZM34.7893 27.1494C34.7181 26.996 34.7385 26.816 34.8447 26.6817L36.0212 27.6122C36.2674 27.3009 36.3164 26.8765 36.1498 26.5177L34.7893 27.1494ZM35.2097 27.4148C35.0196 27.4148 34.8603 27.3028 34.7888 27.1484L36.1503 26.5187C35.9837 26.1586 35.6217 25.9148 35.2097 25.9148V27.4148ZM21.1879 27.1489C21.1167 27.3027 20.9575 27.4153 20.7669 27.4153V25.9153C20.3542 25.9153 19.9928 26.1596 19.8264 26.5193L21.1879 27.1489ZM21.1336 26.6838C21.203 26.7721 21.2257 26.8597 21.2318 26.9183C21.238 26.9773 21.2315 27.0417 21.205 27.109L19.8093 26.5592C19.6904 26.8611 19.695 27.2806 19.9539 27.6102L21.1336 26.6838ZM28.2807 33.4367L21.0593 26.6023L20.0282 27.6917L27.2496 34.5262L28.2807 33.4367ZM27.9885 33.3408C28.1369 33.3408 28.2692 33.4095 28.354 33.517L27.1762 34.4458C27.3692 34.6905 27.6669 34.8408 27.9885 34.8408V33.3408ZM27.6234 33.516C27.7071 33.4102 27.8394 33.3408 27.9885 33.3408V34.8408C28.31 34.8408 28.6064 34.6909 28.7996 34.4469L27.6234 33.516ZM24.2052 13.5631C24.0114 13.7621 23.9088 14.0262 23.9088 14.2946H25.4088C25.4088 14.4071 25.3657 14.5214 25.2799 14.6095L24.2052 13.5631ZM24.9457 13.2499C24.6636 13.2499 24.397 13.3654 24.2043 13.564L25.2808 14.6086C25.195 14.697 25.0749 14.7499 24.9457 14.7499V13.2499ZM31.0318 13.2499H24.9457V14.7499H31.0318V13.2499ZM31.7729 13.5631C31.5794 13.3644 31.3132 13.2499 31.0318 13.2499V14.7499C30.904 14.7499 30.7839 14.6976 30.6982 14.6095L31.7729 13.5631ZM31.3235 27.4148H35.2097V25.9148H31.3235V27.4148ZM20.7669 27.4153H24.6545V25.9153H20.7669V27.4153ZM23.9086 26.661C23.9086 26.4375 24.006 26.2808 24.0617 26.2078C24.1195 26.132 24.1789 26.0846 24.209 26.0622C24.2429 26.037 24.2726 26.0195 24.2913 26.0091C24.3015 26.0034 24.3108 25.9986 24.3188 25.9946C24.3229 25.9925 24.3268 25.9907 24.3304 25.9889C24.3323 25.988 24.3341 25.9872 24.3358 25.9864C24.3367 25.986 24.3375 25.9855 24.3384 25.9852C24.3388 25.985 24.3392 25.9848 24.3397 25.9846C24.3395 25.9847 24.3399 25.9845 24.3397 25.9846C24.3398 25.9845 24.3405 25.9842 24.3406 25.9841C24.3408 25.9841 24.3409 25.984 24.6545 26.6653C24.968 27.3466 24.9679 27.3466 24.968 27.3466C24.9679 27.3467 24.9681 27.3465 24.968 27.3466C24.9682 27.3465 24.9691 27.3461 24.9693 27.346C24.9697 27.3458 24.9701 27.3456 24.9705 27.3454C24.9714 27.345 24.9723 27.3446 24.9731 27.3442C24.9749 27.3434 24.9767 27.3425 24.9786 27.3417C24.9823 27.3399 24.9862 27.3379 24.9904 27.3358C24.9987 27.3317 25.0083 27.3267 25.0189 27.3208C25.0384 27.31 25.0691 27.2919 25.1041 27.2659C25.1352 27.2427 25.1956 27.1944 25.2543 27.1176C25.3107 27.0436 25.4086 26.8857 25.4086 26.661H23.9086ZM31.3235 26.6648C31.6364 25.9832 31.6365 25.9833 31.6367 25.9833C31.6369 25.9834 31.6374 25.9837 31.6376 25.9838C31.638 25.984 31.6385 25.9841 31.6389 25.9843C31.6397 25.9847 31.6406 25.9851 31.6415 25.9856C31.6432 25.9864 31.645 25.9872 31.6468 25.9881C31.6505 25.9898 31.6544 25.9917 31.6585 25.9938C31.6665 25.9978 31.6758 26.0026 31.686 26.0083C31.7048 26.0187 31.7345 26.0361 31.7685 26.0614C31.7986 26.0838 31.8581 26.1311 31.916 26.207C31.9719 26.2801 32.0693 26.4369 32.0693 26.6605H30.5693C30.5693 26.8853 30.6672 27.0432 30.7239 27.1173C30.7826 27.1943 30.8431 27.2425 30.8742 27.2657C30.9093 27.2917 30.94 27.3098 30.9596 27.3206C30.9702 27.3265 30.9798 27.3315 30.9881 27.3356C30.9923 27.3377 30.9963 27.3397 31 27.3414C31.0018 27.3423 31.0037 27.3432 31.0054 27.344C31.0063 27.3444 31.0072 27.3448 31.008 27.3452C31.0085 27.3454 31.0089 27.3456 31.0093 27.3458C31.0095 27.3459 31.0104 27.3463 31.0106 27.3464C31.0106 27.3463 31.0107 27.3465 31.0106 27.3464C31.0108 27.3464 31.0106 27.3464 31.3235 26.6648ZM32.0696 14.2841V14.275L30.5697 14.2973L30.5698 14.3064L32.0696 14.2841ZM32.0692 14.2638C32.0615 14.0045 31.9581 13.7533 31.7729 13.5631L30.6982 14.6095C30.6167 14.5258 30.5732 14.4175 30.5699 14.3085L32.0692 14.2638ZM23.9088 14.2946L23.9087 17.2492H25.4087L25.4088 14.2946H23.9088ZM23.9087 17.2492L23.9086 26.661H25.4086L25.4087 17.2492H23.9087ZM30.5697 14.2952L30.5696 17.2492H32.0696L32.0698 14.2953L30.5697 14.2952ZM30.5696 17.2492L30.5693 26.6605H32.0693L32.0696 17.2492H30.5696ZM13.6226 23.4393H20.8804V21.9393H13.6226V23.4393ZM42.3534 21.9394L35.2098 21.9393L35.2097 23.4393L42.3533 23.4394L42.3534 21.9394Z" fill="url(#paint0_linear_23_361)"/>
</g>
<defs>
<linearGradient id="paint0_linear_23_361" x1="7.09823" y1="9.73532" x2="49.4191" y2="38.2186" gradientUnits="userSpaceOnUse">
<stop stop-color="#7381FD"/>
<stop offset="1" stop-color="#76C7FF"/>
</linearGradient>
<clipPath id="clip0_23_361">
<rect width="55" height="55" fill="white"/>
</clipPath>
</defs>
</svg>
