<svg width="55" height="55" viewBox="0 0 55 55" fill="none" xmlns="http://www.w3.org/2000/svg">
<g clip-path="url(#clip0_23_552)">
<path d="M0 15C0 6.71573 6.71573 0 15 0H40C48.2843 0 55 6.71573 55 15V40C55 48.2843 48.2843 55 40 55H15C6.71573 55 0 48.2843 0 40V15Z" fill="#F6FAFD"/>
<path d="M33.8364 21.3417L33.8285 16.0038C33.8285 15.7255 33.6012 15.5 33.3207 15.5H11.5078C11.2273 15.5 11 15.7255 11 16.0038L11.0119 34.1309H14.7473M33.8364 21.3417H36.3252C40.5568 21.3417 44 24.758 44 28.9563V34.1309H42.5233M33.8364 21.3417C33.8301 21.3417 33.8249 21.3469 33.8249 21.3534L33.8364 34.1309M22.5672 34.1309H35.003M40.2138 25.0986C41.1295 26.007 41.6827 27.1777 41.8013 28.4421C41.8019 28.4489 41.7966 28.4548 41.7899 28.4548L36.0158 28.4979C36.0094 28.498 36.0042 28.4927 36.0042 28.4863V23.5125C36.0042 23.506 36.0093 23.5008 36.0157 23.5008C37.4833 23.5038 39.1791 24.072 40.2138 25.0986ZM18.6573 39.5C16.5003 39.5 14.7473 37.7607 14.7473 35.6207C14.7473 33.4807 16.5003 31.7414 18.6573 31.7414C20.814 31.7414 22.5672 33.4809 22.5672 35.6207C22.5672 37.7607 20.8116 39.5 18.6573 39.5ZM38.9129 39.5C36.756 39.5 35.003 37.7607 35.003 35.6207C35.003 33.4807 36.756 31.7414 38.9129 31.7414C41.0699 31.7414 42.8229 33.4807 42.8229 35.6207C42.8229 37.7607 41.0699 39.5 38.9129 39.5Z" stroke="url(#paint0_linear_23_552)" stroke-width="1.5" stroke-linecap="round" stroke-linejoin="round"/>
<path d="M17.7577 28.249C18.8904 29.3919 20.3981 30.0222 22 30.0222C23.6019 30.0222 25.1096 29.3948 26.2423 28.249C27.3752 27.1063 28 25.5852 28 23.9691C28 22.3531 27.3751 20.832 26.2423 19.6892C25.1096 18.5464 23.6019 17.916 22 17.916C20.3978 17.916 18.8904 18.5464 17.7577 19.6892C16.6248 20.832 16 22.3531 16 23.9691C16 25.5852 16.6249 27.1062 17.7577 28.249Z" stroke="url(#paint1_linear_23_552)" stroke-width="1.5" stroke-linecap="round" stroke-linejoin="round"/>
<path d="M21.9999 20.47V21.3988L22.0045 21.4033V21.7067M22.0045 21.7067H23.2163M22.0045 21.7067H21.3018C20.7269 21.7067 20.2656 22.1512 20.2656 22.7052C20.2656 23.2591 20.7269 23.7036 21.3018 23.7036H22.3828C23.1367 23.7036 23.7339 24.2791 23.7339 25.0055C23.7339 25.7319 23.1367 26.3074 22.3828 26.3074H22.0045M22.0045 27.468L21.9999 26.3119L22.0045 26.3074M22.0045 26.3074L21.685 26.3119L21.6803 26.3074H20.4461" stroke="url(#paint2_linear_23_552)" stroke-width="1.3" stroke-linecap="round" stroke-linejoin="round"/>
</g>
<defs>
<linearGradient id="paint0_linear_23_552" x1="6.90725" y1="12.4327" x2="45.3225" y2="41.6369" gradientUnits="userSpaceOnUse">
<stop stop-color="#7381FD"/>
<stop offset="1" stop-color="#76C7FF"/>
</linearGradient>
<linearGradient id="paint1_linear_23_552" x1="14.5117" y1="16.3688" x2="31.463" y2="25.6588" gradientUnits="userSpaceOnUse">
<stop stop-color="#7381FD"/>
<stop offset="1" stop-color="#76C7FF"/>
</linearGradient>
<linearGradient id="paint2_linear_23_552" x1="19.8355" y1="19.5756" x2="25.7614" y2="21.1994" gradientUnits="userSpaceOnUse">
<stop stop-color="#7381FD"/>
<stop offset="1" stop-color="#76C7FF"/>
</linearGradient>
<clipPath id="clip0_23_552">
<rect width="55" height="55" fill="white"/>
</clipPath>
</defs>
</svg>
