<svg width="55" height="55" viewBox="0 0 55 55" fill="none" xmlns="http://www.w3.org/2000/svg">
<g clip-path="url(#clip0_23_589)">
<path d="M0 15C0 6.71573 6.71573 0 15 0H40C48.2843 0 55 6.71573 55 15V40C55 48.2843 48.2843 55 40 55H15C6.71573 55 0 48.2843 0 40V15Z" fill="#F6FAFD"/>
<path d="M38 12.5529C38 11.6862 37.2653 11 36.3384 11M38 12.5529C38 11.6762 37.2766 11 36.3384 11M38 12.5529V15.8925H17.0003M38 12.5529V20.5L37.9999 40V40.6697M36.3384 11H18.6617M17.0003 15.8925V12.5529M17.0003 15.8925L17.0002 40.6697M37.9999 40.6697H17.0002M37.9999 40.6697L37.9998 42.4471M18.6617 11C17.7344 11 17.0003 11.6867 17.0003 12.5529M18.6617 11C17.7235 11 17.0003 11.6762 17.0003 12.5529M17.0003 12.5529L17 42.4471M17 42.4471L17.0002 40.6697M17 42.4471C17 43.3138 17.7347 44 18.6616 44M17 42.4471C17 43.3238 17.7234 44 18.6616 44M37.9998 42.4471C37.9998 43.3134 37.2656 44 36.3383 44M37.9998 42.4471C37.9998 43.3238 37.2765 44 36.3383 44M18.6616 44H36.3383M24.9748 13.5H30.0252" stroke="url(#paint0_linear_23_589)" stroke-width="1.5" stroke-linecap="round" stroke-linejoin="round"/>
<path d="M21.6499 25.9429V22C21.6499 21.8067 21.8066 21.65 21.9999 21.65H25.9427C26.136 21.65 26.2927 21.8067 26.2927 22V25.9429C26.2927 26.1362 26.136 26.2929 25.9427 26.2929H21.9999C21.8066 26.2929 21.6499 26.1362 21.6499 25.9429ZM28.7071 25.9429V22C28.7071 21.8067 28.8638 21.65 29.0571 21.65H32.9999C33.1932 21.65 33.3499 21.8067 33.3499 22V25.9429C33.3499 26.1362 33.1932 26.2929 32.9999 26.2929H29.0571C28.8638 26.2929 28.7071 26.1362 28.7071 25.9429ZM21.6499 33V29.0571C21.6499 28.8638 21.8066 28.7071 21.9999 28.7071H25.9427C26.136 28.7071 26.2927 28.8638 26.2927 29.0571V33C26.2927 33.1933 26.136 33.35 25.9427 33.35H21.9999C21.8066 33.35 21.6499 33.1933 21.6499 33ZM28.7071 33V29.0571C28.7071 28.8638 28.8638 28.7071 29.0571 28.7071H32.9999C33.1932 28.7071 33.3499 28.8638 33.3499 29.0571V33C33.3499 33.1933 33.1932 33.35 32.9999 33.35H29.0571C28.8638 33.35 28.7071 33.1933 28.7071 33Z" stroke="url(#paint1_linear_23_589)" stroke-width="1.3"/>
</g>
<defs>
<linearGradient id="paint0_linear_23_589" x1="14.3955" y1="6.7825" x2="48.7208" y2="18.8595" gradientUnits="userSpaceOnUse">
<stop stop-color="#7381FD"/>
<stop offset="1" stop-color="#76C7FF"/>
</linearGradient>
<linearGradient id="paint1_linear_23_589" x1="20.1988" y1="20.1547" x2="36.6587" y2="29.2552" gradientUnits="userSpaceOnUse">
<stop stop-color="#7381FD"/>
<stop offset="1" stop-color="#76C7FF"/>
</linearGradient>
<clipPath id="clip0_23_589">
<rect width="55" height="55" fill="white"/>
</clipPath>
</defs>
</svg>
