<svg width="55" height="55" viewBox="0 0 55 55" fill="none" xmlns="http://www.w3.org/2000/svg">
<g clip-path="url(#clip0_23_514)">
<path d="M0 15C0 6.71573 6.71573 0 15 0H40C48.2843 0 55 6.71573 55 15V40C55 48.2843 48.2843 55 40 55H15C6.71573 55 0 48.2843 0 40V15Z" fill="#F6FAFD"/>
<path d="M39.0643 20.1779C38.9292 20.1759 38.8001 20.1186 38.7039 20.018C38.6078 19.9174 38.5519 19.7813 38.5481 19.638V19.1451H37.8477C37.7127 19.1431 37.5835 19.0859 37.4874 18.9853C37.3912 18.8847 37.3354 18.7485 37.3316 18.6053C37.3353 18.4612 37.3909 18.3242 37.4869 18.2224C37.5829 18.1205 37.712 18.0615 37.8477 18.0576H39.514C39.5804 18.0576 39.6549 18.0551 39.7217 18.0315C39.7885 18.0078 39.8501 17.9699 39.9026 17.9201C39.9551 17.8702 39.9974 17.8095 40.027 17.7417C40.0565 17.6738 40.0727 17.6003 40.0744 17.5256C40.0734 17.4547 40.0593 17.3847 40.0329 17.3195C40.0064 17.2544 39.9681 17.1955 39.9202 17.1461C39.8723 17.0967 39.8156 17.0578 39.7535 17.0316C39.6914 17.0054 39.6251 16.9925 39.5583 16.9935H38.6145C38.2031 16.9998 37.8062 16.8329 37.5105 16.5294C37.2148 16.2259 37.0444 15.8104 37.0366 15.374C37.0357 15.1627 37.074 14.9533 37.1496 14.7578C37.2251 14.5623 37.3363 14.3845 37.4767 14.2348C37.6172 14.085 37.7841 13.9662 37.968 13.8851C38.0941 13.8295 38.3529 13.7622 38.5481 13.7622V13.285C38.5481 13.1397 38.6025 13.0004 38.6993 12.8977C38.7961 12.795 38.9274 12.7373 39.0643 12.7373C39.2012 12.7373 39.3324 12.795 39.4292 12.8977C39.526 13.0004 39.5804 13.1397 39.5804 13.285V13.7622H40.2587C40.3938 13.7642 40.5229 13.8215 40.6191 13.9221C40.7153 14.0227 40.7711 14.1588 40.7749 14.3021C40.7711 14.4453 40.7153 14.5815 40.6191 14.6821C40.5229 14.7827 40.3938 14.84 40.2587 14.8419H38.5924C38.5113 14.8419 38.4485 14.8398 38.3798 14.8625C38.3111 14.8853 38.2477 14.9232 38.1938 14.9739C38.14 15.0245 38.0968 15.0867 38.0673 15.1564C38.0378 15.226 38.0225 15.3015 38.0225 15.3779C38.0225 15.4543 38.0378 15.5298 38.0673 15.5994C38.0968 15.669 38.14 15.7312 38.1938 15.7819C38.2477 15.8326 38.3111 15.8705 38.3798 15.8932C38.4485 15.916 38.5113 15.9138 38.5924 15.9138H39.5362C39.7535 15.9138 39.9544 15.9229 40.1525 15.9942C40.3505 16.0656 40.5327 16.1793 40.6876 16.3285C40.8425 16.4776 40.9668 16.659 41.0529 16.8612C41.139 17.0635 41.185 17.2824 41.1881 17.5043C41.1911 17.7263 41.1511 17.9465 41.0706 18.1513C40.9901 18.3562 40.8707 18.5413 40.72 18.6951C40.5692 18.849 40.3903 18.9683 40.1942 19.0457C39.9982 19.1231 39.8793 19.1451 39.5804 19.1451V19.638C39.5766 19.7813 39.5208 19.9174 39.4246 20.018C39.3284 20.1186 39.1993 20.1759 39.0643 20.1779Z" fill="url(#paint0_linear_23_514)"/>
<path d="M36.5429 40.1107L35.9517 40.5722L35.9588 40.5813L35.9663 40.5902L36.5429 40.1107ZM16.6662 35.2824L16.5246 36.0189L16.5554 36.0248L16.5866 36.0282L16.6662 35.2824ZM12.6189 34.5046L12.7605 33.768L12.7318 33.7625L12.7027 33.7593L12.6189 34.5046ZM29.2579 13.6636L29.9969 13.5354L29.9948 13.5244L29.2579 13.6636ZM11.8095 25.9481L11.9847 25.2189L11.9828 25.2184L11.8095 25.9481ZM42.9534 25.573C42.8756 25.1661 42.4828 24.8994 42.0759 24.9771C41.6691 25.0549 41.4023 25.4478 41.4801 25.8546L42.9534 25.573ZM31.6722 14.3786C32.0671 14.5036 32.4886 14.2848 32.6136 13.8899C32.7386 13.495 32.5198 13.0735 32.1249 12.9485L31.6722 14.3786ZM39.0942 26.0857L38.4763 26.5108C38.6162 26.7142 38.8473 26.8357 39.0942 26.8357C39.3411 26.8357 39.5722 26.7142 39.7121 26.5108L39.0942 26.0857ZM37.1342 39.6493L35.3534 37.3675L34.1709 38.2904L35.9517 40.5722L37.1342 39.6493ZM34.8646 35.9621V30.7375H33.3646V35.9621H34.8646ZM29.0129 28.6972L26.3638 31.8086L27.5059 32.781L30.155 29.6696L29.0129 28.6972ZM18.7836 34.7542L16.7458 34.5367L16.5866 36.0282L18.6244 36.2458L18.7836 34.7542ZM16.8077 34.5459L12.7605 33.768L12.4774 35.2411L16.5246 36.0189L16.8077 34.5459ZM26.3638 31.8086C24.4464 34.0606 21.8198 35.0784 18.7836 34.7542L18.6244 36.2458C22.1325 36.6203 25.2538 35.4262 27.5059 32.781L26.3638 31.8086ZM33.0276 27.8663C31.6597 27.2091 29.9947 27.5441 29.0129 28.6972L30.155 29.6696C30.6852 29.0469 31.6104 28.8496 32.378 29.2184L33.0276 27.8663ZM34.8646 30.7375C34.8646 29.5078 34.1419 28.4017 33.0276 27.8663L32.378 29.2184C32.9942 29.5144 33.3646 30.1081 33.3646 30.7375H34.8646ZM35.3534 37.3675C35.0343 36.9587 34.8646 36.4655 34.8646 35.9621H33.3646C33.3646 36.8052 33.6493 37.6222 34.1709 38.2904L35.3534 37.3675ZM28.5189 13.7917L29.3926 18.8293L30.8705 18.5729L29.9969 13.5354L28.5189 13.7917ZM26.5241 21.5412L25.2175 21.3319L24.9803 22.813L26.2869 23.0223L26.5241 21.5412ZM15.3072 26.0171L11.9847 25.2189L11.6343 26.6774L14.9568 27.4756L15.3072 26.0171ZM19.0732 24.3642C18.3896 25.678 16.8289 26.3827 15.3072 26.0171L14.9568 27.4756C17.1198 27.9952 19.389 27.0071 20.4039 25.0565L19.0732 24.3642ZM25.2175 21.3319C22.5687 20.9077 20.2873 22.0308 19.0732 24.3642L20.4039 25.0565C21.311 23.3131 22.9505 22.4879 24.9803 22.813L25.2175 21.3319ZM29.3926 18.8293C29.6622 20.3838 28.2525 21.818 26.5241 21.5412L26.2869 23.0223C28.9413 23.4474 31.3314 21.2302 30.8705 18.5729L29.3926 18.8293ZM41.4801 25.8546C41.6466 26.7257 41.7337 27.624 41.7337 28.5424H43.2337C43.2337 27.5289 43.1375 26.5363 42.9534 25.573L41.4801 25.8546ZM26.8295 13.6357C27.58 13.6357 28.3175 13.687 29.0386 13.7861L29.2427 12.3C28.4541 12.1917 27.6484 12.1357 26.8295 12.1357V13.6357ZM29.0386 13.7861C29.9445 13.9105 30.8247 14.1103 31.6722 14.3786L32.1249 12.9485C31.1968 12.6547 30.2334 12.4361 29.2427 12.3L29.0386 13.7861ZM29.9948 13.5244L29.8776 12.9038L28.4037 13.1822L28.5209 13.8027L29.9948 13.5244ZM41.7337 28.5424C41.7337 33.2447 39.5113 37.6681 36.4853 39.9973L37.4003 41.1859C40.8259 38.5491 43.2337 33.6701 43.2337 28.5424H41.7337ZM36.4853 39.9973C33.8392 42.0341 30.6849 43.25 26.8295 43.25V44.75C31.0318 44.75 34.5048 43.4147 37.4003 41.1859L36.4853 39.9973ZM35.9663 40.5902L36.3661 41.0711L37.5195 40.1121L37.1196 39.6312L35.9663 40.5902ZM26.8295 43.25C20.5024 43.25 15.3978 39.4348 13.0159 34.1635L11.649 34.7812C14.2481 40.5332 19.8535 44.75 26.8295 44.75V43.25ZM13.0159 34.1635C12.2014 32.361 11.75 30.3726 11.75 28.2817H10.25C10.25 30.591 10.7491 32.7895 11.649 34.7812L13.0159 34.1635ZM12.7027 33.7593L12.4163 33.727L12.2487 35.2177L12.5351 35.2499L12.7027 33.7593ZM11.75 28.2817C11.75 27.48 11.8164 26.6938 11.944 25.9275L10.4643 25.6811C10.3232 26.5284 10.25 27.3971 10.25 28.2817H11.75ZM11.944 25.9275C13.1174 18.8807 19.1264 13.6357 26.8295 13.6357V12.1357C18.4054 12.1357 11.7602 17.8989 10.4643 25.6811L11.944 25.9275ZM11.9828 25.2184L11.3775 25.0746L11.0308 26.534L11.6361 26.6778L11.9828 25.2184ZM33.4384 15.8294C33.4384 16.767 33.7958 17.914 34.2623 19.0378C34.7382 20.1844 35.3673 21.3978 35.9881 22.498C36.6103 23.6005 37.2313 24.6021 37.6963 25.3274C37.929 25.6904 38.1232 25.985 38.2595 26.1894C38.3277 26.2916 38.3814 26.3713 38.4184 26.4258C38.4368 26.453 38.4511 26.4739 38.4608 26.4882C38.4657 26.4953 38.4695 26.5008 38.4721 26.5046C38.4734 26.5065 38.4744 26.508 38.4751 26.509C38.4754 26.5095 38.4761 26.5105 38.4763 26.5108C38.4762 26.5107 38.4764 26.511 38.4763 26.5108C38.4763 26.5109 38.4763 26.5108 39.0942 26.0857C39.7121 25.6607 39.7122 25.6607 39.7122 25.6607C39.7121 25.6605 39.7124 25.661 39.7122 25.6607C39.7117 25.66 39.7103 25.658 39.7093 25.6565C39.7071 25.6534 39.7039 25.6486 39.6994 25.6421C39.6906 25.6292 39.6774 25.6097 39.6599 25.584C39.625 25.5325 39.5733 25.4559 39.5074 25.357C39.3754 25.1592 39.1863 24.8722 38.9591 24.5178C38.5042 23.8083 37.8988 22.8318 37.2945 21.7608C36.6889 20.6875 36.0915 19.5321 35.6477 18.4627C35.1943 17.3704 34.9384 16.4542 34.9384 15.8294H33.4384ZM39.0942 10.25C35.9862 10.25 33.4384 12.7413 33.4384 15.8294H34.9384C34.9384 13.5919 36.7924 11.75 39.0942 11.75V10.25ZM44.75 15.8294C44.75 12.7413 42.2022 10.25 39.0942 10.25V11.75C41.3961 11.75 43.25 13.5919 43.25 15.8294H44.75ZM39.0942 26.0857C39.7121 26.5108 39.712 26.5109 39.7121 26.5108C39.712 26.511 39.7121 26.5107 39.7121 26.5108C39.7123 26.5105 39.713 26.5095 39.7134 26.509C39.7141 26.508 39.7151 26.5065 39.7164 26.5046C39.719 26.5008 39.7227 26.4953 39.7276 26.4882C39.7374 26.4739 39.7516 26.453 39.7701 26.4258C39.807 26.3713 39.8608 26.2916 39.9289 26.1894C40.0653 25.985 40.2594 25.6904 40.4921 25.3274C40.9571 24.6021 41.5782 23.6005 42.2003 22.498C42.8211 21.3978 43.4502 20.1844 43.9262 19.0378C44.3926 17.914 44.75 16.767 44.75 15.8294H43.25C43.25 16.4542 42.9942 17.3704 42.5408 18.4627C42.0969 19.5321 41.4996 20.6875 40.8939 21.7608C40.2896 22.8318 39.6842 23.8083 39.2294 24.5178C39.0021 24.8722 38.813 25.1592 38.6811 25.357C38.6151 25.4559 38.5635 25.5325 38.5285 25.584C38.5111 25.6097 38.4978 25.6292 38.489 25.6421C38.4846 25.6486 38.4813 25.6534 38.4792 25.6565C38.4781 25.658 38.4773 25.6592 38.4769 25.6599C38.4766 25.6602 38.4769 25.6597 38.4769 25.6599C38.4769 25.6599 38.4763 25.6607 39.0942 26.0857Z" fill="url(#paint1_linear_23_514)"/>
</g>
<defs>
<linearGradient id="paint0_linear_23_514" x1="36.5217" y1="11.7864" x2="43.4851" y2="13.9346" gradientUnits="userSpaceOnUse">
<stop stop-color="#7381FD"/>
<stop offset="1" stop-color="#76C7FF"/>
</linearGradient>
<linearGradient id="paint1_linear_23_514" x1="5.97122" y1="5.8408" x2="54.5068" y2="32.6756" gradientUnits="userSpaceOnUse">
<stop stop-color="#7381FD"/>
<stop offset="1" stop-color="#76C7FF"/>
</linearGradient>
<clipPath id="clip0_23_514">
<rect width="55" height="55" fill="white"/>
</clipPath>
</defs>
</svg>
