<svg width="55" height="55" viewBox="0 0 55 55" fill="none" xmlns="http://www.w3.org/2000/svg">
<g clip-path="url(#clip0_23_381)">
<path d="M0 15C0 6.71573 6.71573 0 15 0H40C48.2843 0 55 6.71573 55 15V40C55 48.2843 48.2843 55 40 55H15C6.71573 55 0 48.2843 0 40V15Z" fill="#F6FAFD"/>
<path d="M38.6122 33.2186C38.733 32.8805 38.5568 32.5086 38.2187 32.3879C37.8806 32.2671 37.5087 32.4433 37.388 32.7814L38.6122 33.2186ZM33.4994 36.5839C33.2696 36.3081 32.8598 36.2708 32.584 36.5007C32.3082 36.7305 32.2709 37.1403 32.5008 37.4161L33.4994 36.5839ZM37.388 32.7814L35.0058 39.4516L36.23 39.8888L38.6122 33.2186L37.388 32.7814ZM35.7752 39.3148L33.4994 36.5839L32.5008 37.4161L34.7766 40.1471L35.7752 39.3148ZM35.0058 39.4516C35.1229 39.1236 35.5523 39.0473 35.7752 39.3148L34.7766 40.1471C35.1977 40.6525 36.0087 40.5084 36.23 39.8888L35.0058 39.4516Z" fill="url(#paint0_linear_23_381)"/>
<path d="M35.5 44C39.6421 44 43 40.6421 43 36.5C43 32.3579 39.6421 29 35.5 29C31.3579 29 28 32.3579 28 36.5C28 40.6421 31.3579 44 35.5 44Z" stroke="url(#paint1_linear_23_381)" stroke-width="1.5"/>
<path d="M22.2283 22.5093L22.45 21.7928L22.4487 21.7924L22.2283 22.5093ZM21 23.4125H20.25V23.4137L21 23.4125ZM33.773 22.5091L33.9944 23.2257L33.998 23.2245L33.773 22.5091ZM35 23.4125L35.75 23.4145V23.4125H35ZM34.25 26.5045C34.2525 26.9187 34.5903 27.2525 35.0045 27.25C35.4187 27.2475 35.7525 26.9097 35.75 26.4955L34.25 26.5045ZM29.0862 44.699C29.5004 44.6954 29.8333 44.3568 29.8297 43.9426C29.8262 43.5284 29.4875 43.1955 29.0733 43.1991L29.0862 44.699ZM23.1765 44L22.4265 44.0034C22.4274 44.2029 22.5077 44.3937 22.6496 44.5338C22.7916 44.6739 22.9835 44.7517 23.1829 44.75L23.1765 44ZM23.1438 36.8139H22.3938V36.8173L23.1438 36.8139ZM21.0181 35.1013L20.2681 35.1025C20.2685 35.3857 20.4284 35.6444 20.6815 35.7715L21.0181 35.1013ZM34.9945 25.5705L34.2444 25.5686L34.2445 25.575L34.9945 25.5705ZM22.4487 21.7924C21.379 21.4636 20.25 22.3058 20.25 23.4125H21.75C21.75 23.3841 21.7673 23.324 21.8403 23.2701C21.9122 23.2168 21.9754 23.2162 22.008 23.2262L22.4487 21.7924ZM33.5516 21.7925C29.8612 22.9329 26.1361 22.933 22.45 21.7928L22.0067 23.2258C25.9818 24.4554 30.0158 24.4553 33.9944 23.2257L33.5516 21.7925ZM35.75 23.4125C35.75 22.8329 35.4409 22.3513 35.0466 22.0613C34.6525 21.7715 34.1006 21.6198 33.548 21.7936L33.998 23.2245C34.0208 23.2174 34.0824 23.2142 34.1579 23.2698C34.2333 23.3252 34.25 23.3858 34.25 23.4125H35.75ZM23.1829 44.75L29.0862 44.699L29.0733 43.1991L23.17 43.25L23.1829 44.75ZM22.3938 36.8173L22.4265 44.0034L23.9264 43.9966L23.8938 36.8105L22.3938 36.8173ZM22.2327 36.5506C22.3302 36.5995 22.3938 36.7009 22.3938 36.8139H23.8938C23.8938 36.1362 23.5125 35.5148 22.9059 35.2101L22.2327 36.5506ZM20.6815 35.7715L22.2327 36.5506L22.9059 35.2101L21.3547 34.4311L20.6815 35.7715ZM20.25 23.4137L20.2681 35.1025L21.7681 35.1001L21.75 23.4114L20.25 23.4137ZM22.3938 15.8775C22.3938 18.9779 24.9051 21.5049 27.9999 21.5049V20.0049C25.7397 20.0049 23.8938 18.1556 23.8938 15.8775H22.3938ZM27.9999 10.25C24.9051 10.25 22.3938 12.7771 22.3938 15.8775H23.8938C23.8938 13.5993 25.7397 11.75 27.9999 11.75V10.25ZM33.6061 15.8775C33.6061 12.7771 31.0948 10.25 27.9999 10.25V11.75C30.2602 11.75 32.1061 13.5993 32.1061 15.8775H33.6061ZM27.9999 21.5049C31.0948 21.5049 33.6061 18.9779 33.6061 15.8775H32.1061C32.1061 18.1556 30.2602 20.0049 27.9999 20.0049V21.5049ZM35.75 26.4955L35.7444 25.5661L34.2445 25.575L34.25 26.5045L35.75 26.4955ZM35.7445 25.5725L35.75 23.4145L34.25 23.4106L34.2444 25.5686L35.7445 25.5725Z" fill="url(#paint2_linear_23_381)"/>
</g>
<defs>
<linearGradient id="paint0_linear_23_381" x1="31.5687" y1="31.3142" x2="41.3365" y2="35.513" gradientUnits="userSpaceOnUse">
<stop stop-color="#7381FD"/>
<stop offset="1" stop-color="#76C7FF"/>
</linearGradient>
<linearGradient id="paint1_linear_23_381" x1="26.1397" y1="27.083" x2="47.2421" y2="38.7503" gradientUnits="userSpaceOnUse">
<stop stop-color="#7381FD"/>
<stop offset="1" stop-color="#76C7FF"/>
</linearGradient>
<linearGradient id="paint2_linear_23_381" x1="18.3276" y1="5.8408" x2="45.1446" y2="12.5021" gradientUnits="userSpaceOnUse">
<stop stop-color="#7381FD"/>
<stop offset="1" stop-color="#76C7FF"/>
</linearGradient>
<clipPath id="clip0_23_381">
<rect width="55" height="55" fill="white"/>
</clipPath>
</defs>
</svg>
