<svg width="55" height="55" viewBox="0 0 55 55" fill="none" xmlns="http://www.w3.org/2000/svg">
<g clip-path="url(#clip0_23_439)">
<path d="M0 15C0 6.71573 6.71573 0 15 0H40C48.2843 0 55 6.71573 55 15V40C55 48.2843 48.2843 55 40 55H15C6.71573 55 0 48.2843 0 40V15Z" fill="#F6FAFD"/>
<path d="M27.442 28C27.2794 27.9976 27.1239 27.9284 27.0081 27.8067C26.8922 27.685 26.825 27.5203 26.8204 27.347V26.7508H25.9768C25.8142 26.7484 25.6587 26.6791 25.5429 26.5575C25.427 26.4358 25.3598 26.2711 25.3552 26.0978C25.3597 25.9236 25.4266 25.7579 25.5422 25.6346C25.6579 25.5114 25.8134 25.4401 25.9768 25.4353H27.9837C28.0636 25.4353 28.1533 25.4324 28.2338 25.4038C28.3143 25.3752 28.3884 25.3293 28.4517 25.269C28.5149 25.2087 28.5658 25.1353 28.6014 25.0532C28.637 24.9711 28.6565 24.8822 28.6586 24.7918C28.6574 24.706 28.6404 24.6214 28.6086 24.5426C28.5767 24.4639 28.5306 24.3926 28.4729 24.3328C28.4151 24.2731 28.3469 24.226 28.2721 24.1943C28.1974 24.1627 28.1174 24.147 28.037 24.1483H26.9003C26.4049 24.1559 25.9268 23.954 25.5707 23.5869C25.2145 23.2198 25.0094 22.7172 25 22.1893C24.9989 21.9337 25.0451 21.6804 25.136 21.4439C25.227 21.2075 25.3609 20.9925 25.5301 20.8113C25.6992 20.6302 25.9003 20.4864 26.1217 20.3883C26.2735 20.3211 26.5852 20.2397 26.8204 20.2397V19.6625C26.8204 19.4868 26.8859 19.3183 27.0025 19.194C27.1191 19.0698 27.2772 19 27.442 19C27.6069 19 27.765 19.0698 27.8816 19.194C27.9981 19.3183 28.0636 19.4868 28.0636 19.6625V20.2397H28.8806C29.0432 20.2421 29.1987 20.3114 29.3145 20.4331C29.4304 20.5548 29.4976 20.7195 29.5022 20.8927C29.4976 21.066 29.4304 21.2307 29.3145 21.3524C29.1987 21.4741 29.0432 21.5434 28.8806 21.5457H26.8737C26.776 21.5457 26.7004 21.5431 26.6176 21.5706C26.5349 21.5981 26.4585 21.644 26.3937 21.7053C26.3288 21.7666 26.2769 21.8418 26.2413 21.9261C26.2057 22.0103 26.1874 22.1016 26.1874 22.194C26.1874 22.2864 26.2057 22.3777 26.2413 22.4619C26.2769 22.5462 26.3288 22.6214 26.3937 22.6827C26.4585 22.744 26.5349 22.7899 26.6176 22.8174C26.7004 22.8449 26.776 22.8423 26.8737 22.8423H28.0103C28.2721 22.8423 28.514 22.8532 28.7526 22.9395C28.9911 23.0258 29.2105 23.1634 29.397 23.3438C29.5836 23.5242 29.7334 23.7436 29.8371 23.9883C29.9408 24.2329 29.9961 24.4977 29.9998 24.7661C30.0035 25.0346 29.9553 25.301 29.8583 25.5487C29.7614 25.7965 29.6176 26.0204 29.4361 26.2065C29.2545 26.3926 29.039 26.537 28.8029 26.6306C28.5668 26.7242 28.4237 26.7508 28.0636 26.7508V27.347C28.0591 27.5203 27.9918 27.685 27.876 27.8067C27.7601 27.9284 27.6047 27.9976 27.442 28Z" fill="url(#paint0_linear_23_439)"/>
<path d="M37.2159 11L37.2176 10.25H37.2159V11ZM38.25 22.0252C38.25 22.4394 38.5858 22.7752 39 22.7752C39.4142 22.7752 39.75 22.4394 39.75 22.0252H38.25ZM39.75 39.1034C39.75 38.6892 39.4142 38.3534 39 38.3534C38.5858 38.3534 38.25 38.6892 38.25 39.1034H39.75ZM34.4039 35.0566L35.0525 35.4332L35.0531 35.4322L34.4039 35.0566ZM34.3247 35.2833L35.0649 35.4045L35.0662 35.3964L35.0673 35.3884L34.3247 35.2833ZM33.7413 38.8478L33.0011 38.7266L32.9998 38.7345L32.9987 38.7424L33.7413 38.8478ZM34.2634 39.3095L33.998 38.608L33.9942 38.6095L34.2634 39.3095ZM34.4013 39.2307L34.8656 39.8197L34.875 39.8121L34.4013 39.2307ZM37.1982 36.9514L36.7373 36.3598L36.7308 36.3649L36.7244 36.37L37.1982 36.9514ZM37.3551 36.7702L38.0036 37.1468L38.0042 37.1458L37.3551 36.7702ZM21 38.0077C20.5858 38.0077 20.25 38.3435 20.25 38.7577C20.25 39.172 20.5858 39.5077 21 39.5077V38.0077ZM30 39.5077C30.4142 39.5077 30.75 39.172 30.75 38.7577C30.75 38.3435 30.4142 38.0077 30 38.0077V39.5077ZM21 35.0077C20.5858 35.0077 20.25 35.3435 20.25 35.7577C20.25 36.172 20.5858 36.5077 21 36.5077V35.0077ZM30 36.5077C30.4142 36.5077 30.75 36.172 30.75 35.7577C30.75 35.3435 30.4142 35.0077 30 35.0077V36.5077ZM37.2141 11.75C37.5007 11.7507 37.768 11.8595 37.959 12.0418L38.9945 10.9566C38.5169 10.5008 37.8767 10.2515 37.2176 10.25L37.2141 11.75ZM17.0406 12.0423C17.2325 11.8594 17.5004 11.7501 17.7854 11.7501V10.2501C17.1239 10.2501 16.4835 10.501 16.0062 10.9559L17.0406 12.0423ZM16.75 12.6999C16.75 12.4614 16.8496 12.2238 17.0406 12.0423L16.0062 10.9559C15.5274 11.4114 15.25 12.0372 15.25 12.6999H16.75ZM17.0413 42.9586C16.8503 42.777 16.75 42.5387 16.75 42.3002H15.25C15.25 42.9629 15.528 43.5895 16.007 44.045L17.0413 42.9586ZM17.7853 43.2501C17.5003 43.2501 17.2332 43.1415 17.0413 42.9586L16.007 44.045C16.4841 44.4998 17.1238 44.7501 17.7853 44.7501V43.2501ZM37.9595 42.9578C37.7677 43.1408 37.5001 43.2501 37.2157 43.2501V44.7501C37.8775 44.7501 38.5179 44.4984 38.9946 44.0435L37.9595 42.9578ZM17.7854 11.7501L37.2159 11.75V10.25L17.7854 10.2501V11.7501ZM16.75 42.3002V12.6999H15.25V42.3002H16.75ZM38.25 42.3002C38.25 42.5383 38.1504 42.776 37.9595 42.9578L38.9946 44.0435C39.4726 43.5882 39.75 42.9626 39.75 42.3002H38.25ZM37.959 12.0418C38.1499 12.2235 38.25 12.4617 38.25 12.6999H39.75C39.75 12.0374 39.4725 11.4119 38.9945 10.9566L37.959 12.0418ZM39.75 22.0252V12.6999H38.25V22.0252H39.75ZM39.75 42.3002V39.1034H38.25V42.3002H39.75ZM34.25 23.5C34.25 27.2279 31.2279 30.25 27.5 30.25V31.75C32.0563 31.75 35.75 28.0563 35.75 23.5H34.25ZM20.75 23.5C20.75 19.7721 23.7721 16.75 27.5 16.75V15.25C22.9437 15.25 19.25 18.9437 19.25 23.5H20.75ZM27.5 16.75C29.4991 16.75 31.2944 17.6181 32.5314 19.0002L33.6491 17.9998C32.1396 16.3132 29.9434 15.25 27.5 15.25V16.75ZM32.5314 19.0002C33.6007 20.1949 34.25 21.7707 34.25 23.5H35.75C35.75 21.3875 34.955 19.4589 33.6491 17.9998L32.5314 19.0002ZM27.5 30.25C25.7274 30.25 24.1159 29.5677 22.911 28.4501L21.8909 29.5499C23.3622 30.9146 25.3344 31.75 27.5 31.75V30.25ZM22.911 28.4501C21.5808 27.2164 20.75 25.4558 20.75 23.5H19.25C19.25 25.8903 20.2675 28.0442 21.8909 29.5499L22.911 28.4501ZM40.2243 23.4985L33.7547 34.681L35.0531 35.4322L41.5227 24.2497L40.2243 23.4985ZM33.7554 34.6799C33.667 34.832 33.6071 35.0017 33.5821 35.1782L35.0673 35.3884C35.0645 35.4083 35.0587 35.4226 35.0525 35.4332L33.7554 34.6799ZM33.5846 35.1622L33.0011 38.7266L34.4814 38.9689L35.0649 35.4045L33.5846 35.1622ZM32.9987 38.7424C32.948 39.1002 33.0428 39.522 33.3725 39.8135L34.3661 38.6898C34.489 38.7985 34.4886 38.9196 34.4838 38.9531L32.9987 38.7424ZM33.3725 39.8135C33.7133 40.1148 34.1641 40.1512 34.5326 40.0095L33.9942 38.6095C34.075 38.5784 34.2322 38.5714 34.3661 38.6898L33.3725 39.8135ZM34.5288 40.011C34.6531 39.9639 34.7661 39.8982 34.8656 39.8197L33.9369 38.6417C33.9501 38.6313 33.9701 38.6186 33.998 38.608L34.5288 40.011ZM34.875 39.8121L37.672 37.5328L36.7244 36.37L33.9275 38.6492L34.875 39.8121ZM37.6592 37.5431C37.801 37.4326 37.9168 37.2963 38.0036 37.1468L36.7065 36.3935C36.7112 36.3854 36.7201 36.3732 36.7373 36.3598L37.6592 37.5431ZM44.4742 25.9636L45.9095 23.4827L44.6112 22.7316L43.1758 25.2124L44.4742 25.9636ZM40.4969 24.5226L43.4484 26.2366L44.2017 24.9394L41.2501 23.2255L40.4969 24.5226ZM41.6596 21.0174L40.2243 23.4985L41.5227 24.2497L42.958 21.7685L41.6596 21.0174ZM42.8016 21.8852L44.5869 22.9222L45.3403 21.6251L43.555 20.5881L42.8016 21.8852ZM45.9095 23.4827C46.3304 22.7553 45.916 21.9595 45.3403 21.6251L44.5869 22.9222C44.6011 22.9304 44.5938 22.933 44.5855 22.9096C44.5764 22.8842 44.5645 22.8122 44.6112 22.7316L45.9095 23.4827ZM42.958 21.7685C42.9112 21.8494 42.8423 21.8754 42.8148 21.8803C42.7893 21.8849 42.7875 21.877 42.8016 21.8852L43.555 20.5881C42.979 20.2536 42.0812 20.2886 41.6596 21.0174L42.958 21.7685ZM38.0042 37.1458L44.4742 25.9636L43.1758 25.2124L36.7059 36.3946L38.0042 37.1458ZM21 39.5077H30V38.0077H21V39.5077ZM21 36.5077H30V35.0077H21V36.5077ZM37.2157 43.2501H17.7853V44.7501H37.2157V43.2501Z" fill="url(#paint1_linear_23_439)"/>
</g>
<defs>
<linearGradient id="paint0_linear_23_439" x1="24.3799" y1="17.8498" x2="32.7725" y2="20.4277" gradientUnits="userSpaceOnUse">
<stop stop-color="#7381FD"/>
<stop offset="1" stop-color="#76C7FF"/>
</linearGradient>
<linearGradient id="paint1_linear_23_439" x1="11.4262" y1="5.84079" x2="56.9468" y2="28.3323" gradientUnits="userSpaceOnUse">
<stop stop-color="#7381FD"/>
<stop offset="1" stop-color="#76C7FF"/>
</linearGradient>
<clipPath id="clip0_23_439">
<rect width="55" height="55" fill="white"/>
</clipPath>
</defs>
</svg>
