<svg width="55" height="55" viewBox="0 0 55 55" fill="none" xmlns="http://www.w3.org/2000/svg">
<g clip-path="url(#clip0_23_300)">
<path d="M0 15C0 6.71573 6.71573 0 15 0H40C48.2843 0 55 6.71573 55 15V40C55 48.2843 48.2843 55 40 55H15C6.71573 55 0 48.2843 0 40V15Z" fill="#F6FAFD"/>
<path d="M11.9932 42.5774C12.0403 42.8828 12.2693 43.1128 12.5743 43.1612C12.8905 43.2064 13.2877 43.25 13.7721 43.25C15.1423 43.25 17.1154 42.8982 19.1989 41.4037L19.5764 41.1329L19.987 41.3503C22.3537 42.6033 24.9473 43.25 27.4867 43.25C31.5577 43.25 35.5814 41.6778 38.6356 38.6238L38.6376 38.6218C44.7862 32.5198 44.7891 22.5293 38.6356 16.3762C35.6262 13.3672 31.6978 11.75 27.4867 11.75C23.2777 11.75 19.3008 13.414 16.339 16.375C10.6011 22.1601 10.1894 31.4123 15.4117 37.6046L15.7239 37.9748L15.515 38.4117C14.9492 39.5949 13.9376 41.0671 12.377 41.8531C12.0927 42.0127 11.9506 42.3004 11.9932 42.5774ZM11.9932 42.5774L11.2522 42.6915" stroke="url(#paint0_linear_23_300)" stroke-width="1.5"/>
<path d="M26.7403 23.4204C27.987 23.4204 28.6104 23.8448 28.6104 24.6937C28.6104 24.7898 28.5844 25.1181 28.5325 25.6787C28.4805 26.2232 28.4286 26.9039 28.3766 27.7207C28.342 28.5375 28.3247 29.3143 28.3247 30.0511C28.3247 32.1972 28.5498 33.7588 29 34.7357C28.5671 34.9119 28.0736 35 27.5195 35C26.7576 35 26.2381 34.8559 25.961 34.5676C25.7013 34.2793 25.5714 33.7908 25.5714 33.1021C25.5714 32.8458 25.5801 32.2292 25.5974 31.2523C25.6147 30.2593 25.6234 29.4985 25.6234 28.97C25.6234 26.6476 25.5455 24.8298 25.3896 23.5165C25.8052 23.4525 26.2554 23.4204 26.7403 23.4204ZM26.8701 22.4114C26.3506 22.4114 25.9091 22.2513 25.5455 21.9309C25.1818 21.6106 25 21.2022 25 20.7057C25 20.2252 25.1905 19.8248 25.5714 19.5045C25.9524 19.1682 26.4026 19 26.9221 19C27.4242 19 27.8571 19.1682 28.2208 19.5045C28.5844 19.8248 28.7662 20.2252 28.7662 20.7057C28.7662 21.1862 28.5758 21.5946 28.1948 21.9309C27.8139 22.2513 27.3723 22.4114 26.8701 22.4114Z" fill="url(#paint1_linear_23_300)"/>
</g>
<defs>
<linearGradient id="paint0_linear_23_300" x1="7.28376" y1="7.72421" x2="51.9658" y2="32.8188" gradientUnits="userSpaceOnUse">
<stop stop-color="#7381FD"/>
<stop offset="1" stop-color="#76C7FF"/>
</linearGradient>
<linearGradient id="paint1_linear_23_300" x1="24.5039" y1="16.9552" x2="31.7137" y2="17.9517" gradientUnits="userSpaceOnUse">
<stop stop-color="#7381FD"/>
<stop offset="1" stop-color="#76C7FF"/>
</linearGradient>
<clipPath id="clip0_23_300">
<rect width="55" height="55" fill="white"/>
</clipPath>
</defs>
</svg>
