<svg width="55" height="55" viewBox="0 0 55 55" fill="none" xmlns="http://www.w3.org/2000/svg">
<g clip-path="url(#clip0_23_242)">
<path d="M0 15C0 6.71573 6.71573 0 15 0H40C48.2843 0 55 6.71573 55 15V40C55 48.2843 48.2843 55 40 55H15C6.71573 55 0 48.2843 0 40V15Z" fill="#F6FAFD"/>
<path d="M26.8233 33.0506C26.2691 33.0506 25.8198 32.6013 25.8198 32.047V31.8722C25.8198 30.9636 25.9611 30.1989 26.2438 29.5781C26.5359 28.9574 26.9034 28.4221 27.3463 27.9723C27.7892 27.5135 28.2415 27.0907 28.7032 26.7039C29.3062 26.2001 29.8339 25.6783 30.2862 25.1385C30.7479 24.5897 30.9788 23.888 30.9788 23.0334C30.9788 22.1248 30.649 21.3556 29.9894 20.7259C29.3392 20.0961 28.4016 19.7813 27.1767 19.7813C25.8292 19.7813 24.7833 20.1366 24.0389 20.8473C23.5041 21.3644 23.1893 21.8942 23.039 22.6428C22.9346 23.1628 22.5166 23.5867 21.9862 23.5867C21.4415 23.5867 20.9855 23.1426 21.0539 22.6023C21.1533 21.8177 21.3897 21.3197 21.7633 20.6989C22.2721 19.8532 22.9882 19.192 23.9117 18.7152C24.8351 18.2384 25.9234 18 27.1767 18C28.4299 18 29.4853 18.2294 30.3428 18.6882C31.2097 19.138 31.8693 19.7453 32.3216 20.5099C32.7739 21.2656 33 22.1158 33 23.0604C33 23.8251 32.8681 24.4773 32.6042 25.0171C32.3498 25.5568 32.02 26.0336 31.6148 26.4475C31.2097 26.8523 30.7903 27.2436 30.3569 27.6215C29.9329 27.9813 29.5277 28.3592 29.1413 28.755C28.755 29.1418 28.4393 29.5871 28.1943 30.0909C27.9494 30.5947 27.8269 31.193 27.8269 31.8857V32.047C27.8269 32.6013 27.3776 33.0506 26.8233 33.0506ZM26.7809 38C26.3475 38 25.9753 37.8516 25.6643 37.5547C25.3628 37.2578 25.212 36.9115 25.212 36.5156C25.212 36.1108 25.3628 35.7554 25.6643 35.4496C25.9753 35.1437 26.3475 34.9908 26.7809 34.9908C27.2332 34.9908 27.6101 35.1437 27.9117 35.4496C28.2226 35.7554 28.3781 36.1108 28.3781 36.5156C28.3781 36.9115 28.2226 37.2578 27.9117 37.5547C27.6101 37.8516 27.2332 38 26.7809 38Z" fill="url(#paint0_linear_23_242)"/>
<path d="M43.5 27.5C43.5 36.6127 36.1127 44 27 44C22.668 44 18.726 42.3306 15.782 39.6C12.5332 36.5866 10.5 32.2807 10.5 27.5C10.5 18.3873 17.8873 11 27 11C31.8867 11 36.2773 13.1244 39.2986 16.5C41.9113 19.4192 43.5 23.2741 43.5 27.5Z" stroke="url(#paint1_linear_23_242)" stroke-width="1.5"/>
</g>
<defs>
<linearGradient id="paint0_linear_23_242" x1="19.5647" y1="15.4439" x2="39.3594" y2="21.9848" gradientUnits="userSpaceOnUse">
<stop stop-color="#7381FD"/>
<stop offset="1" stop-color="#76C7FF"/>
</linearGradient>
<linearGradient id="paint1_linear_23_242" x1="6.40725" y1="6.7825" x2="52.8326" y2="32.4506" gradientUnits="userSpaceOnUse">
<stop stop-color="#7381FD"/>
<stop offset="1" stop-color="#76C7FF"/>
</linearGradient>
<clipPath id="clip0_23_242">
<rect width="55" height="55" fill="white"/>
</clipPath>
</defs>
</svg>
