<svg width="55" height="55" viewBox="0 0 55 55" fill="none" xmlns="http://www.w3.org/2000/svg">
<g clip-path="url(#clip0_23_462)">
<path d="M0 15C0 6.71573 6.71573 0 15 0H40C48.2843 0 55 6.71573 55 15V40C55 48.2843 48.2843 55 40 55H15C6.71573 55 0 48.2843 0 40V15Z" fill="#F6FAFD"/>
<path d="M42.2159 13L42.2176 12.25H42.2159V13ZM21.0969 41.2498C20.6827 41.2498 20.3469 41.5856 20.3469 41.9998C20.3469 42.414 20.6826 42.7498 21.0969 42.7498V41.2498ZM33.9077 42.75C34.3219 42.75 34.6577 42.4142 34.6577 42C34.6577 41.5858 34.3219 41.25 33.9077 41.25V42.75ZM34.7526 19.307C35.0455 19.0141 35.0455 18.5392 34.7526 18.2463C34.4597 17.9534 33.9849 17.9534 33.692 18.2463L34.7526 19.307ZM20.246 31.6923C19.9531 31.9852 19.9531 32.4601 20.246 32.753C20.5389 33.0459 21.0137 33.0459 21.3066 32.753L20.246 31.6923ZM42.2142 13.75C42.5092 13.7507 42.7799 13.8588 42.9693 14.0329L43.9842 12.9283C43.505 12.4881 42.8682 12.2515 42.2176 12.25L42.2142 13.75ZM12.0302 14.0333C12.2206 13.8586 12.4919 13.75 12.7854 13.75V12.25C12.1324 12.25 11.4953 12.4882 11.0166 12.9276L12.0302 14.0333ZM11.75 14.6365C11.75 14.4247 11.8417 14.2059 12.0302 14.0333L11.0166 12.9276C10.5354 13.3683 10.25 13.9807 10.25 14.6365H11.75ZM12.0309 36.7743C11.8423 36.6017 11.75 36.3821 11.75 36.1702H10.25C10.25 36.8261 10.536 37.4393 11.0174 37.88L12.0309 36.7743ZM12.7853 37.0569C12.4918 37.0569 12.2213 36.949 12.0309 36.7743L11.0174 37.88C11.496 38.3192 12.1323 38.5569 12.7853 38.5569V37.0569ZM42.9699 36.7736C42.7797 36.9483 42.5086 37.0569 42.2157 37.0569V38.5569C42.869 38.5569 43.506 38.318 43.9842 37.8786L42.9699 36.7736ZM12.7854 13.75H42.2159V12.25H12.7854V13.75ZM21.0969 42.7498L24.692 42.7499V41.2499L21.0969 41.2498V42.7498ZM24.692 37.0569H12.7853V38.5569H24.692V37.0569ZM25.442 41.9999V37.8069H23.942V41.9999H25.442ZM24.692 42.7499H30.3045V41.2499H24.692V42.7499ZM30.3045 42.7499L33.9077 42.75V41.25L30.3045 41.2499V42.7499ZM42.2157 37.0569H30.3045V38.5569H42.2157V37.0569ZM30.3045 37.0569H24.692V38.5569H30.3045V37.0569ZM31.0545 41.9999V37.8069H29.5545V41.9999H31.0545ZM43.25 36.1703C43.25 36.3818 43.1584 36.6007 42.9699 36.7736L43.9842 37.8786C44.4645 37.4381 44.75 36.8259 44.75 36.1703H43.25ZM42.9693 14.0329C43.1577 14.2056 43.25 14.4251 43.25 14.6366H44.75C44.75 13.981 44.4646 13.3688 43.9842 12.9283L42.9693 14.0329ZM33.692 18.2463L20.246 31.6923L21.3066 32.753L34.7526 19.307L33.692 18.2463ZM34.3694 29.5339C34.3694 30.605 33.5011 31.4733 32.4301 31.4733V32.9733C34.3296 32.9733 35.8694 31.4334 35.8694 29.5339H34.3694ZM32.4301 31.4733C31.359 31.4733 30.4907 30.605 30.4907 29.5339H28.9907C28.9907 31.4334 30.5306 32.9733 32.4301 32.9733V31.4733ZM30.4907 29.5339C30.4907 28.4629 31.359 27.5946 32.4301 27.5946V26.0946C30.5306 26.0946 28.9907 27.6345 28.9907 29.5339H30.4907ZM32.4301 27.5946C33.5011 27.5946 34.3694 28.4629 34.3694 29.5339H35.8694C35.8694 27.6345 34.3296 26.0946 32.4301 26.0946V27.5946ZM24.5085 21.4659C24.5085 22.537 23.6402 23.4053 22.5692 23.4053V24.9053C24.4687 24.9053 26.0085 23.3654 26.0085 21.4659H24.5085ZM22.5692 23.4053C21.4981 23.4053 20.6298 22.537 20.6298 21.4659H19.1298C19.1298 23.3654 20.6697 24.9053 22.5692 24.9053V23.4053ZM20.6298 21.4659C20.6298 20.3949 21.4981 19.5266 22.5692 19.5266V18.0266C20.6697 18.0266 19.1298 19.5665 19.1298 21.4659H20.6298ZM22.5692 19.5266C23.6402 19.5266 24.5085 20.3949 24.5085 21.4659H26.0085C26.0085 19.5665 24.4687 18.0266 22.5692 18.0266V19.5266ZM44.75 36.1703V14.6366H43.25V36.1703H44.75ZM11.75 36.1702V14.6365H10.25V36.1702H11.75Z" fill="url(#paint0_linear_23_462)"/>
</g>
<defs>
<linearGradient id="paint0_linear_23_462" x1="5.97122" y1="8.35201" x2="51.5259" y2="36.8419" gradientUnits="userSpaceOnUse">
<stop stop-color="#7381FD"/>
<stop offset="1" stop-color="#76C7FF"/>
</linearGradient>
<clipPath id="clip0_23_462">
<rect width="55" height="55" fill="white"/>
</clipPath>
</defs>
</svg>
