<svg width="55" height="55" viewBox="0 0 55 55" fill="none" xmlns="http://www.w3.org/2000/svg">
<g clip-path="url(#clip0_23_603)">
<path d="M0 15C0 6.71573 6.71573 0 15 0H40C48.2843 0 55 6.71573 55 15V40C55 48.2843 48.2843 55 40 55H15C6.71573 55 0 48.2843 0 40V15Z" fill="#F6FAFD"/>
<path d="M38 15.8925H17.0003M38 15.8925V12.5529M38 15.8925L37.9999 40.6697M17.0003 15.8925V12.5529M17.0003 15.8925L17.0002 40.6697M38 12.5529C38 11.6862 37.2653 11 36.3384 11M38 12.5529C38 11.6762 37.2766 11 36.3384 11M38 12.5529L37.9998 42.4471M37.9999 40.6697H17.0002M37.9999 40.6697L37.9998 42.4471M36.3384 11H18.6617M37.9998 42.4471C37.9998 43.3134 37.2656 44 36.3383 44M37.9998 42.4471C37.9998 43.3238 37.2765 44 36.3383 44M18.6617 11C17.7344 11 17.0003 11.6867 17.0003 12.5529M18.6617 11C17.7235 11 17.0003 11.6762 17.0003 12.5529M17.0003 12.5529L17 42.4471M17 42.4471L17.0002 40.6697M17 42.4471C17 43.3138 17.7347 44 18.6616 44M17 42.4471C17 43.3238 17.7234 44 18.6616 44M18.6616 44H36.3383M24.9748 13.5H30.0252M32.2231 22.883C30.0537 20.7762 26.6672 20.3534 24.0217 21.9579C23.6552 22.1802 23.314 22.4341 23 22.7172M21.0115 26.1174C20.3067 28.9754 21.5578 32.0451 24.1718 33.5666C24.5222 33.7705 24.8866 33.9411 25.2626 34.0778M34.1721 26.5C34.2467 26.9035 34.2846 27.3145 34.2846 27.7304C34.2846 30.6801 32.3598 33.2502 29.6445 34.1441" stroke="url(#paint0_linear_23_603)" stroke-width="1.5" stroke-linecap="round" stroke-linejoin="round"/>
<path d="M22.4039 24.2793C22.4039 24.6774 22.0774 25.0002 21.6746 25.0002C21.2718 25.0002 20.9453 24.6774 20.9453 24.2793C20.9453 23.8811 21.2718 23.5583 21.6746 23.5583C22.0774 23.5583 22.4039 23.8811 22.4039 24.2793Z" fill="url(#paint1_linear_23_603)"/>
<path d="M34.1968 24.5442C34.1968 24.9423 33.8703 25.2651 33.4675 25.2651C33.0648 25.2651 32.7383 24.9423 32.7383 24.5442C32.7383 24.146 33.0648 23.8232 33.4675 23.8232C33.8703 23.8232 34.1968 24.146 34.1968 24.5442Z" fill="url(#paint2_linear_23_603)"/>
<path d="M28.162 34.4113C28.162 34.8095 27.8355 35.1323 27.4327 35.1323C27.03 35.1323 26.7034 34.8095 26.7034 34.4113C26.7034 34.0132 27.03 33.6904 27.4327 33.6904C27.8355 33.6904 28.162 34.0132 28.162 34.4113Z" fill="url(#paint3_linear_23_603)"/>
</g>
<defs>
<linearGradient id="paint0_linear_23_603" x1="14.3955" y1="6.7825" x2="48.7208" y2="18.8595" gradientUnits="userSpaceOnUse">
<stop stop-color="#7381FD"/>
<stop offset="1" stop-color="#76C7FF"/>
</linearGradient>
<linearGradient id="paint1_linear_23_603" x1="20.7644" y1="23.374" x2="22.8053" y2="24.5155" gradientUnits="userSpaceOnUse">
<stop stop-color="#7381FD"/>
<stop offset="1" stop-color="#76C7FF"/>
</linearGradient>
<linearGradient id="paint2_linear_23_603" x1="32.5574" y1="23.6389" x2="34.5982" y2="24.7802" gradientUnits="userSpaceOnUse">
<stop stop-color="#7381FD"/>
<stop offset="1" stop-color="#76C7FF"/>
</linearGradient>
<linearGradient id="paint3_linear_23_603" x1="26.5225" y1="33.5062" x2="28.5633" y2="34.6476" gradientUnits="userSpaceOnUse">
<stop stop-color="#7381FD"/>
<stop offset="1" stop-color="#76C7FF"/>
</linearGradient>
<clipPath id="clip0_23_603">
<rect width="55" height="55" fill="white"/>
</clipPath>
</defs>
</svg>
