<svg width="55" height="55" viewBox="0 0 55 55" fill="none" xmlns="http://www.w3.org/2000/svg">
<g clip-path="url(#clip0_23_593)">
<path d="M0 15C0 6.71573 6.71573 0 15 0H40C48.2843 0 55 6.71573 55 15V40C55 48.2843 48.2843 55 40 55H15C6.71573 55 0 48.2843 0 40V15Z" fill="#F6FAFD"/>
<path d="M28.7449 23.5876C28.7933 23.1763 28.499 22.8035 28.0876 22.7551C27.6763 22.7067 27.3035 23.001 27.2551 23.4124L28.7449 23.5876ZM26.2551 31.9124C26.2067 32.3237 26.501 32.6965 26.9124 32.7449C27.3237 32.7933 27.6965 32.499 27.7449 32.0876L26.2551 31.9124ZM31.3941 23.8469C31.0812 23.5755 30.6075 23.6092 30.3361 23.9221C30.0647 24.235 30.0984 24.7087 30.4113 24.9801L31.3941 23.8469ZM34.4528 27.4925L34.9613 28.0439C35.1182 27.8992 35.206 27.6945 35.2027 27.4811C35.1995 27.2677 35.1055 27.0658 34.9442 26.926L34.4528 27.4925ZM30.3942 30.2153C30.0897 30.4961 30.0705 30.9706 30.3513 31.2751C30.6322 31.5796 31.1066 31.5988 31.4111 31.3179L30.3942 30.2153ZM24.5756 24.9739C24.8851 24.6986 24.9128 24.2246 24.6375 23.9151C24.3622 23.6056 23.8882 23.5778 23.5787 23.8531L24.5756 24.9739ZM20.6156 27.4923L20.1171 26.9319C19.9601 27.0716 19.8689 27.2707 19.8657 27.4808C19.8624 27.6909 19.9475 27.8928 20.1002 28.0372L20.6156 27.4923ZM23.5617 31.3115C23.8626 31.5961 24.3373 31.5829 24.622 31.282C24.9066 30.9811 24.8934 30.5064 24.5925 30.2218L23.5617 31.3115ZM24.9748 12.75C24.5606 12.75 24.2248 13.0858 24.2248 13.5C24.2248 13.9142 24.5606 14.25 24.9748 14.25V12.75ZM30.0252 14.25C30.4395 14.25 30.7752 13.9142 30.7752 13.5C30.7752 13.0858 30.4395 12.75 30.0252 12.75V14.25ZM27.2551 23.4124L26.2551 31.9124L27.7449 32.0876L28.7449 23.5876L27.2551 23.4124ZM30.4113 24.9801L33.9614 28.0591L34.9442 26.926L31.3941 23.8469L30.4113 24.9801ZM33.9444 26.9412L30.3942 30.2153L31.4111 31.3179L34.9613 28.0439L33.9444 26.9412ZM23.5787 23.8531L20.1171 26.9319L21.114 28.0527L24.5756 24.9739L23.5787 23.8531ZM20.1002 28.0372L23.5617 31.3115L24.5925 30.2218L21.131 26.9474L20.1002 28.0372ZM36.3384 11.75C36.8998 11.75 37.25 12.1475 37.25 12.5529H38.75C38.75 11.2249 37.6308 10.25 36.3384 10.25V11.75ZM18.6617 11.75H36.3384V10.25H18.6617V11.75ZM17.7503 12.5529C17.7503 12.1476 18.1003 11.75 18.6617 11.75V10.25C17.3685 10.25 16.2503 11.2258 16.2503 12.5529H17.7503ZM18.6616 43.25C18.1002 43.25 17.75 42.8525 17.75 42.4471H16.25C16.25 43.7751 17.3693 44.75 18.6616 44.75V43.25ZM36.3383 43.25H18.6616V44.75H36.3383V43.25ZM37.2498 42.4471C37.2498 42.8523 36.8998 43.25 36.3383 43.25V44.75C37.6313 44.75 38.7498 43.7744 38.7498 42.4471H37.2498ZM18.6617 10.25C17.3578 10.25 16.2503 11.2151 16.2503 12.5529H17.7503C17.7503 12.1372 18.0893 11.75 18.6617 11.75V10.25ZM38.75 12.5529C38.75 11.215 37.6423 10.25 36.3384 10.25V11.75C36.9109 11.75 37.25 12.1373 37.25 12.5529H38.75ZM38.7498 42.4471L38.75 12.5529H37.25L37.2498 42.4471H38.7498ZM36.3383 44.75C37.6421 44.75 38.7498 43.785 38.7498 42.4471H37.2498C37.2498 42.8627 36.9108 43.25 36.3383 43.25V44.75ZM16.25 42.4471C16.25 43.785 17.3577 44.75 18.6616 44.75V43.25C18.0891 43.25 17.75 42.8627 17.75 42.4471H16.25ZM16.2503 12.5529L16.25 42.4471H17.75L17.7503 12.5529H16.2503ZM30.0252 12.75H24.9748V14.25H30.0252V12.75ZM38 15.1425H17.0003V16.6425H38V15.1425ZM37.25 12.5529V15.8925H38.75V12.5529H37.25ZM17.7503 15.8925V12.5529H16.2503V15.8925H17.7503ZM17.7502 40.6697L17.7503 15.8925H16.2503L16.2502 40.6697H17.7502ZM37.9999 39.9197H17.0002V41.4197H37.9999V39.9197ZM37.25 15.8925L37.2499 40.6697H38.7499L38.75 15.8925H37.25ZM17.75 42.4471L17.7502 40.6697H16.2502L16.25 42.4471H17.75ZM37.2499 40.6697L37.2498 42.4471H38.7498L38.7499 40.6697H37.2499Z" fill="url(#paint0_linear_23_593)"/>
</g>
<defs>
<linearGradient id="paint0_linear_23_593" x1="13.4595" y1="5.8408" x2="50.0339" y2="19.0288" gradientUnits="userSpaceOnUse">
<stop stop-color="#7381FD"/>
<stop offset="1" stop-color="#76C7FF"/>
</linearGradient>
<clipPath id="clip0_23_593">
<rect width="55" height="55" fill="white"/>
</clipPath>
</defs>
</svg>
