<svg width="55" height="55" viewBox="0 0 55 55" fill="none" xmlns="http://www.w3.org/2000/svg">
<g clip-path="url(#clip0_23_453)">
<path d="M0 15C0 6.71573 6.71573 0 15 0H40C48.2843 0 55 6.71573 55 15V40C55 48.2843 48.2843 55 40 55H15C6.71573 55 0 48.2843 0 40V15Z" fill="#F6FAFD"/>
<path d="M33.9077 42.75C34.3219 42.75 34.6577 42.4142 34.6577 42C34.6577 41.5858 34.322 41.25 33.9078 41.25L33.9077 42.75ZM21.0969 41.2498C20.6827 41.2498 20.3469 41.5856 20.3469 41.9998C20.3469 42.414 20.6827 42.7498 21.0969 42.7498V41.2498ZM42.2159 13L42.2176 12.25H42.2159V13ZM15 21.5833C14.5858 21.5833 14.25 21.9191 14.25 22.3333C14.25 22.7475 14.5858 23.0833 15 23.0833V21.5833ZM25.8974 23.0833C26.3116 23.0833 26.6474 22.7475 26.6474 22.3333C26.6474 21.9191 26.3116 21.5833 25.8974 21.5833V23.0833ZM15 24.25C14.5858 24.25 14.25 24.5858 14.25 25C14.25 25.4142 14.5858 25.75 15 25.75V24.25ZM22.6923 25.75C23.1065 25.75 23.4423 25.4142 23.4423 25C23.4423 24.5858 23.1065 24.25 22.6923 24.25V25.75ZM15 26.75C14.5858 26.75 14.25 27.0858 14.25 27.5C14.25 27.9142 14.5858 28.25 15 28.25V26.75ZM20 28.25C20.4142 28.25 20.75 27.9142 20.75 27.5C20.75 27.0858 20.4142 26.75 20 26.75V28.25ZM42.2142 13.75C42.5093 13.7507 42.7799 13.8588 42.9694 14.0329L43.9842 12.9283C43.5051 12.4881 42.8683 12.2515 42.2176 12.25L42.2142 13.75ZM12.0302 14.0333C12.2206 13.8586 12.492 13.75 12.7855 13.75V12.25C12.1325 12.25 11.4954 12.4882 11.0167 12.9276L12.0302 14.0333ZM11.75 14.6365C11.75 14.4247 11.8417 14.2059 12.0302 14.0333L11.0167 12.9276C10.5354 13.3683 10.25 13.9807 10.25 14.6365H11.75ZM12.031 36.7743C11.8424 36.6017 11.75 36.3821 11.75 36.1702H10.25C10.25 36.8261 10.5361 37.4393 11.0174 37.88L12.031 36.7743ZM12.7853 37.0569C12.4918 37.0569 12.2213 36.949 12.031 36.7743L11.0174 37.88C11.4961 38.3192 12.1323 38.5569 12.7853 38.5569V37.0569ZM42.9699 36.7736C42.7797 36.9483 42.5086 37.0569 42.2157 37.0569V38.5569C42.8691 38.5569 43.5061 38.318 43.9842 37.8786L42.9699 36.7736ZM12.7855 13.75H42.2159V12.25H12.7855V13.75ZM21.0969 42.7498L24.692 42.7499L24.6921 41.2499L21.0969 41.2498V42.7498ZM24.692 37.0569H12.7853V38.5569H24.692V37.0569ZM25.442 41.9999V37.8069H23.942V41.9999H25.442ZM24.692 42.7499H30.3046V41.2499H24.6921L24.692 42.7499ZM30.3046 42.7499L33.9077 42.75L33.9078 41.25L30.3046 41.2499V42.7499ZM42.2157 37.0569H30.3046V38.5569H42.2157V37.0569ZM30.3046 37.0569H24.692V38.5569H30.3046V37.0569ZM31.0546 41.9999V37.8069H29.5546V41.9999H31.0546ZM43.25 36.1703C43.25 36.3818 43.1584 36.6007 42.9699 36.7736L43.9842 37.8786C44.4646 37.4381 44.75 36.8259 44.75 36.1703H43.25ZM42.9694 14.0329C43.1579 14.2056 43.25 14.4251 43.25 14.6366H44.75C44.75 13.981 44.4646 13.3688 43.9842 12.9283L42.9694 14.0329ZM44.75 18.5V14.6366H43.25V18.5H44.75ZM11.75 18.5V14.6365H10.25V18.5H11.75ZM44 17.75H11V19.25H44V17.75ZM11.75 36.1702V32H10.25V36.1702H11.75ZM11.75 32V18.5H10.25V32H11.75ZM44.75 36.1703V32H43.25V36.1703H44.75ZM44.75 32V18.5H43.25V32H44.75ZM11 32.75H44V31.25H11V32.75ZM15 23.0833H25.8974V21.5833H15V23.0833ZM15 25.75H22.6923V24.25H15V25.75ZM15 28.25H20V26.75H15V28.25Z" fill="url(#paint0_linear_23_453)"/>
<path d="M29.7423 21V20.35C29.3833 20.35 29.0923 20.641 29.0923 21H29.7423ZM39.9987 29.5V30.15C40.3577 30.15 40.6487 29.859 40.6487 29.5H39.9987ZM39.9987 21H40.6487C40.6487 20.641 40.3577 20.35 39.9987 20.35V21ZM29.7423 29.5H29.0923C29.0923 29.859 29.3833 30.15 29.7423 30.15V29.5ZM29.3275 21.5005L34.4557 25.7505L35.2853 24.7495L30.1571 20.4995L29.3275 21.5005ZM34.4557 25.7505L39.5839 30.0005L40.4135 28.9995L35.2853 24.7495L34.4557 25.7505ZM39.5839 20.4995L34.4557 24.7495L35.2853 25.7505L40.4135 21.5005L39.5839 20.4995ZM34.4557 24.7495L29.3275 28.9995L30.1571 30.0005L35.2853 25.7505L34.4557 24.7495ZM29.7423 21.65H39.9987V20.35H29.7423V21.65ZM39.9987 28.85H29.7423V30.15H39.9987V28.85ZM29.0923 21V29.5H30.3923V21H29.0923ZM40.6487 29.5V21H39.3487V29.5H40.6487Z" fill="url(#paint1_linear_23_453)"/>
</g>
<defs>
<linearGradient id="paint0_linear_23_453" x1="5.97122" y1="8.35201" x2="51.5259" y2="36.8419" gradientUnits="userSpaceOnUse">
<stop stop-color="#7381FD"/>
<stop offset="1" stop-color="#76C7FF"/>
</linearGradient>
<linearGradient id="paint1_linear_23_453" x1="27.659" y1="19.0975" x2="42.5548" y2="28.8093" gradientUnits="userSpaceOnUse">
<stop stop-color="#7381FD"/>
<stop offset="1" stop-color="#76C7FF"/>
</linearGradient>
<clipPath id="clip0_23_453">
<rect width="55" height="55" fill="white"/>
</clipPath>
</defs>
</svg>
