<svg width="55" height="55" viewBox="0 0 55 55" fill="none" xmlns="http://www.w3.org/2000/svg">
<g clip-path="url(#clip0_23_304)">
<path d="M0 15C0 6.71573 6.71573 0 15 0H40C48.2843 0 55 6.71573 55 15V40C55 48.2843 48.2843 55 40 55H15C6.71573 55 0 48.2843 0 40V15Z" fill="#F6FAFD"/>
<path d="M22.9651 21.0679L23.1873 20.3516L23.186 20.3512L22.9651 21.0679ZM22 21.7796H21.25V21.7807L22 21.7796ZM32.0359 21.0678L32.2579 21.7842L32.2615 21.783L32.0359 21.0678ZM33 21.7796L33.75 21.7807V21.7796H33ZM23.7101 39L22.9601 39.0029C22.9617 39.416 23.297 39.75 23.7101 39.75V39ZM23.6844 32.3382H22.9344V32.3411L23.6844 32.3382ZM22.0142 30.9889L21.2642 30.9901C21.2646 31.273 21.4242 31.5315 21.6769 31.6588L22.0142 30.9889ZM31.2899 39V39.75C31.703 39.75 32.0383 39.416 32.0399 39.0029L31.2899 39ZM31.3156 32.3382L32.0656 32.3411V32.3382H31.3156ZM32.9858 30.9889L33.3231 31.6588C33.5758 31.5315 33.7354 31.273 33.7358 30.9901L32.9858 30.9889ZM23.186 20.3512C22.2392 20.0594 21.25 20.8034 21.25 21.7796H22.75C22.75 21.7868 22.749 21.7933 22.7476 21.7984C22.7463 21.8034 22.745 21.806 22.7447 21.8065C22.7445 21.8069 22.7452 21.8055 22.7475 21.8029C22.7497 21.8004 22.7528 21.7975 22.7566 21.7946C22.7604 21.7918 22.764 21.7898 22.7669 21.7885C22.7697 21.7872 22.771 21.787 22.7702 21.7872C22.7694 21.7873 22.7664 21.7878 22.7614 21.7876C22.7562 21.7874 22.7502 21.7865 22.7442 21.7847L23.186 20.3512ZM31.8139 20.3514C28.9456 21.2402 26.0522 21.2402 23.1873 20.3516L22.7429 21.7843C25.8975 22.7627 29.1006 22.7626 32.2579 21.7842L31.8139 20.3514ZM33.75 21.7796C33.75 21.2652 33.4767 20.8411 33.1326 20.5874C32.7889 20.3339 32.3021 20.1974 31.8103 20.3525L32.2615 21.783C32.2531 21.7857 32.2452 21.7869 32.2387 21.7871C32.2325 21.7874 32.2287 21.7868 32.2276 21.7866C32.2266 21.7864 32.228 21.7865 32.2311 21.7879C32.2342 21.7894 32.2382 21.7916 32.2424 21.7947C32.2466 21.7977 32.25 21.801 32.2524 21.8038C32.2549 21.8066 32.2557 21.8081 32.2555 21.8078C32.2553 21.8073 32.2539 21.8046 32.2525 21.7994C32.2511 21.7941 32.25 21.7872 32.25 21.7796H33.75ZM22.9344 32.3411L22.9601 39.0029L24.4601 38.9971L24.4344 32.3353L22.9344 32.3411ZM22.8957 32.2725C22.9175 32.2835 22.9344 32.308 22.9344 32.3382H24.4344C24.4344 31.7455 24.1018 31.2005 23.5704 30.9328L22.8957 32.2725ZM21.6769 31.6588L22.8957 32.2725L23.5704 30.9328L22.3515 30.319L21.6769 31.6588ZM21.25 21.7807L21.2642 30.9901L22.7642 30.9878L22.75 21.7784L21.25 21.7807ZM22.9344 15.8428C22.9344 18.3708 24.9769 20.4357 27.4999 20.4357V18.9357C25.8154 18.9357 24.4344 17.5525 24.4344 15.8428H22.9344ZM27.4999 11.25C24.9769 11.25 22.9344 13.3149 22.9344 15.8428H24.4344C24.4344 14.1332 25.8154 12.75 27.4999 12.75V11.25ZM32.0655 15.8428C32.0655 13.3149 30.023 11.25 27.4999 11.25V12.75C29.1845 12.75 30.5655 14.1332 30.5655 15.8428H32.0655ZM27.4999 20.4357C30.023 20.4357 32.0655 18.3708 32.0655 15.8428H30.5655C30.5655 17.5525 29.1845 18.9357 27.4999 18.9357V20.4357ZM30.5656 32.3353L30.5399 38.9971L32.0399 39.0029L32.0656 32.3411L30.5656 32.3353ZM31.4296 30.9328C30.8982 31.2005 30.5656 31.7455 30.5656 32.3382H32.0656C32.0656 32.308 32.0825 32.2835 32.1043 32.2725L31.4296 30.9328ZM32.6485 30.3191L31.4296 30.9328L32.1043 32.2725L33.3231 31.6588L32.6485 30.3191ZM33.7358 30.9901L33.75 21.7807L32.25 21.7784L32.2358 30.9878L33.7358 30.9901ZM31.2899 38.25H23.7101V39.75H31.2899V38.25Z" fill="url(#paint0_linear_23_304)"/>
<path d="M21.0709 35.7466C21.4833 35.7075 21.7858 35.3415 21.7466 34.9291C21.7075 34.5167 21.3415 34.2142 20.9291 34.2534L21.0709 35.7466ZM34.0719 34.2535C33.6596 34.2138 33.2931 34.5158 33.2535 34.9281C33.2138 35.3404 33.5158 35.7069 33.9281 35.7465L34.0719 34.2535ZM27.5001 42.25C26.7153 42.25 22.8841 42.2208 19.2624 41.6976C17.444 41.4349 15.7338 41.055 14.4969 40.5192C13.1919 39.9539 12.75 39.3715 12.75 38.8668H11.25C11.25 40.3707 12.5473 41.3093 13.9007 41.8956C15.3223 42.5114 17.1896 42.9138 19.0479 43.1822C22.7797 43.7213 26.6985 43.75 27.5001 43.75V42.25ZM12.75 38.8668C12.75 38.5248 12.9011 38.1945 13.2869 37.8523C13.6865 37.4978 14.2997 37.1695 15.1074 36.8803C16.7189 36.303 18.8938 35.9534 21.0709 35.7466L20.9291 34.2534C18.7181 34.4633 16.393 34.8264 14.6016 35.4681C13.7077 35.7883 12.8937 36.196 12.2915 36.7302C11.6753 37.2768 11.25 37.9881 11.25 38.8668H12.75ZM33.9281 35.7465C37.8497 36.1241 39.9724 36.7441 41.0959 37.3703C41.6463 37.6771 41.9232 37.967 42.0667 38.1984C42.206 38.4232 42.25 38.6417 42.25 38.8668H43.75C43.75 38.4209 43.656 37.9155 43.3416 37.4082C43.0314 36.9077 42.5388 36.4572 41.8262 36.0601C40.4238 35.2784 38.0465 34.6361 34.0719 34.2535L33.9281 35.7465ZM42.25 38.8668C42.25 39.3715 41.8081 39.9539 40.503 40.5192C39.2661 41.055 37.5559 41.4349 35.7374 41.6976C32.1157 42.2208 28.2845 42.25 27.5001 42.25V43.75C28.3013 43.75 32.2201 43.7213 35.9519 43.1822C37.8102 42.9137 39.6776 42.5114 41.0992 41.8956C42.4527 41.3093 43.75 40.3707 43.75 38.8668H42.25Z" fill="url(#paint1_linear_23_304)"/>
</g>
<defs>
<linearGradient id="paint0_linear_23_304" x1="19.6997" y1="7.60762" x2="41.3855" y2="12.8663" gradientUnits="userSpaceOnUse">
<stop stop-color="#7381FD"/>
<stop offset="1" stop-color="#76C7FF"/>
</linearGradient>
<linearGradient id="paint1_linear_23_304" x1="7.21926" y1="33.0358" x2="20.2606" y2="57.7031" gradientUnits="userSpaceOnUse">
<stop stop-color="#7381FD"/>
<stop offset="1" stop-color="#76C7FF"/>
</linearGradient>
<clipPath id="clip0_23_304">
<rect width="55" height="55" fill="white"/>
</clipPath>
</defs>
</svg>
