<svg width="55" height="55" viewBox="0 0 55 55" fill="none" xmlns="http://www.w3.org/2000/svg">
<g clip-path="url(#clip0_23_450)">
<path d="M0 15C0 6.71573 6.71573 0 15 0H40C48.2843 0 55 6.71573 55 15V40C55 48.2843 48.2843 55 40 55H15C6.71573 55 0 48.2843 0 40V15Z" fill="#F6FAFD"/>
<path d="M42.9798 17.6094L43.7144 17.761L43.7153 17.7562L42.9798 17.6094ZM40.2557 30.8039L40.99 30.9566L40.9902 30.9555L40.2557 30.8039ZM39.3178 31.7058L39.3492 32.4552C39.3606 32.4547 39.372 32.454 39.3834 32.453L39.3178 31.7058ZM19.048 34.9516L19.7975 34.9781C19.7978 34.9693 19.798 34.9605 19.798 34.9516H19.048ZM36.1621 38.3629C36.5763 38.3629 36.9121 38.0271 36.9121 37.6129C36.9121 37.1987 36.5763 36.8629 36.1621 36.8629V38.3629ZM19.798 32.5537C19.8006 32.1395 19.467 31.8016 19.0528 31.7989C18.6386 31.7963 18.3007 32.13 18.2981 32.5442L19.798 32.5537ZM16.1488 15.9268C16.0092 15.5368 15.5799 15.3338 15.1899 15.4734C14.7999 15.6129 14.5969 16.0422 14.7365 16.4322L16.1488 15.9268ZM11 10.25C10.5858 10.25 10.25 10.5858 10.25 11C10.25 11.4142 10.5858 11.75 11 11.75V10.25ZM43.3562 16.2081C43.0486 15.7801 42.5495 15.434 41.9542 15.434V16.934C41.9502 16.934 41.9674 16.9329 42.0042 16.9544C42.0413 16.9762 42.0904 17.0171 42.1381 17.0835L43.3562 16.2081ZM43.7153 17.7562C43.8256 17.2038 43.6653 16.6383 43.3562 16.2081L42.1381 17.0835C42.2403 17.2257 42.2619 17.3745 42.2444 17.4625L43.7153 17.7562ZM40.9902 30.9555L43.7144 17.761L42.2453 17.4577L39.5212 30.6523L40.9902 30.9555ZM39.3834 32.453C40.1957 32.3816 40.834 31.7065 40.99 30.9566L39.5214 30.6511C39.4797 30.8515 39.3103 30.9536 39.2522 30.9587L39.3834 32.453ZM18.5295 37.4783C18.8438 38.0031 19.4217 38.3629 20.0485 38.3629V36.8629C19.9918 36.8629 19.8827 36.8184 19.8167 36.7081L18.5295 37.4783ZM19.048 34.9516C18.2985 34.9251 18.2985 34.9251 18.2985 34.9252C18.2985 34.9253 18.2986 34.9251 18.2985 34.9252C18.2985 34.9256 18.2984 34.9265 18.2984 34.9271C18.2984 34.9282 18.2983 34.9297 18.2982 34.9317C18.2981 34.9356 18.2979 34.9412 18.2977 34.9484C18.2972 34.9628 18.2966 34.9836 18.2959 35.0099C18.2944 35.0626 18.2926 35.1376 18.291 35.2285C18.2878 35.4096 18.2856 35.6563 18.2895 35.915C18.2935 36.1709 18.3036 36.4516 18.327 36.6963C18.3387 36.8181 18.3548 36.9442 18.3786 37.0604C18.3982 37.1566 18.4375 37.3244 18.5295 37.4783L19.8167 36.7081C19.8612 36.7826 19.8614 36.8245 19.8482 36.7602C19.8391 36.7158 19.8292 36.6474 19.8202 36.5534C19.8023 36.3668 19.793 36.1319 19.7894 35.892C19.7857 35.6549 19.7878 35.4257 19.7908 35.2548C19.7923 35.1696 19.794 35.0997 19.7953 35.0513C19.796 35.0272 19.7966 35.0084 19.7969 34.996C19.7971 34.9897 19.7973 34.9851 19.7974 34.982C19.7975 34.9805 19.7975 34.9788 19.7975 34.9781C19.7975 34.9778 19.7975 34.9782 19.7975 34.9781C19.7975 34.9781 19.7975 34.9781 19.048 34.9516ZM41.9542 15.434H15.4486V16.934H41.9542V15.434ZM20.0485 38.3629H36.1621V36.8629H20.0485V38.3629ZM18.2981 32.5442L18.298 32.5496L19.798 32.5591V32.5537L18.2981 32.5442ZM14.7365 16.4322C14.8299 16.6931 15.0886 16.934 15.4486 16.934V15.434C15.8034 15.434 16.0574 15.6714 16.1488 15.9268L14.7365 16.4322ZM39.2864 30.9565L19.0166 31.805L19.0794 33.3037L39.3492 32.4552L39.2864 30.9565ZM19.798 34.9516V32.5537L18.298 32.5544V34.9516H19.798ZM19.7805 32.3933L16.1811 16.023L14.7161 16.3451L18.3155 32.7154L19.7805 32.3933ZM13.515 11.5609L14.7212 16.3666L16.1761 16.0015L14.9699 11.1957L13.515 11.5609ZM13.7575 10.25H11V11.75H13.7575V10.25ZM14.9699 11.1957C14.8304 10.6398 14.3307 10.25 13.7575 10.25V11.75C13.6429 11.75 13.5429 11.672 13.515 11.5609L14.9699 11.1957ZM28.8805 19.3377C30.2872 19.3377 31.5503 19.9483 32.4212 20.9212L33.5389 19.9209C32.3955 18.6434 30.7316 17.8377 28.8805 17.8377V19.3377ZM32.4212 20.9212C33.1738 21.7621 33.6305 22.8707 33.6305 24.0877H35.1305C35.1305 22.4875 34.5281 21.0261 33.5389 19.9209L32.4212 20.9212ZM28.8805 28.8377C27.633 28.8377 26.4993 28.3578 25.6512 27.5712L24.6311 28.6709C25.7457 29.7047 27.24 30.3377 28.8805 30.3377V28.8377ZM25.6512 27.5712C24.7149 26.7027 24.1305 25.464 24.1305 24.0877H22.6305C22.6305 25.8986 23.4016 27.5305 24.6311 28.6709L25.6512 27.5712ZM32.4545 19.886L24.6156 27.586L25.6667 28.6561L33.5056 20.9561L32.4545 19.886ZM24.1305 24.0877C24.1305 22.8707 24.5872 21.7621 25.3398 20.9212L24.2221 19.9209C23.2329 21.0261 22.6305 22.4875 22.6305 24.0877H24.1305ZM25.3398 20.9212C26.2106 19.9483 27.4738 19.3377 28.8805 19.3377V17.8377C27.0294 17.8377 25.3655 18.6434 24.2221 19.9209L25.3398 20.9212ZM33.6305 24.0877C33.6305 25.3048 33.1738 26.4133 32.4212 27.2542L33.5389 28.2546C34.5281 27.1493 35.1305 25.688 35.1305 24.0877H33.6305ZM32.4212 27.2542C31.5503 28.2272 30.2872 28.8377 28.8805 28.8377V30.3377C30.7316 30.3377 32.3955 29.532 33.5389 28.2546L32.4212 27.2542ZM24.281 20.9801L32.48 28.3134L33.48 27.1954L25.281 19.862L24.281 20.9801ZM23.3647 41.871C23.3647 42.6429 22.7508 43.25 22.0163 43.25V44.75C23.5997 44.75 24.8647 43.4507 24.8647 41.871H23.3647ZM22.0163 43.25C21.2819 43.25 20.668 42.6429 20.668 41.871H19.168C19.168 43.4507 20.433 44.75 22.0163 44.75V43.25ZM20.668 41.871C20.668 41.0991 21.2819 40.4919 22.0163 40.4919V38.9919C20.433 38.9919 19.168 40.2912 19.168 41.871H20.668ZM22.0163 40.4919C22.7508 40.4919 23.3647 41.0991 23.3647 41.871H24.8647C24.8647 40.2912 23.5997 38.9919 22.0163 38.9919V40.4919ZM34.9059 41.871C34.9059 42.6429 34.292 43.25 33.5576 43.25V44.75C35.1409 44.75 36.4059 43.4507 36.4059 41.871H34.9059ZM33.5576 43.25C32.8231 43.25 32.2092 42.6429 32.2092 41.871H30.7092C30.7092 43.4507 31.9742 44.75 33.5576 44.75V43.25ZM32.2092 41.871C32.2092 41.0991 32.8231 40.4919 33.5576 40.4919V38.9919C31.9742 38.9919 30.7092 40.2912 30.7092 41.871H32.2092ZM33.5576 40.4919C34.292 40.4919 34.9059 41.0991 34.9059 41.871H36.4059C36.4059 40.2912 35.1409 38.9919 33.5576 38.9919V40.4919Z" fill="url(#paint0_linear_23_450)"/>
</g>
<defs>
<linearGradient id="paint0_linear_23_450" x1="6.09523" y1="5.8408" x2="53.863" y2="31.4857" gradientUnits="userSpaceOnUse">
<stop stop-color="#7381FD"/>
<stop offset="1" stop-color="#76C7FF"/>
</linearGradient>
<clipPath id="clip0_23_450">
<rect width="55" height="55" fill="white"/>
</clipPath>
</defs>
</svg>
