<svg width="55" height="55" viewBox="0 0 55 55" fill="none" xmlns="http://www.w3.org/2000/svg">
<g clip-path="url(#clip0_23_260)">
<path d="M0 15C0 6.71573 6.71573 0 15 0H40C48.2843 0 55 6.71573 55 15V40C55 48.2843 48.2843 55 40 55H15C6.71573 55 0 48.2843 0 40V15Z" fill="#F6FAFD"/>
<path d="M33.9077 42.75C34.3219 42.75 34.6577 42.4142 34.6577 42C34.6577 41.5858 34.322 41.25 33.9078 41.25L33.9077 42.75ZM21.0969 41.2498C20.6827 41.2498 20.3469 41.5856 20.3469 41.9998C20.3469 42.414 20.6827 42.7498 21.0969 42.7498V41.2498ZM42.2159 13L42.2176 12.25H42.2159V13ZM42.2142 13.75C42.5093 13.7507 42.7799 13.8588 42.9694 14.0329L43.9842 12.9283C43.5051 12.4881 42.8683 12.2515 42.2176 12.25L42.2142 13.75ZM12.0302 14.0333C12.2206 13.8586 12.492 13.75 12.7855 13.75V12.25C12.1325 12.25 11.4954 12.4882 11.0167 12.9276L12.0302 14.0333ZM11.75 14.6365C11.75 14.4247 11.8417 14.2059 12.0302 14.0333L11.0167 12.9276C10.5354 13.3683 10.25 13.9807 10.25 14.6365H11.75ZM12.031 36.7743C11.8424 36.6017 11.75 36.3821 11.75 36.1702H10.25C10.25 36.8261 10.5361 37.4393 11.0174 37.88L12.031 36.7743ZM12.7853 37.0569C12.4918 37.0569 12.2213 36.949 12.031 36.7743L11.0174 37.88C11.4961 38.3192 12.1323 38.5569 12.7853 38.5569V37.0569ZM42.9699 36.7736C42.7797 36.9483 42.5086 37.0569 42.2157 37.0569V38.5569C42.8691 38.5569 43.5061 38.318 43.9842 37.8786L42.9699 36.7736ZM12.7855 13.75H42.2159V12.25H12.7855V13.75ZM21.0969 42.7498L24.692 42.7499L24.6921 41.2499L21.0969 41.2498V42.7498ZM24.692 37.0569H12.7853V38.5569H24.692V37.0569ZM25.442 41.9999V37.8069H23.942V41.9999H25.442ZM24.692 42.7499H30.3046V41.2499H24.6921L24.692 42.7499ZM30.3046 42.7499L33.9077 42.75L33.9078 41.25L30.3046 41.2499V42.7499ZM42.2157 37.0569H30.3046V38.5569H42.2157V37.0569ZM30.3046 37.0569H24.692V38.5569H30.3046V37.0569ZM31.0546 41.9999V37.8069H29.5546V41.9999H31.0546ZM43.25 36.1703C43.25 36.3818 43.1584 36.6007 42.9699 36.7736L43.9842 37.8786C44.4646 37.4381 44.75 36.8259 44.75 36.1703H43.25ZM42.9694 14.0329C43.1579 14.2056 43.25 14.4251 43.25 14.6366H44.75C44.75 13.981 44.4646 13.3688 43.9842 12.9283L42.9694 14.0329ZM44.75 18.5V14.6366H43.25V18.5H44.75ZM11.75 18.5V14.6365H10.25V18.5H11.75ZM11.75 36.1702V32H10.25V36.1702H11.75ZM11.75 32V18.5H10.25V32H11.75ZM44.75 36.1703V32H43.25V36.1703H44.75ZM44.75 32V18.5H43.25V32H44.75Z" fill="url(#paint0_linear_23_260)"/>
<path d="M25.4546 17.603C25.5087 17.4255 25.6038 17.2729 25.7274 17.1653C25.851 17.0576 25.9973 17 26.1472 17H28.803C29.3189 17 29.6777 17.6525 29.5 18.2683L28.0641 21.8991H31.9668C32.8225 21.8991 33.1603 22.6155 32.5 23.5L26.2224 33.6343C25.324 34.5839 24.6802 33.9014 24.9993 33L26.8206 26.5H24.0685C23.8949 26.5001 23.7238 26.4464 23.5702 26.3436C23.4166 26.2408 23.2851 26.092 23.1869 25.91C23.0888 25.7281 23.0271 25.5185 23.0071 25.2994C22.9871 25.0804 23.0095 24.8584 23.0722 24.6528L25.4546 17.603Z" stroke="url(#paint1_linear_23_260)" stroke-width="1.5" stroke-linejoin="round"/>
</g>
<defs>
<linearGradient id="paint0_linear_23_260" x1="5.97122" y1="8.35201" x2="51.5259" y2="36.8419" gradientUnits="userSpaceOnUse">
<stop stop-color="#7381FD"/>
<stop offset="1" stop-color="#76C7FF"/>
</linearGradient>
<linearGradient id="paint1_linear_23_260" x1="21.7787" y1="14.8155" x2="38.201" y2="20.0466" gradientUnits="userSpaceOnUse">
<stop stop-color="#7381FD"/>
<stop offset="1" stop-color="#76C7FF"/>
</linearGradient>
<clipPath id="clip0_23_260">
<rect width="55" height="55" fill="white"/>
</clipPath>
</defs>
</svg>
