<svg width="55" height="55" viewBox="0 0 55 55" fill="none" xmlns="http://www.w3.org/2000/svg">
<g clip-path="url(#clip0_23_502)">
<path d="M0 15C0 6.71573 6.71573 0 15 0H40C48.2843 0 55 6.71573 55 15V40C55 48.2843 48.2843 55 40 55H15C6.71573 55 0 48.2843 0 40V15Z" fill="#F6FAFD"/>
<path d="M26.4052 23.1085H27.1552V22.3585V20.8079L27.1559 20.8062C27.1588 20.7999 27.1652 20.7893 27.1768 20.7779C27.1883 20.7666 27.2004 20.759 27.2101 20.7548C27.2163 20.7521 27.2212 20.7513 27.2212 20.7513C27.2212 20.7513 27.2261 20.7521 27.2323 20.7548C27.242 20.759 27.2541 20.7666 27.2656 20.7779C27.2771 20.7893 27.2836 20.7999 27.2865 20.8062L27.2872 20.8079V22.3585V23.1085H28.0372H30.1491C30.1491 23.1085 30.1537 23.1091 30.1605 23.1121C30.1701 23.1163 30.1823 23.124 30.1938 23.1352C30.2034 23.1447 30.2095 23.1536 30.2129 23.16C30.2095 23.1664 30.2034 23.1753 30.1938 23.1847C30.1823 23.196 30.1701 23.2037 30.1605 23.2079C30.1537 23.2108 30.1491 23.2114 30.1491 23.2114H26.069C24.7076 23.2114 23.591 24.289 23.591 25.6587C23.591 27.0285 24.7076 28.106 26.069 28.106H28.373C29.8437 28.106 30.9831 29.2444 30.9831 30.6562C30.9831 32.0681 29.8437 33.2065 28.373 33.2065H28.3252H28.2773H28.0372H27.2872V33.9565V35.5542L27.2865 35.5559C27.2836 35.5622 27.2772 35.5728 27.2656 35.5841C27.2541 35.5954 27.242 35.6031 27.2323 35.6073C27.2261 35.61 27.2212 35.6108 27.2212 35.6108C27.2212 35.6108 27.2163 35.61 27.2101 35.6073C27.2004 35.6031 27.1883 35.5954 27.1768 35.5841C27.1653 35.5728 27.1588 35.5622 27.1559 35.5558L27.1552 35.5542V33.9565V33.2065H26.4052H24.2455C24.2455 33.2065 24.2409 33.2058 24.2341 33.2029C24.2244 33.1987 24.2123 33.191 24.2008 33.1797C24.1912 33.1703 24.1851 33.1614 24.1817 33.155C24.1851 33.1486 24.1912 33.1397 24.2008 33.1303C24.2123 33.119 24.2244 33.1113 24.2341 33.1071C24.2409 33.1042 24.2455 33.1035 24.2455 33.1035H28.3255H28.3734H28.4213C29.7827 33.1035 30.8994 32.026 30.8994 30.6562C30.8994 29.2865 29.7827 28.209 28.4213 28.209H26.1173C24.5984 28.209 23.459 27.0235 23.459 25.6587C23.459 24.2469 24.5984 23.1085 26.069 23.1085H26.4052Z" fill="url(#paint0_linear_23_502)" stroke="url(#paint1_linear_23_502)" stroke-width="1.5"/>
<path d="M34.5377 41H38.1994C38.2044 41 38.2085 40.9959 38.2085 40.9908V37.2527H38.1964M34.5377 41C34.5314 41 34.5271 40.9937 34.5292 40.9877L34.7329 40.4051C35.2134 39.0309 36.275 37.9495 37.6244 37.4602L38.1964 37.2527M34.5377 41L20.6342 40.9877M38.1964 37.2527V20.6357M20.6342 40.9877C20.6363 40.9937 20.6319 41 20.6257 41H16.9639C16.959 41 16.9549 40.9959 16.9549 40.9908V37.2614M20.6342 40.9877L20.4305 40.4051C19.95 39.0308 18.8882 37.9495 17.539 37.4602L16.967 37.2527C16.9611 37.2506 16.9549 37.2614 16.9549 37.2614M16.9549 37.2614L16.9594 26.9288L16.9622 20.6357M16.9622 20.6357L16.9639 16.5963M16.9622 20.6357H12.0055C11.7388 20.6357 11.4829 20.5278 11.2945 20.3358C11.106 20.1439 11 19.8833 11 19.6117V15.0241C11 14.7525 11.106 14.4919 11.2945 14.2999C11.4829 14.1079 11.7388 14 12.0055 14H42.9945C43.2612 14 43.5171 14.1079 43.7055 14.2999C43.894 14.4919 44 14.7525 44 15.0241V19.6117C44 19.8833 43.894 20.1439 43.7055 20.3358C43.5171 20.5278 43.2612 20.6357 42.9945 20.6357H38.1964M14.1199 16.5963H16.9639M16.9639 16.5963L38.1964 16.6039M38.1964 20.6357V16.6039M38.1964 16.6039L40.8884 16.5963" stroke="url(#paint2_linear_23_502)" stroke-width="1.5" stroke-linecap="round" stroke-linejoin="round"/>
</g>
<defs>
<linearGradient id="paint0_linear_23_502" x1="22.5258" y1="18.8522" x2="35.3422" y2="22.4402" gradientUnits="userSpaceOnUse">
<stop stop-color="#7381FD"/>
<stop offset="1" stop-color="#76C7FF"/>
</linearGradient>
<linearGradient id="paint1_linear_23_502" x1="22.5258" y1="18.8522" x2="35.3422" y2="22.4402" gradientUnits="userSpaceOnUse">
<stop stop-color="#7381FD"/>
<stop offset="1" stop-color="#76C7FF"/>
</linearGradient>
<linearGradient id="paint2_linear_23_502" x1="6.90725" y1="10.5493" x2="48.5214" y2="38.6702" gradientUnits="userSpaceOnUse">
<stop stop-color="#7381FD"/>
<stop offset="1" stop-color="#76C7FF"/>
</linearGradient>
<clipPath id="clip0_23_502">
<rect width="55" height="55" fill="white"/>
</clipPath>
</defs>
</svg>
