<svg width="55" height="55" viewBox="0 0 55 55" fill="none" xmlns="http://www.w3.org/2000/svg">
<g clip-path="url(#clip0_23_499)">
<path d="M0 15C0 6.71573 6.71573 0 15 0H40C48.2843 0 55 6.71573 55 15V40C55 48.2843 48.2843 55 40 55H15C6.71573 55 0 48.2843 0 40V15Z" fill="#F6FAFD"/>
<path d="M36.1481 19.9118C36.441 19.6189 36.441 19.1441 36.1481 18.8512C35.8552 18.5583 35.3803 18.5583 35.0875 18.8512L36.1481 19.9118ZM18.8497 35.0889C18.5568 35.3818 18.5568 35.8566 18.8497 36.1495C19.1426 36.4424 19.6175 36.4424 19.9104 36.1495L18.8497 35.0889ZM27.4993 10.25C17.9867 10.25 10.25 17.9879 10.25 27.5007H11.75C11.75 18.8162 18.8153 11.75 27.4993 11.75V10.25ZM10.25 27.5007C10.25 37.0132 17.9878 44.75 27.4993 44.75V43.25C18.8162 43.25 11.75 36.1847 11.75 27.5007H10.25ZM27.4993 44.75C37.0117 44.75 44.75 37.0123 44.75 27.5007H43.25C43.25 36.1837 36.1834 43.25 27.4993 43.25V44.75ZM44.75 27.5007C44.75 17.9882 37.0116 10.25 27.4993 10.25V11.75C36.1832 11.75 43.25 18.8166 43.25 27.5007H44.75ZM35.0875 18.8512L18.8497 35.0889L19.9104 36.1495L36.1481 19.9118L35.0875 18.8512ZM35.9511 32.3723C35.9511 33.7517 34.8329 34.87 33.4534 34.87V36.37C35.6613 36.37 37.4511 34.5801 37.4511 32.3723H35.9511ZM33.4534 34.87C32.074 34.87 30.9557 33.7517 30.9557 32.3723H29.4557C29.4557 34.5801 31.2456 36.37 33.4534 36.37V34.87ZM30.9557 32.3723C30.9557 30.9928 32.074 29.8746 33.4534 29.8746V28.3746C31.2456 28.3746 29.4557 30.1644 29.4557 32.3723H30.9557ZM33.4534 29.8746C34.8329 29.8746 35.9511 30.9928 35.9511 32.3723H37.4511C37.4511 30.1644 35.6613 28.3746 33.4534 28.3746V29.8746ZM24.0429 22.6291C24.0429 24.0086 22.9246 25.1268 21.5452 25.1268V26.6268C23.753 26.6268 25.5429 24.837 25.5429 22.6291H24.0429ZM21.5452 25.1268C20.1657 25.1268 19.0475 24.0086 19.0475 22.6291H17.5475C17.5475 24.837 19.3373 26.6268 21.5452 26.6268V25.1268ZM19.0475 22.6291C19.0475 21.2497 20.1657 20.1314 21.5452 20.1314V18.6314C19.3373 18.6314 17.5475 20.4213 17.5475 22.6291H19.0475ZM21.5452 20.1314C22.9246 20.1314 24.0429 21.2497 24.0429 22.6291H25.5429C25.5429 20.4213 23.753 18.6314 21.5452 18.6314V20.1314Z" fill="url(#paint0_linear_23_499)"/>
</g>
<defs>
<linearGradient id="paint0_linear_23_499" x1="5.97122" y1="5.8408" x2="54.5068" y2="32.6756" gradientUnits="userSpaceOnUse">
<stop stop-color="#7381FD"/>
<stop offset="1" stop-color="#76C7FF"/>
</linearGradient>
<clipPath id="clip0_23_499">
<rect width="55" height="55" fill="white"/>
</clipPath>
</defs>
</svg>
