<svg width="55" height="55" viewBox="0 0 55 55" fill="none" xmlns="http://www.w3.org/2000/svg">
<g clip-path="url(#clip0_23_428)">
<path d="M0 15C0 6.71573 6.71573 0 15 0H40C48.2843 0 55 6.71573 55 15V40C55 48.2843 48.2843 55 40 55H15C6.71573 55 0 48.2843 0 40V15Z" fill="#F6FAFD"/>
<path d="M38.4526 35.0493C38.4526 35.8341 37.8017 36.4703 36.9988 36.4703C36.1958 36.4703 35.5449 35.8341 35.5449 35.0493C35.5449 34.2645 36.1958 33.6282 36.9988 33.6282C37.8017 33.6282 38.4526 34.2645 38.4526 35.0493Z" fill="url(#paint0_linear_23_428)"/>
<path d="M43.2065 30.5197C43.2065 31.3045 42.5556 31.9407 41.7526 31.9407C40.9497 31.9407 40.2988 31.3045 40.2988 30.5197C40.2988 29.7348 40.9497 29.0986 41.7526 29.0986C42.5556 29.0986 43.2065 29.7348 43.2065 30.5197Z" fill="url(#paint1_linear_23_428)"/>
<path d="M43.2065 39.5789C43.2065 40.3637 42.5556 40.9999 41.7526 40.9999C40.9497 40.9999 40.2988 40.3637 40.2988 39.5789C40.2988 38.7941 40.9497 38.1579 41.7526 38.1579C42.5556 38.1579 43.2065 38.7941 43.2065 39.5789Z" fill="url(#paint2_linear_23_428)"/>
<path d="M42 26.7576V14.6429C42 14.4724 41.9336 14.3088 41.8154 14.1883C41.6972 14.0677 41.5367 14 41.3696 14H31.2826M31.2826 14H23.7174M31.2826 14V25.4606C31.2818 25.7025 31.1478 25.9238 30.9359 26.0329C30.8489 26.0808 30.7512 26.1052 30.6522 26.1035C30.5157 26.1035 30.3831 26.0584 30.2739 25.9749L27.5 23.8535L24.7261 25.9749C24.5341 26.1207 24.2777 26.1431 24.0641 26.0329C23.8522 25.9238 23.7182 25.7025 23.7174 25.4606V14M29.3913 41H13.6304C13.4633 41 13.3028 40.9323 13.1846 40.8117C13.0664 40.6912 13 40.5276 13 40.3571V14.6429C13 14.2879 13.2823 14 13.6304 14H23.7174" stroke="url(#paint3_linear_23_428)" stroke-width="1.5" stroke-linecap="round" stroke-linejoin="round"/>
<path d="M32.0338 30.4832H39.1769M44.448 30.4832H47M32 35.1047H34.3052M39.8376 35.1047H47M32 39.6678H39.1093M44.448 39.6678H47" stroke="url(#paint4_linear_23_428)" stroke-width="1.5" stroke-linecap="round" stroke-linejoin="round"/>
</g>
<defs>
<linearGradient id="paint0_linear_23_428" x1="35.1843" y1="33.265" x2="39.2307" y2="35.5538" gradientUnits="userSpaceOnUse">
<stop stop-color="#7381FD"/>
<stop offset="1" stop-color="#76C7FF"/>
</linearGradient>
<linearGradient id="paint1_linear_23_428" x1="39.9382" y1="28.7354" x2="43.9846" y2="31.0242" gradientUnits="userSpaceOnUse">
<stop stop-color="#7381FD"/>
<stop offset="1" stop-color="#76C7FF"/>
</linearGradient>
<linearGradient id="paint2_linear_23_428" x1="39.9382" y1="37.7947" x2="43.9845" y2="40.0836" gradientUnits="userSpaceOnUse">
<stop stop-color="#7381FD"/>
<stop offset="1" stop-color="#76C7FF"/>
</linearGradient>
<linearGradient id="paint3_linear_23_428" x1="9.40334" y1="10.5493" x2="48.7848" y2="33.9358" gradientUnits="userSpaceOnUse">
<stop stop-color="#7381FD"/>
<stop offset="1" stop-color="#76C7FF"/>
</linearGradient>
<linearGradient id="paint4_linear_23_428" x1="30.1397" y1="29.3094" x2="45.3176" y2="43.0145" gradientUnits="userSpaceOnUse">
<stop stop-color="#7381FD"/>
<stop offset="1" stop-color="#76C7FF"/>
</linearGradient>
<clipPath id="clip0_23_428">
<rect width="55" height="55" fill="white"/>
</clipPath>
</defs>
</svg>
