<svg width="55" height="55" viewBox="0 0 55 55" fill="none" xmlns="http://www.w3.org/2000/svg">
<g clip-path="url(#clip0_23_446)">
<path d="M0 15C0 6.71573 6.71573 0 15 0H40C48.2843 0 55 6.71573 55 15V40C55 48.2843 48.2843 55 40 55H15C6.71573 55 0 48.2843 0 40V15Z" fill="#F6FAFD"/>
<path d="M23.5046 11H12.1229C11.5053 10.9974 11.0025 11.5145 11 12.1547V42.8453C11.0025 43.4855 11.5053 44.0026 12.1229 44H42.8861C43.5002 43.9974 43.9975 43.4819 44 42.8453V12.1547C43.9975 11.5181 43.5002 11.0026 42.8861 11H31.4961M23.5046 11V22.2386C23.5046 22.3692 23.6546 22.4428 23.7579 22.3629L27.4488 19.5082C27.5059 19.4641 27.5858 19.4645 27.6425 19.5093L31.2415 22.3573C31.3445 22.4389 31.4961 22.3655 31.4961 22.2341V11M23.5046 11H31.4961M22.8822 36.6077L19 33.469M19 33.469L22.8822 30M19 33.469H30.8237C33.875 33.469 36 35.8093 36 38.7139C36 41.9131 34.4063 44 30.8237 44" stroke="url(#paint0_linear_23_446)" stroke-width="1.5" stroke-linecap="round" stroke-linejoin="round"/>
</g>
<defs>
<linearGradient id="paint0_linear_23_446" x1="6.90725" y1="6.78249" x2="53.3326" y2="32.4505" gradientUnits="userSpaceOnUse">
<stop stop-color="#7381FD"/>
<stop offset="1" stop-color="#76C7FF"/>
</linearGradient>
<clipPath id="clip0_23_446">
<rect width="55" height="55" fill="white"/>
</clipPath>
</defs>
</svg>
