<svg width="55" height="55" viewBox="0 0 55 55" fill="none" xmlns="http://www.w3.org/2000/svg">
<g clip-path="url(#clip0_23_402)">
<path d="M0 15C0 6.71573 6.71573 0 15 0H40C48.2843 0 55 6.71573 55 15V40C55 48.2843 48.2843 55 40 55H15C6.71573 55 0 48.2843 0 40V15Z" fill="#F6FAFD"/>
<path d="M26.3037 25.3095C26.3037 26.1533 25.5895 26.8373 24.7085 26.8373C23.8275 26.8373 23.1133 26.1533 23.1133 25.3095C23.1133 24.4657 23.8275 23.7817 24.7085 23.7817C25.5895 23.7817 26.3037 24.4657 26.3037 25.3095Z" fill="url(#paint0_linear_23_402)"/>
<path d="M31.8869 20.7263C31.8869 21.5701 31.1727 22.2541 30.2917 22.2541C29.4107 22.2541 28.6965 21.5701 28.6965 20.7263C28.6965 19.8825 29.4107 19.1985 30.2917 19.1985C31.1727 19.1985 31.8869 19.8825 31.8869 20.7263Z" fill="url(#paint1_linear_23_402)"/>
<path d="M31.8869 29.8934C31.8869 30.7371 31.1727 31.4212 30.2917 31.4212C29.4107 31.4212 28.6965 30.7371 28.6965 29.8934C28.6965 29.0496 29.4107 28.3655 30.2917 28.3655C31.1727 28.3655 31.8869 29.0496 31.8869 29.8934Z" fill="url(#paint2_linear_23_402)"/>
<path d="M17.5297 19.9763C17.1155 19.9763 16.7797 20.312 16.7797 20.7263C16.7797 21.1405 17.1155 21.4763 17.5297 21.4763V19.9763ZM27.2065 21.4763C27.6207 21.4763 27.9565 21.1405 27.9565 20.7263C27.9565 20.312 27.6207 19.9763 27.2065 19.9763V21.4763ZM33.3882 19.9763C32.974 19.9763 32.6382 20.312 32.6382 20.7263C32.6382 21.1405 32.974 21.4763 33.3882 21.4763V19.9763ZM37.47 21.4763C37.8842 21.4763 38.22 21.1405 38.22 20.7263C38.22 20.312 37.8842 19.9763 37.47 19.9763V21.4763ZM17.5297 24.5594C17.1155 24.5594 16.7797 24.8952 16.7797 25.3094C16.7797 25.7236 17.1155 26.0594 17.5297 26.0594V24.5594ZM21.5284 26.0594C21.9427 26.0594 22.2784 25.7236 22.2784 25.3094C22.2784 24.8952 21.9427 24.5594 21.5284 24.5594V26.0594ZM27.8476 24.5594C27.4334 24.5594 27.0976 24.8952 27.0976 25.3094C27.0976 25.7236 27.4334 26.0594 27.8476 26.0594V24.5594ZM37.47 26.0594C37.8842 26.0594 38.22 25.7236 38.22 25.3094C38.22 24.8952 37.8842 24.5594 37.47 24.5594V26.0594ZM17.5297 29.1428C17.1155 29.1428 16.7797 29.4786 16.7797 29.8928C16.7797 30.307 17.1155 30.6428 17.5297 30.6428V29.1428ZM27.1607 30.6428C27.5749 30.6428 27.9107 30.307 27.9107 29.8928C27.9107 29.4786 27.5749 29.1428 27.1607 29.1428V30.6428ZM33.434 29.1428C33.0198 29.1428 32.684 29.4786 32.684 29.8928C32.684 30.307 33.0198 30.6428 33.434 30.6428V29.1428ZM37.47 30.6428C37.8842 30.6428 38.22 30.307 38.22 29.8928C38.22 29.4786 37.8842 29.1428 37.47 29.1428V30.6428ZM42.2159 13L42.2176 12.25H42.2159V13ZM21.0969 41.2498C20.6827 41.2498 20.3469 41.5856 20.3469 41.9998C20.3469 42.414 20.6826 42.7498 21.0969 42.7498V41.2498ZM33.9077 42.75C34.3219 42.75 34.6577 42.4142 34.6577 42C34.6577 41.5858 34.3219 41.25 33.9077 41.25V42.75ZM17.5297 21.4763H27.2065V19.9763H17.5297V21.4763ZM33.3882 21.4763H37.47V19.9763H33.3882V21.4763ZM17.5297 26.0594H21.5284V24.5594H17.5297V26.0594ZM27.8476 26.0594H37.47V24.5594H27.8476V26.0594ZM17.5297 30.6428H27.1607V29.1428H17.5297V30.6428ZM33.434 30.6428H37.47V29.1428H33.434V30.6428ZM42.2142 13.75C42.5092 13.7507 42.7799 13.8588 42.9693 14.0329L43.9842 12.9283C43.505 12.4881 42.8682 12.2515 42.2176 12.25L42.2142 13.75ZM12.0302 14.0333C12.2206 13.8586 12.4919 13.75 12.7854 13.75V12.25C12.1324 12.25 11.4953 12.4882 11.0166 12.9276L12.0302 14.0333ZM11.75 14.6365C11.75 14.4247 11.8417 14.2059 12.0302 14.0333L11.0166 12.9276C10.5354 13.3683 10.25 13.9807 10.25 14.6365H11.75ZM12.0309 36.7743C11.8423 36.6017 11.75 36.3821 11.75 36.1702H10.25C10.25 36.8261 10.536 37.4393 11.0174 37.88L12.0309 36.7743ZM12.7853 37.0569C12.4918 37.0569 12.2213 36.949 12.0309 36.7743L11.0174 37.88C11.496 38.3192 12.1323 38.5569 12.7853 38.5569V37.0569ZM42.9699 36.7736C42.7797 36.9483 42.5086 37.0569 42.2157 37.0569V38.5569C42.869 38.5569 43.506 38.318 43.9842 37.8786L42.9699 36.7736ZM12.7854 13.75H42.2159V12.25H12.7854V13.75ZM21.0969 42.7498L24.692 42.7499V41.2499L21.0969 41.2498V42.7498ZM24.692 37.0569H12.7853V38.5569H24.692V37.0569ZM25.442 41.9999V37.8069H23.942V41.9999H25.442ZM24.692 42.7499H30.3045V41.2499H24.692V42.7499ZM30.3045 42.7499L33.9077 42.75V41.25L30.3045 41.2499V42.7499ZM42.2157 37.0569H30.3045V38.5569H42.2157V37.0569ZM30.3045 37.0569H24.692V38.5569H30.3045V37.0569ZM31.0545 41.9999V37.8069H29.5545V41.9999H31.0545ZM43.25 36.1703C43.25 36.3818 43.1584 36.6007 42.9699 36.7736L43.9842 37.8786C44.4645 37.4381 44.75 36.8259 44.75 36.1703H43.25ZM42.9693 14.0329C43.1577 14.2056 43.25 14.4251 43.25 14.6366H44.75C44.75 13.981 44.4646 13.3688 43.9842 12.9283L42.9693 14.0329ZM44.75 36.1703V14.6366H43.25V36.1703H44.75ZM11.75 36.1702V14.6365H10.25V36.1702H11.75Z" fill="url(#paint3_linear_23_402)"/>
</g>
<defs>
<linearGradient id="paint0_linear_23_402" x1="22.7176" y1="23.3912" x2="27.1131" y2="25.9287" gradientUnits="userSpaceOnUse">
<stop stop-color="#7381FD"/>
<stop offset="1" stop-color="#76C7FF"/>
</linearGradient>
<linearGradient id="paint1_linear_23_402" x1="28.3009" y1="18.808" x2="32.6964" y2="21.3454" gradientUnits="userSpaceOnUse">
<stop stop-color="#7381FD"/>
<stop offset="1" stop-color="#76C7FF"/>
</linearGradient>
<linearGradient id="paint2_linear_23_402" x1="28.3009" y1="27.975" x2="32.6965" y2="30.5124" gradientUnits="userSpaceOnUse">
<stop stop-color="#7381FD"/>
<stop offset="1" stop-color="#76C7FF"/>
</linearGradient>
<linearGradient id="paint3_linear_23_402" x1="5.97122" y1="8.35201" x2="51.5259" y2="36.8419" gradientUnits="userSpaceOnUse">
<stop stop-color="#7381FD"/>
<stop offset="1" stop-color="#76C7FF"/>
</linearGradient>
<clipPath id="clip0_23_402">
<rect width="55" height="55" fill="white"/>
</clipPath>
</defs>
</svg>
