<svg width="55" height="55" viewBox="0 0 55 55" fill="none" xmlns="http://www.w3.org/2000/svg">
<g clip-path="url(#clip0_23_575)">
<path d="M0 15C0 6.71573 6.71573 0 15 0H40C48.2843 0 55 6.71573 55 15V40C55 48.2843 48.2843 55 40 55H15C6.71573 55 0 48.2843 0 40V15Z" fill="#F6FAFD"/>
<path d="M37.948 15.7245L38.5864 15.3308L38.5842 15.3274L37.948 15.7245ZM18.3453 18.2213H17.5953V18.2248L18.3453 18.2213ZM17 15.9071L16.3602 15.5158L16.25 15.6959V15.9071H17ZM32.5387 17.2272L33.2657 17.0425L33.2648 17.0393L32.5387 17.2272ZM32.5925 17.4388L31.8656 17.6235L31.9029 17.7704L31.9943 17.8913L32.5925 17.4388ZM27.4506 11.2919L26.7006 11.2884V11.2919H27.4506ZM27.3993 17.4382L27.9982 17.8896L28.0928 17.7641L28.1291 17.6111L27.3993 17.4382ZM27.6035 17.4403L26.9892 17.8706L26.9966 17.8811L27.0043 17.8913L27.6035 17.4403ZM32.3875 17.4431L32.9856 17.8956L32.9938 17.8847L33.0016 17.8735L32.3875 17.4431ZM20.146 40.1789C20.146 41.8521 18.7375 43.25 16.948 43.25V44.75C19.5194 44.75 21.646 42.7263 21.646 40.1789H20.146ZM16.948 43.25C15.1585 43.25 13.75 41.8521 13.75 40.1789H12.25C12.25 42.7263 14.3767 44.75 16.948 44.75V43.25ZM13.75 40.1789C13.75 38.5056 15.1585 37.1077 16.948 37.1077V35.6077C14.3767 35.6077 12.25 37.6314 12.25 40.1789H13.75ZM16.948 37.1077C18.7375 37.1077 20.146 38.5056 20.146 40.1789H21.646C21.646 37.6314 19.5194 35.6077 16.948 35.6077V37.1077ZM30.6262 40.1789C30.6262 41.8521 29.2177 43.25 27.4282 43.25V44.75C29.9996 44.75 32.1262 42.7263 32.1262 40.1789H30.6262ZM27.4282 43.25C25.6387 43.25 24.2302 41.8521 24.2302 40.1789H22.7302C22.7302 42.7263 24.8569 44.75 27.4282 44.75V43.25ZM24.2302 40.1789C24.2302 38.5056 25.6387 37.1077 27.4282 37.1077V35.6077C24.8569 35.6077 22.7302 37.6314 22.7302 40.1789H24.2302ZM27.4282 37.1077C29.2177 37.1077 30.6262 38.5056 30.6262 40.1789H32.1262C32.1262 37.6314 29.9996 35.6077 27.4282 35.6077V37.1077ZM41.25 40.1789C41.25 41.8521 39.8415 43.25 38.052 43.25V44.75C40.6233 44.75 42.75 42.7263 42.75 40.1789H41.25ZM38.052 43.25C36.2625 43.25 34.854 41.8521 34.854 40.1789H33.354C33.354 42.7263 35.4806 44.75 38.052 44.75V43.25ZM34.854 40.1789C34.854 38.5056 36.2625 37.1077 38.052 37.1077V35.6077C35.4806 35.6077 33.354 37.6314 33.354 40.1789H34.854ZM38.052 37.1077C39.8415 37.1077 41.25 38.5056 41.25 40.1789H42.75C42.75 37.6314 40.6233 35.6077 38.052 35.6077V37.1077ZM26.6782 28.9934V32.6756H28.1782V28.9934H26.6782ZM26.6782 32.6756V36.3577H28.1782V32.6756H26.6782ZM27.4282 33.4256H37.552V31.9256H27.4282V33.4256ZM37.302 33.1756V36.3577H38.802V33.1756H37.302ZM27.4282 31.9256H17.448V33.4256H27.4282V31.9256ZM16.198 33.1756V36.3577H17.698V33.1756H16.198ZM38.75 15.9071C38.75 15.6994 38.6906 15.4998 38.5864 15.3308L37.3097 16.1182C37.2718 16.0568 37.25 15.9848 37.25 15.9071H38.75ZM36.6519 29.6927C36.6042 29.6927 36.518 29.688 36.4164 29.6531C36.3152 29.6184 36.1527 29.5366 36.0346 29.3547C35.9077 29.1593 35.8921 28.94 35.9378 28.7624C35.9798 28.5993 36.0686 28.4799 36.1533 28.4016C36.2959 28.2698 36.6413 28.0879 37.0196 28.2977C37.3882 28.5021 37.4019 28.8723 37.4019 28.9427H35.9019C35.9019 29.026 35.9191 29.4026 36.2921 29.6094C36.6747 29.8216 37.0253 29.6381 37.1714 29.5031C37.2579 29.4232 37.3479 29.3017 37.3904 29.1366C37.4367 28.9568 37.4209 28.7354 37.2927 28.538C37.1733 28.3541 37.0084 28.2705 36.9034 28.2344C36.798 28.1982 36.7066 28.1927 36.6519 28.1927V29.6927ZM18.3969 29.7386L36.6538 29.6927L36.65 28.1927L18.3931 28.2386L18.3969 29.7386ZM17.645 28.9886C17.645 28.9176 17.659 28.5474 18.0279 28.3432C18.4055 28.1342 18.7504 28.3153 18.8931 28.447C18.9778 28.5251 19.0668 28.6446 19.109 28.8079C19.1549 28.9859 19.1391 29.2056 19.012 29.4011C18.8937 29.583 18.7311 29.6646 18.6301 29.6992C18.5286 29.7339 18.4426 29.7386 18.395 29.7386V28.2386C18.3404 28.2386 18.2492 28.2441 18.1439 28.2801C18.0391 28.316 17.8741 28.3994 17.7545 28.5833C17.626 28.7808 17.6101 29.0027 17.6566 29.1828C17.6992 29.3482 17.7895 29.4697 17.876 29.5495C18.0222 29.6844 18.3723 29.867 18.7543 29.6556C19.1275 29.449 19.145 29.0724 19.145 28.9886H17.645ZM37.2267 15.9299L37.2787 16.1125L38.7213 15.7017L38.6693 15.5191L37.2267 15.9299ZM33.3194 17.2542L33.2657 17.0425L31.8118 17.4119L31.8656 17.6235L33.3194 17.2542ZM34.9855 17.8434C34.2249 17.8434 33.573 17.4918 33.1907 16.9864L31.9943 17.8913C32.664 18.7767 33.7613 19.3434 34.9855 19.3434V17.8434ZM26.7006 11.2919V17.2219H28.2006V11.2919H26.7006ZM26.7019 10.9965L26.7006 11.2884L28.2005 11.2953L28.2019 11.0035L26.7019 10.9965ZM25.0061 17.8432C24.2769 17.8432 23.5308 17.4113 23.1274 16.8743L21.9281 17.7752C22.5766 18.6386 23.745 19.3432 25.0061 19.3432V17.8432ZM26.8004 16.9867C26.4186 17.4932 25.7674 17.8432 25.0061 17.8432V19.3432C26.2285 19.3432 27.3272 18.7798 27.9982 17.8896L26.8004 16.9867ZM26.7208 17.049L26.6695 17.2652L28.1291 17.6111L28.1803 17.3949L26.7208 17.049ZM28.2006 17.2219C28.2006 17.2219 28.2006 17.221 28.2006 17.2209C28.2006 17.2209 28.2006 17.2199 28.2006 17.2198C28.2006 17.2197 28.2006 17.2188 28.2006 17.2188V17.2177C28.2006 17.2176 28.2006 17.2166 28.2006 17.2166V17.2156C28.2006 17.2156 27.4506 17.2152 26.7006 17.2152V17.2163C26.7006 17.2164 26.7006 17.2173 26.7006 17.2173C26.7006 17.2174 26.7006 17.2184 26.7006 17.2184C26.7006 17.2184 26.7006 17.2193 26.7006 17.2194C26.7006 17.2195 26.7006 17.2205 26.7006 17.2205C26.7006 17.2206 26.7006 17.2219 26.7006 17.2219C26.7006 17.2219 26.7006 17.2229 26.7006 17.223C26.7006 17.223 27.4506 17.2232 28.2006 17.2232V17.2219H26.7006C26.7006 17.2219 26.7006 17.2229 26.7006 17.223C27.4506 17.223 28.2006 17.2232 28.2006 17.2232V17.2219C28.2006 17.2219 28.2006 17.221 28.2006 17.2209C28.2006 17.2209 28.2006 17.2199 28.2006 17.2198C28.2006 17.2197 28.2006 17.2188 28.2006 17.2188V17.2177C28.2006 17.2176 28.2006 17.2166 28.2006 17.2166V17.2156C27.4506 17.2156 26.7006 17.2152 26.7006 17.2152V17.2163C26.7006 17.2164 26.7006 17.2173 26.7006 17.2173C26.7006 17.2174 26.7006 17.2184 26.7006 17.2184C26.7006 17.2184 26.7006 17.2193 26.7006 17.2194C26.7006 17.2195 26.7006 17.2205 26.7006 17.2205C26.7006 17.2206 26.7006 17.2219 26.7006 17.2219H28.2006ZM28.2178 17.01L28.0648 16.7917L26.8363 17.6522L26.9892 17.8706L28.2178 17.01ZM29.9969 17.8455C29.2356 17.8455 28.5822 17.4934 28.2028 16.9893L27.0043 17.8913C27.6729 18.7798 28.7743 19.3455 29.9969 19.3455V17.8455ZM31.7894 16.9905C31.4072 17.4956 30.7578 17.8455 29.9969 17.8455V19.3455C31.2203 19.3455 32.3155 18.7813 32.9856 17.8956L31.7894 16.9905ZM31.9246 16.7967L31.7733 17.0126L33.0016 17.8735L33.1529 17.6577L31.9246 16.7967ZM21.9312 16.8702C21.5015 17.4341 20.865 17.8186 20.2452 17.8186V19.3186C21.4642 19.3186 22.5011 18.5972 23.1243 17.7793L21.9312 16.8702ZM17.5953 18.2248L17.645 28.9921L19.145 28.9851L19.0953 18.2178L17.5953 18.2248ZM34.3664 11.4028L37.3118 16.1216L38.5842 15.3274L35.6389 10.6085L34.3664 11.4028ZM30.9276 11.7527H34.9971V10.2527H30.9276V11.7527ZM33.2648 17.0393L31.6537 10.8147L30.2016 11.1906L31.8127 17.4151L33.2648 17.0393ZM24.1669 11.75H27.4519L27.4525 10.25H24.1669V11.75ZM23.2538 17.5129L24.893 11.1882L23.4409 10.8118L21.8017 17.1366L23.2538 17.5129ZM27.4519 11.75L30.9276 11.7527V10.2527L27.4525 10.25L27.4519 11.75ZM28.2006 17.2219L28.2019 11.0002L26.7019 10.9998L26.7006 17.2219H28.2006ZM17.6398 16.2984L20.6377 11.3965L19.3581 10.6139L16.3602 15.5158L17.6398 16.2984ZM20.0039 11.7521L24.1669 11.75V10.25L20.0031 10.2521L20.0039 11.7521ZM35.6389 10.6085C35.491 10.3716 35.2392 10.2527 34.9971 10.2527V11.7527C34.7596 11.7527 34.512 11.636 34.3664 11.4028L35.6389 10.6085ZM20.6377 11.3965C20.4928 11.6335 20.2431 11.752 20.0039 11.7521L20.0031 10.2521C19.7593 10.2522 19.5053 10.3731 19.3581 10.6139L20.6377 11.3965ZM20.2452 17.8186C19.6438 17.8186 19.1369 17.7186 18.7566 17.4692L17.934 18.7235C18.6649 19.2028 19.5115 19.3186 20.2452 19.3186V17.8186ZM18.7566 17.4692C18.1088 17.0444 17.75 16.4484 17.75 15.9071H16.25C16.25 17.1053 17.0079 18.1162 17.934 18.7235L18.7566 17.4692ZM19.0953 18.2213V18.0963H17.5953V18.2213H19.0953ZM37.25 15.9071C37.25 16.5226 36.8849 17.1162 36.2639 17.4899L37.0374 18.7752C38.0216 18.1828 38.75 17.1435 38.75 15.9071H37.25ZM36.2639 17.4899C35.8942 17.7125 35.4511 17.8434 34.9855 17.8434V19.3434C35.7308 19.3434 36.4403 19.1345 37.0374 18.7752L36.2639 17.4899ZM37.4019 28.9427L37.4007 18.1325L35.9007 18.1326L35.9019 28.9427H37.4019ZM17.448 31.9256C16.7577 31.9256 16.198 32.4852 16.198 33.1756H17.698C17.698 33.3136 17.5861 33.4256 17.448 33.4256V31.9256ZM37.552 33.4256C37.4139 33.4256 37.302 33.3137 37.302 33.1756H38.802C38.802 32.4852 38.2423 31.9256 37.552 31.9256V33.4256Z" fill="url(#paint0_linear_23_575)"/>
</g>
<defs>
<linearGradient id="paint0_linear_23_575" x1="8.46731" y1="5.8408" x2="53.6882" y2="27.9442" gradientUnits="userSpaceOnUse">
<stop stop-color="#7381FD"/>
<stop offset="1" stop-color="#76C7FF"/>
</linearGradient>
<clipPath id="clip0_23_575">
<rect width="55" height="55" fill="white"/>
</clipPath>
</defs>
</svg>
