<svg width="55" height="55" viewBox="0 0 55 55" fill="none" xmlns="http://www.w3.org/2000/svg">
<g clip-path="url(#clip0_23_368)">
<path d="M0 15C0 6.71573 6.71573 0 15 0H40C48.2843 0 55 6.71573 55 15V40C55 48.2843 48.2843 55 40 55H15C6.71573 55 0 48.2843 0 40V15Z" fill="#F6FAFD"/>
<path d="M16.5 18.6816H33M16.5 22.5454H33M16.5 26.4999H33M16.5 30.4999H33" stroke="url(#paint0_linear_23_368)" stroke-width="1.3" stroke-linecap="round" stroke-linejoin="round"/>
<path d="M34.5194 41.75C34.9336 41.75 35.2694 41.4142 35.2694 41C35.2694 40.5858 34.9336 40.25 34.5194 40.25V41.75ZM22.485 40.2498C22.0708 40.2498 21.735 40.5856 21.735 40.9998C21.735 41.414 22.0707 41.7498 22.4849 41.7498L22.485 40.2498ZM42.324 14L42.3257 13.25H42.324V14ZM43.25 19.1207C43.25 19.5349 43.5857 19.8707 44 19.8707C44.4142 19.8707 44.75 19.5349 44.75 19.1207H43.25ZM44.75 31.6897C44.75 31.2754 44.4142 30.9397 44 30.9397C43.5858 30.9397 43.25 31.2754 43.25 31.6897H44.75ZM42.3223 14.75C42.5907 14.7506 42.8346 14.8482 43.0035 15.002L44.0134 13.8929C43.5543 13.4748 42.9457 13.2514 42.3257 13.25L42.3223 14.75ZM13.996 15.0024C14.1659 14.8479 14.4105 14.75 14.6773 14.75V13.25C14.0549 13.25 13.4461 13.475 12.9874 13.8922L13.996 15.0024ZM13.75 15.5237C13.75 15.3442 13.8283 15.1547 13.996 15.0024L12.9874 13.8922C12.5259 14.3109 12.25 14.8953 12.25 15.5237H13.75ZM13.9968 36.0943C13.8291 35.942 13.75 35.7518 13.75 35.5723H12.25C12.25 36.2006 12.5266 36.7858 12.9881 37.2046L13.9968 36.0943ZM14.6771 36.3461C14.4104 36.3461 14.1665 36.2487 13.9968 36.0943L12.9881 37.2046C13.4468 37.6218 14.0547 37.8461 14.6771 37.8461V36.3461ZM43.004 36.0936C42.8344 36.2481 42.59 36.3461 42.3238 36.3461V37.8461C42.9465 37.8461 43.5552 37.6205 44.0134 37.2032L43.004 36.0936ZM14.6773 14.75H42.324V13.25H14.6773V14.75ZM22.4849 41.7498L25.8622 41.7499V40.2499L22.485 40.2498L22.4849 41.7498ZM25.8622 36.3461H14.6771V37.8461H25.8622V36.3461ZM26.6122 40.9999V37.0961H25.1122V40.9999H26.6122ZM25.8622 41.7499H31.1346V40.2499H25.8622V41.7499ZM31.1346 41.7499L34.5194 41.75V40.25L31.1346 40.2499V41.7499ZM42.3238 36.3461H31.1346V37.8461H42.3238V36.3461ZM31.1346 36.3461H25.8622V37.8461H31.1346V36.3461ZM31.8846 40.9999V37.0961H30.3846V40.9999H31.8846ZM43.25 35.5724C43.25 35.7515 43.1718 35.9412 43.004 36.0936L44.0134 37.2032C44.474 36.7846 44.75 36.2004 44.75 35.5724H43.25ZM43.0035 15.002C43.1711 15.1543 43.25 15.3445 43.25 15.5238L44.75 15.5237C44.75 14.8957 44.474 14.3115 44.0134 13.8929L43.0035 15.002ZM44.75 19.1207V15.5237L43.25 15.5238V19.1207H44.75ZM13.75 19.1207V15.5237H12.25V19.1207H13.75ZM13.75 35.5723V31.6897H12.25V35.5723H13.75ZM13.75 31.6897V19.1207H12.25V31.6897H13.75ZM44.75 35.5724V31.6897H43.25V35.5724H44.75Z" fill="url(#paint1_linear_23_368)"/>
<path d="M45.08 21.9297L38.53 29.8796C38.4884 29.9298 38.4555 29.9862 38.4338 30.0441L37.3889 32.6727C37.3438 32.7925 37.3507 32.908 37.4074 32.983C37.4641 33.058 37.5637 33.0836 37.675 33.0514C37.7123 33.0409 37.7498 33.024 37.7863 33.0013L40.1639 31.4755C40.2165 31.4432 40.2652 31.4002 40.3067 31.3499L46.857 23.4003M45.08 21.9297L46.857 23.4003M45.08 21.9297L46.5332 20.1658C46.6933 19.9714 46.9803 19.944 47.1742 20.1045L48.2491 20.9943C48.4429 21.1547 48.4703 21.4423 48.3102 21.6366L46.857 23.4003" stroke="url(#paint2_linear_23_368)" stroke-width="1.5"/>
</g>
<defs>
<linearGradient id="paint0_linear_23_368" x1="14.4536" y1="17.1712" x2="33.4457" y2="31.8314" gradientUnits="userSpaceOnUse">
<stop stop-color="#7381FD"/>
<stop offset="1" stop-color="#76C7FF"/>
</linearGradient>
<linearGradient id="paint1_linear_23_368" x1="8.21926" y1="9.60762" x2="50.9369" y2="36.5405" gradientUnits="userSpaceOnUse">
<stop stop-color="#7381FD"/>
<stop offset="1" stop-color="#76C7FF"/>
</linearGradient>
<linearGradient id="paint2_linear_23_368" x1="35.9883" y1="18.3302" x2="52.6487" y2="26.1245" gradientUnits="userSpaceOnUse">
<stop stop-color="#7381FD"/>
<stop offset="1" stop-color="#76C7FF"/>
</linearGradient>
<clipPath id="clip0_23_368">
<rect width="55" height="55" fill="white"/>
</clipPath>
</defs>
</svg>
