<svg width="55" height="55" viewBox="0 0 55 55" fill="none" xmlns="http://www.w3.org/2000/svg">
<g clip-path="url(#clip0_23_252)">
<path d="M0 15C0 6.71573 6.71573 0 15 0H40C48.2843 0 55 6.71573 55 15V40C55 48.2843 48.2843 55 40 55H15C6.71573 55 0 48.2843 0 40V15Z" fill="#F6FAFD"/>
<path d="M43.9999 37.7593H44.7499V37.7561L43.9999 37.7593ZM43.9999 38L43.9983 38.75C44.1975 38.7504 44.3887 38.6716 44.5297 38.5309C44.6707 38.3902 44.7499 38.1992 44.7499 38H43.9999ZM11.0244 37.9303H10.2744C10.2745 38.3439 10.6093 38.6794 11.0228 38.6803L11.0244 37.9303ZM11.0221 16.3603C11.0711 16.3603 11.1607 16.3655 11.2662 16.4042C11.3743 16.4439 11.5318 16.5323 11.6421 16.7141C11.8896 17.1217 11.6643 17.4931 11.5306 17.6252C11.3957 17.7585 11.0318 17.9713 10.6326 17.7346C10.4509 17.6268 10.3598 17.471 10.318 17.36C10.2777 17.2525 10.2721 17.1608 10.2721 17.1103H11.7721C11.7721 17.0475 11.7651 16.9465 11.7221 16.8322C11.6779 16.7145 11.5832 16.5544 11.3976 16.4443C10.9906 16.203 10.6173 16.4189 10.4762 16.5583C10.3362 16.6967 10.1078 17.0773 10.3599 17.4926C10.4727 17.6782 10.6345 17.7702 10.7493 17.8124C10.8617 17.8536 10.9607 17.8603 11.0221 17.8603V16.3603ZM44.6603 17.022C44.6603 17.0726 44.6548 17.1645 44.6143 17.2721C44.5724 17.3833 44.481 17.539 44.2994 17.6466C43.9008 17.8824 43.5375 17.6706 43.4025 17.5374C43.2687 17.4054 43.0424 17.0335 43.2907 16.6252C43.4013 16.4435 43.5589 16.3552 43.6667 16.3157C43.7721 16.2771 43.8615 16.272 43.9103 16.272V17.772C43.9717 17.772 44.0705 17.7653 44.1827 17.7242C44.2974 17.6822 44.4593 17.5904 44.5722 17.4048C44.8253 16.9888 44.5958 16.6076 44.4558 16.4695C44.3145 16.3301 43.9418 16.1152 43.5354 16.3557C43.3498 16.4655 43.2549 16.6255 43.2105 16.7435C43.1674 16.8579 43.1603 16.959 43.1603 17.022H44.6603ZM44.7499 37.7561L44.6603 17.0187L43.1603 17.0252L43.2499 37.7625L44.7499 37.7561ZM43.2499 37.7593V38H44.7499V37.7593H43.2499ZM10.2721 17.1103L10.2744 37.9303L11.7744 37.9302L11.7721 17.1103H10.2721ZM43.9083 16.272L27.4642 16.3161L27.4683 17.8161L43.9124 17.772L43.9083 16.272ZM27.4642 16.3161L11.0201 16.3603L11.0242 17.8603L27.4683 17.8161L27.4642 16.3161ZM25.323 29.4073L26.3768 30.243L27.3088 29.0676L26.255 28.232L25.323 29.4073ZM28.556 30.2394L29.6001 29.4058L28.6643 28.2335L27.6201 29.0671L28.556 30.2394ZM11.0228 38.6803L43.9983 38.75L44.0015 37.25L11.026 37.1803L11.0228 38.6803ZM29.6001 29.4058L32.5058 27.0861L31.57 25.9139L28.6643 28.2335L29.6001 29.4058ZM32.5058 27.0861L44.3783 17.6081L43.4424 16.4358L31.57 25.9139L32.5058 27.0861ZM44.5139 37.2132L32.5519 25.9539L31.5238 27.0461L43.4859 38.3054L44.5139 37.2132ZM10.5562 17.698L22.3976 27.0877L23.3296 25.9123L11.4881 16.5226L10.5562 17.698ZM22.3976 27.0877L25.323 29.4073L26.255 28.232L23.3296 25.9123L22.3976 27.0877ZM22.3427 25.9604L10.5035 37.3907L11.5454 38.4698L23.3846 27.0396L22.3427 25.9604ZM26.3768 30.243C27.0154 30.7493 27.919 30.7479 28.556 30.2394L27.6201 29.0671C27.5291 29.1398 27.4 29.14 27.3088 29.0676L26.3768 30.243Z" fill="url(#paint0_linear_23_252)"/>
</g>
<defs>
<linearGradient id="paint0_linear_23_252" x1="5.96766" y1="13.3714" x2="42.844" y2="44.6329" gradientUnits="userSpaceOnUse">
<stop stop-color="#7381FD"/>
<stop offset="1" stop-color="#76C7FF"/>
</linearGradient>
<clipPath id="clip0_23_252">
<rect width="55" height="55" fill="white"/>
</clipPath>
</defs>
</svg>
