<svg width="55" height="55" viewBox="0 0 55 55" fill="none" xmlns="http://www.w3.org/2000/svg">
<g clip-path="url(#clip0_23_469)">
<path d="M0 15C0 6.71573 6.71573 0 15 0H40C48.2843 0 55 6.71573 55 15V40C55 48.2843 48.2843 55 40 55H15C6.71573 55 0 48.2843 0 40V15Z" fill="#F6FAFD"/>
<path d="M43 25.7456L42.9966 26.4956C43.1961 26.4965 43.3877 26.4179 43.5291 26.2772C43.6705 26.1364 43.75 25.9451 43.75 25.7456H43ZM12 25.7362H11.25C11.25 26.1504 11.5858 26.4862 12 26.4862V25.7362ZM35.4877 11.4978L34.936 12.006L34.9447 12.0151L35.4877 11.4978ZM34.3125 11.0002V11.7503L34.3252 11.7501L34.3125 11.0002ZM20.6866 11.0003L20.6739 11.7503H20.6866V11.0003ZM19.5115 11.4977L20.0541 12.0156L20.0631 12.0059L19.5115 11.4977ZM30.6157 43.4994H31.3657C31.3657 43.0852 31.0299 42.7494 30.6157 42.7494V43.4994ZM30.6157 20.1226V20.8726C31.0299 20.8726 31.3657 20.5368 31.3657 20.1226H30.6157ZM24.3837 42.7494C23.9695 42.7494 23.6337 43.0852 23.6337 43.4994C23.6337 43.9137 23.9695 44.2494 24.3837 44.2494V42.7494ZM25.5522 19.6225L25.5558 18.8725C25.2028 18.8708 24.8964 19.1155 24.82 19.4601C24.7436 19.8047 24.9178 20.156 25.2384 20.3037L25.5522 19.6225ZM29.7611 20.3037C30.1374 20.1305 30.3019 19.685 30.1287 19.3088C29.9554 18.9325 29.5099 18.768 29.1337 18.9413L29.7611 20.3037ZM24.3837 19.3726C23.9695 19.3726 23.6337 19.7084 23.6337 20.1226C23.6337 20.5368 23.9695 20.8726 24.3837 20.8726V19.3726ZM40.832 25.7358L40.8354 24.9858H40.831L40.832 25.7358ZM34.4286 24.9858C34.0144 24.9858 33.6786 25.3216 33.6786 25.7358C33.6786 26.15 34.0144 26.4858 34.4286 26.4858V24.9858ZM20.6866 26.4862C21.1008 26.4862 21.4366 26.1504 21.4366 25.7362C21.4366 25.322 21.1008 24.9862 20.6866 24.9862V26.4862ZM43.2722 19.1019C43.2841 19.1133 43.3032 19.1327 43.325 19.1593C43.3446 19.1833 43.3807 19.2306 43.4138 19.2982C43.4431 19.3577 43.5015 19.4964 43.4872 19.6822C43.4795 19.7818 43.4509 19.8903 43.3913 19.9948C43.3319 20.099 43.2539 20.1777 43.1747 20.2339C43.0271 20.3386 42.8826 20.3613 42.8162 20.3678C42.741 20.3751 42.6803 20.3692 42.6448 20.3643C42.5732 20.3543 42.517 20.3356 42.48 20.3208C42.4432 20.3061 42.3886 20.2806 42.3286 20.2373C42.299 20.2159 42.2491 20.1766 42.1981 20.1163C42.1532 20.0631 42.0605 19.9388 42.0312 19.7497C42.0155 19.6484 42.0194 19.534 42.0549 19.4174C42.0903 19.3013 42.1497 19.2073 42.214 19.1358C42.3331 19.0033 42.4663 18.95 42.5247 18.93C42.592 18.9069 42.6477 18.8988 42.677 18.8955C42.7095 18.8918 42.7354 18.8912 42.7511 18.8912V20.3912C42.775 20.3912 42.8078 20.3903 42.8459 20.386C42.8809 20.382 42.941 20.373 43.0116 20.3488C43.0733 20.3276 43.2087 20.2729 43.3293 20.1389C43.3942 20.0667 43.454 19.9719 43.4897 19.855C43.5255 19.7375 43.5294 19.6223 43.5135 19.52C43.484 19.3292 43.3903 19.2031 43.3438 19.148C43.2912 19.0859 43.2392 19.0447 43.207 19.0214C43.1419 18.9744 43.0806 18.9454 43.0368 18.9279C42.9927 18.9103 42.9292 18.8894 42.8513 18.8786C42.8126 18.8732 42.749 18.8672 42.6712 18.8748C42.6024 18.8815 42.4558 18.9048 42.3067 19.0105C42.2268 19.0673 42.1482 19.1466 42.0883 19.2516C42.0283 19.3568 41.9994 19.4662 41.9917 19.5668C41.9772 19.7546 42.0363 19.8958 42.067 19.9584C42.1016 20.029 42.1402 20.08 42.1633 20.1083C42.1885 20.1392 42.2123 20.1635 42.2299 20.1806L43.2722 19.1019ZM43.75 19.8817C43.75 19.6867 43.6774 19.5438 43.6416 19.4814C43.6005 19.4098 43.5556 19.3559 43.5266 19.3235C43.4685 19.2586 43.4069 19.2061 43.3702 19.1758C43.3302 19.1428 43.289 19.1114 43.2675 19.0948C43.2273 19.0638 43.2464 19.0769 43.2722 19.1019L42.2299 20.1806C42.2615 20.2111 42.2918 20.2356 42.3052 20.2464C42.3219 20.2598 42.3393 20.2732 42.3518 20.2828C42.3813 20.3056 42.3994 20.3195 42.4158 20.333C42.4356 20.3493 42.4274 20.3445 42.4087 20.3236C42.3994 20.3132 42.3707 20.2804 42.3408 20.2283C42.3251 20.201 42.3041 20.1598 42.2862 20.1061C42.2684 20.0527 42.25 19.9758 42.25 19.8817H43.75ZM43.75 25.4953V19.8817H42.25V25.4953H43.75ZM43.75 25.7456V25.4953H42.25V25.7456H43.75ZM41.343 44.2789C41.331 44.2904 41.3112 44.3086 41.2843 44.3292C41.2598 44.3479 41.2131 44.3811 41.1474 44.4111C41.0889 44.4379 40.9586 44.4887 40.7856 44.4763C40.6932 44.4697 40.5901 44.4449 40.4883 44.3908C40.386 44.3364 40.3049 44.2628 40.2445 44.1835C40.1307 44.0339 40.1041 43.8834 40.0965 43.81C40.0881 43.7293 40.0948 43.6641 40.1005 43.6261C40.1119 43.5494 40.1333 43.4899 40.1499 43.4513C40.1665 43.4124 40.1945 43.3567 40.241 43.2966C40.2642 43.2667 40.3051 43.2184 40.3666 43.1699C40.4223 43.126 40.5428 43.0437 40.7207 43.0179C40.8152 43.0042 40.922 43.0073 41.0321 43.0386C41.1422 43.0699 41.2347 43.1234 41.3078 43.1847C41.4454 43.3001 41.5041 43.433 41.5276 43.4971C41.5537 43.568 41.563 43.6273 41.5669 43.6591C41.5711 43.6942 41.5718 43.7223 41.5718 43.7395H40.0718C40.0718 43.7647 40.0729 43.7995 40.0778 43.8399C40.0823 43.8773 40.0926 43.9408 40.1198 44.0149C40.1446 44.0822 40.2047 44.2173 40.3438 44.334C40.4177 44.396 40.511 44.4499 40.622 44.4814C40.7329 44.513 40.8406 44.5162 40.936 44.5023C41.1158 44.4763 41.2382 44.393 41.2958 44.3475C41.3592 44.2975 41.4021 44.2471 41.4272 44.2147C41.4775 44.1497 41.5092 44.0875 41.5287 44.0418C41.5482 43.9964 41.5718 43.9298 41.5841 43.847C41.5902 43.8059 41.5971 43.7379 41.5884 43.6548C41.5806 43.5791 41.5533 43.4265 41.4385 43.2755C41.3776 43.1954 41.2957 43.1213 41.1927 43.0665C41.0901 43.0119 40.9861 42.9869 40.8927 42.9802C40.7176 42.9676 40.5847 43.019 40.523 43.0473C40.4542 43.0788 40.4037 43.1143 40.3747 43.1364C40.3433 43.1604 40.3184 43.183 40.3007 43.2001L41.343 44.2789ZM40.5729 44.73C40.7557 44.73 40.8919 44.6663 40.9548 44.6326C41.026 44.5945 41.0802 44.5525 41.1137 44.5245C41.1806 44.4687 41.235 44.4091 41.2667 44.3732C41.301 44.3344 41.3337 44.2944 41.3509 44.2736C41.383 44.2347 41.369 44.2538 41.343 44.2789L40.3007 43.2001C40.2691 43.2307 40.2435 43.2602 40.2322 43.2733C40.2182 43.2896 40.2042 43.3065 40.1942 43.3185C40.1706 43.3471 40.1565 43.3644 40.1426 43.38C40.1262 43.3987 40.1312 43.3907 40.1525 43.373C40.1632 43.364 40.1956 43.3376 40.2465 43.3104C40.2731 43.2961 40.3126 43.2774 40.3633 43.2616C40.4139 43.2459 40.4856 43.23 40.5729 43.23V44.73ZM13.9066 44.5194C13.8947 44.5079 13.8756 44.4885 13.8538 44.4619C13.8342 44.4379 13.798 44.3906 13.7649 44.3231C13.7357 44.2635 13.6772 44.1248 13.6916 43.939C13.6992 43.8394 13.7279 43.7309 13.7875 43.6264C13.8469 43.5222 13.9249 43.4435 14.0041 43.3873C14.1517 43.2826 14.2962 43.2599 14.3626 43.2535C14.4378 43.2461 14.4985 43.252 14.534 43.2569C14.6056 43.2669 14.6617 43.2856 14.6988 43.3004C14.7355 43.3151 14.7902 43.3406 14.8501 43.3839C14.8798 43.4053 14.9296 43.4446 14.9806 43.5049C15.0256 43.5581 15.1182 43.6824 15.1475 43.8715C15.1632 43.9729 15.1594 44.0872 15.1238 44.2039C15.0884 44.3199 15.029 44.4139 14.9648 44.4854C14.8456 44.6179 14.7125 44.6712 14.6541 44.6912C14.5868 44.7143 14.5311 44.7224 14.5017 44.7257C14.4692 44.7294 14.4434 44.73 14.4277 44.73V43.23C14.4038 43.23 14.371 43.2309 14.3329 43.2352C14.2979 43.2392 14.2378 43.2482 14.1672 43.2724C14.1054 43.2936 13.97 43.3483 13.8495 43.4823C13.7846 43.5545 13.7247 43.6493 13.6891 43.7662C13.6532 43.8837 13.6494 43.9989 13.6652 44.1012C13.6948 44.292 13.7885 44.4181 13.835 44.4732C13.8875 44.5354 13.9396 44.5766 13.9718 44.5998C14.0369 44.6468 14.0982 44.6758 14.142 44.6933C14.1861 44.7109 14.2496 44.7318 14.3275 44.7426C14.3662 44.748 14.4298 44.754 14.5075 44.7464C14.5763 44.7397 14.7229 44.7165 14.872 44.6107C14.952 44.554 15.0305 44.4746 15.0904 44.3696C15.1504 44.2644 15.1794 44.155 15.1871 44.0544C15.2016 43.8666 15.1425 43.7254 15.1118 43.6628C15.0772 43.5922 15.0386 43.5412 15.0155 43.5129C14.9902 43.482 14.9665 43.4577 14.9488 43.4406L13.9066 44.5194ZM13.4288 43.7395C13.4288 43.9345 13.5014 44.0774 13.5371 44.1398C13.5783 44.2115 13.6231 44.2653 13.6521 44.2977C13.7102 44.3627 13.7719 44.4152 13.8086 44.4454C13.8486 44.4784 13.8898 44.5098 13.9113 44.5264C13.9515 44.5574 13.9323 44.5443 13.9066 44.5194L14.9488 43.4406C14.9173 43.4101 14.887 43.3856 14.8736 43.3748C14.8568 43.3614 14.8395 43.348 14.827 43.3384C14.7975 43.3156 14.7793 43.3017 14.7629 43.2882C14.7432 43.2719 14.7514 43.2767 14.7701 43.2976C14.7794 43.308 14.8081 43.3408 14.838 43.3929C14.8536 43.4202 14.8747 43.4614 14.8926 43.5151C14.9104 43.5685 14.9288 43.6454 14.9288 43.7395H13.4288ZM11.25 25.4953C11.25 25.4954 11.25 25.4963 11.25 25.4964C11.25 25.4965 11.25 25.4975 11.25 25.4976C11.25 25.4977 11.25 25.4986 11.25 25.4988C11.25 25.4989 11.25 25.4998 11.25 25.5C11.25 25.5001 11.25 25.5011 11.25 25.5012C11.25 25.5014 11.25 25.5023 11.25 25.5024C11.25 25.5025 11.25 25.5036 11.25 25.5037C11.25 25.5038 11.25 25.5048 11.25 25.505C11.25 25.5051 11.25 25.5062 11.25 25.5063C11.25 25.5064 11.25 25.5075 11.25 25.5076C11.25 25.5078 11.25 25.5088 11.25 25.509C11.25 25.5091 11.25 25.5102 11.25 25.5103C11.25 25.5104 11.25 25.5116 11.25 25.5117C11.25 25.5118 11.25 25.513 11.25 25.5131C11.25 25.5132 11.25 25.5144 11.25 25.5146C11.25 25.5148 11.25 25.5158 11.25 25.516C11.25 25.5161 11.25 25.5173 11.25 25.5175C11.25 25.5177 11.25 25.5188 11.25 25.5189C11.25 25.5191 11.25 25.5203 11.25 25.5204C11.25 25.5203 11.25 25.5206 11.25 25.5204C11.25 25.5206 11.25 25.5213 11.25 25.5214C11.25 25.5216 11.25 25.5228 11.25 25.5229C11.25 25.5227 11.25 25.5231 11.25 25.5229C11.25 25.523 11.25 25.5238 11.25 25.524C11.25 25.5242 11.25 25.5253 11.25 25.5255C11.25 25.5254 11.25 25.5257 11.25 25.5255C11.25 25.5257 11.25 25.5264 11.25 25.5266C11.25 25.5268 11.25 25.528 11.25 25.5281C11.25 25.5279 11.25 25.5283 11.25 25.5281C11.25 25.5282 11.25 25.529 11.25 25.5292C11.25 25.5294 11.25 25.5306 11.25 25.5308C11.25 25.5306 11.25 25.531 11.25 25.5308C11.25 25.531 11.25 25.5317 11.25 25.5319C11.25 25.5321 11.25 25.5333 11.25 25.5335C11.25 25.5333 11.25 25.5337 11.25 25.5335C11.25 25.5337 11.25 25.5344 11.25 25.5346C11.25 25.5344 11.25 25.5347 11.25 25.5346C11.25 25.5348 11.25 25.5355 11.25 25.5357C11.25 25.5355 11.25 25.5358 11.25 25.5357C11.25 25.5359 11.25 25.5366 11.25 25.5368C11.25 25.5366 11.25 25.5369 11.25 25.5368C11.25 25.537 11.25 25.5377 11.25 25.5379C11.25 25.5377 11.25 25.5381 11.25 25.5379C11.25 25.5381 11.25 25.5388 11.25 25.539C11.25 25.5389 11.25 25.5392 11.25 25.539C11.25 25.5392 11.25 25.5399 11.25 25.5401C11.25 25.5399 11.25 25.5403 11.25 25.5401C11.25 25.5402 11.25 25.541 11.25 25.5412C11.25 25.541 11.25 25.5414 11.25 25.5412C11.25 25.5414 11.25 25.5422 11.25 25.5423C11.25 25.5421 11.25 25.5425 11.25 25.5423C11.25 25.5425 11.25 25.5433 11.25 25.5435C11.25 25.5433 11.25 25.5437 11.25 25.5435C11.25 25.5436 11.25 25.5444 11.25 25.5446C11.25 25.5444 11.25 25.5448 11.25 25.5446C11.25 25.5448 11.25 25.5456 11.25 25.5458C11.25 25.5456 11.25 25.546 11.25 25.5458C11.25 25.546 11.25 25.5467 11.25 25.5469C11.25 25.5467 11.25 25.5471 11.25 25.5469C11.25 25.5471 11.25 25.5479 11.25 25.5481C11.25 25.548 11.25 25.5483 11.25 25.5481C11.25 25.5483 11.25 25.549 11.25 25.5492C11.25 25.549 11.25 25.5494 11.25 25.5492C11.25 25.5494 11.25 25.5502 11.25 25.5504C11.25 25.5502 11.25 25.5506 11.25 25.5504C11.25 25.5506 11.25 25.5514 11.25 25.5516C11.25 25.5514 11.25 25.5518 11.25 25.5516C11.25 25.5518 11.25 25.5525 11.25 25.5527C11.25 25.5525 11.25 25.5529 11.25 25.5527C11.25 25.5529 11.25 25.5537 11.25 25.5539C11.25 25.5537 11.25 25.5541 11.25 25.5539C11.25 25.5541 11.25 25.5549 11.25 25.5551C11.25 25.5549 11.25 25.5553 11.25 25.5551C11.25 25.5553 11.25 25.5561 11.25 25.5563C11.25 25.5561 11.25 25.5565 11.25 25.5563C11.25 25.5565 11.25 25.5573 11.25 25.5575C11.25 25.5573 11.25 25.5577 11.25 25.5575C11.25 25.5577 11.25 25.5585 11.25 25.5587C11.25 25.5585 11.25 25.5589 11.25 25.5587C11.25 25.5589 11.25 25.5597 11.25 25.5599C11.25 25.5597 11.25 25.5601 11.25 25.5599C11.25 25.5601 11.25 25.5609 11.25 25.5611C11.25 25.5609 11.25 25.5613 11.25 25.5611C11.25 25.5613 11.25 25.5621 11.25 25.5623C11.25 25.5621 11.25 25.5625 11.25 25.5623C11.25 25.5625 11.25 25.5633 11.25 25.5635C11.25 25.5633 11.25 25.5637 11.25 25.5635C11.25 25.5637 11.25 25.5645 11.25 25.5647C11.25 25.5645 11.25 25.5649 11.25 25.5647C11.25 25.5649 11.25 25.5657 11.25 25.5659C11.25 25.5657 11.25 25.5661 11.25 25.5659C11.25 25.5661 11.25 25.5669 11.25 25.5671C11.25 25.5669 11.25 25.5673 11.25 25.5671C11.25 25.5673 11.25 25.5681 11.25 25.5683C11.25 25.5681 11.25 25.5685 11.25 25.5683C11.25 25.5685 11.25 25.5693 11.25 25.5696C11.25 25.5694 11.25 25.5698 11.25 25.5696C11.25 25.5698 11.25 25.5706 11.25 25.5708C11.25 25.5706 11.25 25.571 11.25 25.5708C11.25 25.571 11.25 25.5718 11.25 25.572C11.25 25.5718 11.25 25.5722 11.25 25.572C11.25 25.5722 11.25 25.573 11.25 25.5732C11.25 25.573 11.25 25.5734 11.25 25.5732C11.25 25.5734 11.25 25.5743 11.25 25.5745C11.25 25.5743 11.25 25.5747 11.25 25.5745C11.25 25.5747 11.25 25.5755 11.25 25.5757C11.25 25.5755 11.25 25.5759 11.25 25.5757C11.25 25.5759 11.25 25.5767 11.25 25.577C11.25 25.5768 11.25 25.5772 11.25 25.577C11.25 25.5772 11.25 25.578 11.25 25.5782C11.25 25.578 11.25 25.5784 11.25 25.5782C11.25 25.5784 11.25 25.5792 11.25 25.5794C11.25 25.5792 11.25 25.5796 11.25 25.5794C11.25 25.5796 11.25 25.5805 11.25 25.5807C11.25 25.5805 11.25 25.5809 11.25 25.5807C11.25 25.5809 11.25 25.5817 11.25 25.5819C11.25 25.5816 11.25 25.5821 11.25 25.5819C11.25 25.5821 11.25 25.583 11.25 25.5832C11.25 25.583 11.25 25.5834 11.25 25.5832C11.25 25.5834 11.25 25.5842 11.25 25.5844C11.25 25.5842 11.25 25.5846 11.25 25.5844C11.25 25.5846 11.25 25.5855 11.25 25.5857C11.25 25.5855 11.25 25.5859 11.25 25.5857C11.25 25.5859 11.25 25.5867 11.25 25.5869C11.25 25.5867 11.25 25.5872 11.25 25.5869C11.25 25.5871 11.25 25.588 11.25 25.5882C11.25 25.588 11.25 25.5884 11.25 25.5882C11.25 25.5884 11.25 25.5892 11.25 25.5895C11.25 25.5893 11.25 25.5897 11.25 25.5895C11.25 25.5897 11.25 25.5905 11.25 25.5907C11.25 25.5905 11.25 25.5909 11.25 25.5907C11.25 25.591 11.25 25.5918 11.25 25.592C11.25 25.5918 11.25 25.5922 11.25 25.592C11.25 25.5922 11.25 25.593 11.25 25.5932C11.25 25.593 11.25 25.5934 11.25 25.5932C11.25 25.5934 11.25 25.5943 11.25 25.5945C11.25 25.5943 11.25 25.5947 11.25 25.5945C11.25 25.5947 11.25 25.5955 11.25 25.5958C11.25 25.5956 11.25 25.596 11.25 25.5958C11.25 25.596 11.25 25.5968 11.25 25.597C11.25 25.5967 11.25 25.5972 11.25 25.597C11.25 25.5972 11.25 25.5981 11.25 25.5983C11.25 25.5981 11.25 25.5985 11.25 25.5983C11.25 25.5985 11.25 25.5993 11.25 25.5996C11.25 25.5994 11.25 25.5998 11.25 25.5996C11.25 25.5998 11.25 25.6006 11.25 25.6008C11.25 25.6006 11.25 25.601 11.25 25.6008C11.25 25.6011 11.25 25.6019 11.25 25.6021C11.25 25.6019 11.25 25.6023 11.25 25.6021C11.25 25.6023 11.25 25.6031 11.25 25.6033C11.25 25.6031 11.25 25.6036 11.25 25.6033C11.25 25.6035 11.25 25.6044 11.25 25.6046C11.25 25.6044 11.25 25.6048 11.25 25.6046C11.25 25.6049 11.25 25.6057 11.25 25.6059C11.25 25.6057 11.25 25.6061 11.25 25.6059C11.25 25.6061 11.25 25.6069 11.25 25.6071C11.25 25.6069 11.25 25.6074 11.25 25.6071C11.25 25.6073 11.25 25.6082 11.25 25.6084C11.25 25.6082 11.25 25.6086 11.25 25.6084C11.25 25.6087 11.25 25.6095 11.25 25.6097C11.25 25.6095 11.25 25.6099 11.25 25.6097C11.25 25.6099 11.25 25.6107 11.25 25.6109C11.25 25.6107 11.25 25.6111 11.25 25.6109C11.25 25.6111 11.25 25.612 11.25 25.6122C11.25 25.612 11.25 25.6124 11.25 25.6122C11.25 25.6124 11.25 25.6133 11.25 25.6135C11.25 25.6133 11.25 25.6137 11.25 25.6135C11.25 25.6137 11.25 25.6145 11.25 25.6147C11.25 25.6144 11.25 25.6149 11.25 25.6147C11.25 25.6149 11.25 25.6158 11.25 25.616C11.25 25.6158 11.25 25.6162 11.25 25.616C11.25 25.6162 11.25 25.617 11.25 25.6172C11.25 25.617 11.25 25.6175 11.25 25.6172C11.25 25.6174 11.25 25.6183 11.25 25.6185C11.25 25.6183 11.25 25.6187 11.25 25.6185C11.25 25.6187 11.25 25.6196 11.25 25.6198C11.25 25.6196 11.25 25.62 11.25 25.6198C11.25 25.62 11.25 25.6208 11.25 25.621C11.25 25.6207 11.25 25.6212 11.25 25.621C11.25 25.6212 11.25 25.6221 11.25 25.6223C11.25 25.6221 11.25 25.6225 11.25 25.6223C11.25 25.6225 11.25 25.6233 11.25 25.6235C11.25 25.6233 11.25 25.6237 11.25 25.6235C11.25 25.6237 11.25 25.6246 11.25 25.6248C11.25 25.6246 11.25 25.625 11.25 25.6248C11.25 25.625 11.25 25.6258 11.25 25.626C11.25 25.6258 11.25 25.6262 11.25 25.626C11.25 25.6262 11.25 25.6271 11.25 25.6273C11.25 25.6271 11.25 25.6275 11.25 25.6273C11.25 25.6275 11.25 25.6283 11.25 25.6285C11.25 25.6283 11.25 25.6287 11.25 25.6285C11.25 25.6287 11.25 25.6296 11.25 25.6298C11.25 25.6296 11.25 25.63 11.25 25.6298C11.25 25.63 11.25 25.6308 11.25 25.631C11.25 25.6308 11.25 25.6312 11.25 25.631C11.25 25.6313 11.25 25.6321 11.25 25.6323C11.25 25.6321 11.25 25.6325 11.25 25.6323C11.25 25.6325 11.25 25.6333 11.25 25.6335C11.25 25.6333 11.25 25.6337 11.25 25.6335C11.25 25.6337 11.25 25.6345 11.25 25.6347C11.25 25.6345 11.25 25.6349 11.25 25.6347C11.25 25.6349 11.25 25.6358 11.25 25.636C11.25 25.6358 11.25 25.6362 11.25 25.636C11.25 25.6362 11.25 25.637 11.25 25.6372C11.25 25.637 11.25 25.6374 11.25 25.6372C11.25 25.6374 11.25 25.6382 11.25 25.6384C11.25 25.6382 11.25 25.6386 11.25 25.6384C11.25 25.6387 11.25 25.6395 11.25 25.6397C11.25 25.6395 11.25 25.6399 11.25 25.6397C11.25 25.6399 11.25 25.6407 11.25 25.6409C11.25 25.6407 11.25 25.6411 11.25 25.6409C11.25 25.6411 11.25 25.6419 11.25 25.6421C11.25 25.6419 11.25 25.6423 11.25 25.6421C11.25 25.6423 11.25 25.6431 11.25 25.6433C11.25 25.6431 11.25 25.6435 11.25 25.6433C11.25 25.6435 11.25 25.6443 11.25 25.6445C11.25 25.6443 11.25 25.6447 11.25 25.6445C11.25 25.6447 11.25 25.6455 11.25 25.6457C11.25 25.6455 11.25 25.6459 11.25 25.6457C11.25 25.646 11.25 25.6468 11.25 25.647C11.25 25.6468 11.25 25.6472 11.25 25.647C11.25 25.6472 11.25 25.648 11.25 25.6482C11.25 25.648 11.25 25.6484 11.25 25.6482C11.25 25.6484 11.25 25.6492 11.25 25.6494C11.25 25.6492 11.25 25.6496 11.25 25.6494C11.25 25.6496 11.25 25.6504 11.25 25.6506C11.25 25.6504 11.25 25.6507 11.25 25.6506C11.25 25.6508 11.25 25.6515 11.25 25.6517C11.25 25.6515 11.25 25.6519 11.25 25.6517C11.25 25.6519 11.25 25.6527 11.25 25.6529C11.25 25.6527 11.25 25.6531 11.25 25.6529C11.25 25.6531 11.25 25.6539 11.25 25.6541C11.25 25.6539 11.25 25.6543 11.25 25.6541C11.25 25.6543 11.25 25.6551 11.25 25.6553C11.25 25.6551 11.25 25.6555 11.25 25.6553C11.25 25.6555 11.25 25.6563 11.25 25.6565C11.25 25.6563 11.25 25.6567 11.25 25.6565C11.25 25.6567 11.25 25.6574 11.25 25.6576C11.25 25.6574 11.25 25.6578 11.25 25.6576C11.25 25.6578 11.25 25.6586 11.25 25.6588C11.25 25.6586 11.25 25.659 11.25 25.6588C11.25 25.659 11.25 25.6598 11.25 25.66C11.25 25.6599 11.25 25.6602 11.25 25.66C11.25 25.6602 11.25 25.6609 11.25 25.6611C11.25 25.6609 11.25 25.6613 11.25 25.6611C11.25 25.6613 11.25 25.6621 11.25 25.6623C11.25 25.6621 11.25 25.6625 11.25 25.6623C11.25 25.6624 11.25 25.6632 11.25 25.6634C11.25 25.6632 11.25 25.6636 11.25 25.6634C11.25 25.6636 11.25 25.6644 11.25 25.6646C11.25 25.6645 11.25 25.6648 11.25 25.6646C11.25 25.6648 11.25 25.6655 11.25 25.6657C11.25 25.6655 11.25 25.6659 11.25 25.6657C11.25 25.6659 11.25 25.6667 11.25 25.6668C11.25 25.6666 11.25 25.667 11.25 25.6668C11.25 25.667 11.25 25.6678 11.25 25.668C11.25 25.6678 11.25 25.6682 11.25 25.668C11.25 25.6682 11.25 25.6689 11.25 25.6691C11.25 25.669 11.25 25.6693 11.25 25.6691C11.25 25.6693 11.25 25.67 11.25 25.6702C11.25 25.67 11.25 25.6704 11.25 25.6702C11.25 25.6703 11.25 25.6711 11.25 25.6713C11.25 25.6711 11.25 25.6715 11.25 25.6713C11.25 25.6715 11.25 25.6722 11.25 25.6724C11.25 25.6722 11.25 25.6726 11.25 25.6724C11.25 25.6726 11.25 25.6733 11.25 25.6735C11.25 25.6733 11.25 25.6737 11.25 25.6735C11.25 25.6736 11.25 25.6744 11.25 25.6746C11.25 25.6744 11.25 25.6748 11.25 25.6746C11.25 25.6747 11.25 25.6755 11.25 25.6757C11.25 25.6756 11.25 25.6759 11.25 25.6757C11.25 25.6759 11.25 25.6766 11.25 25.6768C11.25 25.6766 11.25 25.677 11.25 25.6768C11.25 25.677 11.25 25.6777 11.25 25.6779C11.25 25.6781 11.25 25.6793 11.25 25.6795C11.25 25.6797 11.25 25.6809 11.25 25.681C11.25 25.6808 11.25 25.6812 11.25 25.681C11.25 25.6811 11.25 25.6819 11.25 25.6821C11.25 25.6823 11.25 25.6835 11.25 25.6837C11.25 25.6839 11.25 25.685 11.25 25.6852C11.25 25.6854 11.25 25.6866 11.25 25.6867C11.25 25.6869 11.25 25.6881 11.25 25.6882C11.25 25.6884 11.25 25.6896 11.25 25.6897C11.25 25.6896 11.25 25.6899 11.25 25.6897C11.25 25.6899 11.25 25.6906 11.25 25.6907C11.25 25.6909 11.25 25.692 11.25 25.6922C11.25 25.6923 11.25 25.6935 11.25 25.6936C11.25 25.6938 11.25 25.6949 11.25 25.6951C11.25 25.6953 11.25 25.6963 11.25 25.6965C11.25 25.6967 11.25 25.6977 11.25 25.6979C11.25 25.6981 11.25 25.6991 11.25 25.6993C11.25 25.6994 11.25 25.7005 11.25 25.7006C11.25 25.7008 11.25 25.7018 11.25 25.7019C11.25 25.7021 11.25 25.7031 11.25 25.7033C11.25 25.7035 11.25 25.7044 11.25 25.7046C11.25 25.7048 11.25 25.7057 11.25 25.7058C11.25 25.7059 11.25 25.707 11.25 25.7071C11.25 25.7073 11.25 25.7082 11.25 25.7083C11.25 25.7085 11.25 25.7094 11.25 25.7095C11.25 25.7097 11.25 25.7106 11.25 25.7107C11.25 25.7108 11.25 25.7118 11.25 25.7119C11.25 25.712 11.25 25.7129 11.25 25.713C11.25 25.7131 11.25 25.714 11.25 25.7142C11.25 25.7143 11.25 25.7151 11.25 25.7153C11.25 25.7152 11.25 25.7154 11.25 25.7153C11.25 25.7155 11.25 25.7166 11.25 25.7167C11.25 25.7166 11.25 25.7168 11.25 25.7167C11.25 25.7168 11.25 25.718 11.25 25.7181C11.25 25.7183 11.25 25.719 11.25 25.7191C11.25 25.719 11.25 25.7192 11.25 25.7191C11.25 25.7192 11.25 25.7203 11.25 25.7204C11.25 25.7203 11.25 25.7205 11.25 25.7204C11.25 25.7205 11.25 25.7215 11.25 25.7216C11.25 25.7217 11.25 25.7225 11.25 25.7226C11.25 25.7227 11.25 25.7236 11.25 25.7237C11.25 25.7236 11.25 25.7238 11.25 25.7237C11.25 25.7238 11.25 25.7248 11.25 25.7249C11.25 25.725 11.25 25.7259 11.25 25.726C11.25 25.7259 11.25 25.7261 11.25 25.726C11.25 25.7261 11.25 25.7272 11.25 25.7272C11.25 25.7271 11.25 25.7273 11.25 25.7272C11.25 25.7272 11.25 25.7281 11.25 25.7282C11.25 25.7283 11.25 25.7293 11.25 25.7293C11.25 25.7294 11.25 25.7303 11.25 25.7304C11.25 25.7303 11.25 25.7305 11.25 25.7304C11.25 25.7304 11.25 25.7315 11.25 25.7316C11.25 25.7315 11.25 25.7317 11.25 25.7316C11.25 25.7317 11.25 25.7327 11.25 25.7328C11.25 25.7329 11.25 25.7337 11.25 25.7338C11.25 25.7337 11.25 25.7339 11.25 25.7338C11.25 25.7339 11.25 25.7349 11.25 25.7349C11.25 25.735 11.25 25.7362 11.25 25.7362C11.25 25.7362 11.25 25.7362 12 25.7362C12.75 25.7362 12.75 25.7362 12.75 25.7362C12.75 25.7362 12.75 25.7352 12.75 25.7351C12.75 25.735 12.75 25.7341 12.75 25.734C12.75 25.7339 12.75 25.733 12.75 25.7329C12.75 25.7328 12.75 25.733 12.75 25.7329C12.75 25.7328 12.75 25.732 12.75 25.7319C12.75 25.7318 12.75 25.7309 12.75 25.7308C12.75 25.7307 12.75 25.7298 12.75 25.7298C12.75 25.7297 12.75 25.7287 12.75 25.7287C12.75 25.7286 12.75 25.7288 12.75 25.7287C12.75 25.7286 12.75 25.7278 12.75 25.7277C12.75 25.7276 12.75 25.7278 12.75 25.7277C12.75 25.7276 12.75 25.7266 12.75 25.7265C12.75 25.7264 12.75 25.7255 12.75 25.7254C12.75 25.7253 12.75 25.7244 12.75 25.7243C12.75 25.7242 12.75 25.7244 12.75 25.7243C12.75 25.7243 12.75 25.7233 12.75 25.7232C12.75 25.7231 12.75 25.7233 12.75 25.7232C12.75 25.7231 12.75 25.7221 12.75 25.722C12.75 25.7219 12.75 25.7221 12.75 25.722C12.75 25.7219 12.75 25.7208 12.75 25.7207C12.75 25.7206 12.75 25.7208 12.75 25.7207C12.75 25.7206 12.75 25.7195 12.75 25.7194C12.75 25.7193 12.75 25.7185 12.75 25.7184C12.75 25.7183 12.75 25.7185 12.75 25.7184C12.75 25.7183 12.75 25.7172 12.75 25.717C12.75 25.7169 12.75 25.7171 12.75 25.717C12.75 25.7169 12.75 25.7157 12.75 25.7156C12.75 25.7155 12.75 25.7147 12.75 25.7145C12.75 25.7144 12.75 25.7135 12.75 25.7134C12.75 25.7132 12.75 25.7124 12.75 25.7123C12.75 25.7122 12.75 25.7113 12.75 25.7111C12.75 25.711 12.75 25.7101 12.75 25.7099C12.75 25.7098 12.75 25.7089 12.75 25.7087C12.75 25.7086 12.75 25.7076 12.75 25.7075C12.75 25.7073 12.75 25.7064 12.75 25.7063C12.75 25.7062 12.75 25.7051 12.75 25.705C12.75 25.7049 12.75 25.7038 12.75 25.7037C12.75 25.7036 12.75 25.7025 12.75 25.7024C12.75 25.7023 12.75 25.7012 12.75 25.7011C12.75 25.7009 12.75 25.6999 12.75 25.6997C12.75 25.6995 12.75 25.6985 12.75 25.6983C12.75 25.6982 12.75 25.6971 12.75 25.697C12.75 25.6968 12.75 25.6971 12.75 25.697C12.75 25.6968 12.75 25.6962 12.75 25.696C12.75 25.6958 12.75 25.6948 12.75 25.6946C12.75 25.6945 12.75 25.6933 12.75 25.6932C12.75 25.693 12.75 25.6919 12.75 25.6917C12.75 25.6916 12.75 25.6904 12.75 25.6902C12.75 25.6901 12.75 25.6904 12.75 25.6902C12.75 25.6901 12.75 25.6894 12.75 25.6892C12.75 25.6891 12.75 25.6879 12.75 25.6877C12.75 25.6876 12.75 25.6864 12.75 25.6862C12.75 25.686 12.75 25.6849 12.75 25.6847C12.75 25.6845 12.75 25.6833 12.75 25.6831C12.75 25.6829 12.75 25.6817 12.75 25.6816C12.75 25.6814 12.75 25.6818 12.75 25.6816C12.75 25.6815 12.75 25.6807 12.75 25.6805C12.75 25.6803 12.75 25.6791 12.75 25.6789C12.75 25.6787 12.75 25.6775 12.75 25.6773C12.75 25.6771 12.75 25.6775 12.75 25.6773C12.75 25.6771 12.75 25.6764 12.75 25.6762C12.75 25.6761 12.75 25.6764 12.75 25.6762C12.75 25.676 12.75 25.6753 12.75 25.6752C12.75 25.675 12.75 25.6754 12.75 25.6752C12.75 25.675 12.75 25.6742 12.75 25.6741C12.75 25.6739 12.75 25.6743 12.75 25.6741C12.75 25.6739 12.75 25.6732 12.75 25.673C12.75 25.6728 12.75 25.6732 12.75 25.673C12.75 25.6728 12.75 25.6721 12.75 25.6719C12.75 25.6717 12.75 25.6721 12.75 25.6719C12.75 25.6717 12.75 25.6709 12.75 25.6708C12.75 25.6706 12.75 25.671 12.75 25.6708C12.75 25.6706 12.75 25.6698 12.75 25.6696C12.75 25.6695 12.75 25.6698 12.75 25.6696C12.75 25.6694 12.75 25.6687 12.75 25.6685C12.75 25.6683 12.75 25.6687 12.75 25.6685C12.75 25.6683 12.75 25.6676 12.75 25.6674C12.75 25.6672 12.75 25.6676 12.75 25.6674C12.75 25.6673 12.75 25.6665 12.75 25.6663C12.75 25.6661 12.75 25.6665 12.75 25.6663C12.75 25.6661 12.75 25.6653 12.75 25.6651C12.75 25.665 12.75 25.6653 12.75 25.6651C12.75 25.6649 12.75 25.6642 12.75 25.664C12.75 25.6638 12.75 25.6642 12.75 25.664C12.75 25.6638 12.75 25.663 12.75 25.6629C12.75 25.6627 12.75 25.6631 12.75 25.6629C12.75 25.6627 12.75 25.6619 12.75 25.6617C12.75 25.6615 12.75 25.6619 12.75 25.6617C12.75 25.6615 12.75 25.6607 12.75 25.6605C12.75 25.6604 12.75 25.6607 12.75 25.6605C12.75 25.6603 12.75 25.6596 12.75 25.6594C12.75 25.6592 12.75 25.6596 12.75 25.6594C12.75 25.6592 12.75 25.6584 12.75 25.6582C12.75 25.658 12.75 25.6584 12.75 25.6582C12.75 25.658 12.75 25.6573 12.75 25.6571C12.75 25.6569 12.75 25.6573 12.75 25.6571C12.75 25.6569 12.75 25.6561 12.75 25.6559C12.75 25.6557 12.75 25.6561 12.75 25.6559C12.75 25.6557 12.75 25.6549 12.75 25.6547C12.75 25.6545 12.75 25.6549 12.75 25.6547C12.75 25.6545 12.75 25.6537 12.75 25.6535C12.75 25.6533 12.75 25.6537 12.75 25.6535C12.75 25.6533 12.75 25.6525 12.75 25.6523C12.75 25.6521 12.75 25.6525 12.75 25.6523C12.75 25.6521 12.75 25.6513 12.75 25.6511C12.75 25.6509 12.75 25.6512 12.75 25.6511C12.75 25.6509 12.75 25.6502 12.75 25.65C12.75 25.6498 12.75 25.6502 12.75 25.65C12.75 25.6498 12.75 25.649 12.75 25.6488C12.75 25.6486 12.75 25.649 12.75 25.6488C12.75 25.6486 12.75 25.6478 12.75 25.6476C12.75 25.6474 12.75 25.6478 12.75 25.6476C12.75 25.6474 12.75 25.6466 12.75 25.6463C12.75 25.6461 12.75 25.6465 12.75 25.6463C12.75 25.6461 12.75 25.6453 12.75 25.6451C12.75 25.6449 12.75 25.6453 12.75 25.6451C12.75 25.6449 12.75 25.6441 12.75 25.6439C12.75 25.6437 12.75 25.6441 12.75 25.6439C12.75 25.6437 12.75 25.6429 12.75 25.6427C12.75 25.6425 12.75 25.6429 12.75 25.6427C12.75 25.6425 12.75 25.6417 12.75 25.6415C12.75 25.6413 12.75 25.6417 12.75 25.6415C12.75 25.6413 12.75 25.6405 12.75 25.6403C12.75 25.6401 12.75 25.6405 12.75 25.6403C12.75 25.6401 12.75 25.6393 12.75 25.639C12.75 25.6388 12.75 25.6392 12.75 25.639C12.75 25.6388 12.75 25.638 12.75 25.6378C12.75 25.6376 12.75 25.638 12.75 25.6378C12.75 25.6376 12.75 25.6368 12.75 25.6366C12.75 25.6364 12.75 25.6368 12.75 25.6366C12.75 25.6364 12.75 25.6356 12.75 25.6354C12.75 25.6352 12.75 25.6356 12.75 25.6354C12.75 25.6352 12.75 25.6343 12.75 25.6341C12.75 25.6339 12.75 25.6343 12.75 25.6341C12.75 25.6339 12.75 25.6331 12.75 25.6329C12.75 25.6327 12.75 25.6331 12.75 25.6329C12.75 25.6327 12.75 25.6319 12.75 25.6316C12.75 25.6314 12.75 25.6318 12.75 25.6316C12.75 25.6314 12.75 25.6306 12.75 25.6304C12.75 25.6302 12.75 25.6306 12.75 25.6304C12.75 25.6302 12.75 25.6294 12.75 25.6292C12.75 25.629 12.75 25.6294 12.75 25.6292C12.75 25.629 12.75 25.6281 12.75 25.6279C12.75 25.6277 12.75 25.6281 12.75 25.6279C12.75 25.6277 12.75 25.6269 12.75 25.6267C12.75 25.6265 12.75 25.6269 12.75 25.6267C12.75 25.6265 12.75 25.6256 12.75 25.6254C12.75 25.6252 12.75 25.6256 12.75 25.6254C12.75 25.6252 12.75 25.6244 12.75 25.6242C12.75 25.624 12.75 25.6244 12.75 25.6242C12.75 25.624 12.75 25.6231 12.75 25.6229C12.75 25.6227 12.75 25.6231 12.75 25.6229C12.75 25.6227 12.75 25.6219 12.75 25.6217C12.75 25.6214 12.75 25.6219 12.75 25.6217C12.75 25.6215 12.75 25.6206 12.75 25.6204C12.75 25.6202 12.75 25.6206 12.75 25.6204C12.75 25.6202 12.75 25.6193 12.75 25.6191C12.75 25.6189 12.75 25.6193 12.75 25.6191C12.75 25.6189 12.75 25.6181 12.75 25.6179C12.75 25.6177 12.75 25.6182 12.75 25.6179C12.75 25.6177 12.75 25.6168 12.75 25.6166C12.75 25.6164 12.75 25.6168 12.75 25.6166C12.75 25.6164 12.75 25.6156 12.75 25.6154C12.75 25.6151 12.75 25.6156 12.75 25.6154C12.75 25.6152 12.75 25.6143 12.75 25.6141C12.75 25.6139 12.75 25.6143 12.75 25.6141C12.75 25.6139 12.75 25.613 12.75 25.6128C12.75 25.6126 12.75 25.613 12.75 25.6128C12.75 25.6126 12.75 25.6118 12.75 25.6116C12.75 25.6114 12.75 25.6118 12.75 25.6116C12.75 25.6114 12.75 25.6105 12.75 25.6103C12.75 25.6101 12.75 25.6105 12.75 25.6103C12.75 25.6101 12.75 25.6093 12.75 25.609C12.75 25.6088 12.75 25.6092 12.75 25.609C12.75 25.6088 12.75 25.608 12.75 25.6078C12.75 25.6076 12.75 25.6081 12.75 25.6078C12.75 25.6076 12.75 25.6067 12.75 25.6065C12.75 25.6063 12.75 25.6067 12.75 25.6065C12.75 25.6063 12.75 25.6055 12.75 25.6052C12.75 25.605 12.75 25.6054 12.75 25.6052C12.75 25.605 12.75 25.6042 12.75 25.604C12.75 25.6038 12.75 25.6043 12.75 25.604C12.75 25.6038 12.75 25.6029 12.75 25.6027C12.75 25.6025 12.75 25.6029 12.75 25.6027C12.75 25.6025 12.75 25.6017 12.75 25.6014C12.75 25.6012 12.75 25.6016 12.75 25.6014C12.75 25.6012 12.75 25.6004 12.75 25.6002C12.75 25.6 12.75 25.6004 12.75 25.6002C12.75 25.5999 12.75 25.5991 12.75 25.5989C12.75 25.5987 12.75 25.5991 12.75 25.5989C12.75 25.5987 12.75 25.5979 12.75 25.5977C12.75 25.5974 12.75 25.5979 12.75 25.5977C12.75 25.5975 12.75 25.5966 12.75 25.5964C12.75 25.5962 12.75 25.5966 12.75 25.5964C12.75 25.5961 12.75 25.5953 12.75 25.5951C12.75 25.5949 12.75 25.5953 12.75 25.5951C12.75 25.5949 12.75 25.5941 12.75 25.5939C12.75 25.5937 12.75 25.5941 12.75 25.5939C12.75 25.5937 12.75 25.5928 12.75 25.5926C12.75 25.5924 12.75 25.5928 12.75 25.5926C12.75 25.5924 12.75 25.5916 12.75 25.5913C12.75 25.5911 12.75 25.5915 12.75 25.5913C12.75 25.5911 12.75 25.5903 12.75 25.5901C12.75 25.5899 12.75 25.5903 12.75 25.5901C12.75 25.5898 12.75 25.589 12.75 25.5888C12.75 25.5886 12.75 25.589 12.75 25.5888C12.75 25.5886 12.75 25.5878 12.75 25.5876C12.75 25.5874 12.75 25.5879 12.75 25.5876C12.75 25.5874 12.75 25.5865 12.75 25.5863C12.75 25.5861 12.75 25.5865 12.75 25.5863C12.75 25.5861 12.75 25.5853 12.75 25.5851C12.75 25.5849 12.75 25.5853 12.75 25.5851C12.75 25.5849 12.75 25.584 12.75 25.5838C12.75 25.5836 12.75 25.584 12.75 25.5838C12.75 25.5836 12.75 25.5828 12.75 25.5826C12.75 25.5823 12.75 25.5828 12.75 25.5826C12.75 25.5824 12.75 25.5815 12.75 25.5813C12.75 25.5811 12.75 25.5815 12.75 25.5813C12.75 25.5811 12.75 25.5803 12.75 25.5801C12.75 25.5799 12.75 25.5803 12.75 25.5801C12.75 25.5799 12.75 25.579 12.75 25.5788C12.75 25.5786 12.75 25.579 12.75 25.5788C12.75 25.5786 12.75 25.5778 12.75 25.5776C12.75 25.5774 12.75 25.5778 12.75 25.5776C12.75 25.5773 12.75 25.5765 12.75 25.5763C12.75 25.5761 12.75 25.5765 12.75 25.5763C12.75 25.5761 12.75 25.5753 12.75 25.5751C12.75 25.5749 12.75 25.5753 12.75 25.5751C12.75 25.5749 12.75 25.5741 12.75 25.5739C12.75 25.5737 12.75 25.5741 12.75 25.5739C12.75 25.5737 12.75 25.5728 12.75 25.5726C12.75 25.5724 12.75 25.5728 12.75 25.5726C12.75 25.5724 12.75 25.5716 12.75 25.5714C12.75 25.5712 12.75 25.5716 12.75 25.5714C12.75 25.5712 12.75 25.5704 12.75 25.5702C12.75 25.57 12.75 25.5704 12.75 25.5702C12.75 25.5699 12.75 25.5691 12.75 25.5689C12.75 25.5687 12.75 25.5691 12.75 25.5689C12.75 25.5687 12.75 25.5679 12.75 25.5677C12.75 25.5675 12.75 25.5679 12.75 25.5677C12.75 25.5675 12.75 25.5667 12.75 25.5665C12.75 25.5663 12.75 25.5667 12.75 25.5665C12.75 25.5663 12.75 25.5655 12.75 25.5653C12.75 25.5651 12.75 25.5655 12.75 25.5653C12.75 25.5651 12.75 25.5643 12.75 25.5641C12.75 25.5639 12.75 25.5643 12.75 25.5641C12.75 25.5639 12.75 25.5631 12.75 25.5629C12.75 25.5627 12.75 25.5631 12.75 25.5629C12.75 25.5627 12.75 25.5619 12.75 25.5617C12.75 25.5615 12.75 25.5619 12.75 25.5617C12.75 25.5615 12.75 25.5607 12.75 25.5605C12.75 25.5603 12.75 25.5607 12.75 25.5605C12.75 25.5603 12.75 25.5595 12.75 25.5593C12.75 25.5591 12.75 25.5595 12.75 25.5593C12.75 25.5591 12.75 25.5583 12.75 25.5581C12.75 25.5579 12.75 25.5583 12.75 25.5581C12.75 25.5579 12.75 25.5571 12.75 25.5569C12.75 25.5567 12.75 25.5571 12.75 25.5569C12.75 25.5567 12.75 25.5559 12.75 25.5557C12.75 25.5555 12.75 25.5559 12.75 25.5557C12.75 25.5555 12.75 25.5547 12.75 25.5545C12.75 25.5543 12.75 25.5547 12.75 25.5545C12.75 25.5543 12.75 25.5535 12.75 25.5533C12.75 25.5531 12.75 25.5535 12.75 25.5533C12.75 25.5531 12.75 25.5523 12.75 25.5521C12.75 25.5519 12.75 25.5523 12.75 25.5521C12.75 25.5519 12.75 25.5512 12.75 25.551C12.75 25.5508 12.75 25.5512 12.75 25.551C12.75 25.5508 12.75 25.55 12.75 25.5498C12.75 25.5496 12.75 25.55 12.75 25.5498C12.75 25.5496 12.75 25.5488 12.75 25.5486C12.75 25.5485 12.75 25.5488 12.75 25.5486C12.75 25.5484 12.75 25.5477 12.75 25.5475C12.75 25.5473 12.75 25.5477 12.75 25.5475C12.75 25.5473 12.75 25.5465 12.75 25.5463C12.75 25.5461 12.75 25.5465 12.75 25.5463C12.75 25.5461 12.75 25.5454 12.75 25.5452C12.75 25.545 12.75 25.5454 12.75 25.5452C12.75 25.545 12.75 25.5442 12.75 25.5441C12.75 25.5439 12.75 25.5443 12.75 25.5441C12.75 25.5439 12.75 25.5431 12.75 25.5429C12.75 25.5427 12.75 25.5431 12.75 25.5429C12.75 25.5428 12.75 25.542 12.75 25.5418C12.75 25.5416 12.75 25.542 12.75 25.5418C12.75 25.5416 12.75 25.5408 12.75 25.5407C12.75 25.5405 12.75 25.5409 12.75 25.5407C12.75 25.5405 12.75 25.5397 12.75 25.5395C12.75 25.5394 12.75 25.5397 12.75 25.5395C12.75 25.5393 12.75 25.5386 12.75 25.5384C12.75 25.5382 12.75 25.5386 12.75 25.5384C12.75 25.5382 12.75 25.5375 12.75 25.5373C12.75 25.5371 12.75 25.5374 12.75 25.5373C12.75 25.5371 12.75 25.5364 12.75 25.5362C12.75 25.536 12.75 25.5363 12.75 25.5362C12.75 25.536 12.75 25.5353 12.75 25.5351C12.75 25.5349 12.75 25.5352 12.75 25.5351C12.75 25.5349 12.75 25.5342 12.75 25.534C12.75 25.5338 12.75 25.5342 12.75 25.534C12.75 25.5338 12.75 25.5331 12.75 25.5329C12.75 25.5327 12.75 25.5315 12.75 25.5313C12.75 25.5311 12.75 25.5315 12.75 25.5313C12.75 25.5311 12.75 25.5304 12.75 25.5302C12.75 25.53 12.75 25.5288 12.75 25.5287C12.75 25.5285 12.75 25.5289 12.75 25.5287C12.75 25.5286 12.75 25.5278 12.75 25.5276C12.75 25.5274 12.75 25.5262 12.75 25.526C12.75 25.5258 12.75 25.5247 12.75 25.5245C12.75 25.5243 12.75 25.5231 12.75 25.5229C12.75 25.5228 12.75 25.5216 12.75 25.5214C12.75 25.5213 12.75 25.5216 12.75 25.5214C12.75 25.5213 12.75 25.5206 12.75 25.5204C12.75 25.5203 12.75 25.5191 12.75 25.5189C12.75 25.5188 12.75 25.5176 12.75 25.5175C12.75 25.5173 12.75 25.5162 12.75 25.516C12.75 25.5158 12.75 25.5162 12.75 25.516C12.75 25.5158 12.75 25.5152 12.75 25.515C12.75 25.5148 12.75 25.5138 12.75 25.5136C12.75 25.5134 12.75 25.5123 12.75 25.5122C12.75 25.512 12.75 25.511 12.75 25.5108C12.75 25.5106 12.75 25.5096 12.75 25.5094C12.75 25.5093 12.75 25.5082 12.75 25.5081C12.75 25.5079 12.75 25.5069 12.75 25.5067C12.75 25.5065 12.75 25.5056 12.75 25.5054C12.75 25.5052 12.75 25.5043 12.75 25.5041C12.75 25.5039 12.75 25.503 12.75 25.5029C12.75 25.5028 12.75 25.5017 12.75 25.5016C12.75 25.5014 12.75 25.5005 12.75 25.5004C12.75 25.5002 12.75 25.4993 12.75 25.4992C12.75 25.499 12.75 25.4981 12.75 25.498C12.75 25.4979 12.75 25.4969 12.75 25.4968C12.75 25.4966 12.75 25.4958 12.75 25.4957C12.75 25.4956 12.75 25.4958 12.75 25.4957L11.25 25.4953ZM11.25 19.8817V25.4953L12.75 25.4957V19.8817H11.25ZM12.2489 18.8912C11.7217 18.8912 11.25 19.3107 11.25 19.8817H12.75C12.75 20.1872 12.5012 20.3912 12.2489 20.3912V18.8912ZM28.7604 18.9453C29.1755 17.4782 30.0365 15.0112 31.4183 13.5725L30.3365 12.5334C28.6718 14.2667 27.7332 17.066 27.3171 18.537L28.7604 18.9453ZM28.5299 19.7602L28.7604 18.9453L27.3171 18.537L27.0865 19.3518L28.5299 19.7602ZM28.42 18.5865L27.5909 18.8542L28.0517 20.2817L28.8809 20.014L28.42 18.5865ZM33.4452 15.8235C32.0952 17.2297 29.8196 18.1347 28.42 18.5865L28.8809 20.014C30.3 19.5558 32.8969 18.5606 34.527 16.8626L33.4452 15.8235ZM35.0813 13.4512C34.8442 14.1205 34.3011 14.9328 33.4452 15.8235L34.527 16.8626C35.4567 15.8951 36.1582 14.9033 36.4952 13.9522L35.0813 13.4512ZM34.9447 12.0151C35.2355 12.3203 35.3172 12.7853 35.0813 13.4512L36.4952 13.9522C36.8332 12.9981 36.863 11.8539 36.0307 10.9804L34.9447 12.0151ZM34.3252 11.7501C34.564 11.7461 34.7862 11.8435 34.936 12.006L36.0393 10.9896C35.5933 10.5055 34.9573 10.2392 34.2998 10.2503L34.3252 11.7501ZM31.4183 13.5725C32.9777 11.9489 33.9389 11.7503 34.3125 11.7503V10.2502C33.372 10.2502 32.0459 10.7537 30.3365 12.5334L31.4183 13.5725ZM20.6993 10.2504C20.0419 10.2392 19.4059 10.5055 18.9599 10.9895L20.0631 12.0059C20.2128 11.8434 20.4351 11.7462 20.6739 11.7503L20.6993 10.2504ZM24.6626 12.5335C22.9533 10.7537 21.6274 10.2503 20.6866 10.2503V11.7503C21.0605 11.7503 22.0215 11.949 23.5807 13.5725L24.6626 12.5335ZM27.6812 18.5383C27.2657 17.0654 26.3271 14.2663 24.6626 12.5335L23.5807 13.5725C24.9622 15.0107 25.8235 17.4776 26.2375 18.9455L27.6812 18.5383ZM27.9109 19.3527L27.6812 18.5383L26.2375 18.9455L26.4672 19.7599L27.9109 19.3527ZM26.117 20.0143L26.9455 20.2819L27.4065 18.8545L26.578 18.5869L26.117 20.0143ZM20.4711 16.8638C22.1014 18.5609 24.6983 19.5562 26.117 20.0143L26.578 18.5869C25.1786 18.135 22.9032 17.2303 21.5528 15.8246L20.4711 16.8638ZM18.5026 13.9531C18.8397 14.9044 19.5418 15.8964 20.4711 16.8638L21.5528 15.8246C20.697 14.9338 20.1537 14.1214 19.9165 13.4521L18.5026 13.9531ZM18.9689 10.9799C18.1351 11.8536 18.1644 12.9985 18.5026 13.9531L19.9165 13.4521C19.6806 12.7862 19.7623 12.3213 20.0541 12.0156L18.9689 10.9799ZM40.8286 26.4858L42.9966 26.4956L43.0034 24.9956L40.8354 24.9858L40.8286 26.4858ZM23.6439 20.1324V43.4896H25.1439V20.1324H23.6439ZM31.3555 43.4896V20.1324H29.8555V43.4896H31.3555ZM30.6157 42.7494C30.9996 42.7494 31.3555 43.0565 31.3555 43.4896H29.8555C29.8555 43.9336 30.2206 44.2494 30.6157 44.2494V42.7494ZM30.6157 19.3726C30.2207 19.3726 29.8555 19.6884 29.8555 20.1324H31.3555C31.3555 20.5656 30.9995 20.8726 30.6157 20.8726V19.3726ZM26.4672 19.7599C26.2915 19.1369 26.8988 18.6905 27.4065 18.8545L26.9455 20.2819C27.4686 20.4508 28.0909 19.9908 27.9109 19.3527L26.4672 19.7599ZM24.3837 44.2494C24.7788 44.2494 25.1439 43.9336 25.1439 43.4896H23.6439C23.6439 43.0565 23.9999 42.7494 24.3837 42.7494V44.2494ZM25.2384 20.3037C24.4571 19.9438 24.8208 18.8912 25.5478 18.8912V20.3912C26.2965 20.3912 26.6669 19.3102 25.866 18.9413L25.2384 20.3037ZM27.0865 19.3518C26.9059 19.9903 27.5286 20.4506 28.0517 20.2817L27.5909 18.8542C28.0985 18.6903 28.7062 19.1369 28.5299 19.7602L27.0865 19.3518ZM29.1337 18.9413C28.3321 19.3104 28.7038 20.3912 29.4518 20.3912V18.8912C29.8246 18.8912 30.1006 19.1574 30.1721 19.4624C30.2443 19.7707 30.1111 20.1425 29.7611 20.3037L29.1337 18.9413ZM25.1439 20.1324C25.1439 19.6885 24.7788 19.3726 24.3837 19.3726V20.8726C23.9999 20.8726 23.6439 20.5655 23.6439 20.1324H25.1439ZM42.7511 18.8912H30.6157V20.3912H42.7511V18.8912ZM30.6157 18.8912H29.4518V20.3912H30.6157V18.8912ZM31.3657 20.1226V19.6412H29.8657V20.1226H31.3657ZM25.5478 18.8912H24.3939V20.3912H25.5478V18.8912ZM24.3939 18.8912H12.2489V20.3912H24.3939V18.8912ZM25.1439 20.1324V19.6412H23.6439V20.1324H25.1439ZM30.6157 44.73H40.5729V43.23H30.6157V44.73ZM29.8657 43.4994V43.98H31.3657V43.4994H29.8657ZM14.4277 44.73H24.3939V43.23H14.4277V44.73ZM24.3939 44.73H30.6157V43.23H24.3939V44.73ZM23.6439 43.4896V43.98H25.1439V43.4896H23.6439ZM14.1788 24.9862H12V26.4862H14.1788V24.9862ZM40.831 24.9858H40.8208L40.8228 26.4858H40.833L40.831 24.9858ZM40.8208 24.9858H34.4286V26.4858H40.8228L40.8208 24.9858ZM41.5718 43.7395V25.7358H40.0718V43.7395H41.5718ZM25.5478 20.3912H30.6157V18.8912H25.5478V20.3912ZM29.4554 18.8912L25.5558 18.8725L25.5486 20.3725L29.4482 20.3912L29.4554 18.8912ZM14.1788 26.4862H20.6866V24.9862H14.1788V26.4862ZM14.9288 43.7395V25.7362H13.4288V43.7395H14.9288Z" fill="url(#paint0_linear_23_469)"/>
</g>
<defs>
<linearGradient id="paint0_linear_23_469" x1="7.21926" y1="5.84077" x2="54.1789" y2="30.2991" gradientUnits="userSpaceOnUse">
<stop stop-color="#7381FD"/>
<stop offset="1" stop-color="#76C7FF"/>
</linearGradient>
<clipPath id="clip0_23_469">
<rect width="55" height="55" fill="white"/>
</clipPath>
</defs>
</svg>
