<svg width="55" height="55" viewBox="0 0 55 55" fill="none" xmlns="http://www.w3.org/2000/svg">
<g clip-path="url(#clip0_23_531)">
<path d="M0 15C0 6.71573 6.71573 0 15 0H40C48.2843 0 55 6.71573 55 15V40C55 48.2843 48.2843 55 40 55H15C6.71573 55 0 48.2843 0 40V15Z" fill="#F6FAFD"/>
<path d="M26.9543 40.4324L26.323 40.8373C26.461 41.0524 26.6989 41.1824 26.9543 41.1824C27.2098 41.1824 27.4477 41.0524 27.5856 40.8373L26.9543 40.4324ZM16.7656 19.9348C16.7656 21.5361 17.4065 23.656 18.2949 25.8573C19.194 28.0852 20.3878 30.4933 21.574 32.706C22.7614 34.921 23.9479 36.9525 24.837 38.4295C25.2817 39.1683 25.6525 39.7692 25.9124 40.1858C26.0424 40.3941 26.1447 40.5564 26.2146 40.6669C26.2496 40.7222 26.2765 40.7645 26.2948 40.7931C26.3039 40.8075 26.3109 40.8184 26.3156 40.8258C26.318 40.8295 26.3198 40.8323 26.321 40.8342C26.3216 40.8352 26.3221 40.8359 26.3225 40.8364C26.3226 40.8367 26.323 40.8371 26.323 40.8373C26.3232 40.8374 26.323 40.8373 26.9543 40.4324C27.5856 40.0275 27.5856 40.0275 27.5856 40.0275C27.5855 40.0274 27.5857 40.0277 27.5856 40.0275C27.5853 40.0271 27.5847 40.0261 27.5842 40.0253C27.5832 40.0236 27.5815 40.0211 27.5794 40.0177C27.575 40.0109 27.5685 40.0006 27.5597 39.9869C27.5423 39.9595 27.5162 39.9185 27.482 39.8646C27.4137 39.7567 27.3132 39.5972 27.1851 39.3918C26.9288 38.9811 26.5622 38.387 26.1221 37.6559C25.2415 36.1929 24.0682 34.184 22.896 31.9973C21.7225 29.8083 20.5566 27.4533 19.6859 25.2959C18.8045 23.112 18.2656 21.2243 18.2656 19.9348H16.7656ZM26.9543 10.25C21.3752 10.25 16.7656 14.556 16.7656 19.9348H18.2656C18.2656 15.4609 22.125 11.75 26.9543 11.75V10.25ZM37.143 19.9348C37.143 14.556 32.5335 10.25 26.9543 10.25V11.75C31.7837 11.75 35.643 15.4609 35.643 19.9348H37.143ZM26.9543 40.4324C27.5856 40.8373 27.5855 40.8374 27.5856 40.8373C27.5857 40.8371 27.586 40.8367 27.5862 40.8364C27.5865 40.8359 27.587 40.8352 27.5876 40.8342C27.5889 40.8323 27.5907 40.8295 27.5931 40.8258C27.5978 40.8184 27.6047 40.8075 27.6139 40.7931C27.6321 40.7645 27.659 40.7222 27.694 40.6669C27.764 40.5564 27.8663 40.3941 27.9962 40.1858C28.2561 39.7692 28.6269 39.1683 29.0717 38.4295C29.9608 36.9525 31.1473 34.921 32.3347 32.706C33.5209 30.4933 34.7146 28.0852 35.6137 25.8573C36.5021 23.656 37.143 21.5361 37.143 19.9348H35.643C35.643 21.2243 35.1041 23.112 34.2227 25.2959C33.3521 27.4533 32.1862 29.8083 31.0127 31.9973C29.8404 34.184 28.6672 36.1929 27.7866 37.6559C27.3464 38.387 26.9798 38.9811 26.7236 39.3918C26.5955 39.5972 26.495 39.7567 26.4267 39.8646C26.3925 39.9185 26.3664 39.9595 26.3489 39.9869C26.3402 40.0006 26.3336 40.0109 26.3293 40.0177C26.3271 40.0211 26.3255 40.0236 26.3245 40.0253C26.3239 40.0261 26.3236 40.0267 26.3233 40.0271C26.3232 40.0273 26.3233 40.027 26.3233 40.0271C26.3232 40.0271 26.323 40.0275 26.9543 40.4324Z" fill="url(#paint0_linear_23_531)"/>
<path d="M33.176 17.9207L29.344 17.3835L27.6271 14.0246C27.3949 13.5595 26.6069 13.5595 26.3746 14.0246L24.6578 17.3835L20.8258 17.9207C20.5602 17.9606 20.3447 18.1371 20.2617 18.3776C20.1787 18.6182 20.245 18.8907 20.436 19.0671L23.2061 21.6806L22.5507 25.3684C22.5094 25.6251 22.617 25.8814 22.8326 26.0257C23.0481 26.178 23.3383 26.1941 23.5709 26.0737L27.0051 24.3424L30.4306 26.0821C30.5302 26.1381 30.6462 26.1623 30.7541 26.1623C30.8951 26.1623 31.0443 26.1223 31.169 26.0341C31.3845 25.8818 31.4925 25.6251 31.4508 25.3768L30.7954 21.689L33.5656 19.0756C33.7565 18.8991 33.8228 18.6266 33.7398 18.3861C33.6569 18.1374 33.4412 17.9529 33.176 17.9207ZM29.5512 20.9673C29.3853 21.1196 29.3107 21.3441 29.3523 21.5685L29.8251 24.2541L27.3285 22.9875C27.2289 22.9315 27.1129 22.9073 27.005 22.9073C26.897 22.9073 26.7811 22.9315 26.6815 22.9875L24.1849 24.2541L24.666 21.5685C24.7073 21.3521 24.6327 21.1276 24.4671 20.9673L22.4434 19.0591L25.2385 18.6662C25.4707 18.634 25.6616 18.4978 25.7609 18.2975L27.005 15.8525L28.2575 18.2975C28.3571 18.4978 28.556 18.6343 28.7799 18.6662L31.575 19.0591L29.5512 20.9673Z" fill="url(#paint1_linear_23_531)"/>
<path d="M21.1991 37.6115C21.6115 37.5728 21.9144 37.2071 21.8758 36.7947C21.8371 36.3823 21.4714 36.0793 21.059 36.118L21.1991 37.6115ZM32.9419 36.1181C32.5296 36.0789 32.1635 36.3814 32.1243 36.7938C32.0851 37.2061 32.3876 37.5722 32.8 37.6114L32.9419 36.1181ZM27.0001 43.2499C26.2919 43.2499 22.8352 43.2238 19.5687 42.7579C17.9278 42.5238 16.3899 42.1859 15.281 41.7115C14.0999 41.2063 13.75 40.7047 13.75 40.3135H12.25C12.25 41.7138 13.471 42.5688 14.6911 43.0907C15.9833 43.6434 17.6768 44.0032 19.3568 44.2428C22.7321 44.7243 26.2754 44.7499 27.0001 44.7499V43.2499ZM13.75 40.3135C13.75 40.0412 13.8697 39.768 14.207 39.4725C14.558 39.165 15.1024 38.8758 15.8283 38.6191C17.276 38.107 19.234 37.7958 21.1991 37.6115L21.059 36.118C19.0606 36.3054 16.9541 36.6298 15.3281 37.2049C14.5172 37.4917 13.7725 37.8589 13.2186 38.3442C12.651 38.8414 12.25 39.4971 12.25 40.3135H13.75ZM32.8 37.6114C36.3401 37.9479 38.2462 38.5 39.2484 39.0516C39.7383 39.3212 39.9771 39.5719 40.0975 39.7637C40.2134 39.9484 40.25 40.1263 40.25 40.3135H41.75C41.75 39.9022 41.662 39.4346 41.368 38.9663C41.0786 38.5053 40.6225 38.0957 39.9716 37.7375C38.6923 37.0334 36.5339 36.4596 32.9419 36.1181L32.8 37.6114ZM40.25 40.3135C40.25 40.7047 39.9001 41.2063 38.719 41.7115C37.61 42.1859 36.0721 42.5238 34.4312 42.7578C31.1646 43.2238 27.7079 43.2499 27.0001 43.2499V44.7499C27.7245 44.7499 31.2677 44.7243 34.643 44.2428C36.3231 44.0032 38.0166 43.6434 39.3089 43.0906C40.529 42.5688 41.75 41.7138 41.75 40.3135H40.25Z" fill="url(#paint2_linear_23_531)"/>
</g>
<defs>
<linearGradient id="paint0_linear_23_531" x1="14.2384" y1="6.29675" x2="47.2851" y2="18.3333" gradientUnits="userSpaceOnUse">
<stop stop-color="#7381FD"/>
<stop offset="1" stop-color="#76C7FF"/>
</linearGradient>
<linearGradient id="paint1_linear_23_531" x1="18.5463" y1="12.08" x2="36.8468" y2="23.0586" gradientUnits="userSpaceOnUse">
<stop stop-color="#7381FD"/>
<stop offset="1" stop-color="#76C7FF"/>
</linearGradient>
<linearGradient id="paint2_linear_23_531" x1="8.59133" y1="35.0111" x2="20.4549" y2="57.4191" gradientUnits="userSpaceOnUse">
<stop stop-color="#7381FD"/>
<stop offset="1" stop-color="#76C7FF"/>
</linearGradient>
<clipPath id="clip0_23_531">
<rect width="55" height="55" fill="white"/>
</clipPath>
</defs>
</svg>
