<svg width="55" height="55" viewBox="0 0 55 55" fill="none" xmlns="http://www.w3.org/2000/svg">
<g clip-path="url(#clip0_23_378)">
<path d="M0 15C0 6.71573 6.71573 0 15 0H40C48.2843 0 55 6.71573 55 15V40C55 48.2843 48.2843 55 40 55H15C6.71573 55 0 48.2843 0 40V15Z" fill="#F6FAFD"/>
<path d="M41.4451 14L41.4469 13.25H41.4451V14ZM22.2007 40.2498C21.7865 40.2498 21.4507 40.5856 21.4507 40.9998C21.4507 41.414 21.7864 41.7498 22.2006 41.7498L22.2007 40.2498ZM33.8744 41.75C34.2886 41.75 34.6244 41.4142 34.6244 41C34.6244 40.5858 34.2886 40.25 33.8744 40.25V41.75ZM38.1016 32.0587L37.6232 32.6362L37.6244 32.6372L38.1016 32.0587ZM31.0481 26.2162L31.5266 25.6386L31.5256 25.6378L31.0481 26.2162ZM38.3838 32.0931L38.0579 31.4175L38.0569 31.4181L38.3838 32.0931ZM38.3833 19.9203L38.7091 19.2448C38.6957 19.2383 38.6821 19.2322 38.6683 19.2265L38.3833 19.9203ZM38.1016 19.9546L37.6263 19.3744L37.6231 19.377L38.1016 19.9546ZM31.0481 25.797L31.5246 26.3763L31.5266 26.3746L31.0481 25.797ZM45.9222 22.9586L45.3877 23.4848L45.3887 23.4857L45.9222 22.9586ZM38.5357 29.1386L37.8492 28.8367C37.8073 28.9318 37.7857 29.0346 37.7857 29.1386H38.5357ZM38.5352 22.8758H37.7852C37.7852 22.9801 37.807 23.0833 37.8491 23.1787L38.5352 22.8758ZM45.7341 29.1351L45.734 29.8852L45.7458 29.885L45.7341 29.1351ZM45.7423 29.135L45.754 29.885L45.7655 29.8846L45.7423 29.135ZM42.3209 20.4136C42.3209 20.8278 42.6567 21.1636 43.0709 21.1636C43.4851 21.1636 43.8209 20.8278 43.8209 20.4136H42.3209ZM43.8209 31.8491C43.8209 31.4349 43.4851 31.0991 43.0709 31.0991C42.6567 31.0991 42.3209 31.4349 42.3209 31.8491H43.8209ZM41.4434 14.75C41.6917 14.7506 41.9202 14.8435 42.0808 14.9943L43.1074 13.9006C42.6588 13.4795 42.0603 13.2514 41.4469 13.25L41.4434 14.75ZM13.9896 14.9947C14.1511 14.8432 14.3802 14.75 14.627 14.75V13.25C14.0112 13.25 13.4125 13.4797 12.9642 13.8999L13.9896 14.9947ZM13.75 15.5237C13.75 15.3361 13.8295 15.1445 13.9896 14.9947L12.9642 13.8999C12.514 14.3211 12.25 14.9034 12.25 15.5237H13.75ZM13.9903 36.102C13.8302 35.9521 13.75 35.7599 13.75 35.5723H12.25C12.25 36.1926 12.5147 36.7756 12.965 37.1969L13.9903 36.102ZM14.6268 36.3461C14.3801 36.3461 14.1518 36.2534 13.9903 36.102L12.965 37.1969C13.4131 37.6171 14.011 37.8461 14.6268 37.8461V36.3461ZM42.0813 36.1014C41.9199 36.2528 41.6911 36.3461 41.445 36.3461V37.8461C42.0611 37.8461 42.6597 37.6157 43.1074 37.1955L42.0813 36.1014ZM14.627 14.75H41.4451V13.25H14.627V14.75ZM22.2006 41.7498L25.4767 41.7499V40.2499L22.2007 40.2498L22.2006 41.7498ZM25.4767 36.3461H14.6268V37.8461H25.4767V36.3461ZM26.2267 40.9999V37.0961H24.7267V40.9999H26.2267ZM25.4767 41.7499H30.591L30.5911 40.2499H25.4767V41.7499ZM30.591 41.7499L33.8744 41.75V40.25L30.5911 40.2499L30.591 41.7499ZM41.445 36.3461H30.591V37.8461H41.445V36.3461ZM30.591 36.3461H25.4767V37.8461H30.591V36.3461ZM31.341 40.9999V37.0961H29.841V40.9999H31.341ZM42.3209 35.5724C42.3209 35.7596 42.2414 35.9514 42.0813 36.1014L43.1074 37.1955C43.5568 36.7744 43.8209 36.1924 43.8209 35.5724H42.3209ZM42.0808 14.9943C42.2408 15.1442 42.3209 15.3365 42.3209 15.5238L43.8209 15.5237C43.8209 14.9037 43.5568 14.3216 43.1074 13.9006L42.0808 14.9943ZM13.75 35.5723V15.5237H12.25V35.5723H13.75ZM38.58 31.4811L31.5266 25.6386L30.5697 26.7938L37.6232 32.6362L38.58 31.4811ZM38.0569 31.4181C38.2305 31.334 38.4343 31.3609 38.5789 31.4801L37.6244 32.6372C37.9283 32.8879 38.3521 32.9417 38.7107 32.7681L38.0569 31.4181ZM37.7857 31.8491C37.7857 31.6695 37.8874 31.4998 38.0579 31.4175L38.7096 32.7686C39.0653 32.597 39.2857 32.2369 39.2857 31.8491H37.7857ZM38.0574 20.5958C37.8875 20.5138 37.7852 20.3442 37.7852 20.1642H39.2852C39.2852 19.7756 39.0644 19.4161 38.7091 19.2448L38.0574 20.5958ZM38.5768 20.5348C38.4843 20.6106 38.3884 20.6382 38.3185 20.6459C38.2488 20.6535 38.1739 20.6451 38.0982 20.614L38.6683 19.2265C38.3676 19.103 37.95 19.1092 37.6263 19.3744L38.5768 20.5348ZM31.5266 26.3746L38.58 20.5322L37.6231 19.377L30.5697 25.2194L31.5266 26.3746ZM31.6996 26.0068C31.6996 26.1482 31.6372 26.2836 31.5246 26.3763L30.5717 25.2178C30.3356 25.412 30.1996 25.7027 30.1996 26.0068H31.6996ZM31.5256 25.6378C31.6365 25.7294 31.6996 25.8647 31.6996 26.0068H30.1996C30.1996 26.3108 30.3353 26.6003 30.5707 26.7946L31.5256 25.6378ZM46.4566 22.4324C46.2655 22.2382 46.0054 22.1299 45.7346 22.1299V23.6299C45.6043 23.6299 45.479 23.5775 45.3877 23.4848L46.4566 22.4324ZM46.75 23.1493C46.75 22.8822 46.6454 22.6235 46.4557 22.4315L45.3887 23.4857C45.2982 23.3942 45.25 23.2729 45.25 23.1493H46.75ZM46.75 28.8647V23.1493H45.25V28.8647H46.75ZM46.4566 29.5822C46.6464 29.3895 46.75 29.1312 46.75 28.8647H45.25C45.25 28.7425 45.2977 28.6214 45.3878 28.5299L46.4566 29.5822ZM37.7857 29.1386V31.8491H39.2857V29.1386H37.7857ZM37.7852 20.1642V22.8758H39.2852V20.1642H37.7852ZM38.5391 22.1298C38.7725 22.1298 38.9333 22.2356 39.0046 22.2923C39.0796 22.352 39.1258 22.4126 39.147 22.4423C39.1712 22.4763 39.1879 22.5058 39.1977 22.5242C39.2031 22.5343 39.2076 22.5435 39.2114 22.5514C39.2133 22.5554 39.2151 22.5592 39.2168 22.5628C39.2176 22.5646 39.2184 22.5663 39.2192 22.568C39.2195 22.5689 39.2199 22.5697 39.2203 22.5705C39.2205 22.571 39.2207 22.5714 39.2208 22.5718C39.2207 22.5716 39.2209 22.572 39.2208 22.5718C39.2209 22.572 39.2214 22.573 38.5352 22.8758C37.8491 23.1787 37.8491 23.1785 37.8491 23.1787C37.849 23.1786 37.8492 23.1787 37.8491 23.1787C37.8492 23.1789 37.8495 23.1797 37.8496 23.1799C37.8498 23.1803 37.85 23.1807 37.8502 23.1812C37.8506 23.182 37.8509 23.1828 37.8513 23.1837C37.8521 23.1854 37.8529 23.1872 37.8538 23.189C37.8554 23.1927 37.8573 23.1966 37.8592 23.2007C37.8631 23.2088 37.8678 23.2182 37.8734 23.2287C37.8836 23.2478 37.9008 23.2783 37.9257 23.3133C37.9476 23.344 37.9946 23.4056 38.0706 23.466C38.1428 23.5234 38.3046 23.6298 38.5391 23.6298V22.1298ZM38.5357 29.1386C39.2222 29.4405 39.2222 29.4407 39.2221 29.4408C39.2221 29.4407 39.2221 29.4409 39.2221 29.4408C39.222 29.441 39.2218 29.4415 39.2217 29.4418C39.2215 29.4422 39.2213 29.4426 39.2211 29.443C39.2208 29.4438 39.2204 29.4447 39.22 29.4455C39.2192 29.4472 39.2185 29.449 39.2176 29.4508C39.216 29.4544 39.2142 29.4582 39.2123 29.4622C39.2085 29.4701 39.2039 29.4793 39.1986 29.4894C39.1888 29.5079 39.1721 29.5374 39.1479 29.5715C39.1267 29.6013 39.0805 29.6621 39.0054 29.7219C38.934 29.7788 38.773 29.8847 38.5395 29.8847L38.5396 28.3847C38.3051 28.3847 38.1431 28.4911 38.0707 28.5487C37.9947 28.6093 37.9476 28.671 37.9257 28.7018C37.9008 28.7369 37.8836 28.7674 37.8734 28.7866C37.8679 28.797 37.8632 28.8065 37.8593 28.8146C37.8573 28.8188 37.8555 28.8227 37.8538 28.8263C37.853 28.8281 37.8522 28.8299 37.8514 28.8316C37.851 28.8325 37.8506 28.8334 37.8503 28.8342C37.8501 28.8346 37.8499 28.835 37.8497 28.8354C37.8496 28.8357 37.8493 28.8365 37.8492 28.8367C37.8492 28.8366 37.8492 28.8368 37.8492 28.8367C37.8491 28.8368 37.8492 28.8367 38.5357 29.1386ZM45.7458 29.885H45.754L45.7305 28.385L45.7224 28.3852L45.7458 29.885ZM45.7655 29.8846C46.0269 29.8765 46.274 29.7677 46.4566 29.5822L45.3878 28.5299C45.4745 28.4419 45.5929 28.3892 45.719 28.3853L45.7655 29.8846ZM45.7346 22.1299H45.0158L45.0157 23.6299H45.7346V22.1299ZM45.0158 22.1299L38.5391 22.1298V23.6298L45.0157 23.6299L45.0158 22.1299ZM45.7342 28.3851L45.0159 28.385L45.0157 29.885L45.734 29.8852L45.7342 28.3851ZM45.0159 28.385L38.5396 28.3847L38.5395 29.8847L45.0157 29.885L45.0159 28.385ZM42.3209 15.5238V20.4136H43.8209V15.5237L42.3209 15.5238ZM43.8209 35.5724V31.8491H42.3209V35.5724H43.8209Z" fill="url(#paint0_linear_23_378)"/>
</g>
<defs>
<linearGradient id="paint0_linear_23_378" x1="7.97122" y1="9.60762" x2="51.7382" y2="38.9003" gradientUnits="userSpaceOnUse">
<stop stop-color="#7381FD"/>
<stop offset="1" stop-color="#76C7FF"/>
</linearGradient>
<clipPath id="clip0_23_378">
<rect width="55" height="55" fill="white"/>
</clipPath>
</defs>
</svg>
