<svg width="55" height="55" viewBox="0 0 55 55" fill="none" xmlns="http://www.w3.org/2000/svg">
<g clip-path="url(#clip0_23_350)">
<path d="M0 15C0 6.71573 6.71573 0 15 0H40C48.2843 0 55 6.71573 55 15V40C55 48.2843 48.2843 55 40 55H15C6.71573 55 0 48.2843 0 40V15Z" fill="#F6FAFD"/>
<path d="M21.584 21.3333C21.1698 21.3333 20.834 21.6691 20.834 22.0833C20.834 22.4975 21.1698 22.8333 21.584 22.8333V21.3333ZM33.5007 22.8333C33.9149 22.8333 34.2507 22.4975 34.2507 22.0833C34.2507 21.6691 33.9149 21.3333 33.5007 21.3333V22.8333ZM21.584 25.9167C21.1698 25.9167 20.834 26.2525 20.834 26.6667C20.834 27.0809 21.1698 27.4167 21.584 27.4167V25.9167ZM29.834 27.4167C30.2482 27.4167 30.584 27.0809 30.584 26.6667C30.584 26.2525 30.2482 25.9167 29.834 25.9167V27.4167ZM21.584 30.5C21.1698 30.5 20.834 30.8358 20.834 31.25C20.834 31.6642 21.1698 32 21.584 32V30.5ZM27.084 32C27.4982 32 27.834 31.6642 27.834 31.25C27.834 30.8358 27.4982 30.5 27.084 30.5V32ZM21.584 35.0833C21.1698 35.0833 20.834 35.4191 20.834 35.8333C20.834 36.2475 21.1698 36.5833 21.584 36.5833V35.0833ZM27.084 36.5833C27.4982 36.5833 27.834 36.2475 27.834 35.8333C27.834 35.4191 27.4982 35.0833 27.084 35.0833V36.5833ZM21.584 16.75C21.1698 16.75 20.834 17.0858 20.834 17.5C20.834 17.9142 21.1698 18.25 21.584 18.25V16.75ZM33.5007 18.25C33.9149 18.25 34.2507 17.9142 34.2507 17.5C34.2507 17.0858 33.9149 16.75 33.5007 16.75V18.25ZM36.722 27.9646L36.1626 28.4643L36.1726 28.4754L36.183 28.4862L36.722 27.9646ZM38.4579 28.513L38.5975 29.2499L38.692 29.232L38.779 29.1908L38.4579 28.513ZM39.9456 29.5304L40.6892 29.4323L40.6883 29.4259L39.9456 29.5304ZM41.6808 31.6445L42.406 31.4531L42.3946 31.4099L42.3781 31.3684L41.6808 31.6445ZM41.5572 34.3062L40.915 34.6937L40.935 34.7269L40.9584 34.7578L41.5572 34.3062ZM41.6808 35.246L40.9835 34.97L40.967 35.0115L40.9556 35.0547L41.6808 35.246ZM41.02 35.9503L40.7689 35.2435L40.7425 35.2529L40.7168 35.2643L41.02 35.9503ZM39.9456 37.3591L40.6884 37.4631L40.6891 37.4572L39.9456 37.3591ZM39.5685 38.0664L40.0342 38.6544L40.1398 38.5707L40.2097 38.4555L39.5685 38.0664ZM39.3951 38.2038L39.7232 38.8782L39.7967 38.8425L39.8608 38.7917L39.3951 38.2038ZM38.4579 38.3775L38.3183 39.1144L38.3875 39.1275H38.4579V38.3775ZM34.9045 38.9248L34.3607 39.4414L34.3743 39.4557L34.3887 39.4693L34.9045 38.9248ZM33.1272 38.3775L32.9544 37.6477L32.8775 37.6659L32.8062 37.6997L33.1272 38.3775ZM32.0949 38.1465L31.3651 38.3197L31.4254 38.5735L31.6301 38.7351L32.0949 38.1465ZM31.8916 37.948L31.3024 38.4121L31.4606 38.6129L31.7085 38.6753L31.8916 37.948ZM31.6396 37.3591L30.896 37.4572L30.897 37.4643L31.6396 37.3591ZM29.9036 35.246L29.1784 35.4374L29.1898 35.4806L29.2063 35.5221L29.9036 35.246ZM30.0279 32.5839L30.6701 32.1965L30.6501 32.1633L30.6268 32.1324L30.0279 32.5839ZM29.9036 31.6445L30.6009 31.9206L30.6174 31.8791L30.6288 31.8359L29.9036 31.6445ZM30.5655 30.9403L30.8166 31.647L30.843 31.6376L30.8687 31.6262L30.5655 30.9403ZM31.6396 29.5304L30.8968 29.4259L30.896 29.4323L31.6396 29.5304ZM33.1272 28.513L33.353 27.7978L33.2428 27.763H33.1272V28.513ZM34.8625 27.9646L34.3252 27.4411L34.3156 27.4514L34.8625 27.9646ZM37.918 38.7661C37.8303 38.3612 37.431 38.1041 37.0262 38.1918C36.6214 38.2795 36.3643 38.6787 36.4519 39.0836L37.918 38.7661ZM38.5007 45L38.0921 45.629C38.3469 45.7945 38.6765 45.7899 38.9266 45.6173C39.1767 45.4447 39.298 45.1383 39.2337 44.8413L38.5007 45ZM36.8757 43.9444L37.2842 43.3155C37.2585 43.2988 37.2317 43.2836 37.2041 43.2702L36.8757 43.9444ZM34.709 43.9444L35.1036 44.5822C35.1627 44.5457 35.2163 44.5012 35.2631 44.4499L34.709 43.9444ZM33.0032 45L32.2666 44.8589C32.2106 45.1512 32.3328 45.4489 32.5779 45.6177C32.823 45.7865 33.1448 45.7944 33.3979 45.6378L33.0032 45ZM35.7923 43.4167L36.1208 42.7424C35.9237 42.6464 35.6946 42.6414 35.4935 42.7288L35.7923 43.4167ZM34.9039 39.066C34.9819 38.6591 34.7153 38.2662 34.3085 38.1882C33.9016 38.1103 33.5087 38.3769 33.4307 38.7837L34.9039 39.066ZM21.584 18.25H33.5007V16.75H21.584V18.25ZM35.8084 28.3333C35.9816 28.3333 36.1027 28.3972 36.1626 28.4643L37.2813 27.465C36.8867 27.0232 36.3273 26.8333 35.8084 26.8333V28.3333ZM36.183 28.4862C36.818 29.1424 37.7366 29.413 38.5975 29.2499L38.3183 27.7761C37.9394 27.8479 37.535 27.7263 37.2609 27.4431L36.183 28.4862ZM38.779 29.1908C38.7298 29.2141 38.6884 29.2214 38.6701 29.2235C38.6622 29.2245 38.6597 29.2243 38.6661 29.2241C38.6738 29.2239 38.6834 29.2238 38.7059 29.2238V27.7238C38.6422 27.7238 38.3935 27.7137 38.1369 27.8352L38.779 29.1908ZM38.7059 29.2238C38.9857 29.2238 39.1713 29.4104 39.2029 29.6349L40.6883 29.4259C40.5546 28.476 39.7484 27.7238 38.7059 27.7238V29.2238ZM39.202 29.6285C39.3187 30.5123 39.9003 31.2951 40.7379 31.6352L41.3021 30.2454C40.9827 30.1157 40.7379 29.8011 40.6892 29.4323L39.202 29.6285ZM40.7379 31.6352C40.8059 31.6628 40.9214 31.7638 40.9835 31.9206L42.3781 31.3684C42.1923 30.8989 41.8127 30.4526 41.3021 30.2454L40.7379 31.6352ZM40.9556 31.8359C40.9909 31.9696 40.9668 32.1106 40.915 32.1965L42.1994 32.9714C42.4781 32.5093 42.536 31.9457 42.406 31.4531L40.9556 31.8359ZM40.915 32.1965C40.4407 32.9828 40.4407 33.9074 40.915 34.6937L42.1994 33.9188C42.0125 33.6091 42.0125 33.2811 42.1994 32.9714L40.915 32.1965ZM40.9584 34.7578C41.0021 34.8158 41.0146 34.8914 40.9835 34.97L42.3781 35.5221C42.595 34.9743 42.5255 34.3447 42.156 33.8547L40.9584 34.7578ZM40.9556 35.0547C40.9376 35.123 40.8712 35.2072 40.7689 35.2435L41.271 36.657C41.8299 36.4585 42.2587 35.9954 42.406 35.4374L40.9556 35.0547ZM40.7168 35.2643C39.8612 35.6425 39.3194 36.3715 39.202 37.261L40.6891 37.4572C40.737 37.0941 40.939 36.8061 41.3232 36.6362L40.7168 35.2643ZM39.2028 37.2551C39.2061 37.2315 39.2101 37.2314 39.1974 37.2596C39.1856 37.286 39.1664 37.3214 39.1378 37.3667C39.1095 37.4117 39.0783 37.4565 39.043 37.5065C39.0166 37.5438 38.9645 37.616 38.9273 37.6774L40.2097 38.4555C40.2077 38.4588 40.2101 38.4546 40.2225 38.4367C40.2345 38.4193 40.2479 38.4005 40.2679 38.3723C40.3047 38.3202 40.3557 38.2477 40.4069 38.1664C40.4978 38.0222 40.6461 37.7654 40.6884 37.4631L39.2028 37.2551ZM39.1028 37.4785L38.9294 37.6159L39.8608 38.7917L40.0342 38.6544L39.1028 37.4785ZM39.3951 38.2038C39.067 37.5294 39.0671 37.5293 39.0672 37.5293C39.0671 37.5294 39.0674 37.5292 39.0672 37.5293C39.0657 37.53 39.0627 37.5314 39.0584 37.5334C39.0499 37.5374 39.0362 37.5437 39.0187 37.5515C38.9831 37.5673 38.9341 37.588 38.8803 37.6084C38.8252 37.6292 38.7734 37.6462 38.7309 37.6573C38.6809 37.6703 38.6768 37.6663 38.7059 37.6663V39.1663C38.9827 39.1663 39.2698 39.0646 39.4099 39.0117C39.4969 38.9789 39.5729 38.9466 39.6271 38.9226C39.6544 38.9104 39.6769 38.9001 39.6933 38.8924C39.7014 38.8886 39.7081 38.8855 39.7131 38.8831C39.7157 38.8819 39.7178 38.8809 39.7194 38.88C39.7203 38.8796 39.721 38.8793 39.7216 38.879C39.7219 38.8788 39.7229 38.8783 39.7232 38.8782C39.7231 38.8783 39.7233 38.8781 39.7232 38.8782C39.7233 38.8782 39.7232 38.8782 39.3951 38.2038ZM38.5975 37.6406C37.7587 37.4817 36.7734 37.7309 36.1589 38.4294L37.2851 39.4202C37.497 39.1793 37.9175 39.0385 38.3183 39.1144L38.5975 37.6406ZM36.1589 38.4294C36.1089 38.4861 35.9509 38.5662 35.8132 38.5662V40.0662C36.3367 40.0662 36.9217 39.8332 37.2851 39.4202L36.1589 38.4294ZM35.8132 38.5662C35.7127 38.5662 35.5594 38.5121 35.4202 38.3803L34.3887 39.4693C34.7454 39.8072 35.2525 40.0662 35.8132 40.0662V38.5662ZM35.4482 38.4082C34.9293 37.8622 34.234 37.5877 33.5404 37.5877V39.0877C33.8386 39.0877 34.1357 39.2046 34.3607 39.4414L35.4482 38.4082ZM33.5404 37.5877C33.4067 37.5877 33.2094 37.5873 32.9544 37.6477L33.3 39.1073C33.3409 39.0976 33.374 39.0932 33.4058 39.0908C33.4414 39.0881 33.4775 39.0877 33.5404 39.0877V37.5877ZM32.8793 37.6663C32.7491 37.6663 32.6435 37.6241 32.5596 37.5579L31.6301 38.7351C31.9675 39.0016 32.3977 39.1663 32.8793 39.1663V37.6663ZM32.8246 37.9732C32.7415 37.6235 32.4677 37.3196 32.0746 37.2206L31.7085 38.6753C31.5405 38.633 31.4069 38.4955 31.3651 38.3197L32.8246 37.9732ZM32.4807 37.4838C32.4285 37.4176 32.3942 37.3389 32.3821 37.2539L30.897 37.4643C30.9469 37.8168 31.0897 38.1421 31.3024 38.4121L32.4807 37.4838ZM32.3831 37.261C32.2664 36.3768 31.6849 35.5953 30.8476 35.2554L30.2834 36.6452C30.6031 36.775 30.8474 37.0887 30.896 37.4572L32.3831 37.261ZM30.8476 35.2554C30.7785 35.2273 30.6625 35.1254 30.6009 34.97L29.2063 35.5221C29.3927 35.9929 29.774 36.4384 30.2834 36.6452L30.8476 35.2554ZM30.6288 35.0547C30.5938 34.9221 30.6177 34.7805 30.6701 34.6936L29.3857 33.9188C29.1076 34.38 29.0481 34.9437 29.1784 35.4374L30.6288 35.0547ZM30.6701 34.6936C31.1445 33.9073 31.1445 32.9828 30.6701 32.1965L29.3857 32.9714C29.5726 33.2811 29.5726 33.6091 29.3857 33.9188L30.6701 34.6936ZM30.6268 32.1324C30.5822 32.0733 30.5704 31.9978 30.6009 31.9206L29.2063 31.3684C28.9889 31.9175 29.0604 32.5466 29.4291 33.0355L30.6268 32.1324ZM30.6288 31.8359C30.6465 31.7688 30.713 31.6838 30.8166 31.647L30.3145 30.2335C29.7569 30.4316 29.326 30.8939 29.1784 31.4531L30.6288 31.8359ZM30.8687 31.6262C31.7251 31.2477 32.2658 30.5171 32.3831 29.6285L30.896 29.4323C30.848 29.7963 30.6456 30.0848 30.2623 30.2543L30.8687 31.6262ZM32.3822 29.6349C32.4117 29.4257 32.6254 29.2238 32.8793 29.2238V27.7238C31.8934 27.7238 31.0326 28.4608 30.8968 29.4259L32.3822 29.6349ZM33.4991 29.3018C34.2519 29.3018 34.9429 28.975 35.4094 28.4778L34.3156 27.4514C34.1209 27.6588 33.8208 27.8018 33.4991 27.8018V29.3018ZM35.3996 28.4881C35.4873 28.3981 35.6355 28.3333 35.8084 28.3333V26.8333C35.2891 26.8333 34.7334 27.0222 34.3252 27.4411L35.3996 28.4881ZM33.4991 27.8018H33.4958V29.3018H33.4991V27.8018ZM33.4958 27.8018C33.4295 27.8018 33.3976 27.8014 33.3705 27.7993C33.348 27.7975 33.3456 27.7954 33.353 27.7978L32.9014 29.2282C33.1516 29.3072 33.3893 29.3018 33.4958 29.3018V27.8018ZM33.1272 27.763C33.1646 27.763 33.1902 27.7673 33.1964 27.7684C33.1998 27.769 33.2001 27.7693 33.1964 27.7684C33.192 27.7675 33.1873 27.7662 33.1761 27.7636L32.8304 29.2232C32.8552 29.2291 32.9831 29.263 33.1272 29.263V27.763ZM33.1761 27.7636C33.1512 27.7577 33.0234 27.7238 32.8793 27.7238V29.2238C32.8419 29.2238 32.8162 29.2195 32.8101 29.2184C32.8063 29.2176 32.8066 29.2178 32.8101 29.2184C32.8144 29.2194 32.8192 29.2206 32.8304 29.2232L33.1761 27.7636ZM32.8793 39.1663H32.8814L32.8815 37.6663H32.8793V39.1663ZM32.8814 39.1663C32.9444 39.1663 33.1924 39.1765 33.4482 39.0553L32.8062 37.6997C32.8557 37.6762 32.8974 37.6689 32.9162 37.6666C32.9242 37.6657 32.9269 37.6658 32.9207 37.666C32.9132 37.6662 32.9038 37.6663 32.8815 37.6663L32.8814 39.1663ZM38.4579 39.1275C38.4211 39.1275 38.3958 39.1233 38.3899 39.1222C38.3861 39.1213 38.3865 39.1216 38.3899 39.1222C38.3943 39.1231 38.3993 39.1244 38.4105 39.1271L38.7533 37.6667C38.7282 37.6609 38.6012 37.6275 38.4579 37.6275V39.1275ZM38.4105 39.1271C38.4355 39.1329 38.5626 39.1663 38.7059 39.1663V37.6663C38.7427 37.6663 38.768 37.6705 38.7739 37.6716C38.7773 37.6722 38.7777 37.6725 38.7739 37.6716C38.7695 37.6707 38.7645 37.6694 38.7533 37.6667L38.4105 39.1271ZM36.4519 39.0836L37.7676 45.1587L39.2337 44.8413L37.918 38.7661L36.4519 39.0836ZM38.9092 44.371L37.2842 43.3155L36.4671 44.5734L38.0921 45.629L38.9092 44.371ZM34.3143 43.3067L32.6086 44.3622L33.3979 45.6378L35.1036 44.5822L34.3143 43.3067ZM35.2631 44.4499C35.2322 44.4837 35.2055 44.5062 35.1931 44.5163C35.179 44.5278 35.1683 44.5354 35.1635 44.5387C35.1544 44.545 35.152 44.5461 35.1607 44.5409C35.1777 44.531 35.2087 44.514 35.2558 44.49C35.3483 44.4427 35.4706 44.3845 35.5976 44.3259C35.723 44.2679 35.8467 44.2125 35.9394 44.1713C35.9857 44.1508 36.0239 44.134 36.0505 44.1223C36.0637 44.1165 36.0741 44.112 36.081 44.109C36.0845 44.1075 36.0871 44.1063 36.0888 44.1056C36.0896 44.1052 36.0903 44.1049 36.0907 44.1048C36.0906 44.1048 36.0908 44.1047 36.0907 44.1048C36.0907 44.1048 36.0911 44.1046 35.7923 43.4167C35.4935 42.7288 35.4935 42.7288 35.4935 42.7288C35.4933 42.7289 35.4928 42.7291 35.4925 42.7292C35.492 42.7294 35.4912 42.7298 35.4901 42.7302C35.4881 42.7311 35.4851 42.7324 35.4812 42.7341C35.4735 42.7375 35.4623 42.7424 35.4482 42.7486C35.4199 42.761 35.3796 42.7787 35.331 42.8003C35.2341 42.8433 35.1032 42.902 34.9686 42.9641C34.8356 43.0256 34.6924 43.0934 34.5737 43.154C34.5152 43.1839 34.4541 43.2163 34.4 43.2482C34.3802 43.2598 34.2543 43.33 34.1549 43.439L35.2631 44.4499ZM35.4638 44.0909L36.5472 44.6187L37.2041 43.2702L36.1208 42.7424L35.4638 44.0909ZM33.7398 45.1411L34.9039 39.066L33.4307 38.7837L32.2666 44.8589L33.7398 45.1411ZM38.1967 33.4498C38.1967 34.7399 37.1313 35.8056 35.7923 35.8056V37.3056C37.9376 37.3056 39.6967 35.5902 39.6967 33.4498H38.1967ZM35.7923 35.8056C34.4534 35.8056 33.3879 34.7399 33.3879 33.4498H31.8879C31.8879 35.5902 33.647 37.3056 35.7923 37.3056V35.8056ZM33.3879 33.4498C33.3879 32.1597 34.4534 31.094 35.7923 31.094V29.594C33.647 29.594 31.8879 31.3094 31.8879 33.4498H33.3879ZM35.7923 31.094C37.1313 31.094 38.1967 32.1597 38.1967 33.4498H39.6967C39.6967 31.3094 37.9376 29.594 35.7923 29.594V31.094ZM21.584 22.8333H33.5007V21.3333H21.584V22.8333ZM21.584 27.4167H29.834V25.9167H21.584V27.4167ZM21.584 32H27.084V30.5H21.584V32ZM21.584 36.5833H27.084V35.0833H21.584V36.5833Z" fill="url(#paint0_linear_23_350)"/>
<path d="M37.2159 11L37.2176 10.25H37.2159V11ZM30.5 44.7501C30.9142 44.7501 31.25 44.4143 31.25 44.0001C31.25 43.5858 30.9142 43.2501 30.5 43.2501V44.7501ZM38.25 26C38.25 26.4142 38.5858 26.75 39 26.75C39.4142 26.75 39.75 26.4142 39.75 26H38.25ZM37.2141 11.75C37.5007 11.7507 37.768 11.8595 37.959 12.0418L38.9945 10.9566C38.5169 10.5008 37.8767 10.2515 37.2176 10.25L37.2141 11.75ZM17.0406 12.0423C17.2325 11.8594 17.5004 11.7501 17.7854 11.7501V10.2501C17.1239 10.2501 16.4835 10.501 16.0062 10.9559L17.0406 12.0423ZM16.75 12.6999C16.75 12.4614 16.8496 12.2238 17.0406 12.0423L16.0062 10.9559C15.5274 11.4114 15.25 12.0372 15.25 12.6999H16.75ZM17.0413 42.9586C16.8503 42.777 16.75 42.5387 16.75 42.3002H15.25C15.25 42.9629 15.528 43.5895 16.007 44.045L17.0413 42.9586ZM17.7853 43.2501C17.5003 43.2501 17.2332 43.1415 17.0413 42.9586L16.007 44.045C16.4841 44.4998 17.1238 44.7501 17.7853 44.7501V43.2501ZM17.7854 11.7501L37.2159 11.75V10.25L17.7854 10.2501V11.7501ZM16.75 42.3002V12.6999H15.25V42.3002H16.75ZM26.192 43.2501H17.7853V44.7501H26.192V43.2501ZM30.5 43.2501H26.192V44.7501H30.5V43.2501ZM37.959 12.0418C38.1499 12.2235 38.25 12.4617 38.25 12.6999H39.75C39.75 12.0374 39.4725 11.4119 38.9945 10.9566L37.959 12.0418ZM39.75 26V12.6999H38.25V26H39.75Z" fill="url(#paint1_linear_23_350)"/>
</g>
<defs>
<linearGradient id="paint0_linear_23_350" x1="18.1468" y1="13.0437" x2="52.1446" y2="27.0874" gradientUnits="userSpaceOnUse">
<stop stop-color="#7381FD"/>
<stop offset="1" stop-color="#76C7FF"/>
</linearGradient>
<linearGradient id="paint1_linear_23_350" x1="12.2114" y1="5.84079" x2="51.2039" y2="21.1504" gradientUnits="userSpaceOnUse">
<stop stop-color="#7381FD"/>
<stop offset="1" stop-color="#76C7FF"/>
</linearGradient>
<clipPath id="clip0_23_350">
<rect width="55" height="55" fill="white"/>
</clipPath>
</defs>
</svg>
