<svg width="55" height="55" viewBox="0 0 55 55" fill="none" xmlns="http://www.w3.org/2000/svg">
<g clip-path="url(#clip0_23_197)">
<path d="M0 15C0 6.71573 6.71573 0 15 0H40C48.2843 0 55 6.71573 55 15V40C55 48.2843 48.2843 55 40 55H15C6.71573 55 0 48.2843 0 40V15Z" fill="#F6FAFD"/>
<path d="M36.5414 36.0733H36.4579C35.5561 36.0733 34.8225 35.3431 34.8225 34.4454C34.8225 33.5478 35.5563 32.8175 36.4579 32.8175C37.3598 32.8175 38.0934 33.5478 38.0934 34.4454C38.0934 34.6732 38.2781 34.8579 38.506 34.8579C38.7338 34.8579 38.9185 34.6732 38.9185 34.4454C38.9185 33.2334 38.031 32.2267 36.8704 32.03V31.5174C36.8704 31.2896 36.6858 31.105 36.4579 31.105C36.2301 31.105 36.0454 31.2896 36.0454 31.5174V32.03C34.8848 32.2264 33.9973 33.2334 33.9973 34.4454C33.9973 35.7978 35.1011 36.898 36.4579 36.898H36.5413C37.4432 36.898 38.1768 37.6283 38.1768 38.5259C38.1768 39.4235 37.4429 40.1535 36.5413 40.1535C35.6394 40.1535 34.9058 39.4232 34.9058 38.5259C34.9058 38.2981 34.7211 38.1134 34.4933 38.1134C34.2654 38.1134 34.0807 38.2981 34.0807 38.5259C34.0807 39.7088 34.9254 40.6992 36.0453 40.9284V41.4536C36.0453 41.6814 36.23 41.866 36.4579 41.866C36.6857 41.866 36.8704 41.6814 36.8704 41.4536V40.954C38.0718 40.7929 39.0018 39.767 39.0018 38.5262C39.0018 37.1735 37.8981 36.0733 36.5414 36.0733Z" fill="url(#paint0_linear_23_197)" stroke="url(#paint1_linear_23_197)" stroke-width="0.4"/>
<path d="M18.7261 32.6579C19.7641 32.6579 20.7336 33.1843 21.3857 34.1014C21.5175 34.2867 21.7747 34.331 21.9608 34.1987C22.1464 34.0669 22.1901 33.8092 22.0581 33.6237C21.2491 32.4859 20.0347 31.833 18.7261 31.833C16.8608 31.833 15.2765 33.1696 14.7158 35.0167H13.8337C13.6059 35.0167 13.4212 35.2013 13.4212 35.4291C13.4212 35.6569 13.6059 35.8416 13.8337 35.8416H14.5417C14.515 36.0527 14.4963 36.2664 14.4963 36.4855C14.4963 36.7723 14.5233 37.0522 14.5688 37.3248H13.8334C13.6056 37.3248 13.4209 37.5094 13.4209 37.7372C13.4209 37.965 13.6056 38.1497 13.8334 38.1497H14.7808C15.3912 39.8944 16.9272 41.1378 18.7257 41.1378C20.0345 41.1378 21.2488 40.4852 22.0577 39.3471C22.1897 39.1616 22.146 38.9041 21.9605 38.7721C21.7746 38.6401 21.5174 38.6838 21.3854 38.8693C20.7332 39.7868 19.764 40.3129 18.7258 40.3129C17.3791 40.3129 16.2163 39.4273 15.6642 38.1494H17.8578C18.0857 38.1494 18.2704 37.9647 18.2704 37.7369C18.2704 37.5091 18.0857 37.3245 17.8578 37.3245H15.4062C15.3521 37.0541 15.321 36.774 15.321 36.4852C15.321 36.2655 15.3412 36.0512 15.3731 35.8412H17.8578C18.0857 35.8412 18.2704 35.6566 18.2704 35.4288C18.2704 35.201 18.0857 35.0163 17.8578 35.0163H15.5825C16.0963 33.6332 17.3113 32.6579 18.7261 32.6579Z" fill="url(#paint2_linear_23_197)" stroke="url(#paint3_linear_23_197)" stroke-width="0.4"/>
<path d="M37.1852 13.6465C35.7502 13.6465 34.5825 14.8139 34.5825 16.2471C34.5825 16.2624 34.5782 16.8333 34.5088 17.6363H33.6245C33.3966 17.6363 33.2119 17.821 33.2119 18.0488C33.2119 18.2766 33.3966 18.4612 33.6245 18.4612H34.4208C34.2591 19.7333 33.9354 21.2557 33.2873 22.175C33.1984 22.301 33.1874 22.4658 33.2582 22.6024C33.329 22.739 33.4702 22.825 33.6244 22.825L38.7936 22.8247C39.0214 22.8247 39.2061 22.6401 39.2061 22.4123C39.2061 22.1845 39.0214 21.9998 38.7936 21.9998H34.3399C34.8491 20.9512 35.1144 19.5948 35.2536 18.4607H37.1851C37.413 18.4607 37.5977 18.276 37.5977 18.0482C37.5977 17.8205 37.413 17.6358 37.1851 17.6358H35.3385C35.4026 16.8618 35.407 16.3104 35.4072 16.248C35.4072 15.2678 36.2047 14.4705 37.1852 14.4705C38.1653 14.4705 38.9628 15.2678 38.9628 16.248C38.9628 16.4758 39.1475 16.6605 39.3753 16.6605C39.6032 16.6605 39.7879 16.4758 39.7879 16.248C39.7876 14.8137 38.6202 13.6465 37.1852 13.6465Z" fill="url(#paint4_linear_23_197)" stroke="url(#paint5_linear_23_197)" stroke-width="0.4"/>
<path d="M21.3906 14.408L18.5002 17.7559L15.6099 14.408C15.4608 14.2357 15.2005 14.2165 15.0282 14.3654C14.8558 14.5141 14.8366 14.7744 14.9856 14.947L17.6001 17.9754L16.6809 17.9751C16.4531 17.9751 16.2684 18.1597 16.2684 18.3875C16.2684 18.6153 16.4531 18.8 16.6809 18.8H18.0875V20.5464H16.6809C16.4531 20.5464 16.2684 20.7311 16.2684 20.9589C16.2684 21.1867 16.4531 21.3713 16.6809 21.3713H18.0875V22.8086C18.0875 23.0364 18.2721 23.2211 18.5 23.2211C18.7278 23.2211 18.9125 23.0364 18.9125 22.8086V21.3713H20.3191C20.5469 21.3713 20.7316 21.1867 20.7316 20.9589C20.7316 20.7311 20.5469 20.5464 20.3191 20.5464H18.9125V18.8H20.3191C20.5469 18.8 20.7316 18.6153 20.7316 18.3875C20.7316 18.1597 20.5469 17.9751 20.3191 17.9751H19.4002L22.0146 14.9467C22.1634 14.7744 22.1444 14.5141 21.9721 14.3652C21.7994 14.2165 21.5391 14.236 21.3906 14.408Z" fill="url(#paint6_linear_23_197)" stroke="url(#paint7_linear_23_197)" stroke-width="0.4"/>
<path d="M18.5 25.9854C22.6421 25.9854 26 22.6275 26 18.4854C26 14.3433 22.6421 10.9854 18.5 10.9854C14.3579 10.9854 11 14.3433 11 18.4854C11 22.6275 14.3579 25.9854 18.5 25.9854Z" stroke="url(#paint8_linear_23_197)" stroke-width="1.5"/>
<path d="M36.5 25.9854C40.6421 25.9854 44 22.6275 44 18.4854C44 14.3433 40.6421 10.9854 36.5 10.9854C32.3579 10.9854 29 14.3433 29 18.4854C29 22.6275 32.3579 25.9854 36.5 25.9854Z" stroke="url(#paint9_linear_23_197)" stroke-width="1.5"/>
<path d="M36.5 43.9854C40.6421 43.9854 44 40.6276 44 36.4854C44 32.3433 40.6421 28.9854 36.5 28.9854C32.3579 28.9854 29 32.3433 29 36.4854C29 40.6276 32.3579 43.9854 36.5 43.9854Z" stroke="url(#paint10_linear_23_197)" stroke-width="1.5"/>
<path d="M18.5 43.9854C22.6421 43.9854 26 40.6276 26 36.4854C26 32.3433 22.6421 28.9854 18.5 28.9854C14.3579 28.9854 11 32.3433 11 36.4854C11 40.6276 14.3579 43.9854 18.5 43.9854Z" stroke="url(#paint11_linear_23_197)" stroke-width="1.5"/>
</g>
<defs>
<linearGradient id="paint0_linear_23_197" x1="33.3766" y1="29.7297" x2="41.9992" y2="31.9468" gradientUnits="userSpaceOnUse">
<stop stop-color="#7381FD"/>
<stop offset="1" stop-color="#76C7FF"/>
</linearGradient>
<linearGradient id="paint1_linear_23_197" x1="33.3766" y1="29.7297" x2="41.9992" y2="31.9468" gradientUnits="userSpaceOnUse">
<stop stop-color="#7381FD"/>
<stop offset="1" stop-color="#76C7FF"/>
</linearGradient>
<linearGradient id="paint2_linear_23_197" x1="12.3402" y1="30.6438" x2="24.9622" y2="37.1789" gradientUnits="userSpaceOnUse">
<stop stop-color="#7381FD"/>
<stop offset="1" stop-color="#76C7FF"/>
</linearGradient>
<linearGradient id="paint3_linear_23_197" x1="12.3402" y1="30.6438" x2="24.9622" y2="37.1789" gradientUnits="userSpaceOnUse">
<stop stop-color="#7381FD"/>
<stop offset="1" stop-color="#76C7FF"/>
</linearGradient>
<linearGradient id="paint4_linear_23_197" x1="32.3963" y1="12.4734" x2="42.8373" y2="16.6093" gradientUnits="userSpaceOnUse">
<stop stop-color="#7381FD"/>
<stop offset="1" stop-color="#76C7FF"/>
</linearGradient>
<linearGradient id="paint5_linear_23_197" x1="32.3963" y1="12.4734" x2="42.8373" y2="16.6093" gradientUnits="userSpaceOnUse">
<stop stop-color="#7381FD"/>
<stop offset="1" stop-color="#76C7FF"/>
</linearGradient>
<linearGradient id="paint6_linear_23_197" x1="13.9886" y1="13.1205" x2="25.0626" y2="18.063" gradientUnits="userSpaceOnUse">
<stop stop-color="#7381FD"/>
<stop offset="1" stop-color="#76C7FF"/>
</linearGradient>
<linearGradient id="paint7_linear_23_197" x1="13.9886" y1="13.1205" x2="25.0626" y2="18.063" gradientUnits="userSpaceOnUse">
<stop stop-color="#7381FD"/>
<stop offset="1" stop-color="#76C7FF"/>
</linearGradient>
<linearGradient id="paint8_linear_23_197" x1="9.13966" y1="9.06837" x2="30.2421" y2="20.7357" gradientUnits="userSpaceOnUse">
<stop stop-color="#7381FD"/>
<stop offset="1" stop-color="#76C7FF"/>
</linearGradient>
<linearGradient id="paint9_linear_23_197" x1="27.1397" y1="9.06837" x2="48.2421" y2="20.7357" gradientUnits="userSpaceOnUse">
<stop stop-color="#7381FD"/>
<stop offset="1" stop-color="#76C7FF"/>
</linearGradient>
<linearGradient id="paint10_linear_23_197" x1="27.1397" y1="27.0684" x2="48.2421" y2="38.7357" gradientUnits="userSpaceOnUse">
<stop stop-color="#7381FD"/>
<stop offset="1" stop-color="#76C7FF"/>
</linearGradient>
<linearGradient id="paint11_linear_23_197" x1="9.13966" y1="27.0684" x2="30.2421" y2="38.7357" gradientUnits="userSpaceOnUse">
<stop stop-color="#7381FD"/>
<stop offset="1" stop-color="#76C7FF"/>
</linearGradient>
<clipPath id="clip0_23_197">
<rect width="55" height="55" fill="white"/>
</clipPath>
</defs>
</svg>
