<?xml version="1.0" standalone="no"?>
<!DOCTYPE svg PUBLIC "-//W3C//DTD SVG 20010904//EN"
 "http://www.w3.org/TR/2001/REC-SVG-20010904/DTD/svg10.dtd">
<svg version="1.0" xmlns="http://www.w3.org/2000/svg"
 width="700.000000pt" height="700.000000pt" viewBox="0 0 700.000000 700.000000"
 preserveAspectRatio="xMidYMid meet">
<metadata>
Created by potrace 1.14, written by Peter Selinger 2001-2017
</metadata>
<g transform="translate(0.000000,700.000000) scale(0.100000,-0.100000)"
fill="#000000" stroke="none">
<path d="M670 6964 c-72 -15 -172 -50 -210 -73 -136 -81 -205 -140 -280 -242
-52 -70 -123 -212 -134 -269 -2 -14 -9 -45 -15 -70 -17 -71 -7 -283 18 -366
45 -158 149 -314 274 -414 75 -60 218 -133 307 -156 71 -19 282 -25 360 -11
318 59 576 317 647 647 4 19 8 91 8 160 0 149 -17 223 -81 355 -107 222 -317
386 -560 441 -61 13 -269 12 -334 -2z"/>
<path d="M2305 5389 c-37 -7 -62 -12 -122 -25 -45 -9 -177 -75 -237 -118 -174
-124 -301 -330 -334 -541 -15 -92 -11 -3937 3 -4020 31 -174 120 -339 249
-458 51 -48 158 -120 211 -142 22 -10 47 -21 56 -25 24 -12 94 -30 158 -41 59
-10 3938 -13 4001 -3 347 53 626 322 689 664 7 36 9 741 8 2055 l-2 2000 -32
92 c-80 232 -221 391 -437 496 -33 16 -67 30 -76 32 -8 2 -42 11 -75 21 -56
16 -183 18 -2040 19 -1089 1 -1998 -2 -2020 -6z"/>
</g>
</svg>
